<svg width="25" height="25" viewBox="0 0 25 25" fill="none" xmlns="http://www.w3.org/2000/svg">
<path d="M10.875 18.125H13.2917V13.2917H18.125V10.875H13.2917V6.04167H10.875V10.875H6.04167V13.2917H10.875V18.125ZM12.0833 24.1667C10.4118 24.1667 8.84097 23.8493 7.37083 23.2145C5.9007 22.5805 4.62188 21.7198 3.53438 20.6323C2.44688 19.5448 1.58614 18.266 0.952167 16.7958C0.317389 15.3257 0 13.7549 0 12.0833C0 10.4118 0.317389 8.84097 0.952167 7.37083C1.58614 5.9007 2.44688 4.62188 3.53438 3.53438C4.62188 2.44688 5.9007 1.58574 7.37083 0.950958C8.84097 0.316986 10.4118 0 12.0833 0C13.7549 0 15.3257 0.316986 16.7958 0.950958C18.266 1.58574 19.5448 2.44688 20.6323 3.53438C21.7198 4.62188 22.5805 5.9007 23.2145 7.37083C23.8493 8.84097 24.1667 10.4118 24.1667 12.0833C24.1667 13.7549 23.8493 15.3257 23.2145 16.7958C22.5805 18.266 21.7198 19.5448 20.6323 20.6323C19.5448 21.7198 18.266 22.5805 16.7958 23.2145C15.3257 23.8493 13.7549 24.1667 12.0833 24.1667ZM12.0833 21.75C14.7819 21.75 17.0677 20.8135 18.9406 18.9406C20.8135 17.0677 21.75 14.7819 21.75 12.0833C21.75 9.38472 20.8135 7.09896 18.9406 5.22604C17.0677 3.35313 14.7819 2.41667 12.0833 2.41667C9.38472 2.41667 7.09896 3.35313 5.22604 5.22604C3.35313 7.09896 2.41667 9.38472 2.41667 12.0833C2.41667 14.7819 3.35313 17.0677 5.22604 18.9406C7.09896 20.8135 9.38472 21.75 12.0833 21.75Z" fill="black"/>
</svg>
