<svg width="25" height="25" viewBox="0 0 25 25" fill="none" xmlns="http://www.w3.org/2000/svg">
<path d="M6.0425 10.8765V13.2935H18.1275V10.8765H6.0425ZM12.085 0C5.41408 0 0 5.41408 0 12.085C0 18.7559 5.41408 24.17 12.085 24.17C18.7559 24.17 24.17 18.7559 24.17 12.085C24.17 5.41408 18.7559 0 12.085 0ZM12.085 21.753C6.75552 21.753 2.417 17.4145 2.417 12.085C2.417 6.75552 6.75552 2.417 12.085 2.417C17.4145 2.417 21.753 6.75552 21.753 12.085C21.753 17.4145 17.4145 21.753 12.085 21.753Z" fill="black"/>
</svg>
