<svg width="35" height="35" viewBox="0 0 35 35" fill="none" xmlns="http://www.w3.org/2000/svg">
<path d="M11.5938 2.89844V7.24609M23.1875 2.89844V7.24609" stroke="white" stroke-width="2.17383" stroke-miterlimit="10" stroke-linecap="round" stroke-linejoin="round"/>
<path d="M31.8818 31.8828L30.4326 30.4336M26.3748 31.0133C27.6047 31.0133 28.7843 30.5247 29.654 29.655C30.5237 28.7853 31.0123 27.6057 31.0123 26.3758C31.0123 25.1458 30.5237 23.9663 29.654 23.0966C28.7843 22.2269 27.6047 21.7383 26.3748 21.7383C25.1449 21.7383 23.9653 22.2269 23.0956 23.0966C22.2259 23.9663 21.7373 25.1458 21.7373 26.3758C21.7373 27.6057 22.2259 28.7853 23.0956 29.655C23.9653 30.5247 25.1449 31.0133 26.3748 31.0133Z" stroke="white" stroke-width="2.17383" stroke-linecap="round" stroke-linejoin="round"/>
<path d="M5.07129 13.1734H29.708M19.3751 31.8828H11.5928C6.52051 31.8828 4.34668 28.9844 4.34668 24.6367V12.3184C4.34668 7.9707 6.52051 5.07227 11.5928 5.07227H23.1865C28.2588 5.07227 30.4326 7.9707 30.4326 12.3184V18.8398" stroke="white" stroke-width="2.17383" stroke-miterlimit="10" stroke-linecap="round" stroke-linejoin="round"/>
<path d="M17.3821 19.8542H17.3966M12.0186 19.8542H12.033M12.0186 24.2019H12.033" stroke="white" stroke-width="2.89843" stroke-linecap="round" stroke-linejoin="round"/>
</svg>
