<svg width="29" height="30" viewBox="0 0 29 30" fill="none" xmlns="http://www.w3.org/2000/svg">
<path d="M28.9999 15.1482C28.9999 14.1729 28.9135 13.2469 28.7653 12.3457H14.8147V17.9136H22.8024C22.4443 19.7408 21.3949 21.284 19.8394 22.3334V26.0371H24.6048C27.395 23.4568 28.9999 19.6544 28.9999 15.1482Z" fill="#4285F4"/>
<path d="M14.8148 29.6298C18.8148 29.6298 22.1605 28.2964 24.6049 26.0372L19.8395 22.3335C18.5061 23.2223 16.8148 23.7656 14.8148 23.7656C10.9506 23.7656 7.67896 21.1606 6.50612 17.6421H1.59253V21.4569C4.02463 26.2964 9.02464 29.6298 14.8148 29.6298Z" fill="#34A853"/>
<path d="M6.50618 17.642C6.19754 16.7531 6.03704 15.8025 6.03704 14.8148C6.03704 13.8272 6.20988 12.8766 6.50618 11.9877V8.17285H1.59259C0.580246 10.1729 0 12.4198 0 14.8148C0 17.2099 0.580246 19.4568 1.59259 21.4568L6.50618 17.642Z" fill="#FBBC05"/>
<path d="M14.8148 5.8642C17 5.8642 18.9506 6.61729 20.4938 8.08643L24.716 3.8642C22.1604 1.46914 18.8148 0 14.8148 0C9.02464 0 4.02463 3.33334 1.59253 8.17285L6.50612 11.9877C7.67896 8.46915 10.9506 5.8642 14.8148 5.8642Z" fill="#EA4335"/>
</svg>
