<svg width="111" height="59" viewBox="0 0 111 59" fill="none" xmlns="http://www.w3.org/2000/svg">
<g clip-path="url(#clip0_506_2417)">
<path d="M36.743 27.5786C35.092 29.9242 33.6129 32.3863 32.3176 34.9455C30.0045 39.4455 27.7632 43.9828 25.4845 48.4999C25.0942 49.2719 24.7498 50.1817 23.6822 50.1358C22.6146 50.0899 22.3018 49.1916 21.9603 48.3966C19.2856 42.2551 16.6367 36.1021 13.9476 29.9663C13.3392 28.5715 12.6102 27.2284 11.9042 25.7935C11.5283 26.2728 11.6545 26.6918 11.6574 27.0792C11.6574 32.773 11.6718 38.4659 11.7005 44.1578C11.7005 46.7149 12.1596 47.2946 14.6277 47.9805C15.2017 48.1412 15.6465 48.3852 15.7585 49.0108C15.8164 49.282 15.7928 49.5644 15.6907 49.8222C15.5886 50.0801 15.4124 50.302 15.1845 50.4601C14.4871 50.9939 13.7294 51.4243 12.8082 51.4014C10.2002 51.3094 7.58896 51.413 4.99642 51.7113C3.93597 51.8172 2.87575 51.5086 2.03764 50.8504C1.82216 50.7169 1.65321 50.52 1.55405 50.2867C1.45488 50.0535 1.43031 49.7952 1.4837 49.5475C1.5985 48.9735 2.05772 48.9476 2.53412 48.8759C4.41389 48.5889 5.17149 47.9375 5.21454 46.0347C5.31211 41.8045 5.25476 37.5657 5.26337 33.3327C5.26337 32.7271 4.91037 32.3282 4.53154 31.9207C3.3635 30.6694 2.96741 29.1599 3.61887 27.6159C5.30923 23.6267 5.46996 19.5286 5.07392 15.2754C4.82137 12.5576 3.63901 10.652 1.30293 9.34624C0.757656 9.03916 0.0315774 8.8268 0.154982 8.00889C0.278387 7.19097 0.975766 7.14792 1.58992 6.96999C3.63327 6.39602 5.75407 6.21807 7.65393 7.09912C10.6386 8.4824 13.5487 7.96009 16.4903 7.26845C18.3988 6.82075 20.1264 7.08191 21.7221 8.1782C22.8126 8.93011 22.936 9.59018 22.0091 10.5286C21.1682 11.3896 21.1309 12.2649 21.5757 13.2694C23.4411 17.4785 25.3094 21.6877 27.1806 25.8968C27.3614 26.3015 27.5221 26.8238 28.0588 26.8467C28.5954 26.8697 28.7734 26.3216 28.98 25.9399C31.3218 21.6121 33.654 17.2767 35.9767 12.9336C36.499 11.9664 36.3699 11.0854 35.5548 10.3507C35.1502 9.98048 34.7169 9.64759 34.2893 9.3032C33.7153 8.84402 33.7526 8.51684 34.4786 8.28438C37.1247 7.44064 39.7707 7.07042 42.322 8.53406C43.5963 9.26301 44.6868 9.13961 45.8921 8.34753C48.0991 6.88963 50.3606 6.98434 51.962 8.47668C52.4728 8.95308 52.932 9.48112 52.7368 10.256C52.5589 10.9648 51.9189 11.0854 51.342 11.1858C50.0248 11.4097 49.425 12.2793 49.4106 13.4817C49.3676 16.8969 49.3877 20.312 49.4365 23.7243C49.4594 25.2511 50.1195 26.4909 51.2818 27.5413C52.4441 28.5916 52.3494 29.1685 50.9948 29.9405C49.9473 30.5374 49.5599 31.3754 49.5599 32.5234C49.5828 36.5412 49.5598 40.5389 49.6144 44.5481C49.6459 46.7005 50.3835 47.2917 52.4842 47.0535C53.7384 46.9129 54.0943 47.3405 53.6954 48.5516C52.8344 51.1345 49.9157 52.5694 46.9626 51.8405C46.4295 51.7101 45.9059 51.5433 45.3957 51.3411C44.6289 51.0311 43.806 50.8842 42.9793 50.9099C42.1526 50.9356 41.3404 51.1333 40.5944 51.4904C38.4534 52.4374 36.3125 52.2537 34.1859 51.4358C33.8125 51.3205 33.4729 51.1157 33.1968 50.839C32.9207 50.5624 32.7164 50.2225 32.6018 49.8488C32.2775 48.7008 32.8199 48.0924 33.9908 48.2474C36.2867 48.5344 36.8262 48.0035 36.9554 45.742C37.2424 40.691 37.096 35.6372 37.1419 30.5862C37.181 29.5682 37.0462 28.5511 36.743 27.5786ZM9.96707 28.8585C9.96707 28.5428 8.50919 27.0763 8.19063 27.0792C7.87208 27.0821 6.33095 28.5916 6.46871 28.8729C6.83156 29.6084 7.42802 30.2029 8.16478 30.5632C8.44029 30.7038 9.95846 29.2144 9.96707 28.8585ZM46.2509 28.8413C46.2509 28.517 44.7758 27.0706 44.4572 27.0821C44.1387 27.0935 42.609 28.6175 42.7496 28.8872C43.116 29.6207 43.7171 30.2106 44.4572 30.5632C44.7442 30.6952 46.2509 29.1886 46.2509 28.8413Z" fill="#02012B" stroke="#FCE300" stroke-width="0.286988" stroke-miterlimit="10"/>
<path d="M13.606 28.7352C13.87 29.3092 14.1255 29.8831 14.3723 30.4571C16.9838 36.5011 19.5696 42.5565 22.1812 48.6005C22.5141 49.3725 22.8211 50.3224 23.8514 50.3224C24.7382 50.3224 25.0453 49.4758 25.4098 48.7927C26.8591 46.0807 28.1821 43.3055 29.5309 40.539C31.4307 36.6331 33.3909 32.7415 35.948 28.7151L13.606 28.7352Z" fill="#F7C427" stroke="#FFE91F" stroke-width="0.823654" stroke-miterlimit="10"/>
<path d="M52.8459 47.1454C50.2343 47.8198 49.6115 46.3016 49.5656 44.2439C49.4824 40.3093 49.4881 36.3747 49.4766 32.4373C49.4766 31.2491 49.8813 30.2045 51.0149 29.6879C51.9333 29.2718 52.2404 28.8528 52.1629 28.4194H37.3428C37.3428 34.6987 37.3629 40.5217 37.3228 46.3389C37.3228 47.7739 36.3642 48.388 34.9379 48.4512C34.2089 48.4827 33.0639 47.4697 32.797 48.8501C32.5616 50.0669 33.4456 50.9881 34.5878 51.3497C36.5967 51.9782 38.7864 52.2107 40.6145 51.3268C42.7153 50.3022 44.3999 50.6294 46.4203 51.4043C49.5771 52.6096 52.6135 51.2149 53.6839 48.4712C54.0599 47.5529 54.1144 46.8153 52.8459 47.1454Z" fill="#F7C427" stroke="#FFE600" stroke-width="0.823654" stroke-miterlimit="10"/>
<path d="M14.7225 48.055C12.4007 48.0091 11.8038 46.2441 11.7694 44.5452C11.6632 39.2646 11.6919 33.9697 11.7062 28.3906H3.78248C3.61028 29.6763 3.91453 30.9276 5.39825 32.1703C5.59914 32.3367 5.57902 32.8217 5.57902 33.1575C5.60198 37.3504 5.65365 41.5433 5.59339 45.7362C5.5733 47.2744 5.0194 48.606 3.21137 48.893C2.68332 48.982 1.85393 48.5658 1.71331 49.4297C1.5899 50.1931 2.24711 50.701 2.86126 50.9823C3.54142 51.3037 4.35357 51.6395 5.05956 51.5563C7.73715 51.2434 10.3889 50.8819 13.1096 51.2061C13.7725 51.2836 14.5445 50.7613 15.2132 50.394C15.4825 50.2496 15.6965 50.02 15.8216 49.7412C15.9467 49.4624 15.976 49.15 15.9048 48.8528C15.7786 48.2703 15.2706 48.0665 14.7225 48.055Z" fill="#F7C427" stroke="#FFE600" stroke-width="0.823654" stroke-miterlimit="10"/>
<path d="M52.903 46.7665C50.2914 47.4438 49.6686 45.9256 49.6227 43.8651C49.5395 39.9333 49.5453 35.9959 49.5338 32.0613C49.5338 30.8703 49.9355 29.8285 51.072 29.3091C51.8727 28.9474 52.2056 28.583 52.2343 28.207H43.5386C43.8573 28.4329 44.1141 28.7353 44.2856 29.0863C44.4571 29.4373 44.5377 29.8257 44.52 30.2159V50.4428C45.1932 50.5846 45.8529 50.7844 46.4917 51.0397C49.6485 52.248 52.6878 50.8503 53.7582 48.1067C54.117 47.174 54.1715 46.4393 52.903 46.7665Z" fill="#D3942D"/>
<path d="M31.9593 28.0922L18.5972 28.0664C19.6877 30.7153 20.8385 33.2322 21.8889 35.8696C22.724 37.9761 23.6108 40.0252 24.5435 42.0599C26.7064 37.2464 29.1836 32.5804 31.9593 28.0922Z" fill="#D3942D"/>
<path d="M15.8616 48.5143C15.7353 47.9231 15.2417 47.7193 14.6935 47.7078C12.3718 47.659 11.7749 45.8941 11.7404 44.198C11.6371 38.9662 11.6629 33.7258 11.6773 28.207H8.82178V50.8188C10.2348 50.6978 11.6562 50.7132 13.0663 50.8647C13.7293 50.945 14.5012 50.4199 15.1699 50.0525C15.4393 49.909 15.6535 49.68 15.7787 49.4016C15.9039 49.1232 15.933 48.811 15.8616 48.5143Z" fill="#D3942D"/>
<path d="M1.60411 8.86408C3.9775 10.1527 5.33493 12.196 5.4612 14.8363C5.62766 18.0764 6.00357 21.4198 4.99051 24.5307C4.54281 25.9054 3.8885 27.2255 3.72492 28.5141H11.6601C11.6601 27.0533 11.6601 25.5754 11.6601 24.0687C12.4206 25.7533 13.0778 27.1681 13.6834 28.5141H35.9823C36.43 27.8052 36.8921 27.0964 37.3799 26.3818V28.5141H52.2258C52.1828 28.0836 51.7637 27.6388 51.1869 27.1595C50.6791 26.7586 50.2672 26.2493 49.9812 25.6689C49.6952 25.0885 49.5424 24.4516 49.5339 23.8047C49.4908 20.2977 49.5052 16.7907 49.5167 13.2808C49.5167 11.9521 50.016 10.9476 51.4739 10.6979C52.1368 10.5803 52.926 10.6032 52.9088 9.61599C52.9088 8.84686 52.3636 8.38768 51.7982 7.9859C49.7175 6.50504 47.6857 7.07328 45.8461 8.3676C44.6981 9.17403 43.9434 9.22856 42.6892 8.45944C40.0375 6.82648 37.2364 7.25982 34.048 8.35898C35.6494 9.75948 37.6182 10.5171 36.3066 12.8618C33.8902 17.1925 31.6029 21.5977 29.2898 25.9857C28.5637 27.3662 28.0098 27.4465 27.3497 25.9312C25.4384 21.5432 23.484 17.1724 21.5383 12.7958C21.1164 11.8459 21.0761 10.9734 21.9859 10.2646C23.4926 9.0908 22.4509 8.33603 21.4751 7.75919C20.6239 7.24508 19.6576 6.95189 18.6642 6.90628C17.6708 6.86067 16.6818 7.06408 15.787 7.49802C13.5829 8.51395 11.5884 8.4135 9.41016 7.44062C7.05232 6.35185 4.38685 6.12635 1.87961 6.80351C1.30563 6.95562 0.556607 6.95849 0.459032 7.68169C0.361456 8.4049 1.09327 8.57709 1.60411 8.86408Z" fill="#F60929" stroke="#FFE600" stroke-width="0.823654" stroke-miterlimit="10"/>
<path d="M32.2577 28.0924C32.3381 27.8341 32.2348 28.1727 32.3066 27.9431C32.3238 27.9144 32.3065 27.923 32.3266 27.8743C32.2922 27.7021 38.3534 17.0003 38.3534 16.8051L35.8279 13.6799C34.8321 15.5625 30.51 24.2496 29.5142 26.1322C28.7852 27.5126 27.686 27.7365 27.0288 26.2212C25.1146 21.8303 23.057 16.9859 21.1141 12.6094C20.6922 11.6595 21.0653 10.9334 21.975 10.2274C23.4817 9.05074 21.5761 7.9315 20.4913 7.59285C17.8337 6.7692 17.1134 7.52971 15.469 8.0348C15.4059 8.04969 15.3464 8.07702 15.2939 8.11517C15.0586 8.29023 13.1673 8.79533 11.52 8.50834V17.9961L18.2901 28.101H20.4941C20.6692 28.0665 25.1405 28.0866 25.3385 28.0866H31.9966L32.2577 28.0924Z" fill="#BA0028"/>
<path d="M44.8419 9.20839C44.1675 9.4265 41.972 8.39335 41.0278 8.026C37.9657 6.82927 37.6701 7.71032 34.0454 8.33308C35.6468 9.73071 37.6156 10.4884 36.304 12.8359C36.0027 13.3755 35.7099 13.9207 35.4115 14.4631C35.9766 14.5557 36.4886 14.8515 36.8511 15.2948C37.2136 15.7382 37.4018 16.2987 37.3802 16.871L37.7906 26.3674C37.7906 27.1422 37.7906 27.3288 37.805 28.0893H44.8419V9.20839Z" fill="#BA0028"/>
<path d="M11.5282 23.3914V8.51972C10.6845 8.36188 10.5066 8.359 9.90967 8.06628C9.70017 7.96583 8.97696 7.69608 8.76172 7.61572V28.715H11.6603C11.6603 27.2514 11.6603 25.7734 11.6603 24.2639C11.568 23.9824 11.5234 23.6875 11.5282 23.3914Z" fill="#BA0028"/>
<path d="M44.7067 26.5564L42.6206 28.6426L44.7067 30.7287L46.7929 28.6426L44.7067 26.5564Z" fill="white"/>
<path d="M8.41914 26.5574L6.33301 28.6436L8.41913 30.7297L10.5053 28.6435L8.41914 26.5574Z" fill="white"/>
<path d="M109.848 7.38037L94.4651 51.7343H75.9142L60.5288 7.38037L78.1958 15.1721L85.2212 37.89L92.218 15.1204L109.848 7.38037Z" fill="#0C1429" stroke="#FFE600" stroke-width="0.286988" stroke-miterlimit="10"/>
<path d="M109.848 7.36304L94.4651 51.7169H75.9142L60.5288 7.36304L78.1958 15.1519L85.2212 37.8698L92.218 15.1002L109.848 7.36304Z" fill="#0993C9" stroke="#FFE600" stroke-width="0.723208" stroke-miterlimit="10"/>
<path d="M89.9678 37.1209C90.0624 37.1564 90.1422 37.2227 90.1943 37.3092C90.2464 37.3956 90.2677 37.4972 90.2548 37.5973C90.2548 39.8301 90.2405 42.06 90.2548 44.2899C90.2547 44.3533 90.2499 44.4166 90.2405 44.4793H90.8144C90.8144 42.1834 90.8144 39.8875 90.8144 37.5916C90.7999 37.4968 90.8185 37.3999 90.8671 37.3173C90.9158 37.2347 90.9914 37.1714 91.0813 37.1382C91.307 37.0282 91.4876 36.8434 91.5922 36.6152C91.6969 36.3871 91.7192 36.1296 91.6553 35.8869C91.5851 35.6485 91.4395 35.4393 91.2402 35.2908C91.041 35.1423 90.7989 35.0624 90.5504 35.0632C90.3018 35.0543 90.0574 35.1288 89.8561 35.275C89.6548 35.4211 89.5082 35.6305 89.4398 35.8697C89.3677 36.1071 89.3811 36.3622 89.4776 36.5908C89.5741 36.8193 89.7475 37.0069 89.9678 37.1209ZM90.5131 35.4765C90.6987 35.4741 90.8778 35.5447 91.012 35.6729C91.1461 35.8012 91.2246 35.9769 91.2306 36.1624C91.2291 36.2542 91.2093 36.3448 91.1722 36.4288C91.1351 36.5128 91.0815 36.5885 91.0145 36.6514C90.9476 36.7143 90.8688 36.7631 90.7826 36.795C90.6965 36.8268 90.6048 36.841 90.5131 36.8368C90.3322 36.8368 90.1586 36.7654 90.0301 36.638C89.9017 36.5106 89.8287 36.3376 89.8272 36.1566C89.8287 35.9757 89.9017 35.8027 90.0301 35.6753C90.1586 35.548 90.3322 35.4765 90.5131 35.4765Z" fill="#F6F6F6" stroke="#FFE600" stroke-width="0.286988" stroke-miterlimit="10"/>
<path d="M79.7769 37.1209C79.8711 37.1568 79.9506 37.2232 80.0026 37.3096C80.0546 37.3959 80.0762 37.4973 80.0638 37.5973C80.0638 39.8301 80.0466 42.06 80.0638 44.2899C80.0698 44.3529 80.0698 44.4163 80.0638 44.4793H80.6378C80.6378 42.1834 80.6378 39.8875 80.6378 37.5916C80.6233 37.4968 80.6419 37.3999 80.6905 37.3173C80.7391 37.2347 80.8148 37.1714 80.9047 37.1382C81.1304 37.0282 81.311 36.8434 81.4156 36.6152C81.5203 36.3871 81.5426 36.1296 81.4787 35.8869C81.4085 35.6485 81.2628 35.4393 81.0636 35.2908C80.8644 35.1423 80.6223 35.0624 80.3738 35.0632C80.1252 35.0543 79.8808 35.1288 79.6795 35.275C79.4782 35.4211 79.3316 35.6305 79.2631 35.8697C79.1894 36.1054 79.2004 36.3595 79.2942 36.588C79.388 36.8165 79.5587 37.005 79.7769 37.1209ZM80.3221 35.4765C80.5077 35.4741 80.6868 35.5447 80.821 35.6729C80.9551 35.8012 81.0336 35.9769 81.0396 36.1624C81.0381 36.2542 81.0183 36.3448 80.9812 36.4288C80.9441 36.5128 80.8905 36.5885 80.8236 36.6514C80.7567 36.7143 80.6778 36.7631 80.5917 36.795C80.5055 36.8268 80.4138 36.841 80.3221 36.8368C80.2324 36.8372 80.1436 36.8199 80.0606 36.7859C79.9775 36.7519 79.902 36.7019 79.8383 36.6388C79.7746 36.5756 79.724 36.5005 79.6893 36.4178C79.6547 36.3351 79.6366 36.2463 79.6362 36.1566C79.6377 35.9767 79.7099 35.8046 79.8371 35.6774C79.9643 35.5501 80.1364 35.478 80.3164 35.4765H80.3221Z" fill="#F6F6F6" stroke="#FFE600" stroke-width="0.286988" stroke-miterlimit="10"/>
<path d="M96.5655 28.4538C96.4663 28.4704 96.3754 28.5194 96.3069 28.5931C96.2383 28.6668 96.1961 28.7611 96.1867 28.8613C96.1264 29.2574 96.0432 29.6505 95.9715 30.0437C95.2253 34.1514 94.4782 38.2582 93.7301 42.3641C93.6957 42.5592 93.6899 42.763 93.4919 42.8979C93.07 43.1849 92.6568 43.4718 92.2435 43.7818C90.2748 45.1995 88.3089 46.623 86.3373 48.0349C86.2404 48.1001 86.1581 48.1849 86.0958 48.2837C86.0335 48.3826 85.9927 48.4933 85.9757 48.6089C85.7748 49.7569 85.5653 50.9048 85.3644 52.0356L84.5752 51.9236C84.7703 50.8302 84.9913 49.7396 85.1492 48.6405C85.2353 48.0665 85.419 47.6188 85.97 47.3376C86.2122 47.1953 86.4434 47.0351 86.6616 46.8583C88.6093 45.4559 90.5589 44.0535 92.5104 42.6511C92.6416 42.5652 92.7534 42.453 92.8389 42.3216C92.9244 42.1901 92.9816 42.0424 93.0069 41.8877C93.7914 37.535 94.5834 33.1814 95.3831 28.8269C95.4219 28.7034 95.4178 28.5704 95.3714 28.4495C95.3251 28.3286 95.2392 28.227 95.1277 28.1611C94.8916 27.9785 94.7169 27.728 94.6271 27.4433C94.5373 27.1586 94.5368 26.8533 94.6255 26.5683C94.7215 26.2819 94.9004 26.0306 95.1396 25.8461C95.3787 25.6617 95.6672 25.5524 95.9686 25.5323C96.3402 25.4869 96.7154 25.5826 97.0199 25.8005C97.3244 26.0183 97.536 26.3425 97.613 26.7089C97.6974 27.0787 97.6355 27.4668 97.4403 27.7921C97.2451 28.1173 96.9316 28.3544 96.5655 28.4538ZM96.2786 26.1034C96.0363 26.0789 95.7931 26.1394 95.5905 26.2745C95.3879 26.4095 95.2385 26.6108 95.1679 26.8438C95.1483 26.9656 95.1529 27.09 95.1816 27.21C95.2103 27.33 95.2624 27.4431 95.335 27.5428C95.4075 27.6426 95.4991 27.727 95.6044 27.7912C95.7097 27.8555 95.8267 27.8983 95.9485 27.9171C96.0669 27.9438 96.1895 27.9462 96.3088 27.924C96.4281 27.9019 96.5416 27.8557 96.6425 27.7884C96.7435 27.721 96.8296 27.6338 96.8958 27.5321C96.962 27.4304 97.0069 27.3163 97.0276 27.1968C97.0521 27.0757 97.0519 26.9509 97.0273 26.8298C97.0026 26.7087 96.954 26.5938 96.8841 26.4918C96.8143 26.3899 96.7247 26.3029 96.6207 26.2362C96.5167 26.1695 96.4003 26.1243 96.2786 26.1034Z" fill="white" stroke="#FFE600" stroke-width="0.286988" stroke-miterlimit="10"/>
<path d="M74.4419 28.4539C74.5411 28.4705 74.6321 28.5195 74.7006 28.5932C74.7692 28.6669 74.8114 28.7612 74.8207 28.8614C74.8839 29.2575 74.9642 29.6506 75.036 30.0438C75.7821 34.1515 76.5293 38.2583 77.2774 42.3642C77.3147 42.5593 77.3176 42.7631 77.5156 42.898C77.9375 43.185 78.3507 43.4719 78.7639 43.7819C80.7327 45.1996 82.6986 46.6231 84.673 48.035C84.7692 48.1008 84.8507 48.1857 84.9125 48.2845C84.9742 48.3833 85.0148 48.4938 85.0318 48.609C85.2327 49.757 85.4421 50.9049 85.6459 52.0357L86.4351 51.9237C86.2371 50.8303 86.0161 49.7397 85.8611 48.6406C85.775 48.0666 85.5914 47.6189 85.0404 47.3377C84.7987 47.1961 84.5683 47.0359 84.3516 46.8584C82.4001 45.456 80.4495 44.0536 78.4999 42.6512C78.3688 42.5653 78.2569 42.4531 78.1714 42.3217C78.0859 42.1902 78.0288 42.0425 78.0035 41.8878C77.2209 37.5351 76.4298 33.1815 75.6301 28.827C75.5913 28.7035 75.5955 28.5705 75.6418 28.4496C75.6882 28.3287 75.774 28.2271 75.8854 28.1612C76.1208 27.9779 76.2947 27.7273 76.3839 27.4427C76.4731 27.1582 76.4734 26.8532 76.3848 26.5684C76.289 26.2825 76.1105 26.0314 75.8719 25.847C75.6333 25.6626 75.3454 25.5531 75.0446 25.5324C74.6725 25.4862 74.2966 25.5816 73.9915 25.7995C73.6864 26.0174 73.4743 26.3421 73.3973 26.709C73.3135 27.0784 73.3754 27.4658 73.5699 27.7908C73.7645 28.1158 74.0767 28.3533 74.4419 28.4539ZM74.7289 26.1035C74.9707 26.0797 75.2133 26.1405 75.4152 26.2755C75.6172 26.4106 75.7662 26.6114 75.8367 26.8439C75.8563 26.9657 75.8516 27.0901 75.8229 27.2101C75.7943 27.3301 75.7422 27.4432 75.6696 27.5429C75.5971 27.6427 75.5055 27.7271 75.4002 27.7913C75.2949 27.8556 75.178 27.8984 75.0561 27.9172C74.9379 27.9439 74.8155 27.9462 74.6964 27.924C74.5772 27.9019 74.4639 27.8557 74.3632 27.7883C74.2625 27.7209 74.1766 27.6337 74.1107 27.532C74.0448 27.4304 74.0003 27.3163 73.9799 27.1969C73.9551 27.0755 73.9549 26.9504 73.9796 26.829C74.0043 26.7076 74.0531 26.5924 74.1233 26.4903C74.1935 26.3882 74.2836 26.3014 74.3882 26.2349C74.4927 26.1684 74.6095 26.1237 74.7318 26.1035H74.7289Z" fill="white" stroke="#FFE600" stroke-width="0.286988" stroke-miterlimit="10"/>
</g>
<defs>
<clipPath id="clip0_506_2417">
<rect width="110.461" height="46.3227" fill="white" transform="translate(0 6)"/>
</clipPath>
</defs>
</svg>
