<?xml version="1.0" encoding="utf-8"?>
<!-- Generator: Adobe Illustrator 22.1.0, SVG Export Plug-In . SVG Version: 6.00 Build 0)  -->
<svg version="1.1" id="Layer_1" xmlns="http://www.w3.org/2000/svg" xmlns:xlink="http://www.w3.org/1999/xlink" x="0px" y="0px"
	 viewBox="0 0 1980 1080" style="enable-background:new 0 0 1980 1080;" xml:space="preserve">
<style type="text/css">
	.st0{fill:none;stroke:#FFFFFF;stroke-width:3.0207;stroke-miterlimit:10;}
	.st1{fill:none;stroke:#FFFFFF;stroke-width:3;stroke-miterlimit:10;}
</style>
<g>
	<g>
		<g>
			<path class="st0" d="M986.1,386.7c0,0-24.2-69.5,5-103.7c0,0,27.2,26.2,5,103.7c0,0,13.1,14.1,2,42.3c0,0,6,10.1-7,14.1
				c0,0-13.1-3-6-14.1C985.1,429,972.1,403.8,986.1,386.7z"/>
			<path class="st0" d="M1083.3,442.6c0,0-27.2,9.1-29.2,10.1c-2,1-8.1,1-8.1,1h-32.2c-6,0-16.1-11.1-16.1-11.1l-1-1"/>
			<path class="st0" d="M983.4,432.8c8.8,1.3,7.3,10.8,7.3,10.8"/>
			<path class="st0" d="M1000.5,431.8c0,0-8.8,1.7-8.8,9.8"/>
			<path class="st0" d="M983.6,420.4c0,0,6-5,16.1,0"/>
			<path class="st0" d="M1001.8,414.4c0,0-11.1-15.1-21.1,0"/>
			<path class="st0" d="M979.7,408.4c0,0,9.4-18.1,23.3,0"/>
			<path class="st0" d="M980.2,399.8c0,0,9.5-13.6,21.6,0"/>
			<path class="st0" d="M982,372c0,0,7.1-14.2,18,0"/>
			<path class="st0" d="M979.9,362.2c0,0,9.2-17,22.1,0"/>
			<path class="st0" d="M978.4,353.1c0,0,11.6-20,25,0"/>
			<path class="st0" d="M977.4,344.2c0,0,13.5-22.9,27,0"/>
			<path class="st0" d="M1004.9,333.4c0,0-12.9-20.6-28.2,0"/>
			<path class="st0" d="M977,323.3c0,0,13.4-21.6,27.6,0"/>
			<path class="st0" d="M978.1,313.7c0,0,11.3-20.1,25.5,0"/>
			<polyline class="st0" points="989.7,298.6 991.7,298.6 992.7,298.6 			"/>
			<path class="st0" d="M828.9,301.7c0,0,0.1,0.1,0.2,0.3c-0.3-0.1-0.5-0.3-0.8-0.4c0,0-9.5,11.8,9.5,30.7c0,0,5-16.6-3.1-26.1
				c4.9,2.2,13.2,3.2,26.4-2.9C861,303.3,841.2,288.5,828.9,301.7z"/>
			
				<ellipse transform="matrix(0.3827 -0.9239 0.9239 0.3827 226.3965 999.2756)" class="st0" cx="861" cy="330.2" rx="4.7" ry="4.7"/>
			<path class="st0" d="M873.8,346.6c0,0,0.1,0.1,0.2,0.3c-0.3-0.1-0.5-0.3-0.8-0.4c0,0-9.5,11.8,9.5,30.7c0,0,5-16.6-3.1-26.1
				c4.9,2.2,13.2,3.2,26.4-2.9C905.9,348.2,886.1,333.5,873.8,346.6z"/>
			<circle class="st0" cx="903.5" cy="372.8" r="4.7"/>
			<path class="st0" d="M919.5,383.9c0,0,0.1,0.1,0.2,0.3c-0.3-0.1-0.5-0.3-0.8-0.4c0,0-9.5,11.8,9.5,30.7c0,0,5-16.6-3.1-26.1
				c4.9,2.2,13.2,3.2,26.4-2.9C951.6,385.5,931.8,370.8,919.5,383.9z"/>
			
				<ellipse transform="matrix(0.3827 -0.9239 0.9239 0.3827 208.2829 1130.8911)" class="st0" cx="950.4" cy="409.6" rx="4.7" ry="4.7"/>
			<path class="st0" d="M879.6,351.1c-3.2-1.5-4.9-3.4-5.5-4.2C876.3,348,878.1,349.5,879.6,351.1z"/>
			<path class="st0" d="M834.6,306.2c-3.2-1.5-4.9-3.4-5.5-4.2C831.4,303.1,833.2,304.6,834.6,306.2z"/>
			<path class="st0" d="M925.3,388.5c-3.2-1.5-4.9-3.4-5.5-4.2C922,385.4,923.8,386.8,925.3,388.5z"/>
			<path class="st0" d="M1096.4,265.9"/>
			<path class="st0" d="M982.4,299.6c0,0-77.9-95.7-101.2-22.2"/>
			<path class="st0" d="M1000,299.6c0,0,77.9-95.7,101.2-22.2"/>
			<line class="st0" x1="984.6" y1="419.8" x2="981.6" y2="421.4"/>
			<path class="st0" d="M985.6,440.6l-2,2l1-1l-10.1,10.1c0,0-6,4-11.1,4c-5,0-31.2,0-31.2,0c-1.3,0-2.7,0-4,0c-1.7-0.7-3.4-1.3-5-2
				c-9.4-3-18.8-6-28.2-9.1"/>
			<circle class="st0" cx="1018.4" cy="356.5" r="5.5"/>
			<circle class="st0" cx="1033.5" cy="307.2" r="5.5"/>
			<circle class="st0" cx="1070.2" cy="269.4" r="9.1"/>
			<circle class="st0" cx="967" cy="357.5" r="5.5"/>
			<circle class="st0" cx="951.9" cy="308.2" r="5.5"/>
			<circle class="st0" cx="915.2" cy="270.4" r="9.1"/>
			<path class="st0" d="M1027.5,409.6c0,2.6,2.1,4.7,4.7,4.7c2.6,0,4.7-2.1,4.7-4.7c0-2.6-2.1-4.7-4.7-4.7
				C1029.6,404.9,1027.5,407,1027.5,409.6z"/>
			<path class="st0" d="M1063.7,383.9c-0.3,0.1-0.5,0.2-0.8,0.4c0.1-0.2,0.2-0.3,0.2-0.3c-12.3-13.1-32.1,1.6-32.1,1.6
				c13.1,6.1,21.5,5.1,26.3,3c-8.1,9.6-3.1,26.1-3.1,26.1C1073.1,395.7,1063.7,383.9,1063.7,383.9z"/>
			<path class="st0" d="M1074.4,372.8c0,2.6,2.1,4.7,4.7,4.7s4.7-2.1,4.7-4.7c0-2.6-2.1-4.7-4.7-4.7S1074.4,370.2,1074.4,372.8z"/>
			<path class="st0" d="M1109.3,346.5c-0.3,0.1-0.5,0.2-0.8,0.4c0.1-0.2,0.2-0.3,0.2-0.3c-12.3-13.1-32.1,1.6-32.1,1.6
				c13.1,6.1,21.5,5.1,26.3,2.9c-8.1,9.6-3.1,26.1-3.1,26.1C1118.8,358.3,1109.3,346.5,1109.3,346.5z"/>
			<path class="st0" d="M1116.9,330.2c0,2.6,2.1,4.7,4.7,4.7c2.6,0,4.7-2.1,4.7-4.7c0-2.6-2.1-4.7-4.7-4.7
				C1119,325.5,1116.9,327.6,1116.9,330.2z"/>
			<path class="st0" d="M1154.3,301.6c-0.3,0.1-0.5,0.2-0.8,0.4c0.1-0.2,0.2-0.3,0.2-0.3c-12.3-13.1-32.1,1.6-32.1,1.6
				c13.1,6.1,21.5,5.1,26.3,3c-8.1,9.6-3.1,26.1-3.1,26.1C1163.7,313.4,1154.3,301.6,1154.3,301.6z"/>
			<path class="st0" d="M1057.3,388.5c1.4-1.7,3.2-3.2,5.6-4.3C1062.3,385,1060.6,387,1057.3,388.5z"/>
			<path class="st0" d="M1103,351.1c1.4-1.7,3.2-3.2,5.6-4.3C1108,347.6,1106.3,349.7,1103,351.1z"/>
			<path class="st0" d="M1147.9,306.2c1.4-1.7,3.2-3.1,5.6-4.3C1152.9,302.7,1151.2,304.8,1147.9,306.2z"/>
			<path class="st0" d="M981.6,398.3c0,0-81-115.6-107.5-125.8c-1.2-0.5-18.2-9.3-35.2-4.7c-5.7,1.5-18.8,10.7-21.1,12.6
				c-9.8,7.7-32.5,30.6-7.3,64.1c0,0,58.4,92,171.2,91"/>
			<path class="st0" d="M1000.4,397.3c0,0,81-115.6,107.5-125.8c1.2-0.5,18.2-9.3,35.2-4.7c5.7,1.5,18.8,10.7,21.1,12.6
				c9.8,7.7,32.5,30.6,7.3,64.1c0,0-58.4,92-171.2,91"/>
		</g>
		<path class="st1" d="M990.2,270.8c0,0-13,14-46-22c0,0-2-4-12-5C932.2,243.8,963.2,230.8,990.2,270.8z"/>
		<path class="st1" d="M990.2,273.8"/>
		<path class="st1" d="M991.2,270.8c0,0,13,14,46-22c0,0,2-4,12-5C1049.2,243.8,1018.2,230.8,991.2,270.8z"/>
		<line class="st1" x1="990.7" y1="260.3" x2="990.7" y2="270.3"/>
		<ellipse class="st0" cx="990.7" cy="247.8" rx="5.5" ry="12"/>
		<path class="st0" d="M977.2,240.8c0,0-31,7-42-12c0,0-10-19-16-19c0,0,22-9,32,7S971.2,242.8,977.2,240.8z"/>
		<path class="st0" d="M1004.2,240.8c0,0,31,7,42-12c0,0,10-19,16-19c0,0-22-9-32,7S1010.2,242.8,1004.2,240.8z"/>
		<path class="st1" d="M985.7,236.3c-2.1,0.5-11.3,2.2-20-3.1c-8.4-5.2-13.1-14.9-12.5-25.4c-0.1-3.3-0.6-9.3-4-16
			c-3.5-6.9-8.4-11-11-13c7.3-5.8,17.3-6.4,25-1.7c6.9,4.3,10.8,12.4,10,20.7c0,4.4,0.4,9.9,2,16C977.8,224,982.3,231.6,985.7,236.3
			z"/>
		<path class="st1" d="M995.2,236.3c2.1,0.5,11.3,2.2,20-3.1c8.4-5.2,13.1-14.9,12.5-25.4c0.1-3.3,0.6-9.3,4-16
			c3.5-6.9,8.4-11,11-13c-7.3-5.8-17.3-6.4-25-1.7c-6.9,4.3-10.8,12.4-10,20.7c0,4.4-0.4,9.9-2,16
			C1003.1,224,998.6,231.6,995.2,236.3z"/>
		<path class="st1" d="M991.7,233.3c0,0-32-25,0-61"/>
		<path class="st1" d="M989.5,233.3c0,0,32-25,0-61"/>
	</g>
	<g>
		<g>
			<path class="st0" d="M986.4,692.6c0,0-24.2,69.5,5,103.7c0,0,27.2-26.2,5-103.7c0,0,13.1-14.1,2-42.3c0,0,6-10.1-7-14.1
				c0,0-13.1,3-6,14.1C985.4,650.3,972.3,675.5,986.4,692.6z"/>
			<path class="st0" d="M1083.6,636.7c0,0-27.2-9.1-29.2-10.1c-2-1-8.1-1-8.1-1h-32.2c-6,0-16.1,11.1-16.1,11.1l-1,1"/>
			<path class="st0" d="M983.7,646.5c8.8-1.3,7.3-10.8,7.3-10.8"/>
			<path class="st0" d="M1000.8,647.5c0,0-8.8-1.7-8.8-9.8"/>
			<path class="st0" d="M983.9,658.9c0,0,6,5,16.1,0"/>
			<path class="st0" d="M1002.1,664.9c0,0-11.1,15.1-21.1,0"/>
			<path class="st0" d="M980,670.9c0,0,9.4,18.1,23.3,0"/>
			<path class="st0" d="M980.5,679.5c0,0,9.5,13.6,21.6,0"/>
			<path class="st0" d="M982.3,707.3c0,0,7.1,14.2,18,0"/>
			<path class="st0" d="M980.2,717.1c0,0,9.2,17,22.1,0"/>
			<path class="st0" d="M978.7,726.2c0,0,11.6,20,25,0"/>
			<path class="st0" d="M977.7,735.1c0,0,13.5,22.9,27,0"/>
			<path class="st0" d="M1005.2,746c0,0-12.9,20.6-28.2,0"/>
			<path class="st0" d="M977.3,756c0,0,13.4,21.6,27.6,0"/>
			<path class="st0" d="M978.4,765.6c0,0,11.3,20.1,25.5,0"/>
			<polyline class="st0" points="990,780.7 992,780.7 993,780.7 			"/>
			<path class="st0" d="M829.2,777.6c0,0,0.1-0.1,0.2-0.3c-0.3,0.1-0.5,0.3-0.8,0.4c0,0-9.5-11.8,9.5-30.7c0,0,5,16.6-3.1,26.1
				c4.9-2.2,13.2-3.2,26.4,2.9C861.3,776,841.5,790.8,829.2,777.6z"/>
			
				<ellipse transform="matrix(0.9239 -0.3827 0.3827 0.9239 -221.1057 386.61)" class="st0" cx="861.3" cy="749.1" rx="4.7" ry="4.7"/>
			<path class="st0" d="M874.1,732.7c0,0,0.1-0.1,0.2-0.3c-0.3,0.1-0.5,0.3-0.8,0.4c0,0-9.5-11.8,9.5-30.7c0,0,5,16.6-3.1,26.1
				c4.9-2.2,13.2-3.2,26.4,2.9C906.2,731.1,886.4,745.9,874.1,732.7z"/>
			<circle class="st0" cx="903.8" cy="706.5" r="4.7"/>
			<path class="st0" d="M919.8,695.4c0,0,0.1-0.1,0.2-0.3c-0.3,0.1-0.5,0.3-0.8,0.4c0,0-9.5-11.8,9.5-30.7c0,0,5,16.6-3.1,26.1
				c4.9-2.2,13.2-3.2,26.4,2.9C951.9,693.8,932.1,708.5,919.8,695.4z"/>
			
				<ellipse transform="matrix(0.9239 -0.3827 0.3827 0.9239 -183.9275 414.7929)" class="st0" cx="950.7" cy="669.7" rx="4.7" ry="4.7"/>
			<path class="st0" d="M879.9,728.2c-3.2,1.5-4.9,3.4-5.5,4.2C876.6,731.3,878.4,729.8,879.9,728.2z"/>
			<path class="st0" d="M834.9,773.1c-3.2,1.5-4.9,3.4-5.5,4.2C831.7,776.2,833.5,774.8,834.9,773.1z"/>
			<path class="st0" d="M925.6,690.9c-3.2,1.5-4.9,3.4-5.5,4.2C922.3,694,924.1,692.5,925.6,690.9z"/>
			<path class="st0" d="M1096.7,813.4"/>
			<path class="st0" d="M982.7,779.7c0,0-77.9,95.7-101.2,22.2"/>
			<path class="st0" d="M1000.3,779.7c0,0,77.9,95.7,101.2,22.2"/>
			<line class="st0" x1="984.9" y1="659.5" x2="981.9" y2="657.9"/>
			<path class="st0" d="M985.9,638.7l-2-2l1,1l-10.1-10.1c0,0-6-4-11.1-4c-5,0-31.2,0-31.2,0c-1.3,0-2.7,0-4,0c-1.7,0.7-3.4,1.3-5,2
				c-9.4,3-18.8,6-28.2,9.1"/>
			<circle class="st0" cx="1018.7" cy="722.8" r="5.5"/>
			<circle class="st0" cx="1033.8" cy="772.2" r="5.5"/>
			<circle class="st0" cx="1070.5" cy="809.9" r="9.1"/>
			<circle class="st0" cx="967.3" cy="721.8" r="5.5"/>
			<circle class="st0" cx="952.2" cy="771.1" r="5.5"/>
			<circle class="st0" cx="915.5" cy="808.9" r="9.1"/>
			<path class="st0" d="M1027.8,669.7c0-2.6,2.1-4.7,4.7-4.7s4.7,2.1,4.7,4.7s-2.1,4.7-4.7,4.7S1027.8,672.3,1027.8,669.7z"/>
			<path class="st0" d="M1063.9,695.5c-0.3-0.1-0.5-0.2-0.8-0.4c0.1,0.2,0.2,0.3,0.2,0.3c-12.3,13.1-32.1-1.6-32.1-1.6
				c13.1-6.1,21.5-5.1,26.3-3c-8.1-9.6-3.1-26.1-3.1-26.1C1073.4,683.6,1063.9,695.5,1063.9,695.5z"/>
			<path class="st0" d="M1074.7,706.5c0-2.6,2.1-4.7,4.7-4.7c2.6,0,4.7,2.1,4.7,4.7c0,2.6-2.1,4.7-4.7,4.7
				C1076.8,711.3,1074.7,709.2,1074.7,706.5z"/>
			<path class="st0" d="M1109.6,732.8c-0.3-0.1-0.5-0.2-0.8-0.4c0.1,0.2,0.2,0.3,0.2,0.3c-12.3,13.1-32.1-1.6-32.1-1.6
				c13.1-6.1,21.5-5.1,26.3-2.9c-8.1-9.6-3.1-26.1-3.1-26.1C1119.1,721,1109.6,732.8,1109.6,732.8z"/>
			<path class="st0" d="M1117.2,749.1c0-2.6,2.1-4.7,4.7-4.7c2.6,0,4.7,2.1,4.7,4.7c0,2.6-2.1,4.7-4.7,4.7
				C1119.3,753.8,1117.2,751.7,1117.2,749.1z"/>
			<path class="st0" d="M1154.6,777.7c-0.3-0.1-0.5-0.2-0.8-0.4c0.1,0.2,0.2,0.3,0.2,0.3c-12.3,13.1-32.1-1.6-32.1-1.6
				c13.1-6.1,21.5-5.1,26.3-3c-8.1-9.6-3.1-26.1-3.1-26.1C1164,765.9,1154.6,777.7,1154.6,777.7z"/>
			<path class="st0" d="M1057.6,690.8c1.4,1.7,3.2,3.2,5.6,4.3C1062.6,694.4,1060.9,692.3,1057.6,690.8z"/>
			<path class="st0" d="M1103.3,728.2c1.4,1.7,3.2,3.2,5.6,4.3C1108.3,731.7,1106.6,729.7,1103.3,728.2z"/>
			<path class="st0" d="M1148.2,773.1c1.4,1.7,3.2,3.1,5.6,4.3C1153.2,776.6,1151.5,774.6,1148.2,773.1z"/>
			<path class="st0" d="M981.9,681c0,0-81,115.6-107.5,125.8c-1.2,0.5-18.2,9.3-35.2,4.7c-5.7-1.5-18.8-10.7-21.1-12.6
				c-9.8-7.7-32.5-30.6-7.3-64.1c0,0,58.4-92,171.2-91"/>
			<path class="st0" d="M1000.7,682c0,0,81,115.6,107.5,125.8c1.2,0.5,18.2,9.3,35.2,4.7c5.7-1.5,18.8-10.7,21.1-12.6
				c9.8-7.7,32.5-30.6,7.3-64.1c0,0-58.4-92-171.2-91"/>
		</g>
		<path class="st1" d="M990.5,808.5c0,0-13-14-46,22c0,0-2,4-12,5C932.5,835.5,963.5,848.5,990.5,808.5z"/>
		<path class="st1" d="M990.5,805.5"/>
		<path class="st1" d="M991.5,808.5c0,0,13-14,46,22c0,0,2,4,12,5C1049.5,835.5,1018.5,848.5,991.5,808.5z"/>
		<line class="st1" x1="991" y1="819" x2="991" y2="809"/>
		<ellipse class="st0" cx="991" cy="831.5" rx="5.5" ry="12"/>
		<path class="st0" d="M977.5,838.5c0,0-31-7-42,12c0,0-10,19-16,19c0,0,22,9,32-7S971.5,836.5,977.5,838.5z"/>
		<path class="st0" d="M1004.5,838.5c0,0,31-7,42,12c0,0,10,19,16,19c0,0-22,9-32-7C1020.5,846.5,1010.5,836.5,1004.5,838.5z"/>
		<path class="st1" d="M986,843c-2.1-0.5-11.3-2.2-20,3.1c-8.4,5.2-13.1,14.9-12.5,25.4c-0.1,3.3-0.6,9.3-4,16
			c-3.5,6.9-8.4,11-11,13c7.3,5.8,17.3,6.4,25,1.7c6.9-4.3,10.8-12.4,10-20.7c0-4.4,0.4-9.9,2-16C978.1,855.3,982.6,847.7,986,843z"
			/>
		<path class="st1" d="M995.5,843c2.1-0.5,11.3-2.2,20,3.1c8.4,5.2,13.1,14.9,12.5,25.4c0.1,3.3,0.6,9.3,4,16c3.5,6.9,8.4,11,11,13
			c-7.3,5.8-17.3,6.4-25,1.7c-6.9-4.3-10.8-12.4-10-20.7c0-4.4-0.4-9.9-2-16C1003.4,855.3,998.9,847.7,995.5,843z"/>
		<path class="st1" d="M992,846c0,0-32,25,0,61"/>
		<path class="st1" d="M989.8,846c0,0,32,25,0,61"/>
	</g>
	<g>
		<g>
			<path class="st0" d="M1161.7,546.1c0,0,69.5,24.2,103.7-5c0,0-26.2-27.2-103.7-5c0,0-14.1-13.1-42.3-2c0,0-10.1-6-14.1,7
				c0,0,3,13.1,14.1,6C1119.4,547.1,1144.6,560.2,1161.7,546.1z"/>
			<path class="st0" d="M1105.9,448.9c0,0-9.1,27.2-10.1,29.2s-1,8.1-1,8.1v32.2c0,6,11.1,16.1,11.1,16.1l1,1"/>
			<path class="st0" d="M1115.6,548.9c-1.3-8.8-10.8-7.3-10.8-7.3"/>
			<path class="st0" d="M1116.6,531.7c0,0-1.7,8.8-9.8,8.8"/>
			<path class="st0" d="M1128,548.6c0,0,5-6,0-16.1"/>
			<path class="st0" d="M1134,530.5c0,0,15.1,11.1,0,21.1"/>
			<path class="st0" d="M1140,552.6c0,0,18.1-9.4,0-23.3"/>
			<path class="st0" d="M1148.6,552.1c0,0,13.6-9.5,0-21.6"/>
			<path class="st0" d="M1176.4,550.3c0,0,14.2-7.1,0-18"/>
			<path class="st0" d="M1186.3,552.4c0,0,17-9.2,0-22.1"/>
			<path class="st0" d="M1195.3,553.9c0,0,20-11.6,0-25"/>
			<path class="st0" d="M1204.2,554.9c0,0,22.9-13.5,0-27"/>
			<path class="st0" d="M1215.1,527.4c0,0,20.6,12.9,0,28.2"/>
			<path class="st0" d="M1225.1,555.3c0,0,21.6-13.4,0-27.6"/>
			<path class="st0" d="M1234.7,554.2c0,0,20.1-11.3,0-25.5"/>
			<polyline class="st0" points="1249.8,542.6 1249.8,540.6 1249.8,539.6 			"/>
			<path class="st0" d="M1246.8,703.4c0,0-0.1-0.1-0.3-0.2c0.1,0.3,0.3,0.5,0.4,0.8c0,0-11.8,9.5-30.7-9.5c0,0,16.6-5,26.1,3.1
				c-2.2-4.9-3.2-13.2,2.9-26.4C1245.2,671.3,1259.9,691,1246.8,703.4z"/>
			
				<ellipse transform="matrix(0.9239 -0.3827 0.3827 0.9239 -164.165 517.2943)" class="st0" cx="1218.2" cy="671.3" rx="4.7" ry="4.7"/>
			<path class="st0" d="M1201.9,658.5c0,0-0.1-0.1-0.3-0.2c0.1,0.3,0.3,0.5,0.4,0.8c0,0-11.8,9.5-30.7-9.5c0,0,16.6-5,26.1,3.1
				c-2.2-4.9-3.2-13.2,2.9-26.4C1200.2,626.3,1215,646.1,1201.9,658.5z"/>
			<circle class="st0" cx="1175.7" cy="628.8" r="4.7"/>
			<path class="st0" d="M1164.5,612.8c0,0-0.1-0.1-0.3-0.2c0.1,0.3,0.3,0.5,0.4,0.8c0,0-11.8,9.5-30.7-9.5c0,0,16.6-5,26.1,3.1
				c-2.2-4.9-3.2-13.2,2.9-26.4C1162.9,580.7,1177.7,600.4,1164.5,612.8z"/>
			
				<ellipse transform="matrix(0.9239 -0.3827 0.3827 0.9239 -135.9822 480.1161)" class="st0" cx="1138.9" cy="581.9" rx="4.7" ry="4.7"/>
			<path class="st0" d="M1197.3,652.7c1.5,3.2,3.4,4.9,4.2,5.5C1200.4,655.9,1199,654.1,1197.3,652.7z"/>
			<path class="st0" d="M1242.2,697.6c1.5,3.2,3.4,4.9,4.2,5.5C1245.3,700.8,1243.9,699,1242.2,697.6z"/>
			<path class="st0" d="M1160,607c1.5,3.2,3.4,4.9,4.2,5.5C1163.1,610.2,1161.7,608.4,1160,607z"/>
			<path class="st0" d="M1282.6,435.9"/>
			<path class="st0" d="M1248.8,549.9c0,0,95.7,77.9,22.2,101.2"/>
			<path class="st0" d="M1248.8,532.3c0,0,95.7-77.9,22.2-101.2"/>
			<line class="st0" x1="1128.7" y1="547.6" x2="1127" y2="550.6"/>
			<path class="st0" d="M1107.9,546.6l-2,2l1-1l-10.1,10.1c0,0-4,6-4,11.1s0,31.2,0,31.2c0,1.3,0,2.7,0,4c0.7,1.7,1.3,3.4,2,5
				c3,9.4,6,18.8,9.1,28.2"/>
			<circle class="st0" cx="1191.9" cy="513.9" r="5.5"/>
			<circle class="st0" cx="1241.3" cy="498.8" r="5.5"/>
			<circle class="st0" cx="1279" cy="462" r="9.1"/>
			<circle class="st0" cx="1190.9" cy="565.2" r="5.5"/>
			<circle class="st0" cx="1240.3" cy="580.3" r="5.5"/>
			<circle class="st0" cx="1278" cy="617.1" r="9.1"/>
			<path class="st0" d="M1138.9,504.8c-2.6,0-4.7-2.1-4.7-4.7c0-2.6,2.1-4.7,4.7-4.7s4.7,2.1,4.7,4.7
				C1143.6,502.7,1141.5,504.8,1138.9,504.8z"/>
			<path class="st0" d="M1164.6,468.6c-0.1,0.3-0.2,0.5-0.4,0.8c0.2-0.1,0.3-0.2,0.3-0.2c13.1,12.3-1.6,32.1-1.6,32.1
				c-6.1-13.1-5.1-21.5-3-26.3c-9.6,8.1-26.1,3.1-26.1,3.1C1152.8,459.2,1164.6,468.6,1164.6,468.6z"/>
			<path class="st0" d="M1175.7,457.9c-2.6,0-4.7-2.1-4.7-4.7c0-2.6,2.1-4.7,4.7-4.7c2.6,0,4.7,2.1,4.7,4.7
				C1180.4,455.8,1178.3,457.9,1175.7,457.9z"/>
			<path class="st0" d="M1201.9,422.9c-0.1,0.3-0.2,0.5-0.4,0.8c0.2-0.1,0.3-0.2,0.3-0.2c13.1,12.3-1.6,32.1-1.6,32.1
				c-6.1-13.1-5.1-21.5-2.9-26.3c-9.6,8.1-26.1,3.1-26.1,3.1C1190.1,413.5,1201.9,422.9,1201.9,422.9z"/>
			<path class="st0" d="M1218.2,415.4c-2.6,0-4.7-2.1-4.7-4.7c0-2.6,2.1-4.7,4.7-4.7s4.7,2.1,4.7,4.7
				C1222.9,413.3,1220.8,415.4,1218.2,415.4z"/>
			<path class="st0" d="M1246.8,378c-0.1,0.3-0.2,0.5-0.4,0.8c0.2-0.1,0.3-0.2,0.3-0.2c13.1,12.3-1.6,32.1-1.6,32.1
				c-6.1-13.1-5.1-21.5-3-26.3c-9.6,8.1-26.1,3.1-26.1,3.1C1235,368.5,1246.8,378,1246.8,378z"/>
			<path class="st0" d="M1160,475c1.7-1.4,3.2-3.2,4.3-5.6C1163.5,469.9,1161.5,471.7,1160,475z"/>
			<path class="st0" d="M1197.3,429.3c1.7-1.4,3.2-3.2,4.3-5.6C1200.8,424.2,1198.8,426,1197.3,429.3z"/>
			<path class="st0" d="M1242.2,384.3c1.7-1.4,3.1-3.2,4.3-5.6C1245.7,379.4,1243.7,381.1,1242.2,384.3z"/>
			<path class="st0" d="M1150.2,550.6c0,0,115.6,81,125.8,107.5c0.5,1.2,9.3,18.2,4.7,35.2c-1.5,5.7-10.7,18.8-12.6,21.1
				c-7.7,9.8-30.6,32.5-64.1,7.3c0,0-92-58.4-91-171.2"/>
			<path class="st0" d="M1151.2,531.9c0,0,115.6-81,125.8-107.5c0.5-1.2,9.3-18.2,4.7-35.2c-1.5-5.7-10.7-18.8-12.6-21.1
				c-7.7-9.8-30.6-32.5-64.1-7.3c0,0-92,58.4-91,171.2"/>
		</g>
		<path class="st1" d="M1277.6,542.1c0,0-14,13,22,46c0,0,4,2,5,12C1304.6,600.1,1317.6,569.1,1277.6,542.1z"/>
		<path class="st1" d="M1274.6,542.1"/>
		<path class="st1" d="M1277.6,541.1c0,0-14-13,22-46c0,0,4-2,5-12C1304.6,483.1,1317.6,514.1,1277.6,541.1z"/>
		<line class="st1" x1="1288.1" y1="541.6" x2="1278.1" y2="541.6"/>
		<ellipse class="st0" cx="1300.6" cy="541.6" rx="12" ry="5.5"/>
		<path class="st0" d="M1307.6,555.1c0,0-7,31,12,42c0,0,19,10,19,16c0,0,9-22-7-32S1305.6,561.1,1307.6,555.1z"/>
		<path class="st0" d="M1307.6,528.1c0,0-7-31,12-42c0,0,19-10,19-16c0,0,9,22-7,32C1315.6,512.1,1305.6,522.1,1307.6,528.1z"/>
		<path class="st1" d="M1312.1,546.6c-0.5,2.1-2.2,11.3,3.1,20c5.2,8.4,14.9,13.1,25.4,12.5c3.3,0.1,9.3,0.6,16,4
			c6.9,3.5,11,8.4,13,11c5.8-7.3,6.4-17.3,1.7-25c-4.3-6.9-12.4-10.8-20.7-10c-4.4,0-9.9-0.4-16-2
			C1324.4,554.5,1316.9,550,1312.1,546.6z"/>
		<path class="st1" d="M1312.1,537.1c-0.5-2.1-2.2-11.3,3.1-20c5.2-8.4,14.9-13.1,25.4-12.5c3.3-0.1,9.3-0.6,16-4
			c6.9-3.5,11-8.4,13-11c5.8,7.3,6.4,17.3,1.7,25c-4.3,6.9-12.4,10.8-20.7,10c-4.4,0-9.9,0.4-16,2
			C1324.4,529.1,1316.9,533.7,1312.1,537.1z"/>
		<path class="st1" d="M1315.1,540.6c0,0,25,32,61,0"/>
		<path class="st1" d="M1315.1,542.8c0,0,25-32,61,0"/>
	</g>
	<g>
		<g>
			<path class="st0" d="M818.2,546.1c0,0-69.5,24.2-103.7-5c0,0,26.2-27.2,103.7-5c0,0,14.1-13.1,42.3-2c0,0,10.1-6,14.1,7
				c0,0-3,13.1-14.1,6C860.4,547.1,835.3,560.2,818.2,546.1z"/>
			<path class="st0" d="M874,448.9c0,0,9.1,27.2,10.1,29.2c1,2,1,8.1,1,8.1v32.2c0,6-11.1,16.1-11.1,16.1l-1,1"/>
			<path class="st0" d="M864.3,548.9c1.3-8.8,10.8-7.3,10.8-7.3"/>
			<path class="st0" d="M863.3,531.7c0,0,1.7,8.8,9.8,8.8"/>
			<path class="st0" d="M851.9,548.6c0,0-5-6,0-16.1"/>
			<path class="st0" d="M845.8,530.5c0,0-15.1,11.1,0,21.1"/>
			<path class="st0" d="M839.9,552.6c0,0-18.1-9.4,0-23.3"/>
			<path class="st0" d="M831.3,552.1c0,0-13.6-9.5,0-21.6"/>
			<path class="st0" d="M803.5,550.3c0,0-14.2-7.1,0-18"/>
			<path class="st0" d="M793.6,552.4c0,0-17-9.2,0-22.1"/>
			<path class="st0" d="M784.5,553.9c0,0-20-11.6,0-25"/>
			<path class="st0" d="M775.7,554.9c0,0-22.9-13.5,0-27"/>
			<path class="st0" d="M764.8,527.4c0,0-20.6,12.9,0,28.2"/>
			<path class="st0" d="M754.8,555.3c0,0-21.6-13.4,0-27.6"/>
			<path class="st0" d="M745.2,554.2c0,0-20.1-11.3,0-25.5"/>
			<polyline class="st0" points="730.1,542.6 730.1,540.6 730.1,539.6 			"/>
			<path class="st0" d="M733.1,703.4c0,0,0.1-0.1,0.3-0.2c-0.1,0.3-0.3,0.5-0.4,0.8c0,0,11.8,9.5,30.7-9.5c0,0-16.6-5-26.1,3.1
				c2.2-4.9,3.2-13.2-2.9-26.4C734.7,671.3,720,691,733.1,703.4z"/>
			
				<ellipse transform="matrix(0.3827 -0.9239 0.9239 0.3827 -150.0104 1118.1007)" class="st0" cx="761.7" cy="671.3" rx="4.7" ry="4.7"/>
			<path class="st0" d="M778,658.5c0,0,0.1-0.1,0.3-0.2c-0.1,0.3-0.3,0.5-0.4,0.8c0,0,11.8,9.5,30.7-9.5c0,0-16.6-5-26.1,3.1
				c2.2-4.9,3.2-13.2-2.9-26.4C779.7,626.3,764.9,646.1,778,658.5z"/>
			<circle class="st0" cx="804.2" cy="628.8" r="4.7"/>
			<path class="st0" d="M815.4,612.8c0,0,0.1-0.1,0.3-0.2c-0.1,0.3-0.3,0.5-0.4,0.8c0,0,11.8,9.5,30.7-9.5c0,0-16.6-5-26.1,3.1
				c2.2-4.9,3.2-13.2-2.9-26.4C817,580.7,802.2,600.4,815.4,612.8z"/>
			
				<ellipse transform="matrix(0.3827 -0.9239 0.9239 0.3827 -18.3949 1136.2145)" class="st0" cx="841" cy="581.9" rx="4.7" ry="4.7"/>
			<path class="st0" d="M782.6,652.7c-1.5,3.2-3.4,4.9-4.2,5.5C779.5,655.9,780.9,654.1,782.6,652.7z"/>
			<path class="st0" d="M737.7,697.6c-1.5,3.2-3.4,4.9-4.2,5.5C734.6,700.8,736,699,737.7,697.6z"/>
			<path class="st0" d="M819.9,607c-1.5,3.2-3.4,4.9-4.2,5.5C816.8,610.2,818.2,608.4,819.9,607z"/>
			<path class="st0" d="M697.3,435.9"/>
			<path class="st0" d="M731.1,549.9c0,0-95.7,77.9-22.2,101.2"/>
			<path class="st0" d="M731.1,532.3c0,0-95.7-77.9-22.2-101.2"/>
			<line class="st0" x1="851.2" y1="547.6" x2="852.9" y2="550.6"/>
			<path class="st0" d="M872,546.6l2,2l-1-1l10.1,10.1c0,0,4,6,4,11.1s0,31.2,0,31.2c0,1.3,0,2.7,0,4c-0.7,1.7-1.3,3.4-2,5
				c-3,9.4-6,18.8-9.1,28.2"/>
			<circle class="st0" cx="788" cy="513.9" r="5.5"/>
			<circle class="st0" cx="738.6" cy="498.8" r="5.5"/>
			<circle class="st0" cx="700.9" cy="462" r="9.1"/>
			<circle class="st0" cx="789" cy="565.2" r="5.5"/>
			<circle class="st0" cx="739.6" cy="580.3" r="5.5"/>
			<circle class="st0" cx="701.9" cy="617.1" r="9.1"/>
			<path class="st0" d="M841,504.8c2.6,0,4.7-2.1,4.7-4.7c0-2.6-2.1-4.7-4.7-4.7s-4.7,2.1-4.7,4.7
				C836.3,502.7,838.4,504.8,841,504.8z"/>
			<path class="st0" d="M815.3,468.6c0.1,0.3,0.2,0.5,0.4,0.8c-0.2-0.1-0.3-0.2-0.3-0.2c-13.1,12.3,1.6,32.1,1.6,32.1
				c6.1-13.1,5.1-21.5,3-26.3c9.6,8.1,26.1,3.1,26.1,3.1C827.1,459.2,815.3,468.6,815.3,468.6z"/>
			<path class="st0" d="M804.2,457.9c2.6,0,4.7-2.1,4.7-4.7c0-2.6-2.1-4.7-4.7-4.7c-2.6,0-4.7,2.1-4.7,4.7
				C799.5,455.8,801.6,457.9,804.2,457.9z"/>
			<path class="st0" d="M778,422.9c0.1,0.3,0.2,0.5,0.4,0.8c-0.2-0.1-0.3-0.2-0.3-0.2c-13.1,12.3,1.6,32.1,1.6,32.1
				c6.1-13.1,5.1-21.5,2.9-26.3c9.6,8.1,26.1,3.1,26.1,3.1C789.8,413.5,778,422.9,778,422.9z"/>
			<path class="st0" d="M761.7,415.4c2.6,0,4.7-2.1,4.7-4.7c0-2.6-2.1-4.7-4.7-4.7s-4.7,2.1-4.7,4.7
				C756.9,413.3,759.1,415.4,761.7,415.4z"/>
			<path class="st0" d="M733.1,378c0.1,0.3,0.2,0.5,0.4,0.8c-0.2-0.1-0.3-0.2-0.3-0.2c-13.1,12.3,1.6,32.1,1.6,32.1
				c6.1-13.1,5.1-21.5,3-26.3c9.6,8.1,26.1,3.1,26.1,3.1C744.9,368.5,733.1,378,733.1,378z"/>
			<path class="st0" d="M819.9,475c-1.7-1.4-3.2-3.2-4.3-5.6C816.4,469.9,818.4,471.7,819.9,475z"/>
			<path class="st0" d="M782.6,429.3c-1.7-1.4-3.2-3.2-4.3-5.6C779.1,424.2,781.1,426,782.6,429.3z"/>
			<path class="st0" d="M737.7,384.3c-1.7-1.4-3.1-3.2-4.3-5.6C734.2,379.4,736.2,381.1,737.7,384.3z"/>
			<path class="st0" d="M829.7,550.6c0,0-115.6,81-125.8,107.5c-0.5,1.2-9.3,18.2-4.7,35.2c1.5,5.7,10.7,18.8,12.6,21.1
				c7.7,9.8,30.6,32.5,64.1,7.3c0,0,92-58.4,91-171.2"/>
			<path class="st0" d="M828.7,531.9c0,0-115.6-81-125.8-107.5c-0.5-1.2-9.3-18.2-4.7-35.2c1.5-5.7,10.7-18.8,12.6-21.1
				c7.7-9.8,30.6-32.5,64.1-7.3c0,0,92,58.4,91,171.2"/>
		</g>
		<path class="st1" d="M702.3,542.1c0,0,14,13-22,46c0,0-4,2-5,12C675.3,600.1,662.3,569.1,702.3,542.1z"/>
		<path class="st1" d="M705.3,542.1"/>
		<path class="st1" d="M702.3,541.1c0,0,14-13-22-46c0,0-4-2-5-12C675.3,483.1,662.3,514.1,702.3,541.1z"/>
		<line class="st1" x1="691.8" y1="541.6" x2="701.8" y2="541.6"/>
		<ellipse class="st0" cx="679.3" cy="541.6" rx="12" ry="5.5"/>
		<path class="st0" d="M672.3,555.1c0,0,7,31-12,42c0,0-19,10-19,16c0,0-9-22,7-32C664.3,571.1,674.3,561.1,672.3,555.1z"/>
		<path class="st0" d="M672.3,528.1c0,0,7-31-12-42c0,0-19-10-19-16c0,0-9,22,7,32C664.3,512.1,674.3,522.1,672.3,528.1z"/>
		<path class="st1" d="M667.8,546.6c0.5,2.1,2.2,11.3-3.1,20c-5.2,8.4-14.9,13.1-25.4,12.5c-3.3,0.1-9.3,0.6-16,4
			c-6.9,3.5-11,8.4-13,11c-5.8-7.3-6.4-17.3-1.7-25c4.3-6.9,12.4-10.8,20.7-10c4.4,0,9.9-0.4,16-2C655.5,554.5,663,550,667.8,546.6z
			"/>
		<path class="st1" d="M667.8,537.1c0.5-2.1,2.2-11.3-3.1-20c-5.2-8.4-14.9-13.1-25.4-12.5c-3.3-0.1-9.3-0.6-16-4
			c-6.9-3.5-11-8.4-13-11c-5.8,7.3-6.4,17.3-1.7,25c4.3,6.9,12.4,10.8,20.7,10c4.4,0,9.9,0.4,16,2
			C655.5,529.1,663,533.7,667.8,537.1z"/>
		<path class="st1" d="M664.8,540.6c0,0-25,32-61,0"/>
		<path class="st1" d="M664.8,542.8c0,0-25-32-61,0"/>
	</g>
</g>
</svg>
