<?xml version="1.0" encoding="utf-8"?>
<!-- Generator: Adobe Illustrator 22.1.0, SVG Export Plug-In . SVG Version: 6.00 Build 0)  -->
<svg version="1.1" id="Layer_1" xmlns="http://www.w3.org/2000/svg" xmlns:xlink="http://www.w3.org/1999/xlink" x="0px" y="0px"
	 viewBox="0 0 1080 1080" style="enable-background:new 0 0 1080 1080;" xml:space="preserve">
<style type="text/css">
	.st0{fill:none;stroke:#FFFFFF;stroke-width:3.0207;stroke-miterlimit:10;}
	.st1{fill:none;stroke:#FFFFFF;stroke-width:3;stroke-miterlimit:10;}
</style>
<g>
	<g>
		<g>
			<path class="st0" d="M536.1,386.7c0,0-24.2-69.5,5-103.7c0,0,27.2,26.2,5,103.7c0,0,13.1,14.1,2,42.3c0,0,6,10.1-7,14.1
				c0,0-13.1-3-6-14.1C535.1,429,522.1,403.8,536.1,386.7z"/>
			<path class="st0" d="M633.3,442.6c0,0-27.2,9.1-29.2,10.1c-2,1-8.1,1-8.1,1h-32.2c-6,0-16.1-11.1-16.1-11.1l-1-1"/>
			<path class="st0" d="M533.4,432.8c8.8,1.3,7.3,10.8,7.3,10.8"/>
			<path class="st0" d="M550.5,431.8c0,0-8.8,1.7-8.8,9.8"/>
			<path class="st0" d="M533.6,420.4c0,0,6-5,16.1,0"/>
			<path class="st0" d="M551.8,414.4c0,0-11.1-15.1-21.1,0"/>
			<path class="st0" d="M529.7,408.4c0,0,9.4-18.1,23.3,0"/>
			<path class="st0" d="M530.2,399.8c0,0,9.5-13.6,21.6,0"/>
			<path class="st0" d="M532,372c0,0,7.1-14.2,18,0"/>
			<path class="st0" d="M529.9,362.2c0,0,9.2-17,22.1,0"/>
			<path class="st0" d="M528.4,353.1c0,0,11.6-20,25,0"/>
			<path class="st0" d="M527.4,344.2c0,0,13.5-22.9,27,0"/>
			<path class="st0" d="M554.9,333.4c0,0-12.9-20.6-28.2,0"/>
			<path class="st0" d="M527,323.3c0,0,13.4-21.6,27.6,0"/>
			<path class="st0" d="M528.1,313.7c0,0,11.3-20.1,25.5,0"/>
			<polyline class="st0" points="539.7,298.6 541.7,298.6 542.7,298.6 			"/>
			<path class="st0" d="M378.9,301.7c0,0,0.1,0.1,0.2,0.3c-0.3-0.1-0.5-0.3-0.8-0.4c0,0-9.5,11.8,9.5,30.7c0,0,5-16.6-3.1-26.1
				c4.9,2.2,13.2,3.2,26.4-2.9C411,303.3,391.2,288.5,378.9,301.7z"/>
			
				<ellipse transform="matrix(0.3827 -0.9239 0.9239 0.3827 -51.3957 583.5299)" class="st0" cx="411" cy="330.2" rx="4.7" ry="4.7"/>
			<path class="st0" d="M423.8,346.6c0,0,0.1,0.1,0.2,0.3c-0.3-0.1-0.5-0.3-0.8-0.4c0,0-9.5,11.8,9.5,30.7c0,0,5-16.6-3.1-26.1
				c4.9,2.2,13.2,3.2,26.4-2.9C455.9,348.2,436.1,333.5,423.8,346.6z"/>
			<circle class="st0" cx="453.5" cy="372.8" r="4.7"/>
			<path class="st0" d="M469.5,383.9c0,0,0.1,0.1,0.2,0.3c-0.3-0.1-0.5-0.3-0.8-0.4c0,0-9.5,11.8,9.5,30.7c0,0,5-16.6-3.1-26.1
				c4.9,2.2,13.2,3.2,26.4-2.9C501.6,385.5,481.8,370.8,469.5,383.9z"/>
			
				<ellipse transform="matrix(0.3827 -0.9239 0.9239 0.3827 -69.5094 715.1454)" class="st0" cx="500.4" cy="409.6" rx="4.7" ry="4.7"/>
			<path class="st0" d="M429.6,351.1c-3.2-1.5-4.9-3.4-5.5-4.2C426.3,348,428.1,349.5,429.6,351.1z"/>
			<path class="st0" d="M384.6,306.2c-3.2-1.5-4.9-3.4-5.5-4.2C381.4,303.1,383.2,304.6,384.6,306.2z"/>
			<path class="st0" d="M475.3,388.5c-3.2-1.5-4.9-3.4-5.5-4.2C472,385.4,473.8,386.8,475.3,388.5z"/>
			<path class="st0" d="M646.4,265.9"/>
			<path class="st0" d="M532.4,299.6c0,0-77.9-95.7-101.2-22.2"/>
			<path class="st0" d="M550,299.6c0,0,77.9-95.7,101.2-22.2"/>
			<line class="st0" x1="534.6" y1="419.8" x2="531.6" y2="421.4"/>
			<path class="st0" d="M535.6,440.6l-2,2l1-1l-10.1,10.1c0,0-6,4-11.1,4c-5,0-31.2,0-31.2,0c-1.3,0-2.7,0-4,0c-1.7-0.7-3.4-1.3-5-2
				c-9.4-3-18.8-6-28.2-9.1"/>
			<circle class="st0" cx="568.4" cy="356.5" r="5.5"/>
			<circle class="st0" cx="583.5" cy="307.2" r="5.5"/>
			<circle class="st0" cx="620.2" cy="269.4" r="9.1"/>
			<circle class="st0" cx="517" cy="357.5" r="5.5"/>
			<circle class="st0" cx="501.9" cy="308.2" r="5.5"/>
			<circle class="st0" cx="465.2" cy="270.4" r="9.1"/>
			<path class="st0" d="M577.5,409.6c0,2.6,2.1,4.7,4.7,4.7s4.7-2.1,4.7-4.7c0-2.6-2.1-4.7-4.7-4.7S577.5,407,577.5,409.6z"/>
			<path class="st0" d="M613.7,383.9c-0.3,0.1-0.5,0.2-0.8,0.4c0.1-0.2,0.2-0.3,0.2-0.3c-12.3-13.1-32.1,1.6-32.1,1.6
				c13.1,6.1,21.5,5.1,26.3,3c-8.1,9.6-3.1,26.1-3.1,26.1C623.1,395.7,613.7,383.9,613.7,383.9z"/>
			<path class="st0" d="M624.4,372.8c0,2.6,2.1,4.7,4.7,4.7c2.6,0,4.7-2.1,4.7-4.7c0-2.6-2.1-4.7-4.7-4.7
				C626.5,368,624.4,370.2,624.4,372.8z"/>
			<path class="st0" d="M659.3,346.5c-0.3,0.1-0.5,0.2-0.8,0.4c0.1-0.2,0.2-0.3,0.2-0.3c-12.3-13.1-32.1,1.6-32.1,1.6
				c13.1,6.1,21.5,5.1,26.3,2.9c-8.1,9.6-3.1,26.1-3.1,26.1C668.8,358.3,659.3,346.5,659.3,346.5z"/>
			<path class="st0" d="M666.9,330.2c0,2.6,2.1,4.7,4.7,4.7c2.6,0,4.7-2.1,4.7-4.7c0-2.6-2.1-4.7-4.7-4.7
				C669,325.5,666.9,327.6,666.9,330.2z"/>
			<path class="st0" d="M704.3,301.6c-0.3,0.1-0.5,0.2-0.8,0.4c0.1-0.2,0.2-0.3,0.2-0.3c-12.3-13.1-32.1,1.6-32.1,1.6
				c13.1,6.1,21.5,5.1,26.3,3c-8.1,9.6-3.1,26.1-3.1,26.1C713.7,313.4,704.3,301.6,704.3,301.6z"/>
			<path class="st0" d="M607.3,388.5c1.4-1.7,3.2-3.2,5.6-4.3C612.3,385,610.6,387,607.3,388.5z"/>
			<path class="st0" d="M653,351.1c1.4-1.7,3.2-3.2,5.6-4.3C658,347.6,656.3,349.7,653,351.1z"/>
			<path class="st0" d="M697.9,306.2c1.4-1.7,3.2-3.1,5.6-4.3C702.9,302.7,701.2,304.8,697.9,306.2z"/>
			<path class="st0" d="M531.6,398.3c0,0-81-115.6-107.5-125.8c-1.2-0.5-18.2-9.3-35.2-4.7c-5.7,1.5-18.8,10.7-21.1,12.6
				c-9.8,7.7-32.5,30.6-7.3,64.1c0,0,58.4,92,171.2,91"/>
			<path class="st0" d="M550.4,397.3c0,0,81-115.6,107.5-125.8c1.2-0.5,18.2-9.3,35.2-4.7c5.7,1.5,18.8,10.7,21.1,12.6
				c9.8,7.7,32.5,30.6,7.3,64.1c0,0-58.4,92-171.2,91"/>
		</g>
		<path class="st1" d="M540.2,270.8c0,0-13,14-46-22c0,0-2-4-12-5C482.2,243.8,513.2,230.8,540.2,270.8z"/>
		<path class="st1" d="M540.2,273.8"/>
		<path class="st1" d="M541.2,270.8c0,0,13,14,46-22c0,0,2-4,12-5C599.2,243.8,568.2,230.8,541.2,270.8z"/>
		<line class="st1" x1="540.7" y1="260.3" x2="540.7" y2="270.3"/>
		<ellipse class="st0" cx="540.7" cy="247.8" rx="5.5" ry="12"/>
		<path class="st0" d="M527.2,240.8c0,0-31,7-42-12c0,0-10-19-16-19c0,0,22-9,32,7S521.2,242.8,527.2,240.8z"/>
		<path class="st0" d="M554.2,240.8c0,0,31,7,42-12c0,0,10-19,16-19c0,0-22-9-32,7S560.2,242.8,554.2,240.8z"/>
		<path class="st1" d="M535.7,236.3c-2.1,0.5-11.3,2.2-20-3.1c-8.4-5.2-13.1-14.9-12.5-25.4c-0.1-3.3-0.6-9.3-4-16
			c-3.5-6.9-8.4-11-11-13c7.3-5.8,17.3-6.4,25-1.7c6.9,4.3,10.8,12.4,10,20.7c0,4.4,0.4,9.9,2,16C527.8,224,532.3,231.6,535.7,236.3
			z"/>
		<path class="st1" d="M545.2,236.3c2.1,0.5,11.3,2.2,20-3.1c8.4-5.2,13.1-14.9,12.5-25.4c0.1-3.3,0.6-9.3,4-16
			c3.5-6.9,8.4-11,11-13c-7.3-5.8-17.3-6.4-25-1.7c-6.9,4.3-10.8,12.4-10,20.7c0,4.4-0.4,9.9-2,16
			C553.1,224,548.6,231.6,545.2,236.3z"/>
		<path class="st1" d="M541.7,233.3c0,0-32-25,0-61"/>
		<path class="st1" d="M539.5,233.3c0,0,32-25,0-61"/>
	</g>
	<g>
		<g>
			<path class="st0" d="M536.4,692.6c0,0-24.2,69.5,5,103.7c0,0,27.2-26.2,5-103.7c0,0,13.1-14.1,2-42.3c0,0,6-10.1-7-14.1
				c0,0-13.1,3-6,14.1C535.4,650.3,522.3,675.5,536.4,692.6z"/>
			<path class="st0" d="M633.6,636.7c0,0-27.2-9.1-29.2-10.1c-2-1-8.1-1-8.1-1h-32.2c-6,0-16.1,11.1-16.1,11.1l-1,1"/>
			<path class="st0" d="M533.7,646.5c8.8-1.3,7.3-10.8,7.3-10.8"/>
			<path class="st0" d="M550.8,647.5c0,0-8.8-1.7-8.8-9.8"/>
			<path class="st0" d="M533.9,658.9c0,0,6,5,16.1,0"/>
			<path class="st0" d="M552.1,664.9c0,0-11.1,15.1-21.1,0"/>
			<path class="st0" d="M530,670.9c0,0,9.4,18.1,23.3,0"/>
			<path class="st0" d="M530.5,679.5c0,0,9.5,13.6,21.6,0"/>
			<path class="st0" d="M532.3,707.3c0,0,7.1,14.2,18,0"/>
			<path class="st0" d="M530.2,717.1c0,0,9.2,17,22.1,0"/>
			<path class="st0" d="M528.7,726.2c0,0,11.6,20,25,0"/>
			<path class="st0" d="M527.7,735.1c0,0,13.5,22.9,27,0"/>
			<path class="st0" d="M555.2,746c0,0-12.9,20.6-28.2,0"/>
			<path class="st0" d="M527.3,756c0,0,13.4,21.6,27.6,0"/>
			<path class="st0" d="M528.4,765.6c0,0,11.3,20.1,25.5,0"/>
			<polyline class="st0" points="540,780.7 542,780.7 543,780.7 			"/>
			<path class="st0" d="M379.2,777.6c0,0,0.1-0.1,0.2-0.3c-0.3,0.1-0.5,0.3-0.8,0.4c0,0-9.5-11.8,9.5-30.7c0,0,5,16.6-3.1,26.1
				c4.9-2.2,13.2-3.2,26.4,2.9C411.3,776,391.5,790.8,379.2,777.6z"/>
			
				<ellipse transform="matrix(0.9239 -0.3827 0.3827 0.9239 -255.36 214.4023)" class="st0" cx="411.3" cy="749.1" rx="4.7" ry="4.7"/>
			<path class="st0" d="M424.1,732.7c0,0,0.1-0.1,0.2-0.3c-0.3,0.1-0.5,0.3-0.8,0.4c0,0-9.5-11.8,9.5-30.7c0,0,5,16.6-3.1,26.1
				c4.9-2.2,13.2-3.2,26.4,2.9C456.2,731.1,436.4,745.9,424.1,732.7z"/>
			<circle class="st0" cx="453.8" cy="706.5" r="4.7"/>
			<path class="st0" d="M469.8,695.4c0,0,0.1-0.1,0.2-0.3c-0.3,0.1-0.5,0.3-0.8,0.4c0,0-9.5-11.8,9.5-30.7c0,0,5,16.6-3.1,26.1
				c4.9-2.2,13.2-3.2,26.4,2.9C501.9,693.8,482.1,708.5,469.8,695.4z"/>
			
				<ellipse transform="matrix(0.9239 -0.3827 0.3827 0.9239 -218.1818 242.5851)" class="st0" cx="500.7" cy="669.7" rx="4.7" ry="4.7"/>
			<path class="st0" d="M429.9,728.2c-3.2,1.5-4.9,3.4-5.5,4.2C426.6,731.3,428.4,729.8,429.9,728.2z"/>
			<path class="st0" d="M384.9,773.1c-3.2,1.5-4.9,3.4-5.5,4.2C381.7,776.2,383.5,774.8,384.9,773.1z"/>
			<path class="st0" d="M475.6,690.9c-3.2,1.5-4.9,3.4-5.5,4.2C472.3,694,474.1,692.5,475.6,690.9z"/>
			<path class="st0" d="M646.7,813.4"/>
			<path class="st0" d="M532.7,779.7c0,0-77.9,95.7-101.2,22.2"/>
			<path class="st0" d="M550.3,779.7c0,0,77.9,95.7,101.2,22.2"/>
			<line class="st0" x1="534.9" y1="659.5" x2="531.9" y2="657.9"/>
			<path class="st0" d="M535.9,638.7l-2-2l1,1l-10.1-10.1c0,0-6-4-11.1-4c-5,0-31.2,0-31.2,0c-1.3,0-2.7,0-4,0c-1.7,0.7-3.4,1.3-5,2
				c-9.4,3-18.8,6-28.2,9.1"/>
			<circle class="st0" cx="568.7" cy="722.8" r="5.5"/>
			<circle class="st0" cx="583.8" cy="772.2" r="5.5"/>
			<circle class="st0" cx="620.5" cy="809.9" r="9.1"/>
			<circle class="st0" cx="517.3" cy="721.8" r="5.5"/>
			<circle class="st0" cx="502.2" cy="771.1" r="5.5"/>
			<circle class="st0" cx="465.5" cy="808.9" r="9.1"/>
			<path class="st0" d="M577.8,669.7c0-2.6,2.1-4.7,4.7-4.7c2.6,0,4.7,2.1,4.7,4.7s-2.1,4.7-4.7,4.7
				C579.9,674.5,577.8,672.3,577.8,669.7z"/>
			<path class="st0" d="M613.9,695.5c-0.3-0.1-0.5-0.2-0.8-0.4c0.1,0.2,0.2,0.3,0.2,0.3c-12.3,13.1-32.1-1.6-32.1-1.6
				c13.1-6.1,21.5-5.1,26.3-3c-8.1-9.6-3.1-26.1-3.1-26.1C623.4,683.6,613.9,695.5,613.9,695.5z"/>
			<path class="st0" d="M624.7,706.5c0-2.6,2.1-4.7,4.7-4.7s4.7,2.1,4.7,4.7c0,2.6-2.1,4.7-4.7,4.7S624.7,709.2,624.7,706.5z"/>
			<path class="st0" d="M659.6,732.8c-0.3-0.1-0.5-0.2-0.8-0.4c0.1,0.2,0.2,0.3,0.2,0.3c-12.3,13.1-32.1-1.6-32.1-1.6
				c13.1-6.1,21.5-5.1,26.3-2.9c-8.1-9.6-3.1-26.1-3.1-26.1C669.1,721,659.6,732.8,659.6,732.8z"/>
			<path class="st0" d="M667.2,749.1c0-2.6,2.1-4.7,4.7-4.7c2.6,0,4.7,2.1,4.7,4.7c0,2.6-2.1,4.7-4.7,4.7
				C669.3,753.8,667.2,751.7,667.2,749.1z"/>
			<path class="st0" d="M704.6,777.7c-0.3-0.1-0.5-0.2-0.8-0.4c0.1,0.2,0.2,0.3,0.2,0.3c-12.3,13.1-32.1-1.6-32.1-1.6
				c13.1-6.1,21.5-5.1,26.3-3c-8.1-9.6-3.1-26.1-3.1-26.1C714,765.9,704.6,777.7,704.6,777.7z"/>
			<path class="st0" d="M607.6,690.8c1.4,1.7,3.2,3.2,5.6,4.3C612.6,694.4,610.9,692.3,607.6,690.8z"/>
			<path class="st0" d="M653.3,728.2c1.4,1.7,3.2,3.2,5.6,4.3C658.3,731.7,656.6,729.7,653.3,728.2z"/>
			<path class="st0" d="M698.2,773.1c1.4,1.7,3.2,3.1,5.6,4.3C703.2,776.6,701.5,774.6,698.2,773.1z"/>
			<path class="st0" d="M531.9,681c0,0-81,115.6-107.5,125.8c-1.2,0.5-18.2,9.3-35.2,4.7c-5.7-1.5-18.8-10.7-21.1-12.6
				c-9.8-7.7-32.5-30.6-7.3-64.1c0,0,58.4-92,171.2-91"/>
			<path class="st0" d="M550.7,682c0,0,81,115.6,107.5,125.8c1.2,0.5,18.2,9.3,35.2,4.7c5.7-1.5,18.8-10.7,21.1-12.6
				c9.8-7.7,32.5-30.6,7.3-64.1c0,0-58.4-92-171.2-91"/>
		</g>
		<path class="st1" d="M540.5,808.5c0,0-13-14-46,22c0,0-2,4-12,5C482.5,835.5,513.5,848.5,540.5,808.5z"/>
		<path class="st1" d="M540.5,805.5"/>
		<path class="st1" d="M541.5,808.5c0,0,13-14,46,22c0,0,2,4,12,5C599.5,835.5,568.5,848.5,541.5,808.5z"/>
		<line class="st1" x1="541" y1="819" x2="541" y2="809"/>
		<ellipse class="st0" cx="541" cy="831.5" rx="5.5" ry="12"/>
		<path class="st0" d="M527.5,838.5c0,0-31-7-42,12c0,0-10,19-16,19c0,0,22,9,32-7S521.5,836.5,527.5,838.5z"/>
		<path class="st0" d="M554.5,838.5c0,0,31-7,42,12c0,0,10,19,16,19c0,0-22,9-32-7S560.5,836.5,554.5,838.5z"/>
		<path class="st1" d="M536,843c-2.1-0.5-11.3-2.2-20,3.1c-8.4,5.2-13.1,14.9-12.5,25.4c-0.1,3.3-0.6,9.3-4,16
			c-3.5,6.9-8.4,11-11,13c7.3,5.8,17.3,6.4,25,1.7c6.9-4.3,10.8-12.4,10-20.7c0-4.4,0.4-9.9,2-16C528.1,855.3,532.6,847.7,536,843z"
			/>
		<path class="st1" d="M545.5,843c2.1-0.5,11.3-2.2,20,3.1c8.4,5.2,13.1,14.9,12.5,25.4c0.1,3.3,0.6,9.3,4,16c3.5,6.9,8.4,11,11,13
			c-7.3,5.8-17.3,6.4-25,1.7c-6.9-4.3-10.8-12.4-10-20.7c0-4.4-0.4-9.9-2-16C553.4,855.3,548.9,847.7,545.5,843z"/>
		<path class="st1" d="M542,846c0,0-32,25,0,61"/>
		<path class="st1" d="M539.8,846c0,0,32,25,0,61"/>
	</g>
	<g>
		<g>
			<path class="st0" d="M711.7,546.1c0,0,69.5,24.2,103.7-5c0,0-26.2-27.2-103.7-5c0,0-14.1-13.1-42.3-2c0,0-10.1-6-14.1,7
				c0,0,3,13.1,14.1,6C669.4,547.1,694.6,560.2,711.7,546.1z"/>
			<path class="st0" d="M655.9,448.9c0,0-9.1,27.2-10.1,29.2s-1,8.1-1,8.1v32.2c0,6,11.1,16.1,11.1,16.1l1,1"/>
			<path class="st0" d="M665.6,548.9c-1.3-8.8-10.8-7.3-10.8-7.3"/>
			<path class="st0" d="M666.6,531.7c0,0-1.7,8.8-9.8,8.8"/>
			<path class="st0" d="M678,548.6c0,0,5-6,0-16.1"/>
			<path class="st0" d="M684,530.5c0,0,15.1,11.1,0,21.1"/>
			<path class="st0" d="M690,552.6c0,0,18.1-9.4,0-23.3"/>
			<path class="st0" d="M698.6,552.1c0,0,13.6-9.5,0-21.6"/>
			<path class="st0" d="M726.4,550.3c0,0,14.2-7.1,0-18"/>
			<path class="st0" d="M736.3,552.4c0,0,17-9.2,0-22.1"/>
			<path class="st0" d="M745.3,553.9c0,0,20-11.6,0-25"/>
			<path class="st0" d="M754.2,554.9c0,0,22.9-13.5,0-27"/>
			<path class="st0" d="M765.1,527.4c0,0,20.6,12.9,0,28.2"/>
			<path class="st0" d="M775.1,555.3c0,0,21.6-13.4,0-27.6"/>
			<path class="st0" d="M784.7,554.2c0,0,20.1-11.3,0-25.5"/>
			<polyline class="st0" points="799.8,542.6 799.8,540.6 799.8,539.6 			"/>
			<path class="st0" d="M796.8,703.4c0,0-0.1-0.1-0.3-0.2c0.1,0.3,0.3,0.5,0.4,0.8c0,0-11.8,9.5-30.7-9.5c0,0,16.6-5,26.1,3.1
				c-2.2-4.9-3.2-13.2,2.9-26.4C795.2,671.3,809.9,691,796.8,703.4z"/>
			
				<ellipse transform="matrix(0.9239 -0.3827 0.3827 0.9239 -198.4193 345.0866)" class="st0" cx="768.2" cy="671.3" rx="4.7" ry="4.7"/>
			<path class="st0" d="M751.9,658.5c0,0-0.1-0.1-0.3-0.2c0.1,0.3,0.3,0.5,0.4,0.8c0,0-11.8,9.5-30.7-9.5c0,0,16.6-5,26.1,3.1
				c-2.2-4.9-3.2-13.2,2.9-26.4C750.2,626.3,765,646.1,751.9,658.5z"/>
			<circle class="st0" cx="725.7" cy="628.8" r="4.7"/>
			<path class="st0" d="M714.5,612.8c0,0-0.1-0.1-0.3-0.2c0.1,0.3,0.3,0.5,0.4,0.8c0,0-11.8,9.5-30.7-9.5c0,0,16.6-5,26.1,3.1
				c-2.2-4.9-3.2-13.2,2.9-26.4C712.9,580.7,727.7,600.4,714.5,612.8z"/>
			
				<ellipse transform="matrix(0.9239 -0.3827 0.3827 0.9239 -170.2364 307.9085)" class="st0" cx="688.9" cy="581.9" rx="4.7" ry="4.7"/>
			<path class="st0" d="M747.3,652.7c1.5,3.2,3.4,4.9,4.2,5.5C750.4,655.9,749,654.1,747.3,652.7z"/>
			<path class="st0" d="M792.2,697.6c1.5,3.2,3.4,4.9,4.2,5.5C795.3,700.8,793.9,699,792.2,697.6z"/>
			<path class="st0" d="M710,607c1.5,3.2,3.4,4.9,4.2,5.5C713.1,610.2,711.7,608.4,710,607z"/>
			<path class="st0" d="M832.6,435.9"/>
			<path class="st0" d="M798.8,549.9c0,0,95.7,77.9,22.2,101.2"/>
			<path class="st0" d="M798.8,532.3c0,0,95.7-77.9,22.2-101.2"/>
			<line class="st0" x1="678.7" y1="547.6" x2="677" y2="550.6"/>
			<path class="st0" d="M657.9,546.6l-2,2l1-1l-10.1,10.1c0,0-4,6-4,11.1s0,31.2,0,31.2c0,1.3,0,2.7,0,4c0.7,1.7,1.3,3.4,2,5
				c3,9.4,6,18.8,9.1,28.2"/>
			<circle class="st0" cx="741.9" cy="513.9" r="5.5"/>
			<circle class="st0" cx="791.3" cy="498.8" r="5.5"/>
			<circle class="st0" cx="829" cy="462" r="9.1"/>
			<circle class="st0" cx="740.9" cy="565.2" r="5.5"/>
			<circle class="st0" cx="790.3" cy="580.3" r="5.5"/>
			<circle class="st0" cx="828" cy="617.1" r="9.1"/>
			<path class="st0" d="M688.9,504.8c-2.6,0-4.7-2.1-4.7-4.7c0-2.6,2.1-4.7,4.7-4.7c2.6,0,4.7,2.1,4.7,4.7
				C693.6,502.7,691.5,504.8,688.9,504.8z"/>
			<path class="st0" d="M714.6,468.6c-0.1,0.3-0.2,0.5-0.4,0.8c0.2-0.1,0.3-0.2,0.3-0.2c13.1,12.3-1.6,32.1-1.6,32.1
				c-6.1-13.1-5.1-21.5-3-26.3c-9.6,8.1-26.1,3.1-26.1,3.1C702.8,459.2,714.6,468.6,714.6,468.6z"/>
			<path class="st0" d="M725.7,457.9c-2.6,0-4.7-2.1-4.7-4.7c0-2.6,2.1-4.7,4.7-4.7c2.6,0,4.7,2.1,4.7,4.7
				C730.4,455.8,728.3,457.9,725.7,457.9z"/>
			<path class="st0" d="M751.9,422.9c-0.1,0.3-0.2,0.5-0.4,0.8c0.2-0.1,0.3-0.2,0.3-0.2c13.1,12.3-1.6,32.1-1.6,32.1
				c-6.1-13.1-5.1-21.5-2.9-26.3c-9.6,8.1-26.1,3.1-26.1,3.1C740.1,413.5,751.9,422.9,751.9,422.9z"/>
			<path class="st0" d="M768.2,415.4c-2.6,0-4.7-2.1-4.7-4.7c0-2.6,2.1-4.7,4.7-4.7c2.6,0,4.7,2.1,4.7,4.7
				C772.9,413.3,770.8,415.4,768.2,415.4z"/>
			<path class="st0" d="M796.8,378c-0.1,0.3-0.2,0.5-0.4,0.8c0.2-0.1,0.3-0.2,0.3-0.2c13.1,12.3-1.6,32.1-1.6,32.1
				c-6.1-13.1-5.1-21.5-3-26.3c-9.6,8.1-26.1,3.1-26.1,3.1C785,368.5,796.8,378,796.8,378z"/>
			<path class="st0" d="M710,475c1.7-1.4,3.2-3.2,4.3-5.6C713.5,469.9,711.5,471.7,710,475z"/>
			<path class="st0" d="M747.3,429.3c1.7-1.4,3.2-3.2,4.3-5.6C750.8,424.2,748.8,426,747.3,429.3z"/>
			<path class="st0" d="M792.2,384.3c1.7-1.4,3.1-3.2,4.3-5.6C795.7,379.4,793.7,381.1,792.2,384.3z"/>
			<path class="st0" d="M700.2,550.6c0,0,115.6,81,125.8,107.5c0.5,1.2,9.3,18.2,4.7,35.2c-1.5,5.7-10.7,18.8-12.6,21.1
				c-7.7,9.8-30.6,32.5-64.1,7.3c0,0-92-58.4-91-171.2"/>
			<path class="st0" d="M701.2,531.9c0,0,115.6-81,125.8-107.5c0.5-1.2,9.3-18.2,4.7-35.2c-1.5-5.7-10.7-18.8-12.6-21.1
				c-7.7-9.8-30.6-32.5-64.1-7.3c0,0-92,58.4-91,171.2"/>
		</g>
		<path class="st1" d="M827.6,542.1c0,0-14,13,22,46c0,0,4,2,5,12C854.6,600.1,867.6,569.1,827.6,542.1z"/>
		<path class="st1" d="M824.6,542.1"/>
		<path class="st1" d="M827.6,541.1c0,0-14-13,22-46c0,0,4-2,5-12C854.6,483.1,867.6,514.1,827.6,541.1z"/>
		<line class="st1" x1="838.1" y1="541.6" x2="828.1" y2="541.6"/>
		<ellipse class="st0" cx="850.6" cy="541.6" rx="12" ry="5.5"/>
		<path class="st0" d="M857.6,555.1c0,0-7,31,12,42c0,0,19,10,19,16c0,0,9-22-7-32S855.6,561.1,857.6,555.1z"/>
		<path class="st0" d="M857.6,528.1c0,0-7-31,12-42c0,0,19-10,19-16c0,0,9,22-7,32C865.6,512.1,855.6,522.1,857.6,528.1z"/>
		<path class="st1" d="M862.1,546.6c-0.5,2.1-2.2,11.3,3.1,20c5.2,8.4,14.9,13.1,25.4,12.5c3.3,0.1,9.3,0.6,16,4
			c6.9,3.5,11,8.4,13,11c5.8-7.3,6.4-17.3,1.7-25c-4.3-6.9-12.4-10.8-20.7-10c-4.4,0-9.9-0.4-16-2
			C874.4,554.5,866.9,550,862.1,546.6z"/>
		<path class="st1" d="M862.1,537.1c-0.5-2.1-2.2-11.3,3.1-20c5.2-8.4,14.9-13.1,25.4-12.5c3.3-0.1,9.3-0.6,16-4
			c6.9-3.5,11-8.4,13-11c5.8,7.3,6.4,17.3,1.7,25c-4.3,6.9-12.4,10.8-20.7,10c-4.4,0-9.9,0.4-16,2
			C874.4,529.1,866.9,533.7,862.1,537.1z"/>
		<path class="st1" d="M865.1,540.6c0,0,25,32,61,0"/>
		<path class="st1" d="M865.1,542.8c0,0,25-32,61,0"/>
	</g>
	<g>
		<g>
			<path class="st0" d="M368.2,546.1c0,0-69.5,24.2-103.7-5c0,0,26.2-27.2,103.7-5c0,0,14.1-13.1,42.3-2c0,0,10.1-6,14.1,7
				c0,0-3,13.1-14.1,6C410.4,547.1,385.3,560.2,368.2,546.1z"/>
			<path class="st0" d="M424,448.9c0,0,9.1,27.2,10.1,29.2c1,2,1,8.1,1,8.1v32.2c0,6-11.1,16.1-11.1,16.1l-1,1"/>
			<path class="st0" d="M414.3,548.9c1.3-8.8,10.8-7.3,10.8-7.3"/>
			<path class="st0" d="M413.3,531.7c0,0,1.7,8.8,9.8,8.8"/>
			<path class="st0" d="M401.9,548.6c0,0-5-6,0-16.1"/>
			<path class="st0" d="M395.8,530.5c0,0-15.1,11.1,0,21.1"/>
			<path class="st0" d="M389.9,552.6c0,0-18.1-9.4,0-23.3"/>
			<path class="st0" d="M381.3,552.1c0,0-13.6-9.5,0-21.6"/>
			<path class="st0" d="M353.5,550.3c0,0-14.2-7.1,0-18"/>
			<path class="st0" d="M343.6,552.4c0,0-17-9.2,0-22.1"/>
			<path class="st0" d="M334.5,553.9c0,0-20-11.6,0-25"/>
			<path class="st0" d="M325.7,554.9c0,0-22.9-13.5,0-27"/>
			<path class="st0" d="M314.8,527.4c0,0-20.6,12.9,0,28.2"/>
			<path class="st0" d="M304.8,555.3c0,0-21.6-13.4,0-27.6"/>
			<path class="st0" d="M295.2,554.2c0,0-20.1-11.3,0-25.5"/>
			<polyline class="st0" points="280.1,542.6 280.1,540.6 280.1,539.6 			"/>
			<path class="st0" d="M283.1,703.4c0,0,0.1-0.1,0.3-0.2c-0.1,0.3-0.3,0.5-0.4,0.8c0,0,11.8,9.5,30.7-9.5c0,0-16.6-5-26.1,3.1
				c2.2-4.9,3.2-13.2-2.9-26.4C284.7,671.3,270,691,283.1,703.4z"/>
			
				<ellipse transform="matrix(0.3827 -0.9239 0.9239 0.3827 -427.8027 702.355)" class="st0" cx="311.7" cy="671.3" rx="4.7" ry="4.7"/>
			<path class="st0" d="M328,658.5c0,0,0.1-0.1,0.3-0.2c-0.1,0.3-0.3,0.5-0.4,0.8c0,0,11.8,9.5,30.7-9.5c0,0-16.6-5-26.1,3.1
				c2.2-4.9,3.2-13.2-2.9-26.4C329.7,626.3,314.9,646.1,328,658.5z"/>
			<circle class="st0" cx="354.2" cy="628.8" r="4.7"/>
			<path class="st0" d="M365.4,612.8c0,0,0.1-0.1,0.3-0.2c-0.1,0.3-0.3,0.5-0.4,0.8c0,0,11.8,9.5,30.7-9.5c0,0-16.6-5-26.1,3.1
				c2.2-4.9,3.2-13.2-2.9-26.4C367,580.7,352.2,600.4,365.4,612.8z"/>
			
				<ellipse transform="matrix(0.3827 -0.9239 0.9239 0.3827 -296.1873 720.4687)" class="st0" cx="391" cy="581.9" rx="4.7" ry="4.7"/>
			<path class="st0" d="M332.6,652.7c-1.5,3.2-3.4,4.9-4.2,5.5C329.5,655.9,330.9,654.1,332.6,652.7z"/>
			<path class="st0" d="M287.7,697.6c-1.5,3.2-3.4,4.9-4.2,5.5C284.6,700.8,286,699,287.7,697.6z"/>
			<path class="st0" d="M369.9,607c-1.5,3.2-3.4,4.9-4.2,5.5C366.8,610.2,368.2,608.4,369.9,607z"/>
			<path class="st0" d="M247.3,435.9"/>
			<path class="st0" d="M281.1,549.9c0,0-95.7,77.9-22.2,101.2"/>
			<path class="st0" d="M281.1,532.3c0,0-95.7-77.9-22.2-101.2"/>
			<line class="st0" x1="401.2" y1="547.6" x2="402.9" y2="550.6"/>
			<path class="st0" d="M422,546.6l2,2l-1-1l10.1,10.1c0,0,4,6,4,11.1s0,31.2,0,31.2c0,1.3,0,2.7,0,4c-0.7,1.7-1.3,3.4-2,5
				c-3,9.4-6,18.8-9.1,28.2"/>
			<circle class="st0" cx="338" cy="513.9" r="5.5"/>
			<circle class="st0" cx="288.6" cy="498.8" r="5.5"/>
			<circle class="st0" cx="250.9" cy="462" r="9.1"/>
			<circle class="st0" cx="339" cy="565.2" r="5.5"/>
			<circle class="st0" cx="289.6" cy="580.3" r="5.5"/>
			<circle class="st0" cx="251.9" cy="617.1" r="9.1"/>
			<path class="st0" d="M391,504.8c2.6,0,4.7-2.1,4.7-4.7c0-2.6-2.1-4.7-4.7-4.7c-2.6,0-4.7,2.1-4.7,4.7
				C386.3,502.7,388.4,504.8,391,504.8z"/>
			<path class="st0" d="M365.3,468.6c0.1,0.3,0.2,0.5,0.4,0.8c-0.2-0.1-0.3-0.2-0.3-0.2c-13.1,12.3,1.6,32.1,1.6,32.1
				c6.1-13.1,5.1-21.5,3-26.3c9.6,8.1,26.1,3.1,26.1,3.1C377.1,459.2,365.3,468.6,365.3,468.6z"/>
			<path class="st0" d="M354.2,457.9c2.6,0,4.7-2.1,4.7-4.7c0-2.6-2.1-4.7-4.7-4.7c-2.6,0-4.7,2.1-4.7,4.7
				C349.5,455.8,351.6,457.9,354.2,457.9z"/>
			<path class="st0" d="M328,422.9c0.1,0.3,0.2,0.5,0.4,0.8c-0.2-0.1-0.3-0.2-0.3-0.2c-13.1,12.3,1.6,32.1,1.6,32.1
				c6.1-13.1,5.1-21.5,2.9-26.3c9.6,8.1,26.1,3.1,26.1,3.1C339.8,413.5,328,422.9,328,422.9z"/>
			<path class="st0" d="M311.7,415.4c2.6,0,4.7-2.1,4.7-4.7c0-2.6-2.1-4.7-4.7-4.7c-2.6,0-4.7,2.1-4.7,4.7
				C306.9,413.3,309.1,415.4,311.7,415.4z"/>
			<path class="st0" d="M283.1,378c0.1,0.3,0.2,0.5,0.4,0.8c-0.2-0.1-0.3-0.2-0.3-0.2c-13.1,12.3,1.6,32.1,1.6,32.1
				c6.1-13.1,5.1-21.5,3-26.3c9.6,8.1,26.1,3.1,26.1,3.1C294.9,368.5,283.1,378,283.1,378z"/>
			<path class="st0" d="M369.9,475c-1.7-1.4-3.2-3.2-4.3-5.6C366.4,469.9,368.4,471.7,369.9,475z"/>
			<path class="st0" d="M332.6,429.3c-1.7-1.4-3.2-3.2-4.3-5.6C329.1,424.2,331.1,426,332.6,429.3z"/>
			<path class="st0" d="M287.7,384.3c-1.7-1.4-3.1-3.2-4.3-5.6C284.2,379.4,286.2,381.1,287.7,384.3z"/>
			<path class="st0" d="M379.7,550.6c0,0-115.6,81-125.8,107.5c-0.5,1.2-9.3,18.2-4.7,35.2c1.5,5.7,10.7,18.8,12.6,21.1
				c7.7,9.8,30.6,32.5,64.1,7.3c0,0,92-58.4,91-171.2"/>
			<path class="st0" d="M378.7,531.9c0,0-115.6-81-125.8-107.5c-0.5-1.2-9.3-18.2-4.7-35.2c1.5-5.7,10.7-18.8,12.6-21.1
				c7.7-9.8,30.6-32.5,64.1-7.3c0,0,92,58.4,91,171.2"/>
		</g>
		<path class="st1" d="M252.3,542.1c0,0,14,13-22,46c0,0-4,2-5,12C225.3,600.1,212.3,569.1,252.3,542.1z"/>
		<path class="st1" d="M255.3,542.1"/>
		<path class="st1" d="M252.3,541.1c0,0,14-13-22-46c0,0-4-2-5-12C225.3,483.1,212.3,514.1,252.3,541.1z"/>
		<line class="st1" x1="241.8" y1="541.6" x2="251.8" y2="541.6"/>
		<ellipse class="st0" cx="229.3" cy="541.6" rx="12" ry="5.5"/>
		<path class="st0" d="M222.3,555.1c0,0,7,31-12,42c0,0-19,10-19,16c0,0-9-22,7-32S224.3,561.1,222.3,555.1z"/>
		<path class="st0" d="M222.3,528.1c0,0,7-31-12-42c0,0-19-10-19-16c0,0-9,22,7,32C214.3,512.1,224.3,522.1,222.3,528.1z"/>
		<path class="st1" d="M217.8,546.6c0.5,2.1,2.2,11.3-3.1,20c-5.2,8.4-14.9,13.1-25.4,12.5c-3.3,0.1-9.3,0.6-16,4
			c-6.9,3.5-11,8.4-13,11c-5.8-7.3-6.4-17.3-1.7-25c4.3-6.9,12.4-10.8,20.7-10c4.4,0,9.9-0.4,16-2C205.5,554.5,213,550,217.8,546.6z
			"/>
		<path class="st1" d="M217.8,537.1c0.5-2.1,2.2-11.3-3.1-20c-5.2-8.4-14.9-13.1-25.4-12.5c-3.3-0.1-9.3-0.6-16-4
			c-6.9-3.5-11-8.4-13-11c-5.8,7.3-6.4,17.3-1.7,25c4.3,6.9,12.4,10.8,20.7,10c4.4,0,9.9,0.4,16,2
			C205.5,529.1,213,533.7,217.8,537.1z"/>
		<path class="st1" d="M214.8,540.6c0,0-25,32-61,0"/>
		<path class="st1" d="M214.8,542.8c0,0-25-32-61,0"/>
	</g>
</g>
</svg>
