<?xml version="1.0" encoding="utf-8"?>
<!-- Generator: Adobe Illustrator 22.1.0, SVG Export Plug-In . SVG Version: 6.00 Build 0)  -->
<svg version="1.1" id="Layer_1" xmlns="http://www.w3.org/2000/svg" xmlns:xlink="http://www.w3.org/1999/xlink" x="0px" y="0px"
	 viewBox="0 0 100 360" style="enable-background:new 0 0 100 360;" xml:space="preserve">
<style type="text/css">
	.st0{fill:none;stroke:#FFFFFF;stroke-width:3;stroke-miterlimit:10;}
</style>
<g>
	<polyline class="st0" points="8.9,161.1 44.4,182.5 8.9,205.4 	"/>
	<path class="st0" d="M9.1,142.1c0,0,9,20.4,8.4,24.2"/>
	<path class="st0" d="M9.1,225c0,0,9-20.4,8.4-24.2"/>
	<path class="st0" d="M8.7,95.5c0,0,95,71.7,0,172.6"/>
	<g>
		<line class="st0" x1="32" y1="120.9" x2="38.3" y2="115.1"/>
		<line class="st0" x1="35.5" y1="126.2" x2="48.6" y2="118"/>
		<polyline class="st0" points="35,112.9 35.5,117.2 40.1,118 		"/>
		<polyline class="st0" points="32.4,115.8 33.1,119.9 36.8,121 		"/>
		<circle class="st0" cx="40.9" cy="112.9" r="3"/>
		<line class="st0" x1="38.7" y1="130.9" x2="47" y2="129"/>
		<polyline class="st0" points="45.3,125.5 43.5,129.4 47.1,132.5 		"/>
		<polyline class="st0" points="41.5,126.7 40.1,130.6 42.8,133.4 		"/>
		<circle class="st0" cx="50.4" cy="128.4" r="3"/>
		<polyline class="st0" points="39.4,119.1 39.4,123.6 43.1,125.8 		"/>
		<line class="st0" x1="42.7" y1="117.3" x2="42.7" y2="121.4"/>
		<polyline class="st0" points="46,115.5 46,119.1 46,119.6 49.7,121.7 		"/>
		<line class="st0" x1="42.9" y1="121.6" x2="46.4" y2="124"/>
		<circle class="st0" cx="51.2" cy="116.6" r="3"/>
	</g>
	<g>
		<line class="st0" x1="51.1" y1="176.5" x2="59.6" y2="175.4"/>
		<line class="st0" x1="50.9" y1="182.8" x2="66.4" y2="183.7"/>
		<polyline class="st0" points="58.2,171.6 56.1,175.4 59.4,178.9 		"/>
		<polyline class="st0" points="54.3,172.6 52.6,176.3 55,179.4 		"/>
		<circle class="st0" cx="63" cy="175" r="3"/>
		<line class="st0" x1="50.9" y1="188.5" x2="58.8" y2="191.8"/>
		<polyline class="st0" points="59.4,187.9 55.7,190.1 56.9,194.7 		"/>
		<polyline class="st0" points="55.6,186.8 52.2,189.1 52.8,193 		"/>
		<circle class="st0" cx="61.9" cy="193.2" r="3"/>
		<polyline class="st0" points="58.2,179.3 55.6,183 57.4,186.9 		"/>
		<line class="st0" x1="62" y1="179.7" x2="59.6" y2="183.1"/>
		<polyline class="st0" points="65.8,180.1 63.6,183.2 63.4,183.6 65.2,187.4 		"/>
		<line class="st0" x1="59.6" y1="183.3" x2="61.2" y2="187.3"/>
		<circle class="st0" cx="69.4" cy="184" r="3"/>
	</g>
	<g>
		<line class="st0" x1="35.5" y1="232.9" x2="43.4" y2="236.2"/>
		<line class="st0" x1="32.1" y1="238.3" x2="45.1" y2="246.8"/>
		<polyline class="st0" points="44,232.2 40.3,234.5 41.5,239.1 		"/>
		<polyline class="st0" points="40.2,231.1 36.8,233.5 37.4,237.3 		"/>
		<circle class="st0" cx="46.5" cy="237.6" r="3"/>
		<line class="st0" x1="29.2" y1="243.2" x2="34.4" y2="250"/>
		<polyline class="st0" points="36.9,246.9 32.6,247 31.3,251.6 		"/>
		<polyline class="st0" points="34.2,244 30.1,244.4 28.6,248 		"/>
		<circle class="st0" cx="36.4" cy="252.8" r="3"/>
		<polyline class="st0" points="40.1,238.9 36.1,240.8 35.7,245.1 		"/>
		<line class="st0" x1="43.2" y1="241.1" x2="39.5" y2="242.8"/>
		<polyline class="st0" points="46.3,243.4 43,244.9 42.5,245.1 42.2,249.4 		"/>
		<line class="st0" x1="39.4" y1="243.1" x2="38.8" y2="247.3"/>
		<circle class="st0" cx="47.5" cy="248.5" r="3"/>
	</g>
	<path class="st0" d="M8.7,6.4c0,14,0,28,0,42c0.1,102.7,0.2,205.3,0.3,308"/>
	<path class="st0" d="M8.7,112.1c6.2,7,11.6,14.8,15.9,23.2c4.3,8.2,7.5,17,9.6,26.1c1.2,5.1,1.9,10.3,2.3,15.6"/>
	<path class="st0" d="M25.6,195.8c-2.2,15.6-8.5,30.8-16.5,44"/>
	<path class="st0" d="M9.6,127.5c8.2,13.3,14.5,27.7,16.3,43.4"/>
	<g>
		<path class="st0" d="M16.7,102.6c0,0,14.6-20.4,39.4-2.6c0,0,9.6,7,18.5,2.6"/>
		<path class="st0" d="M47.1,152.7c5.7-0.9,10.9-4.2,15-8.6c4.1-4.4,5.9-10.3,5.9-16.3c-0.4-8.9-1.5-19.2,6.8-25"/>
	</g>
	<g>
		<path class="st0" d="M48.2,153.5c0,0,23.7-8.3,33.8,20.4c0,0,3.8,11.3,13.7,12.7"/>
		<path class="st0" d="M44.4,212c5.2,2.6,11.3,2.8,17.2,1.5s10.8-5.1,14.2-9.9c4.8-7.5,9.8-16.6,19.9-16.6"/>
	</g>
	<g>
		<path class="st0" d="M44.7,213.2c0,0,24.7,4.6,19,34.6c0,0-2.3,11.7,5.5,17.8"/>
		<path class="st0" d="M13.2,263.5c4.5,5.9,11.5,8.8,18.6,9.6c3.7,0,7-0.7,10.3-1.8c8.5-4.1,17.7-10,26.9-5.2"/>
	</g>
	<g>
		<path class="st0" d="M12.5,264.2c0,0,20.4,14.6,2.6,39.4c0,0-7,9.6-2.6,18.5"/>
		<path class="st0" d="M9.8,319.8c0.9,0.8,1.7,1.6,2.4,2.5"/>
	</g>
	<g>
		<path class="st0" d="M16.6,101.7c0,0,20.4-14.6,2.6-39.4c0,0-7-9.6-2.6-18.5"/>
		<path class="st0" d="M16.3,43.6c-0.7,0.9-1.5,1.8-2.4,2.5c0,0-4.4,3.5-5.2,2.4"/>
	</g>
	<path class="st0" d="M43.8,112.9"/>
	<circle class="st0" cx="30" cy="130.8" r="2.8"/>
	<circle class="st0" cx="28.1" cy="235" r="2.8"/>
	<circle class="st0" cx="41.1" cy="156.7" r="2.8"/>
	<circle class="st0" cx="14.1" cy="109.7" r="2.8"/>
	<circle class="st0" cx="12.6" cy="257.9" r="2.8"/>
	<circle class="st0" cx="38.1" cy="210.3" r="2.8"/>
	<path class="st0" d="M8.7,133.6c0,0,12.9,22.8,12.9,35.2"/>
	<path class="st0" d="M8.7,232.7c0,0,12.9-22.8,12.9-35.2"/>
	<path class="st0" d="M36.4,187.1c0,0-3.3,37.8-27.3,64.4"/>
</g>
</svg>
