<?xml version="1.0" encoding="utf-8"?>
<!-- Generator: Adobe Illustrator 22.1.0, SVG Export Plug-In . SVG Version: 6.00 Build 0)  -->
<svg version="1.1" id="Layer_1" xmlns="http://www.w3.org/2000/svg" xmlns:xlink="http://www.w3.org/1999/xlink" x="0px" y="0px"
	 viewBox="0 0 350 1080" style="enable-background:new 0 0 350 1080;" xml:space="preserve">
<style type="text/css">
	.st0{fill:none;stroke:#FFFFFF;stroke-width:3;stroke-miterlimit:10;}
</style>
<g>
	<polyline class="st0" points="60.5,475 156.5,533 60.5,595 	"/>
	<path class="st0" d="M61,423.5c0,0,24.5,55.1,22.7,65.5"/>
	<path class="st0" d="M61,648c0,0,24.5-55.1,22.7-65.5"/>
	<path class="st0" d="M60,297.5c0,0,257,194,0,467"/>
	<g>
		<line class="st0" x1="123" y1="366.1" x2="140" y2="350.5"/>
		<line class="st0" x1="132.4" y1="380.5" x2="168" y2="358.5"/>
		<polyline class="st0" points="131,344.5 132.4,356.1 145,358.5 		"/>
		<polyline class="st0" points="124,352.5 125.9,363.4 136,366.5 		"/>
		<circle class="st0" cx="147" cy="344.5" r="8"/>
		<line class="st0" x1="141.1" y1="393.2" x2="163.7" y2="388.2"/>
		<polyline class="st0" points="158.9,378.5 154.3,389.3 164,397.7 		"/>
		<polyline class="st0" points="148.8,382 145,392.4 152.2,400.1 		"/>
		<circle class="st0" cx="172.7" cy="386.5" r="8"/>
		<polyline class="st0" points="143,361.5 143,373.5 153,379.5 		"/>
		<line class="st0" x1="152" y1="356.5" x2="152" y2="367.5"/>
		<polyline class="st0" points="161,351.5 161,361.5 161,362.8 171,368.5 		"/>
		<line class="st0" x1="152.4" y1="368.1" x2="162" y2="374.5"/>
		<circle class="st0" cx="175" cy="354.5" r="8"/>
	</g>
	<g>
		<line class="st0" x1="174.8" y1="516.6" x2="197.7" y2="513.6"/>
		<line class="st0" x1="174.2" y1="533.8" x2="216.1" y2="536.2"/>
		<polyline class="st0" points="193.8,503.5 188.3,513.8 197.2,523 		"/>
		<polyline class="st0" points="183.5,506.1 178.7,516.1 185.3,524.4 		"/>
		<circle class="st0" cx="206.9" cy="512.7" r="8"/>
		<line class="st0" x1="174.1" y1="549.2" x2="195.4" y2="558.1"/>
		<polyline class="st0" points="197.1,547.4 187.1,553.5 190.3,566 		"/>
		<polyline class="st0" points="186.9,544.4 177.7,550.8 179.3,561.2 		"/>
		<circle class="st0" cx="203.8" cy="561.9" r="8"/>
		<polyline class="st0" points="193.9,524.3 187,534.2 191.7,544.8 		"/>
		<line class="st0" x1="204.1" y1="525.4" x2="197.8" y2="534.4"/>
		<polyline class="st0" points="214.4,526.5 208.6,534.6 207.9,535.7 212.8,546.1 		"/>
		<line class="st0" x1="197.7" y1="535.2" x2="202" y2="545.9"/>
		<circle class="st0" cx="224.1" cy="536.9" r="8"/>
	</g>
	<g>
		<line class="st0" x1="132.4" y1="669.3" x2="153.8" y2="678.1"/>
		<line class="st0" x1="123.3" y1="683.9" x2="158.4" y2="706.9"/>
		<polyline class="st0" points="155.4,667.4 145.5,673.5 148.6,686 		"/>
		<polyline class="st0" points="145.2,664.4 136.1,670.8 137.6,681.2 		"/>
		<circle class="st0" cx="162.2" cy="681.9" r="8"/>
		<line class="st0" x1="115.5" y1="697.2" x2="129.6" y2="715.5"/>
		<polyline class="st0" points="136.3,707 124.6,707.4 121.1,719.8 		"/>
		<polyline class="st0" points="129,699.4 117.9,700.3 114,710.1 		"/>
		<circle class="st0" cx="134.9" cy="723" r="8"/>
		<polyline class="st0" points="145.1,685.5 134.2,690.5 133,702.1 		"/>
		<line class="st0" x1="153.4" y1="691.5" x2="143.4" y2="696.2"/>
		<polyline class="st0" points="161.8,697.6 152.7,701.8 151.5,702.3 150.6,713.8 		"/>
		<line class="st0" x1="143" y1="696.8" x2="141.3" y2="708.2"/>
		<circle class="st0" cx="164.9" cy="711.5" r="8"/>
	</g>
	<path class="st0" d="M60,56.5c0,37.9,0.1,75.8,0.1,113.6c0.3,277.8,0.6,555.6,0.9,833.4"/>
	<path class="st0" d="M60,342.5c16.8,19,31.3,40.1,43,62.6c11.6,22.3,20.3,46.1,25.9,70.6c3.1,13.9,5.2,28,6.2,42.2"/>
	<path class="st0" d="M105.6,568.7C99.5,611,82.5,652,61,687.7"/>
	<path class="st0" d="M62.3,384.1c22.2,35.9,39.2,74.9,44,117.4"/>
	<g>
		<path class="st0" d="M81.5,316.6c0,0,39.5-55.2,106.5-7.2c0,0,26,19,50,7"/>
		<path class="st0" d="M164,452.3c15.5-2.3,29.5-11.3,40.5-23.3s16-28,16-44c-1-24-4-52,18.3-67.6"/>
	</g>
	<g>
		<path class="st0" d="M167,454.4c0,0,64-22.5,91.4,55.2c0,0,10.4,30.5,36.9,34.4"/>
		<path class="st0" d="M156.7,612.8c14.1,7,30.7,7.6,46.6,4.1c15.9-3.5,29.2-13.8,38.3-26.9c12.9-20.2,26.5-44.9,53.7-44.8"/>
	</g>
	<g>
		<path class="st0" d="M157.5,616c0,0,66.7,12.5,51.5,93.5c0,0-6.2,31.6,14.8,48.3"/>
		<path class="st0" d="M72.3,752.1C84.5,768,103.5,776,122.5,778c10,0,19-2,28-5c23-11,48-27,72.8-14"/>
	</g>
	<g>
		<path class="st0" d="M70.4,754c0,0,55.2,39.5,7.2,106.5c0,0-19,26-7,50"/>
		<path class="st0" d="M63,904.4c2.5,2,4.7,4.4,6.6,6.9"/>
	</g>
	<g>
		<path class="st0" d="M81.4,314.3c0,0,55.2-39.5,7.2-106.5c0,0-19-26-7-50"/>
		<path class="st0" d="M80.6,157c-1.9,2.5-4.1,4.9-6.6,6.9c0,0-12,9.5-14,6.5"/>
	</g>
	<path class="st0" d="M155,344.5"/>
	<circle class="st0" cx="117.5" cy="393" r="7.5"/>
	<circle class="st0" cx="112.5" cy="675" r="7.5"/>
	<circle class="st0" cx="147.5" cy="463" r="7.5"/>
	<circle class="st0" cx="74.5" cy="336" r="7.5"/>
	<circle class="st0" cx="70.5" cy="737" r="7.5"/>
	<circle class="st0" cx="139.5" cy="608" r="7.5"/>
	<path class="st0" d="M60,400.5c0,0,34.9,61.6,34.9,95.3"/>
	<path class="st0" d="M60,668.8c0,0,34.9-61.6,34.9-95.3"/>
	<path class="st0" d="M134.9,545.2c0,0-8.9,102.3-73.9,174.3"/>
</g>
</svg>
