<?xml version="1.0" encoding="utf-8"?>
<!-- Generator: Adobe Illustrator 22.1.0, SVG Export Plug-In . SVG Version: 6.00 Build 0)  -->
<svg version="1.1" id="Layer_1" xmlns="http://www.w3.org/2000/svg" xmlns:xlink="http://www.w3.org/1999/xlink" x="0px" y="0px"
	 viewBox="0 0 350 1080" style="enable-background:new 0 0 350 1080;" xml:space="preserve">
<style type="text/css">
	.st0{fill:none;stroke:#FFFFFF;stroke-width:3;stroke-miterlimit:10;}
</style>
<g>
	<polyline class="st0" points="294.9,475 198.9,533 294.9,595 	"/>
	<path class="st0" d="M294.4,423.5c0,0-24.5,55.1-22.7,65.5"/>
	<path class="st0" d="M294.4,648c0,0-24.5-55.1-22.7-65.5"/>
	<path class="st0" d="M295.4,297.5c0,0-257,194,0,467"/>
	<g>
		<line class="st0" x1="232.4" y1="366.1" x2="215.4" y2="350.5"/>
		<line class="st0" x1="223" y1="380.5" x2="187.4" y2="358.5"/>
		<polyline class="st0" points="224.4,344.5 223,356.1 210.4,358.5 		"/>
		<polyline class="st0" points="231.4,352.5 229.5,363.4 219.4,366.5 		"/>
		<circle class="st0" cx="208.4" cy="344.5" r="8"/>
		<line class="st0" x1="214.3" y1="393.2" x2="191.7" y2="388.2"/>
		<polyline class="st0" points="196.5,378.5 201.1,389.3 191.4,397.7 		"/>
		<polyline class="st0" points="206.6,382 210.4,392.4 203.2,400.1 		"/>
		<circle class="st0" cx="182.7" cy="386.5" r="8"/>
		<polyline class="st0" points="212.4,361.5 212.4,373.5 202.4,379.5 		"/>
		<line class="st0" x1="203.4" y1="356.5" x2="203.4" y2="367.5"/>
		<polyline class="st0" points="194.4,351.5 194.4,361.5 194.4,362.8 184.4,368.5 		"/>
		<line class="st0" x1="203" y1="368.1" x2="193.4" y2="374.5"/>
		<circle class="st0" cx="180.4" cy="354.5" r="8"/>
	</g>
	<g>
		<line class="st0" x1="180.6" y1="516.6" x2="157.7" y2="513.6"/>
		<line class="st0" x1="181.2" y1="533.8" x2="139.3" y2="536.2"/>
		<polyline class="st0" points="161.6,503.5 167.1,513.8 158.2,523 		"/>
		<polyline class="st0" points="171.9,506.1 176.7,516.1 170.1,524.4 		"/>
		<circle class="st0" cx="148.5" cy="512.7" r="8"/>
		<line class="st0" x1="181.3" y1="549.2" x2="159.9" y2="558.1"/>
		<polyline class="st0" points="158.3,547.4 168.3,553.5 165.1,566 		"/>
		<polyline class="st0" points="168.5,544.4 177.7,550.8 176.1,561.2 		"/>
		<circle class="st0" cx="151.6" cy="561.9" r="8"/>
		<polyline class="st0" points="161.5,524.3 168.4,534.2 163.6,544.8 		"/>
		<line class="st0" x1="151.3" y1="525.4" x2="157.6" y2="534.4"/>
		<polyline class="st0" points="141,526.5 146.8,534.6 147.5,535.7 142.6,546.1 		"/>
		<line class="st0" x1="157.7" y1="535.2" x2="153.4" y2="545.9"/>
		<circle class="st0" cx="131.3" cy="536.9" r="8"/>
	</g>
	<g>
		<line class="st0" x1="223" y1="669.3" x2="201.6" y2="678.1"/>
		<line class="st0" x1="232.1" y1="683.9" x2="197" y2="706.9"/>
		<polyline class="st0" points="200,667.4 209.9,673.5 206.7,686 		"/>
		<polyline class="st0" points="210.2,664.4 219.3,670.8 217.8,681.2 		"/>
		<circle class="st0" cx="193.2" cy="681.9" r="8"/>
		<line class="st0" x1="239.9" y1="697.2" x2="225.8" y2="715.5"/>
		<polyline class="st0" points="219.1,707 230.8,707.4 234.2,719.8 		"/>
		<polyline class="st0" points="226.4,699.4 237.5,700.3 241.4,710.1 		"/>
		<circle class="st0" cx="220.5" cy="723" r="8"/>
		<polyline class="st0" points="210.3,685.5 221.2,690.5 222.4,702.1 		"/>
		<line class="st0" x1="202" y1="691.5" x2="211.9" y2="696.2"/>
		<polyline class="st0" points="193.6,697.6 202.7,701.8 203.9,702.3 204.8,713.8 		"/>
		<line class="st0" x1="212.4" y1="696.8" x2="214.1" y2="708.2"/>
		<circle class="st0" cx="190.4" cy="711.5" r="8"/>
	</g>
	<path class="st0" d="M295.4,56.5c0,37.9-0.1,75.8-0.1,113.6c-0.3,277.8-0.6,555.6-0.9,833.4"/>
	<path class="st0" d="M295.4,342.5c-16.8,19-31.3,40.1-43,62.6c-11.6,22.3-20.3,46.1-25.9,70.6c-3.1,13.9-5.2,28-6.2,42.2"/>
	<path class="st0" d="M249.8,568.7c6.1,42.2,23.1,83.2,44.6,119"/>
	<path class="st0" d="M293.1,384.1c-22.2,35.9-39.2,74.9-44,117.4"/>
	<g>
		<path class="st0" d="M273.9,316.6c0,0-39.5-55.2-106.5-7.2c0,0-26,19-50,7"/>
		<path class="st0" d="M191.4,452.3c-15.5-2.3-29.5-11.3-40.5-23.3s-16-28-16-44c1-24,4-52-18.3-67.6"/>
	</g>
	<g>
		<path class="st0" d="M188.4,454.4c0,0-64-22.5-91.4,55.2c0,0-10.4,30.5-36.9,34.4"/>
		<path class="st0" d="M198.7,612.8c-14.1,7-30.7,7.6-46.6,4.1c-15.9-3.5-29.2-13.8-38.3-26.9c-12.9-20.2-26.5-44.9-53.7-44.8"/>
	</g>
	<g>
		<path class="st0" d="M197.9,616c0,0-66.7,12.5-51.5,93.5c0,0,6.2,31.6-14.8,48.3"/>
		<path class="st0" d="M283.1,752.1C270.9,768,251.9,776,232.9,778c-10,0-19-2-28-5c-23-11-48-27-72.8-14"/>
	</g>
	<g>
		<path class="st0" d="M285,754c0,0-55.2,39.5-7.2,106.5c0,0,19,26,7,50"/>
		<path class="st0" d="M292.4,904.4c-2.5,2-4.7,4.4-6.6,6.9"/>
	</g>
	<g>
		<path class="st0" d="M274,314.3c0,0-55.2-39.5-7.2-106.5c0,0,19-26,7-50"/>
		<path class="st0" d="M274.8,157c1.9,2.5,4.1,4.9,6.6,6.9c0,0,12,9.5,14,6.5"/>
	</g>
	<path class="st0" d="M200.4,344.5"/>
	<circle class="st0" cx="237.9" cy="393" r="7.5"/>
	<circle class="st0" cx="242.9" cy="675" r="7.5"/>
	<circle class="st0" cx="207.9" cy="463" r="7.5"/>
	<circle class="st0" cx="280.9" cy="336" r="7.5"/>
	<circle class="st0" cx="284.9" cy="737" r="7.5"/>
	<circle class="st0" cx="215.9" cy="608" r="7.5"/>
	<path class="st0" d="M295.4,400.5c0,0-34.9,61.6-34.9,95.3"/>
	<path class="st0" d="M295.4,668.8c0,0-34.9-61.6-34.9-95.3"/>
	<path class="st0" d="M220.5,545.2c0,0,8.9,102.3,73.9,174.3"/>
</g>
</svg>
