<svg width="508" height="185" viewBox="0 0 508 185" fill="none" xmlns="http://www.w3.org/2000/svg">
<path d="M506.009 24.4575C495.091 21.278 479.814 12.0023 476.139 1H25.0187C26.5584 5.93843 6.23484 23.2229 1 20.3422V157.384C11.666 160.943 24.6651 173.239 28.098 183.722H478.295C481.372 170.793 495.03 158.575 506.624 157.384V31.8652L506.009 24.4575Z" stroke="white" stroke-width="1.84759"/>
<g filter="url(#filter0_i_24_1147)">
<path d="M13.6333 154.577V28.7692C21.642 24.7057 25.1117 21.2161 29.5201 12.7112H97.8206C101.796 20.9764 105.223 24.471 113.332 28.7692V154.577C105.41 159.399 101.951 162.864 97.8206 170.393H29.5201C24.7189 163.327 21.2024 159.888 13.6333 154.577Z" fill="#EBDEC7"/>
<path d="M473.724 170.031H155.363C151.083 162.194 147.633 158.797 139.477 154.698V29.2523C147.816 24.5209 151.407 21.038 155.363 12.9529H473.724C477.65 21.1916 481.407 24.7189 490.612 29.2523V154.698C481.984 158.056 478.301 161.379 473.724 170.031Z" fill="#EBDEC7"/>
<g filter="url(#filter1_d_24_1147)">
<path d="M304.621 158.206V28.9841" stroke="#271300" stroke-width="0.923796" stroke-dasharray="1.74 1.74"/>
</g>
<path d="M60.8692 135.946L42.4692 132.624C42.3994 132.607 42.3645 132.563 42.3645 132.494V128.61C42.3645 128.54 42.3994 128.496 42.4692 128.479L60.8692 125.288C60.9564 125.279 61 125.314 61 125.393V128.361C61 128.448 60.9564 128.496 60.8692 128.505L58.9076 128.793V132.441L60.8692 132.729C60.9564 132.738 61 132.781 61 132.86V135.841C61 135.911 60.9564 135.946 60.8692 135.946ZM48.524 130.702L56.0436 131.905V129.329L48.524 130.427L47.5302 130.584L48.524 130.702ZM60.9738 110.917L61 115.716C61 115.803 60.9564 115.847 60.8692 115.847L42.4692 115.795C42.3994 115.795 42.3645 115.76 42.3645 115.69L42.3384 110.681C42.3122 109.687 42.5389 108.789 43.0184 107.987C43.4979 107.177 44.1474 106.531 44.967 106.052C45.7778 105.564 46.6758 105.32 47.6609 105.32H55.3505C56.3793 105.32 57.3209 105.568 58.1753 106.065C59.0209 106.571 59.6966 107.242 60.2023 108.079C60.6992 108.916 60.9564 109.862 60.9738 110.917ZM45.5424 110.681L45.5685 112.551L57.7045 112.578V110.917C57.7045 110.254 57.4734 109.696 57.0114 109.243C56.5493 108.789 55.9957 108.563 55.3505 108.563H47.6348C47.0681 108.563 46.5755 108.772 46.157 109.191C45.7298 109.609 45.5249 110.106 45.5424 110.681ZM61 92.3085V95.3425C61 95.4122 60.9564 95.4471 60.8692 95.4471L42.4692 95.3948C42.3994 95.3948 42.3645 95.3599 42.3645 95.2902V92.0208C42.3645 91.9511 42.3994 91.89 42.4692 91.8377L46.0001 89.3922L42.4692 86.9598C42.3994 86.9075 42.3645 86.8421 42.3645 86.7636V83.4812C42.3645 83.4027 42.3994 83.3635 42.4692 83.3635L60.8692 83.3112C60.9564 83.3112 61 83.3461 61 83.4158V86.4498C61 86.5195 60.9564 86.5544 60.8692 86.5544L47.2032 86.5806L51.2834 89.3922L47.2032 92.1777L60.8692 92.2039C60.9564 92.2039 61 92.2388 61 92.3085ZM61 70.1301V73.1641C61 73.2513 60.9564 73.2948 60.8692 73.2948L42.4692 73.2687C42.3994 73.2687 42.3645 73.2338 42.3645 73.1641V70.1562C42.3645 70.0865 42.3994 70.0516 42.4692 70.0516L60.8692 70.0255C60.9564 70.0255 61 70.0603 61 70.1301ZM61 54.1896V57.2105C61 57.289 60.9564 57.3282 60.8692 57.3282H45.5947V60.8069C45.5947 60.894 45.5511 60.9376 45.4639 60.9376L42.4692 60.9115C42.3994 60.9115 42.3645 60.8766 42.3645 60.8069L42.3645 50.6326C42.3645 50.5366 42.3994 50.4887 42.4692 50.4887H45.4639C45.5511 50.4887 45.5947 50.5236 45.5947 50.5933V54.1112L60.8692 54.085C60.9564 54.085 61 54.1199 61 54.1896Z" fill="black"/>
<path d="M86.2747 107.978C86.2747 108.928 86.0306 109.804 85.5424 110.607C85.0542 111.4 84.4046 112.041 83.5938 112.529C82.7743 113.008 81.8763 113.248 80.8999 113.248L72.4126 113.222C71.4187 113.222 70.525 112.982 69.7317 112.503C68.9296 112.032 68.2888 111.396 67.8093 110.593C67.321 109.791 67.0769 108.92 67.0769 107.978C67.0769 107.002 67.3167 106.125 67.7962 105.349C68.2757 104.565 68.9209 103.937 69.7317 103.466C70.5338 102.987 71.4274 102.747 72.4126 102.747L80.8999 102.721C81.8763 102.721 82.77 102.956 83.5808 103.427C84.4003 103.907 85.0542 104.543 85.5424 105.336C86.0306 106.13 86.2747 107.01 86.2747 107.978ZM83.0446 107.978C83.0446 107.437 82.8266 106.967 82.3907 106.566C81.9461 106.165 81.4491 105.964 80.8999 105.964L72.4126 105.99C71.8197 105.99 71.3184 106.178 70.9086 106.553C70.4989 106.927 70.294 107.403 70.294 107.978C70.294 108.527 70.4945 108.998 70.8956 109.39C71.2966 109.783 71.8023 109.979 72.4126 109.979H80.8999C81.484 109.979 81.9897 109.783 82.4169 109.39C82.8353 108.998 83.0446 108.527 83.0446 107.978ZM86.0132 91.6175V94.2984C86.0132 94.4379 85.9522 94.5076 85.8301 94.5076L67.587 94.5338C67.4475 94.5338 67.3777 94.464 67.3777 94.3245V91.9052L77.9313 87.3804L67.587 87.5112C67.4475 87.5112 67.3777 87.4327 67.3777 87.2758V84.621C67.3777 84.5164 67.4475 84.4641 67.587 84.4641L85.8563 84.4379C85.9609 84.4379 86.0132 84.4815 86.0132 84.5687V86.9227L76.1527 91.5652L85.8039 91.369C85.9434 91.369 86.0132 91.4518 86.0132 91.6175ZM86.0132 67.1882V75.8455C86.0132 75.9152 85.9696 75.9501 85.8824 75.9501L67.4823 75.924C67.4126 75.924 67.3777 75.8891 67.3777 75.8193V67.2143C67.3777 67.1446 67.4213 67.1097 67.5085 67.1097H70.5032C70.573 67.1097 70.6079 67.1446 70.6079 67.2143V72.7069H74.7927V67.2143C74.7927 67.1446 74.8275 67.1097 74.8973 67.1097L77.9313 67.0835C78.001 67.0835 78.0359 67.1184 78.0359 67.1882V72.7069H82.7176V67.1882C82.7176 67.1184 82.7612 67.0835 82.8484 67.0835H85.9086C85.9783 67.0835 86.0132 67.1184 86.0132 67.1882Z" fill="black"/>
<g filter="url(#filter2_i_24_1147)">
<path d="M124.09 1.00024H130.845V12.5941C130.845 14.4594 129.333 15.9716 127.467 15.9716V15.9716C125.602 15.9716 124.09 14.4594 124.09 12.5941V1.00024Z" fill="white"/>
</g>
<g filter="url(#filter3_i_24_1147)">
<path d="M124.09 25.8687C124.09 24.0034 125.602 22.4912 127.467 22.4912V22.4912C129.333 22.4912 130.845 24.0034 130.845 25.8687V34.0851C130.845 35.9504 129.333 37.4626 127.467 37.4626V37.4626C125.602 37.4626 124.09 35.9504 124.09 34.0851V25.8687Z" fill="white"/>
</g>
<g filter="url(#filter4_i_24_1147)">
<path d="M124.09 47.3602C124.09 45.4948 125.602 43.9827 127.467 43.9827V43.9827C129.333 43.9827 130.845 45.4948 130.845 47.3602V55.5765C130.845 57.4419 129.333 58.954 127.467 58.954V58.954C125.602 58.954 124.09 57.4419 124.09 55.5765V47.3602Z" fill="white"/>
</g>
<g filter="url(#filter5_i_24_1147)">
<path d="M124.09 68.8514C124.09 66.986 125.602 65.4739 127.467 65.4739V65.4739C129.333 65.4739 130.845 66.986 130.845 68.8514V77.0677C130.845 78.9331 129.333 80.4452 127.467 80.4452V80.4452C125.602 80.4452 124.09 78.9331 124.09 77.0677V68.8514Z" fill="white"/>
</g>
<g filter="url(#filter6_i_24_1147)">
<path d="M124.09 90.3421C124.09 88.4768 125.602 86.9646 127.467 86.9646V86.9646C129.333 86.9646 130.845 88.4768 130.845 90.3421V98.5584C130.845 100.424 129.333 101.936 127.467 101.936V101.936C125.602 101.936 124.09 100.424 124.09 98.5585V90.3421Z" fill="white"/>
</g>
<g filter="url(#filter7_i_24_1147)">
<path d="M124.09 111.833C124.09 109.968 125.602 108.456 127.467 108.456V108.456C129.333 108.456 130.845 109.968 130.845 111.833V120.05C130.845 121.915 129.333 123.427 127.467 123.427V123.427C125.602 123.427 124.09 121.915 124.09 120.05V111.833Z" fill="white"/>
</g>
<g filter="url(#filter8_i_24_1147)">
<path d="M124.09 133.325C124.09 131.459 125.602 129.947 127.467 129.947V129.947C129.333 129.947 130.845 131.459 130.845 133.325V141.541C130.845 143.406 129.333 144.918 127.467 144.918V144.918C125.602 144.918 124.09 143.406 124.09 141.541V133.325Z" fill="white"/>
</g>
<g filter="url(#filter9_i_24_1147)">
<path d="M124.09 154.816C124.09 152.95 125.602 151.438 127.467 151.438V151.438C129.333 151.438 130.845 152.95 130.845 154.816V163.032C130.845 164.897 129.333 166.41 127.467 166.41V166.41C125.602 166.41 124.09 164.897 124.09 163.032V154.816Z" fill="white"/>
</g>
<g filter="url(#filter10_i_24_1147)">
<path d="M124.09 176.307C124.09 174.441 125.602 172.929 127.467 172.929V172.929C129.333 172.929 130.845 174.441 130.845 176.307V182.83H124.09V176.307Z" fill="white"/>
</g>
</g>
<g opacity="0.9">
<path d="M159.783 76.9861C159.071 76.9861 158.46 76.2134 158.46 75.3119V62.9488C158.46 62.0474 159.071 61.2747 159.783 61.2747C160.495 61.2747 161.105 62.0474 161.105 62.9488V75.4407C161.105 76.3422 160.495 76.9861 159.783 76.9861Z" stroke="#271300" stroke-width="0.868974" stroke-miterlimit="10"/>
<path d="M154.39 65.1381C154.696 64.3654 155.509 64.1078 156.221 64.4942L164.765 70.6757C165.376 71.1908 165.579 72.2211 165.274 72.9938C164.867 73.7665 164.053 74.024 163.443 73.6377L154.899 67.4561C154.187 67.0698 153.984 66.0395 154.39 65.1381Z" stroke="#271300" stroke-width="0.868974" stroke-miterlimit="10"/>
<path d="M154.392 73.1226C153.985 72.3499 154.29 71.3197 154.9 70.8045L163.444 64.623C164.055 64.1079 164.868 64.4942 165.275 65.2669C165.682 66.0396 165.377 67.0698 164.767 67.585L156.223 73.7665C155.511 74.1529 154.697 73.8953 154.392 73.1226Z" stroke="#271300" stroke-width="0.868974" stroke-miterlimit="10"/>
</g>
<g clip-path="url(#clip0_24_1147)">
<path d="M210.009 108.448C208.84 110.669 207.792 113 206.874 115.423C205.236 119.683 203.648 123.979 202.034 128.256C201.757 128.987 201.513 129.848 200.757 129.805C200.001 129.761 199.779 128.911 199.537 128.158C197.642 122.343 195.766 116.518 193.861 110.709C193.43 109.388 192.913 108.117 192.413 106.758C192.147 107.212 192.236 107.609 192.238 107.976C192.238 113.366 192.249 118.756 192.269 124.145C192.269 126.566 192.594 127.115 194.343 127.764C194.749 127.916 195.064 128.147 195.144 128.739C195.185 128.996 195.168 129.264 195.096 129.508C195.023 129.752 194.898 129.962 194.737 130.112C194.243 130.617 193.706 131.025 193.054 131.003C191.206 130.916 189.356 131.014 187.52 131.296C186.768 131.396 186.017 131.104 185.424 130.481C185.271 130.355 185.151 130.168 185.081 129.948C185.011 129.727 184.993 129.482 185.031 129.248C185.113 128.704 185.438 128.68 185.775 128.612C187.107 128.34 187.644 127.723 187.674 125.922C187.743 121.917 187.703 117.904 187.709 113.896C187.709 113.323 187.459 112.945 187.19 112.559C186.363 111.375 186.082 109.945 186.544 108.484C187.741 104.707 187.855 100.827 187.575 96.8003C187.396 94.2272 186.558 92.423 184.903 91.1868C184.517 90.896 184.002 90.695 184.09 89.9206C184.177 89.1463 184.671 89.1055 185.106 88.937C186.554 88.3936 188.056 88.2252 189.402 89.0593C191.517 90.3689 193.578 89.8744 195.662 89.2196C197.014 88.7958 198.238 89.043 199.368 90.0809C200.141 90.7928 200.228 91.4177 199.572 92.3062C198.976 93.1213 198.949 93.95 199.265 94.901C200.586 98.8861 201.91 102.871 203.235 106.856C203.363 107.239 203.477 107.734 203.857 107.755C204.237 107.777 204.364 107.258 204.51 106.897C206.169 102.8 207.821 98.695 209.466 94.5831C209.836 93.6675 209.745 92.8333 209.168 92.1378C208.881 91.7873 208.574 91.4721 208.271 91.146C207.864 90.7113 207.891 90.4015 208.405 90.1815C210.28 89.3826 212.154 89.0321 213.962 90.4178C214.864 91.108 215.637 90.9912 216.491 90.2412C218.054 88.861 219.656 88.9506 220.791 90.3635C221.152 90.8145 221.478 91.3145 221.34 92.0481C221.213 92.7192 220.76 92.8333 220.351 92.9284C219.418 93.1404 218.993 93.9636 218.983 95.1021C218.953 98.3354 218.967 101.569 219.002 104.799C219.018 106.245 219.485 107.419 220.309 108.413C221.132 109.407 221.065 109.954 220.105 110.685C219.363 111.25 219.089 112.043 219.089 113.13C219.105 116.934 219.089 120.719 219.128 124.514C219.15 126.552 219.672 127.112 221.161 126.886C222.049 126.753 222.301 127.158 222.019 128.305C221.409 130.75 219.341 132.109 217.249 131.419C216.871 131.295 216.5 131.137 216.139 130.946C215.596 130.652 215.013 130.513 214.427 130.537C213.842 130.562 213.266 130.749 212.738 131.087C211.221 131.984 209.704 131.81 208.198 131.035C207.933 130.926 207.693 130.732 207.497 130.47C207.302 130.208 207.157 129.887 207.076 129.533C206.846 128.446 207.23 127.87 208.06 128.017C209.686 128.288 210.068 127.786 210.16 125.645C210.363 120.863 210.259 116.078 210.292 111.296C210.32 110.332 210.224 109.369 210.009 108.448ZM191.041 109.66C191.041 109.361 190.008 107.973 189.782 107.976C189.557 107.978 188.465 109.407 188.563 109.674C188.82 110.37 189.242 110.933 189.764 111.274C189.959 111.407 191.035 109.997 191.041 109.66ZM216.745 109.644C216.745 109.337 215.7 107.967 215.474 107.978C215.248 107.989 214.165 109.432 214.264 109.687C214.524 110.382 214.95 110.94 215.474 111.274C215.677 111.399 216.745 109.973 216.745 109.644Z" fill="#EBDEC7" stroke="#271300" stroke-width="0.203305" stroke-miterlimit="10"/>
<path d="M193.617 109.543C193.804 110.087 193.985 110.63 194.16 111.174C196.01 116.896 197.842 122.629 199.692 128.351C199.928 129.082 200.145 129.981 200.875 129.981C201.503 129.981 201.721 129.18 201.979 128.533C203.006 125.965 203.943 123.338 204.899 120.719C206.244 117.021 207.633 113.336 209.445 109.524L193.617 109.543Z" fill="#271300" stroke="#271300" stroke-width="0.583487" stroke-miterlimit="10"/>
<path d="M221.416 126.973C219.566 127.612 219.125 126.174 219.092 124.226C219.033 120.501 219.037 116.776 219.029 113.048C219.029 111.923 219.316 110.934 220.119 110.445C220.769 110.051 220.987 109.655 220.932 109.244H210.433C210.433 115.189 210.448 120.702 210.419 126.21C210.419 127.568 209.74 128.15 208.73 128.21C208.213 128.239 207.402 127.28 207.213 128.587C207.046 129.739 207.673 130.611 208.482 130.954C209.905 131.549 211.456 131.769 212.751 130.932C214.239 129.962 215.433 130.272 216.864 131.005C219.1 132.147 221.251 130.826 222.01 128.229C222.276 127.359 222.315 126.661 221.416 126.973Z" fill="#271300" stroke="#271300" stroke-width="0.583487" stroke-miterlimit="10"/>
<path d="M194.409 127.834C192.764 127.791 192.341 126.12 192.317 124.511C192.241 119.512 192.262 114.499 192.272 109.217H186.659C186.537 110.434 186.752 111.619 187.803 112.795C187.946 112.953 187.931 113.412 187.931 113.73C187.948 117.7 187.984 121.669 187.941 125.639C187.927 127.095 187.535 128.356 186.254 128.628C185.88 128.712 185.292 128.318 185.193 129.136C185.105 129.859 185.571 130.34 186.006 130.606C186.488 130.91 187.063 131.228 187.563 131.149C189.46 130.853 191.339 130.511 193.266 130.818C193.736 130.891 194.283 130.397 194.756 130.049C194.947 129.912 195.099 129.695 195.187 129.431C195.276 129.167 195.297 128.871 195.246 128.59C195.157 128.038 194.797 127.845 194.409 127.834Z" fill="#271300" stroke="#271300" stroke-width="0.583487" stroke-miterlimit="10"/>
<path d="M221.457 126.615C219.607 127.256 219.166 125.818 219.133 123.868C219.074 120.145 219.078 116.417 219.07 112.692C219.07 111.565 219.355 110.578 220.16 110.087C220.727 109.744 220.963 109.399 220.983 109.043H214.823C215.049 109.257 215.231 109.543 215.352 109.876C215.474 110.208 215.531 110.576 215.519 110.945V130.095C215.995 130.229 216.463 130.418 216.915 130.66C219.152 131.804 221.305 130.481 222.063 127.883C222.317 127 222.356 126.305 221.457 126.615Z" fill="#271300"/>
<path d="M206.619 108.935L197.153 108.91C197.925 111.418 198.741 113.801 199.485 116.298C200.076 118.292 200.705 120.232 201.365 122.159C202.898 117.601 204.652 113.184 206.619 108.935Z" fill="#271300"/>
<path d="M195.217 128.269C195.127 127.71 194.777 127.517 194.389 127.506C192.744 127.46 192.321 125.789 192.297 124.183C192.224 119.23 192.242 114.268 192.252 109.043H190.229V130.451C191.231 130.337 192.237 130.351 193.236 130.495C193.706 130.571 194.253 130.073 194.727 129.726C194.917 129.59 195.069 129.373 195.158 129.109C195.247 128.846 195.267 128.55 195.217 128.269Z" fill="#271300"/>
<path d="M185.115 90.7301C186.796 91.95 187.758 93.8846 187.847 96.3843C187.965 99.4519 188.231 102.617 187.514 105.563C187.197 106.864 186.733 108.114 186.617 109.334H192.239C192.239 107.951 192.239 106.552 192.239 105.125C192.777 106.72 193.243 108.06 193.672 109.334H209.469C209.786 108.663 210.113 107.992 210.459 107.315V109.334H220.976C220.945 108.926 220.649 108.505 220.24 108.051C219.88 107.672 219.588 107.19 219.386 106.64C219.183 106.091 219.075 105.488 219.069 104.875C219.038 101.555 219.049 98.2346 219.057 94.9117C219.057 93.6536 219.41 92.7027 220.443 92.4663C220.913 92.3549 221.472 92.3766 221.46 91.4419C221.46 90.7138 221.073 90.279 220.673 89.8986C219.199 88.4966 217.76 89.0346 216.456 90.26C215.643 91.0235 215.108 91.0751 214.22 90.347C212.341 88.801 210.357 89.2112 208.098 90.2519C209.233 91.5778 210.628 92.2951 209.698 94.515C207.987 98.615 206.366 102.786 204.728 106.94C204.213 108.247 203.821 108.323 203.353 106.889C201.999 102.734 200.615 98.596 199.236 94.4525C198.938 93.5531 198.909 92.7271 199.554 92.056C200.621 90.9447 199.883 90.2301 199.192 89.684C198.589 89.1973 197.904 88.9197 197.2 88.8765C196.497 88.8333 195.796 89.0259 195.162 89.4367C193.601 90.3986 192.188 90.3035 190.645 89.3824C188.974 88.3516 187.086 88.1381 185.31 88.7792C184.903 88.9232 184.373 88.9259 184.304 89.6106C184.234 90.2953 184.753 90.4584 185.115 90.7301Z" fill="#271300" stroke="#271300" stroke-width="0.583487" stroke-miterlimit="10"/>
<path d="M206.83 108.935C206.887 108.69 206.814 109.011 206.865 108.793C206.877 108.766 206.865 108.774 206.879 108.728C206.854 108.565 211.148 98.4331 211.148 98.2484L209.359 95.2895C208.654 97.0719 205.592 105.296 204.886 107.079C204.37 108.386 203.591 108.598 203.126 107.163C201.77 103.006 200.312 98.4196 198.936 94.276C198.637 93.3767 198.901 92.6893 199.546 92.0209C200.613 90.9068 199.263 89.8472 198.494 89.5266C196.612 88.7468 196.102 89.4668 194.937 89.945C194.892 89.9591 194.85 89.985 194.813 90.0211C194.646 90.1868 193.306 90.665 192.139 90.3933V99.376L196.935 108.943H198.497C198.621 108.91 201.788 108.929 201.928 108.929H206.645L206.83 108.935Z" fill="#271300"/>
<path d="M215.745 91.056C215.267 91.2625 213.712 90.2843 213.043 89.9365C210.874 88.8035 210.664 89.6377 208.097 90.2273C209.231 91.5505 210.626 92.2678 209.697 94.4904C209.483 95.0012 209.276 95.5174 209.064 96.0309C209.465 96.1186 209.827 96.3986 210.084 96.8184C210.341 97.2381 210.474 97.7687 210.459 98.3106L210.75 107.301C210.75 108.035 210.75 108.212 210.76 108.932H215.745V91.056Z" fill="#271300"/>
<path d="M192.146 104.484V90.4042C191.549 90.2548 191.423 90.252 191 89.9749C190.851 89.8798 190.339 89.6244 190.187 89.5483V109.524H192.24C192.24 108.139 192.24 106.739 192.24 105.31C192.175 105.044 192.143 104.764 192.146 104.484Z" fill="#271300"/>
<path d="M215.649 107.481L214.171 109.456L215.649 111.431L217.127 109.456L215.649 107.481Z" fill="#271300"/>
<path d="M189.943 107.481L188.465 109.457L189.943 111.432L191.421 109.457L189.943 107.481Z" fill="#271300"/>
<path d="M261.796 89.3254L250.899 131.318H237.758L226.858 89.3254L239.374 96.7023L244.351 118.211L249.307 96.6534L261.796 89.3254Z" fill="#EBDEC7" stroke="#271300" stroke-width="0.203305" stroke-miterlimit="10"/>
<path d="M261.796 89.3088L250.899 131.301H237.758L226.858 89.3088L239.374 96.683L244.351 118.191L249.307 96.6341L261.796 89.3088Z" fill="#271300" stroke="#271300" stroke-width="0.51233" stroke-miterlimit="10"/>
<path d="M247.715 117.483C247.782 117.516 247.838 117.579 247.875 117.661C247.912 117.743 247.927 117.839 247.918 117.934C247.918 120.048 247.908 122.159 247.918 124.27C247.918 124.33 247.914 124.39 247.908 124.449H248.314C248.314 122.276 248.314 120.102 248.314 117.928C248.304 117.839 248.317 117.747 248.352 117.669C248.386 117.59 248.44 117.531 248.503 117.499C248.663 117.395 248.791 117.22 248.865 117.004C248.939 116.788 248.955 116.544 248.91 116.314C248.86 116.089 248.757 115.891 248.616 115.75C248.475 115.609 248.303 115.534 248.127 115.535C247.951 115.526 247.778 115.597 247.635 115.735C247.493 115.873 247.389 116.072 247.34 116.298C247.289 116.523 247.299 116.764 247.367 116.981C247.436 117.197 247.559 117.375 247.715 117.483ZM248.101 115.926C248.232 115.924 248.359 115.99 248.454 116.112C248.549 116.233 248.605 116.4 248.609 116.575C248.608 116.662 248.594 116.748 248.568 116.828C248.541 116.907 248.503 116.979 248.456 117.038C248.409 117.098 248.353 117.144 248.292 117.174C248.231 117.204 248.166 117.218 248.101 117.214C247.973 117.214 247.85 117.146 247.759 117.026C247.668 116.905 247.616 116.741 247.615 116.57C247.616 116.399 247.668 116.235 247.759 116.114C247.85 115.994 247.973 115.926 248.101 115.926Z" fill="#271300" stroke="#271300" stroke-width="0.203305" stroke-miterlimit="10"/>
<path d="M240.493 117.483C240.56 117.517 240.616 117.58 240.653 117.661C240.69 117.743 240.705 117.839 240.697 117.934C240.697 120.048 240.684 122.159 240.697 124.27C240.701 124.33 240.701 124.39 240.697 124.449H241.103C241.103 122.276 241.103 120.102 241.103 117.928C241.093 117.839 241.106 117.747 241.141 117.669C241.175 117.59 241.229 117.531 241.292 117.499C241.452 117.395 241.58 117.22 241.654 117.004C241.728 116.788 241.744 116.544 241.699 116.314C241.649 116.089 241.546 115.891 241.405 115.75C241.264 115.609 241.092 115.534 240.916 115.535C240.74 115.526 240.567 115.597 240.424 115.735C240.282 115.873 240.178 116.072 240.129 116.298C240.077 116.521 240.085 116.762 240.151 116.978C240.218 117.195 240.339 117.373 240.493 117.483ZM240.88 115.926C241.011 115.924 241.138 115.99 241.233 116.112C241.328 116.233 241.384 116.4 241.388 116.575C241.387 116.662 241.373 116.748 241.347 116.828C241.32 116.907 241.282 116.979 241.235 117.038C241.187 117.098 241.132 117.144 241.071 117.174C241.01 117.204 240.945 117.218 240.88 117.214C240.816 117.214 240.753 117.198 240.694 117.166C240.636 117.133 240.582 117.086 240.537 117.026C240.492 116.966 240.456 116.895 240.431 116.817C240.407 116.739 240.394 116.655 240.394 116.57C240.395 116.399 240.446 116.237 240.536 116.116C240.626 115.996 240.748 115.927 240.876 115.926H240.88Z" fill="#271300" stroke="#271300" stroke-width="0.203305" stroke-miterlimit="10"/>
<path d="M252.388 109.277C252.317 109.293 252.253 109.339 252.204 109.409C252.156 109.479 252.126 109.568 252.119 109.663C252.077 110.038 252.018 110.41 251.967 110.782C251.438 114.671 250.909 118.559 250.379 122.447C250.355 122.631 250.351 122.824 250.21 122.952C249.911 123.224 249.619 123.495 249.326 123.789C247.931 125.131 246.539 126.479 245.142 127.816C245.073 127.877 245.015 127.957 244.971 128.051C244.927 128.145 244.898 128.249 244.886 128.359C244.743 129.446 244.595 130.533 244.453 131.603L243.894 131.497C244.032 130.462 244.188 129.429 244.3 128.389C244.361 127.845 244.491 127.422 244.882 127.155C245.053 127.021 245.217 126.869 245.372 126.702C246.751 125.374 248.133 124.046 249.515 122.718C249.608 122.637 249.687 122.531 249.748 122.406C249.808 122.282 249.849 122.142 249.867 121.996C250.422 117.875 250.983 113.753 251.55 109.63C251.577 109.513 251.575 109.387 251.542 109.273C251.509 109.158 251.448 109.062 251.369 109C251.202 108.827 251.078 108.59 251.014 108.32C250.951 108.051 250.95 107.762 251.013 107.492C251.081 107.221 251.208 106.983 251.377 106.808C251.547 106.633 251.751 106.53 251.965 106.511C252.228 106.468 252.494 106.559 252.71 106.765C252.925 106.971 253.075 107.278 253.13 107.625C253.189 107.975 253.146 108.343 253.007 108.65C252.869 108.958 252.647 109.183 252.388 109.277ZM252.184 107.052C252.013 107.028 251.84 107.086 251.697 107.214C251.553 107.341 251.448 107.532 251.398 107.753C251.384 107.868 251.387 107.986 251.407 108.099C251.428 108.213 251.465 108.32 251.516 108.414C251.567 108.509 251.632 108.589 251.707 108.65C251.781 108.71 251.864 108.751 251.951 108.769C252.034 108.794 252.121 108.796 252.206 108.775C252.29 108.754 252.371 108.711 252.442 108.647C252.514 108.583 252.575 108.501 252.622 108.404C252.669 108.308 252.7 108.2 252.715 108.087C252.732 107.972 252.732 107.854 252.715 107.739C252.697 107.625 252.663 107.516 252.613 107.419C252.564 107.323 252.5 107.241 252.427 107.177C252.353 107.114 252.271 107.071 252.184 107.052Z" fill="#271300" stroke="#EBDEC7" stroke-width="0.203305" stroke-miterlimit="10"/>
<path d="M236.716 109.277C236.786 109.293 236.85 109.339 236.899 109.409C236.947 109.479 236.977 109.568 236.984 109.663C237.029 110.038 237.086 110.41 237.136 110.782C237.665 114.671 238.194 118.559 238.724 122.447C238.751 122.631 238.753 122.824 238.893 122.952C239.192 123.224 239.485 123.495 239.777 123.789C241.172 125.131 242.565 126.479 243.963 127.816C244.032 127.878 244.089 127.958 244.133 128.052C244.177 128.145 244.206 128.25 244.218 128.359C244.36 129.446 244.508 130.533 244.653 131.603L245.212 131.497C245.071 130.462 244.915 129.43 244.805 128.389C244.744 127.845 244.614 127.422 244.224 127.155C244.052 127.021 243.889 126.87 243.736 126.702C242.353 125.374 240.971 124.046 239.59 122.718C239.497 122.637 239.418 122.531 239.358 122.406C239.297 122.282 239.257 122.142 239.239 121.996C238.684 117.875 238.124 113.753 237.557 109.63C237.53 109.513 237.533 109.387 237.566 109.273C237.598 109.158 237.659 109.062 237.738 109C237.905 108.826 238.028 108.589 238.091 108.32C238.154 108.05 238.155 107.761 238.092 107.492C238.024 107.221 237.898 106.983 237.729 106.809C237.56 106.634 237.356 106.531 237.142 106.511C236.879 106.467 236.613 106.558 236.396 106.764C236.18 106.97 236.03 107.278 235.976 107.625C235.916 107.975 235.96 108.342 236.098 108.649C236.236 108.957 236.457 109.182 236.716 109.277ZM236.919 107.052C237.09 107.029 237.262 107.087 237.405 107.215C237.548 107.342 237.654 107.533 237.704 107.753C237.718 107.868 237.714 107.986 237.694 108.099C237.674 108.213 237.637 108.32 237.585 108.415C237.534 108.509 237.469 108.589 237.394 108.65C237.32 108.711 237.237 108.751 237.151 108.769C237.067 108.794 236.98 108.796 236.896 108.775C236.811 108.754 236.731 108.711 236.66 108.647C236.588 108.583 236.528 108.5 236.481 108.404C236.434 108.308 236.403 108.2 236.388 108.087C236.371 107.972 236.371 107.854 236.388 107.739C236.406 107.624 236.44 107.515 236.49 107.418C236.54 107.321 236.603 107.239 236.677 107.176C236.752 107.113 236.834 107.071 236.921 107.052H236.919Z" fill="#271300" stroke="#EBDEC7" stroke-width="0.203305" stroke-miterlimit="10"/>
</g>
<g opacity="0.9">
<path d="M284.41 76.9861C283.698 76.9861 283.088 76.2134 283.088 75.3119V62.9488C283.088 62.0474 283.698 61.2747 284.41 61.2747C285.122 61.2747 285.732 62.0474 285.732 62.9488V75.4407C285.732 76.3422 285.122 76.9861 284.41 76.9861Z" stroke="#271300" stroke-width="0.868974" stroke-miterlimit="10"/>
<path d="M279.018 65.1381C279.324 64.3654 280.137 64.1078 280.849 64.4942L289.393 70.6757C290.004 71.1908 290.207 72.2211 289.902 72.9938C289.495 73.7665 288.681 74.024 288.071 73.6377L279.527 67.4561C278.815 67.0698 278.612 66.0395 279.018 65.1381Z" stroke="#271300" stroke-width="0.868974" stroke-miterlimit="10"/>
<path d="M279.019 73.1226C278.612 72.3499 278.917 71.3197 279.527 70.8045L288.071 64.623C288.682 64.1079 289.495 64.4942 289.902 65.2669C290.309 66.0396 290.004 67.0698 289.394 67.585L280.85 73.7665C280.138 74.1529 279.324 73.8953 279.019 73.1226Z" stroke="#271300" stroke-width="0.868974" stroke-miterlimit="10"/>
</g>
<defs>
<filter id="filter0_i_24_1147" x="13.6333" y="1.00024" width="476.979" height="184.293" filterUnits="userSpaceOnUse" color-interpolation-filters="sRGB">
<feFlood flood-opacity="0" result="BackgroundImageFix"/>
<feBlend mode="normal" in="SourceGraphic" in2="BackgroundImageFix" result="shape"/>
<feColorMatrix in="SourceAlpha" type="matrix" values="0 0 0 0 0 0 0 0 0 0 0 0 0 0 0 0 0 0 127 0" result="hardAlpha"/>
<feOffset dy="2.46346"/>
<feGaussianBlur stdDeviation="1.23173"/>
<feComposite in2="hardAlpha" operator="arithmetic" k2="-1" k3="1"/>
<feColorMatrix type="matrix" values="0 0 0 0 0 0 0 0 0 0 0 0 0 0 0 0 0 0 0.25 0"/>
<feBlend mode="normal" in2="shape" result="effect1_innerShadow_24_1147"/>
</filter>
<filter id="filter1_d_24_1147" x="303.436" y="28.9841" width="2.36929" height="130.668" filterUnits="userSpaceOnUse" color-interpolation-filters="sRGB">
<feFlood flood-opacity="0" result="BackgroundImageFix"/>
<feColorMatrix in="SourceAlpha" type="matrix" values="0 0 0 0 0 0 0 0 0 0 0 0 0 0 0 0 0 0 127 0" result="hardAlpha"/>
<feOffset dy="0.722731"/>
<feGaussianBlur stdDeviation="0.361366"/>
<feComposite in2="hardAlpha" operator="out"/>
<feColorMatrix type="matrix" values="0 0 0 0 0 0 0 0 0 0 0 0 0 0 0 0 0 0 1 0"/>
<feBlend mode="normal" in2="BackgroundImageFix" result="effect1_dropShadow_24_1147"/>
<feBlend mode="normal" in="SourceGraphic" in2="effect1_dropShadow_24_1147" result="shape"/>
</filter>
<filter id="filter2_i_24_1147" x="124.09" y="1.00024" width="6.75488" height="15.6942" filterUnits="userSpaceOnUse" color-interpolation-filters="sRGB">
<feFlood flood-opacity="0" result="BackgroundImageFix"/>
<feBlend mode="normal" in="SourceGraphic" in2="BackgroundImageFix" result="shape"/>
<feColorMatrix in="SourceAlpha" type="matrix" values="0 0 0 0 0 0 0 0 0 0 0 0 0 0 0 0 0 0 127 0" result="hardAlpha"/>
<feOffset dy="0.722731"/>
<feGaussianBlur stdDeviation="0.361366"/>
<feComposite in2="hardAlpha" operator="arithmetic" k2="-1" k3="1"/>
<feColorMatrix type="matrix" values="0 0 0 0 0 0 0 0 0 0 0 0 0 0 0 0 0 0 0.25 0"/>
<feBlend mode="normal" in2="shape" result="effect1_innerShadow_24_1147"/>
</filter>
<filter id="filter3_i_24_1147" x="124.09" y="22.4912" width="6.75488" height="15.6942" filterUnits="userSpaceOnUse" color-interpolation-filters="sRGB">
<feFlood flood-opacity="0" result="BackgroundImageFix"/>
<feBlend mode="normal" in="SourceGraphic" in2="BackgroundImageFix" result="shape"/>
<feColorMatrix in="SourceAlpha" type="matrix" values="0 0 0 0 0 0 0 0 0 0 0 0 0 0 0 0 0 0 127 0" result="hardAlpha"/>
<feOffset dy="0.722731"/>
<feGaussianBlur stdDeviation="0.361366"/>
<feComposite in2="hardAlpha" operator="arithmetic" k2="-1" k3="1"/>
<feColorMatrix type="matrix" values="0 0 0 0 0 0 0 0 0 0 0 0 0 0 0 0 0 0 0.25 0"/>
<feBlend mode="normal" in2="shape" result="effect1_innerShadow_24_1147"/>
</filter>
<filter id="filter4_i_24_1147" x="124.09" y="43.9827" width="6.75488" height="15.6942" filterUnits="userSpaceOnUse" color-interpolation-filters="sRGB">
<feFlood flood-opacity="0" result="BackgroundImageFix"/>
<feBlend mode="normal" in="SourceGraphic" in2="BackgroundImageFix" result="shape"/>
<feColorMatrix in="SourceAlpha" type="matrix" values="0 0 0 0 0 0 0 0 0 0 0 0 0 0 0 0 0 0 127 0" result="hardAlpha"/>
<feOffset dy="0.722731"/>
<feGaussianBlur stdDeviation="0.361366"/>
<feComposite in2="hardAlpha" operator="arithmetic" k2="-1" k3="1"/>
<feColorMatrix type="matrix" values="0 0 0 0 0 0 0 0 0 0 0 0 0 0 0 0 0 0 0.25 0"/>
<feBlend mode="normal" in2="shape" result="effect1_innerShadow_24_1147"/>
</filter>
<filter id="filter5_i_24_1147" x="124.09" y="65.4739" width="6.75488" height="15.6942" filterUnits="userSpaceOnUse" color-interpolation-filters="sRGB">
<feFlood flood-opacity="0" result="BackgroundImageFix"/>
<feBlend mode="normal" in="SourceGraphic" in2="BackgroundImageFix" result="shape"/>
<feColorMatrix in="SourceAlpha" type="matrix" values="0 0 0 0 0 0 0 0 0 0 0 0 0 0 0 0 0 0 127 0" result="hardAlpha"/>
<feOffset dy="0.722731"/>
<feGaussianBlur stdDeviation="0.361366"/>
<feComposite in2="hardAlpha" operator="arithmetic" k2="-1" k3="1"/>
<feColorMatrix type="matrix" values="0 0 0 0 0 0 0 0 0 0 0 0 0 0 0 0 0 0 0.25 0"/>
<feBlend mode="normal" in2="shape" result="effect1_innerShadow_24_1147"/>
</filter>
<filter id="filter6_i_24_1147" x="124.09" y="86.9646" width="6.75488" height="15.6942" filterUnits="userSpaceOnUse" color-interpolation-filters="sRGB">
<feFlood flood-opacity="0" result="BackgroundImageFix"/>
<feBlend mode="normal" in="SourceGraphic" in2="BackgroundImageFix" result="shape"/>
<feColorMatrix in="SourceAlpha" type="matrix" values="0 0 0 0 0 0 0 0 0 0 0 0 0 0 0 0 0 0 127 0" result="hardAlpha"/>
<feOffset dy="0.722731"/>
<feGaussianBlur stdDeviation="0.361366"/>
<feComposite in2="hardAlpha" operator="arithmetic" k2="-1" k3="1"/>
<feColorMatrix type="matrix" values="0 0 0 0 0 0 0 0 0 0 0 0 0 0 0 0 0 0 0.25 0"/>
<feBlend mode="normal" in2="shape" result="effect1_innerShadow_24_1147"/>
</filter>
<filter id="filter7_i_24_1147" x="124.09" y="108.456" width="6.75488" height="15.6942" filterUnits="userSpaceOnUse" color-interpolation-filters="sRGB">
<feFlood flood-opacity="0" result="BackgroundImageFix"/>
<feBlend mode="normal" in="SourceGraphic" in2="BackgroundImageFix" result="shape"/>
<feColorMatrix in="SourceAlpha" type="matrix" values="0 0 0 0 0 0 0 0 0 0 0 0 0 0 0 0 0 0 127 0" result="hardAlpha"/>
<feOffset dy="0.722731"/>
<feGaussianBlur stdDeviation="0.361366"/>
<feComposite in2="hardAlpha" operator="arithmetic" k2="-1" k3="1"/>
<feColorMatrix type="matrix" values="0 0 0 0 0 0 0 0 0 0 0 0 0 0 0 0 0 0 0.25 0"/>
<feBlend mode="normal" in2="shape" result="effect1_innerShadow_24_1147"/>
</filter>
<filter id="filter8_i_24_1147" x="124.09" y="129.947" width="6.75488" height="15.6942" filterUnits="userSpaceOnUse" color-interpolation-filters="sRGB">
<feFlood flood-opacity="0" result="BackgroundImageFix"/>
<feBlend mode="normal" in="SourceGraphic" in2="BackgroundImageFix" result="shape"/>
<feColorMatrix in="SourceAlpha" type="matrix" values="0 0 0 0 0 0 0 0 0 0 0 0 0 0 0 0 0 0 127 0" result="hardAlpha"/>
<feOffset dy="0.722731"/>
<feGaussianBlur stdDeviation="0.361366"/>
<feComposite in2="hardAlpha" operator="arithmetic" k2="-1" k3="1"/>
<feColorMatrix type="matrix" values="0 0 0 0 0 0 0 0 0 0 0 0 0 0 0 0 0 0 0.25 0"/>
<feBlend mode="normal" in2="shape" result="effect1_innerShadow_24_1147"/>
</filter>
<filter id="filter9_i_24_1147" x="124.09" y="151.438" width="6.75488" height="15.6942" filterUnits="userSpaceOnUse" color-interpolation-filters="sRGB">
<feFlood flood-opacity="0" result="BackgroundImageFix"/>
<feBlend mode="normal" in="SourceGraphic" in2="BackgroundImageFix" result="shape"/>
<feColorMatrix in="SourceAlpha" type="matrix" values="0 0 0 0 0 0 0 0 0 0 0 0 0 0 0 0 0 0 127 0" result="hardAlpha"/>
<feOffset dy="0.722731"/>
<feGaussianBlur stdDeviation="0.361366"/>
<feComposite in2="hardAlpha" operator="arithmetic" k2="-1" k3="1"/>
<feColorMatrix type="matrix" values="0 0 0 0 0 0 0 0 0 0 0 0 0 0 0 0 0 0 0.25 0"/>
<feBlend mode="normal" in2="shape" result="effect1_innerShadow_24_1147"/>
</filter>
<filter id="filter10_i_24_1147" x="124.09" y="172.929" width="6.75488" height="10.6231" filterUnits="userSpaceOnUse" color-interpolation-filters="sRGB">
<feFlood flood-opacity="0" result="BackgroundImageFix"/>
<feBlend mode="normal" in="SourceGraphic" in2="BackgroundImageFix" result="shape"/>
<feColorMatrix in="SourceAlpha" type="matrix" values="0 0 0 0 0 0 0 0 0 0 0 0 0 0 0 0 0 0 127 0" result="hardAlpha"/>
<feOffset dy="0.722731"/>
<feGaussianBlur stdDeviation="0.361366"/>
<feComposite in2="hardAlpha" operator="arithmetic" k2="-1" k3="1"/>
<feColorMatrix type="matrix" values="0 0 0 0 0 0 0 0 0 0 0 0 0 0 0 0 0 0 0.25 0"/>
<feBlend mode="normal" in2="shape" result="effect1_innerShadow_24_1147"/>
</filter>
<clipPath id="clip0_24_1147">
<rect width="78.2523" height="43.8563" fill="white" transform="translate(183.979 88.0186)"/>
</clipPath>
</defs>
</svg>
