<svg width="493" height="204" viewBox="0 0 493 204" fill="none" xmlns="http://www.w3.org/2000/svg">
<g filter="url(#filter0_d_424_1444)">
<mask id="path-1-inside-1_424_1444" fill="white">
<path fill-rule="evenodd" clip-rule="evenodd" d="M455.97 0.321411L37.1949 0.321411C37.0443 14.2949 22.6705 25.5858 4.96134 25.5858C4.86801 25.5858 4.77478 25.5855 4.68164 25.5849V71.6837C4.7751 71.6831 4.86866 71.6828 4.96231 71.6828C22.7651 71.6828 37.1971 83.0933 37.1971 97.169C37.1971 111.245 22.7651 122.655 4.96231 122.655C4.86866 122.655 4.7751 122.655 4.68164 122.654V168.753C4.7751 168.752 4.86866 168.752 4.96231 168.752C22.7651 168.752 37.1971 180.162 37.1971 194.238C37.1971 194.28 37.197 194.322 37.1967 194.365L37.1959 194.46H455.969C455.968 194.386 455.968 194.312 455.968 194.238C455.968 180.163 470.4 168.752 488.203 168.752L488.273 168.752C488.343 168.752 488.414 168.753 488.484 168.753V122.654C488.39 122.655 488.296 122.655 488.203 122.655C470.4 122.655 455.968 111.245 455.968 97.1692C455.968 83.0936 470.4 71.683 488.203 71.683C488.296 71.683 488.39 71.6833 488.484 71.684V25.5853C488.39 25.586 488.297 25.5863 488.204 25.5863C470.494 25.5863 456.12 14.2951 455.97 0.321411Z"/>
</mask>
<path fill-rule="evenodd" clip-rule="evenodd" d="M455.97 0.321411L37.1949 0.321411C37.0443 14.2949 22.6705 25.5858 4.96134 25.5858C4.86801 25.5858 4.77478 25.5855 4.68164 25.5849V71.6837C4.7751 71.6831 4.86866 71.6828 4.96231 71.6828C22.7651 71.6828 37.1971 83.0933 37.1971 97.169C37.1971 111.245 22.7651 122.655 4.96231 122.655C4.86866 122.655 4.7751 122.655 4.68164 122.654V168.753C4.7751 168.752 4.86866 168.752 4.96231 168.752C22.7651 168.752 37.1971 180.162 37.1971 194.238C37.1971 194.28 37.197 194.322 37.1967 194.365L37.1959 194.46H455.969C455.968 194.386 455.968 194.312 455.968 194.238C455.968 180.163 470.4 168.752 488.203 168.752L488.273 168.752C488.343 168.752 488.414 168.753 488.484 168.753V122.654C488.39 122.655 488.296 122.655 488.203 122.655C470.4 122.655 455.968 111.245 455.968 97.1692C455.968 83.0936 470.4 71.683 488.203 71.683C488.296 71.683 488.39 71.6833 488.484 71.684V25.5853C488.39 25.586 488.297 25.5863 488.204 25.5863C470.494 25.5863 456.12 14.2951 455.97 0.321411Z" fill="#D6CAB5"/>
<path d="M37.1949 0.321411V-4.58984H32.3363L32.284 0.268469L37.1949 0.321411ZM455.97 0.321411L460.881 0.268579L460.829 -4.58984H455.97V0.321411ZM4.68164 25.5849L4.71463 20.6737L-0.22961 20.6405V25.5849H4.68164ZM4.68164 71.6837H-0.22961V76.6284L4.71491 76.5949L4.68164 71.6837ZM4.68164 122.654L4.71491 117.743L-0.22961 117.71V122.654H4.68164ZM4.68164 168.753H-0.22961V173.697L4.71451 173.664L4.68164 168.753ZM37.1967 194.365L42.1078 194.406L42.1079 194.395L37.1967 194.365ZM37.1959 194.46L32.2848 194.418L32.2429 199.371H37.1959V194.46ZM455.969 194.46V199.371H460.933L460.88 194.407L455.969 194.46ZM488.203 168.752L488.207 163.841H488.203V168.752ZM488.273 168.752L488.282 163.841L488.278 163.841L488.273 168.752ZM488.484 168.753L488.45 173.664L493.395 173.698V168.753H488.484ZM488.484 122.654H493.395V117.71L488.45 117.743L488.484 122.654ZM488.484 71.684L488.45 76.5951L493.395 76.6286V71.684H488.484ZM488.484 25.5853H493.395V20.6409L488.451 20.6742L488.484 25.5853ZM37.1949 5.23266L455.97 5.23266V-4.58984L37.1949 -4.58984V5.23266ZM4.96134 30.4971C24.2449 30.4971 41.9155 18.034 42.1059 0.374353L32.284 0.268469C32.1731 10.5558 21.0962 20.6746 4.96134 20.6746V30.4971ZM4.64865 30.496C4.75274 30.4967 4.85697 30.4971 4.96134 30.4971V20.6746C4.87905 20.6746 4.79682 20.6743 4.71463 20.6737L4.64865 30.496ZM9.59289 71.6837V25.5849H-0.22961V71.6837H9.59289ZM4.96231 66.7715C4.85773 66.7715 4.75308 66.7719 4.64837 66.7726L4.71491 76.5949C4.79713 76.5943 4.8796 76.5941 4.96231 76.5941V66.7715ZM42.1083 97.169C42.1083 79.3682 24.3394 66.7715 4.96231 66.7715V76.5941C21.1908 76.5941 32.2858 86.8185 32.2858 97.169H42.1083ZM4.96231 127.566C24.3394 127.566 42.1083 114.97 42.1083 97.169H32.2858C32.2858 107.519 21.1908 117.744 4.96231 117.744V127.566ZM4.64837 127.565C4.75308 127.566 4.85773 127.566 4.96231 127.566V117.744C4.8796 117.744 4.79713 117.744 4.71491 117.743L4.64837 127.565ZM9.59289 168.753V122.654H-0.22961V168.753H9.59289ZM4.96231 163.84C4.85746 163.84 4.75294 163.841 4.64877 163.841L4.71451 173.664C4.79727 173.663 4.87986 173.663 4.96231 173.663V163.84ZM42.1083 194.238C42.1083 176.437 24.3394 163.84 4.96231 163.84V173.663C21.1908 173.663 32.2858 183.887 32.2858 194.238H42.1083ZM42.1079 194.395C42.1082 194.342 42.1083 194.29 42.1083 194.238H32.2858C32.2858 194.27 32.2857 194.302 32.2855 194.334L42.1079 194.395ZM42.107 194.501L42.1078 194.406L32.2856 194.323L32.2848 194.418L42.107 194.501ZM455.969 189.548H37.1959V199.371H455.969V189.548ZM451.057 194.238C451.057 194.33 451.057 194.421 451.058 194.512L460.88 194.407C460.879 194.351 460.879 194.295 460.879 194.238H451.057ZM488.203 163.841C468.825 163.841 451.057 176.438 451.057 194.238H460.879C460.879 183.888 471.974 173.663 488.203 173.663V163.841ZM488.278 163.841L488.207 163.841L488.198 173.663L488.269 173.664L488.278 163.841ZM488.517 163.842C488.438 163.841 488.36 163.841 488.282 163.841L488.265 173.664C488.327 173.664 488.389 173.664 488.45 173.664L488.517 163.842ZM483.572 122.654V168.753H493.395V122.654H483.572ZM488.45 117.743C488.368 117.744 488.285 117.744 488.203 117.744V127.567C488.307 127.567 488.412 127.566 488.517 127.566L488.45 117.743ZM488.203 117.744C471.974 117.744 460.879 107.52 460.879 97.1692H451.057C451.057 114.97 468.825 127.567 488.203 127.567V117.744ZM460.879 97.1692C460.879 86.8187 471.974 76.5943 488.203 76.5943V66.7718C468.825 66.7718 451.057 79.3684 451.057 97.1692H460.879ZM488.203 76.5943C488.285 76.5943 488.368 76.5946 488.45 76.5951L488.517 66.7728C488.412 66.7721 488.307 66.7718 488.203 66.7718V76.5943ZM483.572 25.5853V71.684H493.395V25.5853H483.572ZM488.204 30.4975C488.308 30.4975 488.412 30.4972 488.517 30.4965L488.451 20.6742C488.368 20.6747 488.286 20.675 488.204 20.675V30.4975ZM451.059 0.374243C451.249 18.0342 468.92 30.4975 488.204 30.4975V20.675C472.068 20.675 460.992 10.556 460.881 0.268579L451.059 0.374243Z" fill="#362224" mask="url(#path-1-inside-1_424_1444)"/>
<path d="M63.9883 28.999H425.948" stroke="black" stroke-width="1.41366" stroke-dasharray="2.83 2.83"/>
<path d="M172.12 127.992H413.426" stroke="black" stroke-width="1.41366"/>
<path d="M226.966 149.792H225.289C225.201 149.792 225.158 149.754 225.158 149.677L225.141 138.26C225.141 138.173 225.185 138.13 225.272 138.13H226.786L229.618 144.734L229.536 138.26C229.536 138.173 229.585 138.13 229.684 138.13H231.345C231.41 138.13 231.443 138.173 231.443 138.26L231.46 149.694C231.46 149.759 231.432 149.792 231.378 149.792H229.905L226.999 143.621L227.122 149.661C227.122 149.748 227.07 149.792 226.966 149.792ZM237.694 149.956C237.099 149.956 236.551 149.803 236.049 149.497C235.553 149.192 235.152 148.785 234.846 148.278C234.546 147.765 234.396 147.203 234.396 146.592L234.412 141.28C234.412 140.658 234.562 140.099 234.862 139.603C235.157 139.101 235.555 138.7 236.057 138.4C236.559 138.094 237.105 137.941 237.694 137.941C238.305 137.941 238.854 138.091 239.339 138.391C239.83 138.692 240.223 139.095 240.518 139.603C240.818 140.105 240.968 140.664 240.968 141.28L240.984 146.592C240.984 147.203 240.837 147.762 240.542 148.27C240.242 148.782 239.844 149.192 239.347 149.497C238.851 149.803 238.3 149.956 237.694 149.956ZM237.694 147.934C238.032 147.934 238.327 147.798 238.578 147.525C238.829 147.247 238.955 146.936 238.955 146.592L238.938 141.28C238.938 140.909 238.821 140.596 238.586 140.339C238.352 140.083 238.054 139.955 237.694 139.955C237.35 139.955 237.056 140.08 236.81 140.331C236.565 140.582 236.442 140.898 236.442 141.28V146.592C236.442 146.957 236.565 147.274 236.81 147.541C237.056 147.803 237.35 147.934 237.694 147.934ZM245.893 149.792H243.994C243.951 149.792 243.929 149.77 243.929 149.726V147.828C243.929 147.784 243.951 147.762 243.994 147.762H245.893C245.937 147.762 245.958 147.784 245.958 147.828V149.726C245.958 149.77 245.937 149.792 245.893 149.792ZM258.043 149.956C257.448 149.956 256.903 149.806 256.406 149.505C255.904 149.205 255.501 148.807 255.195 148.311C254.895 147.814 254.745 147.274 254.745 146.69V146.191C254.745 146.142 254.772 146.117 254.827 146.117H256.725C256.769 146.117 256.791 146.142 256.791 146.191V146.576C256.791 146.952 256.914 147.271 257.159 147.533C257.405 147.789 257.699 147.918 258.043 147.918C258.392 147.918 258.687 147.787 258.927 147.525C259.167 147.258 259.287 146.941 259.287 146.576V145.438C259.287 145.089 259.162 144.797 258.911 144.562C258.66 144.328 258.349 144.21 257.978 144.21C257.497 144.21 257.102 144.401 256.791 144.783L256.758 144.832L254.966 144.693C254.906 144.693 254.876 144.666 254.876 144.611L255.08 140.02L255.179 138.195C255.179 138.151 255.2 138.13 255.244 138.13H260.883C260.927 138.13 260.948 138.151 260.948 138.195V140.02C260.948 140.075 260.927 140.102 260.883 140.102H256.955L256.873 142.418C257.009 142.353 257.187 142.298 257.405 142.254C257.623 142.205 257.819 142.181 257.994 142.181C258.6 142.181 259.156 142.328 259.664 142.623C260.171 142.923 260.575 143.318 260.875 143.809C261.18 144.3 261.333 144.843 261.333 145.438V146.576C261.333 147.181 261.186 147.743 260.891 148.261C260.591 148.774 260.193 149.186 259.696 149.497C259.2 149.803 258.649 149.956 258.043 149.956ZM269.18 149.792H267.289C267.246 149.792 267.224 149.765 267.224 149.71V147.746H263.598C263.555 147.746 263.533 147.719 263.533 147.664V145.823L267.183 138.195C267.21 138.151 267.246 138.13 267.289 138.13H269.18C269.213 138.13 269.229 138.151 269.229 138.195L269.245 145.749H270.424C270.479 145.749 270.506 145.779 270.506 145.839V147.664C270.506 147.719 270.484 147.746 270.44 147.746H269.245V149.71C269.245 149.765 269.224 149.792 269.18 149.792ZM265.514 145.749H267.224V142.099L265.514 145.749ZM276.209 149.956C275.614 149.956 275.068 149.806 274.572 149.505C274.07 149.205 273.666 148.807 273.36 148.311C273.06 147.814 272.91 147.274 272.91 146.69V146.191C272.91 146.142 272.938 146.117 272.992 146.117H274.891C274.935 146.117 274.956 146.142 274.956 146.191V146.576C274.956 146.952 275.079 147.271 275.325 147.533C275.57 147.789 275.865 147.918 276.209 147.918C276.558 147.918 276.852 147.787 277.092 147.525C277.332 147.258 277.452 146.941 277.452 146.576V145.438C277.452 145.089 277.327 144.797 277.076 144.562C276.825 144.328 276.514 144.21 276.143 144.21C275.663 144.21 275.267 144.401 274.956 144.783L274.924 144.832L273.131 144.693C273.071 144.693 273.041 144.666 273.041 144.611L273.246 140.02L273.344 138.195C273.344 138.151 273.366 138.13 273.41 138.13H279.048C279.092 138.13 279.114 138.151 279.114 138.195V140.02C279.114 140.075 279.092 140.102 279.048 140.102H275.12L275.038 142.418C275.175 142.353 275.352 142.298 275.57 142.254C275.788 142.205 275.985 142.181 276.159 142.181C276.765 142.181 277.322 142.328 277.829 142.623C278.336 142.923 278.74 143.318 279.04 143.809C279.346 144.3 279.499 144.843 279.499 145.438V146.576C279.499 147.181 279.351 147.743 279.057 148.261C278.756 148.774 278.358 149.186 277.862 149.497C277.365 149.803 276.814 149.956 276.209 149.956ZM285.136 149.956C284.541 149.956 283.995 149.806 283.499 149.505C282.997 149.205 282.593 148.807 282.288 148.311C281.988 147.814 281.838 147.274 281.838 146.69V146.191C281.838 146.142 281.865 146.117 281.919 146.117H283.818C283.862 146.117 283.884 146.142 283.884 146.191V146.576C283.884 146.952 284.006 147.271 284.252 147.533C284.497 147.789 284.792 147.918 285.136 147.918C285.485 147.918 285.78 147.787 286.02 147.525C286.26 147.258 286.38 146.941 286.38 146.576V145.438C286.38 145.089 286.254 144.797 286.003 144.562C285.752 144.328 285.441 144.21 285.07 144.21C284.59 144.21 284.195 144.401 283.884 144.783L283.851 144.832L282.058 144.693C281.998 144.693 281.968 144.666 281.968 144.611L282.173 140.02L282.271 138.195C282.271 138.151 282.293 138.13 282.337 138.13H287.976C288.019 138.13 288.041 138.151 288.041 138.195V140.02C288.041 140.075 288.019 140.102 287.976 140.102H284.047L283.965 142.418C284.102 142.353 284.279 142.298 284.497 142.254C284.716 142.205 284.912 142.181 285.087 142.181C285.692 142.181 286.249 142.328 286.756 142.623C287.264 142.923 287.667 143.318 287.967 143.809C288.273 144.3 288.426 144.843 288.426 145.438V146.576C288.426 147.181 288.278 147.743 287.984 148.261C287.684 148.774 287.285 149.186 286.789 149.497C286.292 149.803 285.741 149.956 285.136 149.956ZM294.161 149.956C293.577 149.956 293.034 149.803 292.532 149.497C292.036 149.192 291.635 148.788 291.329 148.286C291.029 147.784 290.879 147.23 290.879 146.625L290.863 141.33C290.863 140.718 291.016 140.154 291.321 139.635C291.627 139.123 292.028 138.713 292.524 138.408C293.026 138.097 293.572 137.941 294.161 137.941C294.761 137.941 295.312 138.094 295.814 138.4C296.311 138.711 296.706 139.12 297.001 139.627C297.301 140.135 297.451 140.702 297.451 141.33V141.665C297.451 141.709 297.424 141.731 297.369 141.731H295.487C295.443 141.731 295.421 141.709 295.421 141.665V141.33C295.421 140.959 295.301 140.642 295.061 140.38C294.821 140.118 294.521 139.987 294.161 139.987C293.817 139.987 293.523 140.118 293.277 140.38C293.032 140.642 292.909 140.959 292.909 141.33V142.483C293.302 142.314 293.719 142.23 294.161 142.23C294.767 142.23 295.318 142.38 295.814 142.68C296.311 142.98 296.704 143.386 296.993 143.899C297.287 144.407 297.435 144.969 297.435 145.585V146.625C297.435 147.23 297.287 147.787 296.993 148.294C296.693 148.802 296.297 149.205 295.806 149.505C295.315 149.806 294.767 149.956 294.161 149.956ZM294.161 147.95C294.51 147.95 294.805 147.822 295.045 147.566C295.285 147.309 295.405 146.996 295.405 146.625V145.585C295.405 145.225 295.285 144.914 295.045 144.652C294.805 144.39 294.51 144.259 294.161 144.259C293.817 144.259 293.523 144.388 293.277 144.644C293.032 144.901 292.909 145.214 292.909 145.585V146.625C292.909 146.979 293.032 147.29 293.277 147.558C293.523 147.82 293.817 147.95 294.161 147.95ZM303.35 149.956C302.766 149.956 302.224 149.803 301.722 149.497C301.225 149.192 300.824 148.788 300.519 148.286C300.218 147.784 300.068 147.23 300.068 146.625V145.585C300.068 145.116 300.158 144.677 300.338 144.268C300.519 143.858 300.759 143.498 301.059 143.187C300.813 142.92 300.619 142.606 300.478 142.246C300.341 141.881 300.273 141.49 300.273 141.076C300.273 140.503 300.409 139.974 300.682 139.488C300.955 139.013 301.326 138.637 301.795 138.359C302.264 138.08 302.783 137.941 303.35 137.941C303.923 137.941 304.441 138.083 304.905 138.367C305.369 138.651 305.74 139.03 306.018 139.504C306.296 139.974 306.436 140.497 306.436 141.076C306.436 141.49 306.365 141.878 306.223 142.238C306.086 142.593 305.895 142.909 305.65 143.187C305.95 143.487 306.187 143.845 306.362 144.259C306.537 144.674 306.624 145.116 306.624 145.585V146.625C306.624 147.23 306.477 147.787 306.182 148.294C305.882 148.802 305.486 149.205 304.995 149.505C304.504 149.806 303.956 149.956 303.35 149.956ZM303.35 142.197C303.645 142.197 303.893 142.088 304.095 141.87C304.302 141.651 304.406 141.387 304.406 141.076C304.406 140.765 304.302 140.497 304.095 140.274C303.893 140.05 303.645 139.938 303.35 139.938C303.061 139.938 302.81 140.05 302.597 140.274C302.385 140.497 302.278 140.765 302.278 141.076C302.278 141.376 302.385 141.638 302.597 141.861C302.81 142.085 303.061 142.197 303.35 142.197ZM303.35 147.95C303.699 147.95 303.994 147.822 304.234 147.566C304.474 147.309 304.594 146.996 304.594 146.625V145.585C304.594 145.225 304.474 144.914 304.234 144.652C303.994 144.39 303.699 144.259 303.35 144.259C303.006 144.259 302.712 144.388 302.466 144.644C302.221 144.901 302.098 145.214 302.098 145.585V146.625C302.098 146.979 302.221 147.29 302.466 147.558C302.712 147.82 303.006 147.95 303.35 147.95Z" fill="#372325"/>
<path d="M63.9883 163.99H425.948" stroke="black" stroke-width="1.41366" stroke-linecap="round" stroke-dasharray="2.83 2.83"/>
<rect x="53.7432" y="37.9983" width="91.059" height="116.992" rx="9.89563" fill="#704A37"/>
<path fill-rule="evenodd" clip-rule="evenodd" d="M156.184 43.3984L187.783 58.9136L156.183 74.4293H427.088L395.487 58.9132L427.085 43.3984H156.184Z" fill="#362224"/>
<path d="M223.737 60.9636C223.135 60.9636 222.58 60.809 222.072 60.4998C221.57 60.1905 221.164 59.7791 220.854 59.2656C220.551 58.7465 220.399 58.1777 220.399 57.5593L220.415 52.1835C220.415 51.554 220.567 50.9879 220.871 50.4854C221.169 49.9774 221.572 49.5715 222.08 49.2678C222.588 48.9586 223.141 48.8039 223.737 48.8039C224.355 48.8039 224.91 48.9558 225.402 49.2595C225.899 49.5632 226.297 49.9719 226.595 50.4854C226.898 50.9935 227.05 51.5595 227.05 52.1835L227.067 57.5593C227.067 58.1777 226.918 58.7437 226.62 59.2573C226.316 59.7764 225.913 60.1905 225.41 60.4998C224.908 60.809 224.35 60.9636 223.737 60.9636ZM223.737 58.9177C224.079 58.9177 224.378 58.7796 224.632 58.5035C224.886 58.2219 225.013 57.9071 225.013 57.5593L224.996 52.1835C224.996 51.808 224.877 51.4905 224.64 51.2309C224.402 50.9714 224.101 50.8416 223.737 50.8416C223.389 50.8416 223.091 50.9686 222.842 51.2226C222.594 51.4766 222.47 51.7969 222.47 52.1835V57.5593C222.47 57.9292 222.594 58.2495 222.842 58.5201C223.091 58.7852 223.389 58.9177 223.737 58.9177ZM232.035 60.798H230.113C230.069 60.798 230.047 60.7704 230.047 60.7151L230.08 49.0607C230.08 49.0165 230.102 48.9945 230.147 48.9945H233.576C234.189 48.9945 234.752 49.1436 235.266 49.4417C235.779 49.7399 236.188 50.1403 236.491 50.6428C236.801 51.1453 236.955 51.7141 236.955 52.3491C236.955 52.7633 236.892 53.1388 236.765 53.4757C236.638 53.8125 236.489 54.0969 236.317 54.3288C236.152 54.5607 236 54.7319 235.862 54.8424C236.475 55.5216 236.781 56.3195 236.781 57.2362L236.798 60.7151C236.798 60.7704 236.77 60.798 236.715 60.798H234.793C234.749 60.798 234.727 60.7814 234.727 60.7483V57.2362C234.727 56.8276 234.584 56.4742 234.296 56.176C234.009 55.8778 233.656 55.7287 233.236 55.7287H232.118L232.101 60.7151C232.101 60.7704 232.079 60.798 232.035 60.798ZM233.576 51.0238H232.118V53.691H233.576C233.924 53.691 234.233 53.5612 234.503 53.3017C234.78 53.0422 234.918 52.7246 234.918 52.3491C234.918 51.9902 234.785 51.681 234.52 51.4214C234.255 51.1564 233.94 51.0238 233.576 51.0238ZM241.932 60.798H240.01C239.955 60.798 239.927 60.7704 239.927 60.7151L239.944 49.0607C239.944 49.0165 239.966 48.9945 240.01 48.9945H241.915C241.959 48.9945 241.982 49.0165 241.982 49.0607L241.998 60.7151C241.998 60.7704 241.976 60.798 241.932 60.798ZM250.735 60.798H245.252C245.208 60.798 245.185 60.7704 245.185 60.7151L245.202 49.0607C245.202 49.0165 245.224 48.9945 245.268 48.9945H250.719C250.763 48.9945 250.785 49.0221 250.785 49.0773V50.9741C250.785 51.0183 250.763 51.0404 250.719 51.0404H247.24V53.691H250.719C250.763 53.691 250.785 53.7131 250.785 53.7573L250.801 55.679C250.801 55.7232 250.779 55.7452 250.735 55.7452H247.24V58.7106H250.735C250.779 58.7106 250.801 58.7382 250.801 58.7934V60.7317C250.801 60.7759 250.779 60.798 250.735 60.798ZM255.853 60.798H254.154C254.066 60.798 254.022 60.7593 254.022 60.682L254.005 49.127C254.005 49.0386 254.05 48.9945 254.138 48.9945H255.67L258.536 55.679L258.453 49.127C258.453 49.0386 258.503 48.9945 258.603 48.9945H260.284C260.35 48.9945 260.383 49.0386 260.383 49.127L260.4 60.6986C260.4 60.7648 260.372 60.798 260.317 60.798H258.826L255.886 54.5525L256.01 60.6654C256.01 60.7538 255.957 60.798 255.853 60.798ZM267.191 60.798H265.277C265.227 60.798 265.203 60.7704 265.203 60.7151V51.0404H262.999C262.944 51.0404 262.916 51.0128 262.916 50.9576L262.933 49.0607C262.933 49.0165 262.955 48.9945 262.999 48.9945H269.444C269.504 48.9945 269.535 49.0165 269.535 49.0607V50.9576C269.535 51.0128 269.513 51.0404 269.468 51.0404H267.24L267.257 60.7151C267.257 60.7704 267.235 60.798 267.191 60.798ZM270.461 60.7151L272.565 49.0607C272.576 49.0165 272.603 48.9945 272.647 48.9945H275.108C275.152 48.9945 275.179 49.0165 275.19 49.0607L277.212 60.7151C277.217 60.7704 277.195 60.798 277.145 60.798H275.265C275.21 60.798 275.179 60.7704 275.174 60.7151L274.992 59.4727H272.681L272.498 60.7151C272.493 60.7704 272.465 60.798 272.416 60.798H270.527C270.483 60.798 270.461 60.7704 270.461 60.7151ZM273.782 52.8958L273.02 57.6587H274.652L273.956 52.8958L273.857 52.2663L273.782 52.8958ZM282.561 60.798H280.647C280.598 60.798 280.573 60.7704 280.573 60.7151V51.0404H278.369C278.314 51.0404 278.287 51.0128 278.287 50.9576L278.303 49.0607C278.303 49.0165 278.325 48.9945 278.369 48.9945H284.814C284.875 48.9945 284.905 49.0165 284.905 49.0607V50.9576C284.905 51.0128 284.883 51.0404 284.839 51.0404H282.61L282.627 60.7151C282.627 60.7704 282.605 60.798 282.561 60.798ZM289.434 60.798H287.512C287.457 60.798 287.43 60.7704 287.43 60.7151L287.446 49.0607C287.446 49.0165 287.468 48.9945 287.512 48.9945H289.418C289.462 48.9945 289.484 49.0165 289.484 49.0607L289.5 60.7151C289.5 60.7704 289.478 60.798 289.434 60.798ZM295.827 60.9636C295.225 60.9636 294.67 60.809 294.162 60.4998C293.66 60.1905 293.254 59.7791 292.945 59.2656C292.641 58.7465 292.489 58.1777 292.489 57.5593L292.506 52.1835C292.506 51.554 292.657 50.9879 292.961 50.4854C293.259 49.9774 293.662 49.5715 294.17 49.2678C294.679 48.9586 295.231 48.8039 295.827 48.8039C296.446 48.8039 297.001 48.9558 297.492 49.2595C297.989 49.5632 298.387 49.9719 298.685 50.4854C298.989 50.9935 299.14 51.5595 299.14 52.1835L299.157 57.5593C299.157 58.1777 299.008 58.7437 298.71 59.2573C298.406 59.7764 298.003 60.1905 297.5 60.4998C296.998 60.809 296.44 60.9636 295.827 60.9636ZM295.827 58.9177C296.169 58.9177 296.468 58.7796 296.722 58.5035C296.976 58.2219 297.103 57.9071 297.103 57.5593L297.086 52.1835C297.086 51.808 296.967 51.4905 296.73 51.2309C296.493 50.9714 296.192 50.8416 295.827 50.8416C295.479 50.8416 295.181 50.9686 294.933 51.2226C294.684 51.4766 294.56 51.7969 294.56 52.1835V57.5593C294.56 57.9292 294.684 58.2495 294.933 58.5201C295.181 58.7852 295.479 58.9177 295.827 58.9177ZM303.984 60.798H302.286C302.198 60.798 302.154 60.7593 302.154 60.682L302.137 49.127C302.137 49.0386 302.181 48.9945 302.27 48.9945H303.802L306.668 55.679L306.585 49.127C306.585 49.0386 306.635 48.9945 306.734 48.9945H308.416C308.482 48.9945 308.515 49.0386 308.515 49.127L308.532 60.6986C308.532 60.7648 308.504 60.798 308.449 60.798H306.958L304.018 54.5525L304.142 60.6654C304.142 60.7538 304.089 60.798 303.984 60.798Z" fill="#DBD0BE"/>
<path d="M176.865 106.638L180.881 84.3889C180.902 84.3046 180.955 84.2624 181.039 84.2624H185.736C185.82 84.2624 185.873 84.3046 185.894 84.3889L189.752 106.638C189.763 106.744 189.721 106.796 189.626 106.796H186.036C185.931 106.796 185.873 106.744 185.862 106.638L185.514 104.266H181.103L180.755 106.638C180.744 106.744 180.691 106.796 180.597 106.796H176.991C176.907 106.796 176.865 106.744 176.865 106.638ZM183.206 91.7105L181.751 100.803H184.866L183.538 91.7105L183.348 90.5087L183.206 91.7105ZM200.977 106.765L195.173 106.796C195.068 106.796 195.015 106.744 195.015 106.638L195.078 84.3889C195.078 84.3046 195.121 84.2624 195.205 84.2624L201.261 84.2308C202.463 84.1991 203.549 84.4732 204.519 85.0531C205.499 85.6329 206.279 86.4183 206.859 87.4093C207.45 88.3897 207.745 89.4755 207.745 90.6668V99.965C207.745 101.209 207.444 102.348 206.843 103.381C206.232 104.403 205.42 105.22 204.408 105.832C203.396 106.433 202.252 106.744 200.977 106.765ZM201.261 88.105L199 88.1367L198.968 102.811H200.977C201.778 102.811 202.453 102.532 203.001 101.973C203.549 101.415 203.823 100.745 203.823 99.965V90.6352C203.823 89.9499 203.57 89.3543 203.064 88.8483C202.558 88.3317 201.957 88.084 201.261 88.105ZM217.325 106.796H213.656C213.572 106.796 213.529 106.744 213.529 106.638L213.593 84.3889C213.593 84.3046 213.635 84.2624 213.719 84.2624H217.672C217.757 84.2624 217.831 84.3046 217.894 84.3889L220.851 88.6585L223.792 84.3889C223.855 84.3046 223.935 84.2624 224.029 84.2624H227.999C228.093 84.2624 228.141 84.3046 228.141 84.3889L228.204 106.638C228.204 106.744 228.162 106.796 228.078 106.796H224.409C224.325 106.796 224.282 106.744 224.282 106.638L224.251 90.1133L220.851 95.0471L217.483 90.1133L217.451 106.638C217.451 106.744 217.409 106.796 217.325 106.796ZM237.989 106.796H234.321C234.215 106.796 234.163 106.744 234.163 106.638L234.194 84.3889C234.194 84.3046 234.236 84.2624 234.321 84.2624H237.958C238.042 84.2624 238.084 84.3046 238.084 84.3889L238.116 106.638C238.116 106.744 238.074 106.796 237.989 106.796ZM251.111 106.796H247.458C247.364 106.796 247.316 106.744 247.316 106.638V88.1683H243.11C243.004 88.1683 242.952 88.1156 242.952 88.0102L242.983 84.3889C242.983 84.3046 243.025 84.2624 243.11 84.2624H255.413C255.528 84.2624 255.586 84.3046 255.586 84.3889V88.0102C255.586 88.1156 255.544 88.1683 255.46 88.1683H251.206L251.238 106.638C251.238 106.744 251.196 106.796 251.111 106.796ZM278.051 107.113C276.902 107.113 275.842 106.817 274.872 106.227C273.913 105.637 273.138 104.851 272.548 103.871C271.968 102.88 271.678 101.794 271.678 100.613L271.71 90.3505C271.71 89.1487 272 88.0681 272.579 87.1088C273.149 86.1389 273.918 85.3641 274.888 84.7842C275.858 84.1939 276.912 83.8987 278.051 83.8987C279.232 83.8987 280.291 84.1886 281.229 84.7684C282.178 85.3482 282.937 86.1284 283.506 87.1088C284.086 88.0787 284.376 89.1593 284.376 90.3505L284.408 100.613C284.408 101.794 284.123 102.875 283.554 103.855C282.974 104.846 282.204 105.637 281.245 106.227C280.286 106.817 279.221 107.113 278.051 107.113ZM278.051 103.207C278.704 103.207 279.274 102.943 279.759 102.416C280.244 101.878 280.486 101.278 280.486 100.613L280.454 90.3505C280.454 89.6337 280.228 89.0275 279.775 88.532C279.321 88.0365 278.747 87.7888 278.051 87.7888C277.387 87.7888 276.817 88.0312 276.343 88.5162C275.869 89.0011 275.631 89.6126 275.631 90.3505V100.613C275.631 101.32 275.869 101.931 276.343 102.448C276.817 102.954 277.387 103.207 278.051 103.207ZM293.624 106.796H290.382C290.213 106.796 290.129 106.723 290.129 106.575L290.097 84.5154C290.097 84.3467 290.182 84.2624 290.35 84.2624H293.276L298.747 97.0238L298.589 84.5154C298.589 84.3467 298.684 84.2624 298.874 84.2624H302.084C302.21 84.2624 302.274 84.3467 302.274 84.5154L302.305 106.607C302.305 106.733 302.253 106.796 302.147 106.796H299.301L293.687 94.8731L293.924 106.543C293.924 106.712 293.824 106.796 293.624 106.796ZM318.954 106.796H308.485C308.401 106.796 308.359 106.744 308.359 106.638L308.39 84.3889C308.39 84.3046 308.432 84.2624 308.517 84.2624H318.922C319.006 84.2624 319.048 84.3151 319.048 84.4205V88.0418C319.048 88.1261 319.006 88.1683 318.922 88.1683H312.28V93.2286H318.922C319.006 93.2286 319.048 93.2707 319.048 93.3551L319.08 97.0238C319.08 97.1081 319.038 97.1503 318.954 97.1503H312.28V102.811H318.954C319.038 102.811 319.08 102.864 319.08 102.97V106.67C319.08 106.754 319.038 106.796 318.954 106.796Z" fill="#362223"/>
<path d="M87.221 75.199H82.7686C82.6662 75.199 82.6151 75.135 82.6151 75.0071L82.6918 48.0046C82.6918 47.9023 82.743 47.8511 82.8454 47.8511H87.6432C87.7456 47.8511 87.8351 47.9023 87.9119 48.0046L91.5007 53.1863L95.0703 48.0046C95.1471 47.9023 95.2431 47.8511 95.3582 47.8511H100.175C100.29 47.8511 100.348 47.9023 100.348 48.0046L100.425 75.0071C100.425 75.135 100.374 75.199 100.271 75.199H95.8188C95.7165 75.199 95.6653 75.135 95.6653 75.0071L95.6269 54.9519L91.5007 60.9397L87.4129 54.9519L87.3746 75.0071C87.3746 75.135 87.3234 75.199 87.221 75.199Z" fill="#D6CAB5"/>
<path d="M98.6412 127.396H94.1888C94.0609 127.396 93.9969 127.332 93.9969 127.204L94.0353 100.201C94.0353 100.099 94.0865 100.048 94.1888 100.048H98.6029C98.7052 100.048 98.7564 100.099 98.7564 100.201L98.7948 127.204C98.7948 127.332 98.7436 127.396 98.6412 127.396Z" fill="#D6CAB5"/>
</g>
<defs>
<filter id="filter0_d_424_1444" x="0.271956" y="0.321411" width="492.621" height="202.958" filterUnits="userSpaceOnUse" color-interpolation-filters="sRGB">
<feFlood flood-opacity="0" result="BackgroundImageFix"/>
<feColorMatrix in="SourceAlpha" type="matrix" values="0 0 0 0 0 0 0 0 0 0 0 0 0 0 0 0 0 0 127 0" result="hardAlpha"/>
<feOffset dy="4.40968"/>
<feGaussianBlur stdDeviation="2.20484"/>
<feComposite in2="hardAlpha" operator="out"/>
<feColorMatrix type="matrix" values="0 0 0 0 0 0 0 0 0 0 0 0 0 0 0 0 0 0 0.25 0"/>
<feBlend mode="normal" in2="BackgroundImageFix" result="effect1_dropShadow_424_1444"/>
<feBlend mode="normal" in="SourceGraphic" in2="effect1_dropShadow_424_1444" result="shape"/>
</filter>
</defs>
</svg>
