<svg width="42" height="29" viewBox="0 0 42 29" fill="none" xmlns="http://www.w3.org/2000/svg">
<path d="M6.28455 8.10832H36.279C36.8049 8.10832 37.2352 7.69483 37.2352 7.16999C37.2352 6.66107 36.8049 6.24756 36.279 6.24756H6.28455C5.75862 6.24756 5.34424 6.66107 5.34424 7.16999C5.34424 7.69483 5.75862 8.10832 6.28455 8.10832ZM6.28455 15.3129H36.279C36.8049 15.3129 37.2352 14.8993 37.2352 14.3745C37.2352 13.8497 36.8049 13.4362 36.279 13.4362H6.28455C5.75862 13.4362 5.34424 13.8497 5.34424 14.3745C5.34424 14.8993 5.75862 15.3129 6.28455 15.3129ZM6.28455 22.5014H36.279C36.8049 22.5014 37.2352 22.088 37.2352 21.5631C37.2352 21.0383 36.8049 20.6247 36.279 20.6247H6.28455C5.75862 20.6247 5.34424 21.0383 5.34424 21.5631C5.34424 22.088 5.75862 22.5014 6.28455 22.5014Z" fill="black"/>
<rect x="0.5" y="0.5" width="41" height="28" rx="3.5" stroke="black"/>
</svg>
