<svg width="1291" height="1292" viewBox="0 0 1291 1292" fill="none" xmlns="http://www.w3.org/2000/svg">
<path d="M99.1594 832.111C99.7224 801.205 85.588 784.7 64.3122 773.321C55.4226 768.58 47.0367 766.684 40.3695 777.855C36.9026 783.781 30.2947 785.589 23.3311 783.781C20.6432 783.222 18.19 781.856 16.2996 779.865C14.4092 777.874 13.1717 775.353 12.7525 772.64C11.6561 766.506 12.3969 760.787 17.7307 756.579C23.0645 752.371 30.028 750.979 35.5099 755.512C44.9921 763.246 52.3409 759.157 58.5043 751.957C85.4694 720.458 81.7951 679.921 47.6886 655.504C40.6066 650.467 33.6727 649.074 26.7685 656.897C19.8642 664.72 12.1006 664.928 5.01858 657.223C-1.08561 650.556 -1.91529 642.407 4.15926 635.74C10.7968 628.302 19.9235 628.125 26.4425 635.088C34.5024 643.711 41.6141 640.718 48.4887 635.444C82.6248 609.219 84.8472 572.239 58.3562 540.029C52.9335 533.45 46.3256 529.391 36.7841 536.71C29.5242 542.251 20.1309 540.562 14.8268 532.028C10.2338 524.679 10.4412 516.382 17.79 510.723C26.2351 504.204 35.5692 505.656 40.9326 514.427C46.5923 523.731 53.4076 523.316 60.9934 519.849C100.048 502.811 109.086 461.208 89.4105 426.953C85.2916 419.723 79.7208 415.426 69.883 419.723C61.4379 423.427 52.9039 420.997 49.1406 411.367C48.2646 409.564 47.7537 407.606 47.6372 405.605C47.5208 403.605 47.8011 401.601 48.462 399.709C49.123 397.817 50.1515 396.074 51.4885 394.581C52.8254 393.088 54.4444 391.874 56.2523 391.009C66.1197 385.498 74.0315 389.972 78.2392 398.951C82.9803 408.818 90.3884 409.529 99.1594 407.574C116.939 403.544 132.11 393.35 140.081 377.942C144.716 368.878 147.22 358.875 147.399 348.696C147.579 338.518 145.431 328.433 141.118 319.211C138.363 312.87 134.481 309.018 126.095 311.625C115.605 314.914 108.879 309.047 106.212 299.21C103.723 289.964 108.345 283.564 117.176 281.43C127.428 278.793 135.192 283.06 137.237 293.55C139.103 303.151 144.97 305.106 153.119 305.077C192.382 305.077 218.013 277.815 216.443 237.545C215.998 226.167 212.946 216.299 197.715 216.121C188.618 216.121 183.818 209.128 184.351 199.824C184.408 196.057 185.871 192.448 188.454 189.707C191.036 186.965 194.552 185.289 198.308 185.008C207.612 183.615 213.124 188.89 215.909 197.364C221.599 215.677 229.362 220.685 248.505 217.247C283.707 210.877 295.412 198.668 304.805 161.599C307.443 151.109 305.072 142.16 292.36 138.723C281.426 135.759 277.366 127.374 280.507 116.854C283.263 107.965 291.115 105.001 299.59 107.402C309.576 110.187 314.702 117.536 311.117 127.788C308.361 135.641 312.154 139.108 317.843 141.656C355.387 158.517 395.776 143.493 406.443 99.8159C408.399 91.756 407.036 84.4665 398.235 79.7846C388.456 74.5398 385.582 65.8872 391.272 56.079C395.331 48.9674 402.384 45.5597 410.236 49.0266C420.815 53.6788 422.652 63.0722 418.414 72.7322C415.303 79.8143 417.259 84.1109 422.593 87.8742C457.529 112.617 502.599 102.068 518.985 60.8202C521.949 53.5603 522.571 47.1598 513.681 42.0927C504.792 37.0257 503.784 28.462 508.792 20.1354C513.503 12.3126 521.237 10.3273 529.534 14.209C538.78 18.7131 541.061 27.662 536.468 35.5144C527.579 51.012 536.705 58.5681 547.551 65.4131C573.449 81.7996 598.932 80.2291 623.26 61.9462C629.442 57.0218 634.495 50.8274 638.076 43.7818C643.203 34.4773 634.846 30.7141 631.528 24.6691C630.413 23.0118 629.641 21.1479 629.258 19.1875C628.874 17.2271 628.887 15.2098 629.296 13.2546C629.705 11.2993 630.501 9.44569 631.637 7.80296C632.774 6.16023 634.228 4.76166 635.913 3.68969C642.729 -1.49591 649.929 -1.31811 655.974 4.87497C662.671 11.7496 664.686 20.6096 656.804 27.0101C646.788 35.1589 650.314 43.1002 655.915 49.9452C682.761 82.7182 718.32 85.3851 751.597 58.0348C758.204 52.6417 762.708 46.182 754.767 36.7294C748.337 29.2028 750.796 20.5503 758.856 14.9202C760.312 13.7336 761.989 12.8482 763.789 12.3156C765.59 11.783 767.479 11.6138 769.346 11.8178C771.212 12.0219 773.02 12.5951 774.663 13.5042C776.306 14.4132 777.752 15.6399 778.917 17.113C785.673 24.521 786.147 33.9143 778.384 39.337C764.249 49.1748 768.813 59.6053 775.421 69.8579C797.822 104.379 832.077 107.876 864.317 89.8002C871.576 85.7703 877.888 80.7032 871.31 69.769C866.272 61.3832 870.895 53.2047 879.814 49.2637C888.733 45.3226 895.638 48.7007 899.816 56.6717C904.438 65.5613 902.008 74.4509 892.882 77.6511C879.281 82.4219 880.585 91.4004 883.814 101.357C896.615 140.086 923.936 153.539 961.895 145.301C971.258 143.286 982.637 140.175 979.111 124.559C976.977 115.136 982.489 108.142 992.208 106.365C1001.36 104.705 1007.77 109.565 1010.31 118.01C1013.28 127.937 1007.97 135.078 998.905 137.182C985.867 140.145 984.089 149.035 985.363 159.524C990.519 200.742 1022.79 222.759 1062.11 215.144C1069.28 213.751 1074.82 211.38 1074.17 201.691C1073.49 191.438 1079.53 184.415 1090.08 184.148C1092.09 183.981 1094.1 184.229 1096 184.877C1097.91 185.525 1099.66 186.558 1101.14 187.912C1102.63 189.267 1103.82 190.914 1104.64 192.749C1105.46 194.584 1105.89 196.569 1105.91 198.579C1106.74 209.306 1100.48 215.529 1090.11 216.032C1081.22 216.477 1076.04 220.27 1074.76 228.804C1068.3 272.304 1093.08 303.862 1137.49 304.484C1145.44 304.484 1151.51 302.973 1153.2 292.957C1154.98 282.497 1162.86 278.141 1173.14 281.104C1182.03 283.653 1185.62 290.853 1183.39 299.684C1181.02 309.255 1173.85 314.5 1164.46 311.24C1154.18 307.892 1150.65 313.818 1147.81 320.782C1133.26 356.666 1150.21 397.44 1191.6 407.218C1200.17 409.233 1207.69 408.907 1212.11 398.328C1216.08 388.846 1224.46 385.527 1234.12 390.772C1235.97 391.577 1237.63 392.749 1239.01 394.219C1240.39 395.688 1241.45 397.422 1242.14 399.316C1242.82 401.211 1243.12 403.225 1243 405.235C1242.88 407.246 1242.35 409.211 1241.44 411.011C1237.18 421.027 1228.43 423.19 1219.28 418.567C1211.54 414.626 1206.89 417.649 1202.95 423.249C1177.2 459.993 1189.85 503.552 1231.61 520.057C1238.51 522.783 1244.2 522.664 1248.94 514.575C1254.1 505.685 1262.96 503.433 1271.73 510.071C1278.9 515.464 1280.85 523.316 1275.99 531.109C1270.27 540.295 1261.5 541.836 1253.09 535.525C1244.67 529.213 1239.34 532.206 1233.68 537.954C1203.4 568.831 1209.32 615.146 1244.88 636.836C1250.81 640.481 1256.08 641.4 1262.04 635.473C1269.77 627.799 1279.19 627.176 1286.75 635.74C1289.55 638.665 1291.08 642.583 1291 646.633C1290.91 650.683 1289.23 654.534 1286.31 657.342C1278.87 665.55 1270.39 664.483 1262.99 657.164C1255.58 649.845 1249.09 650.823 1241.77 656.008C1208.17 679.921 1205.05 722.562 1233.06 752.46C1238.98 758.683 1245.09 761.676 1253.8 755.127C1261.8 749.023 1270.3 751.868 1275.79 759.602C1277.04 761.169 1277.95 762.979 1278.47 764.918C1278.99 766.856 1279.11 768.881 1278.81 770.865C1278.51 772.85 1277.8 774.75 1276.73 776.448C1275.66 778.145 1274.25 779.603 1272.59 780.729C1264.85 786.834 1255.64 785.915 1250.1 778.388C1241.21 766.18 1231.25 768.995 1221.77 775.425C1188.16 798.064 1180.9 827.726 1199.22 862.395C1203.66 870.84 1209.5 877.507 1221.71 871.818C1230.33 867.788 1238.33 872.085 1241.59 881.686C1242.31 883.409 1242.69 885.258 1242.69 887.126C1242.7 888.995 1242.33 890.846 1241.62 892.573C1240.91 894.3 1239.86 895.868 1238.54 897.189C1237.21 898.509 1235.64 899.554 1233.92 900.265C1224.79 904.917 1216.55 902.221 1212.82 893.361C1207.45 880.619 1198.3 881.508 1188.43 884.471C1149.91 896.324 1134.35 931.467 1146.74 967.441C1149.7 976.33 1154.3 982.79 1166.33 979.975C1175.87 977.752 1182.48 983.62 1183.84 993.546C1184.25 995.38 1184.28 997.277 1183.95 999.126C1183.61 1000.97 1182.91 1002.74 1181.88 1004.31C1180.85 1005.88 1179.52 1007.24 1177.97 1008.29C1176.41 1009.34 1174.66 1010.07 1172.82 1010.44C1162.89 1013.07 1155.57 1008.13 1153.76 998.88C1151.6 987.679 1144.55 985.901 1135.57 986.138C1091.36 987.324 1067.41 1022.62 1075.33 1064.07C1076.57 1070.71 1079.74 1075.39 1088.39 1075C1099.39 1074.53 1106.17 1080.69 1106.17 1092.1C1106.17 1101.85 1098.82 1106.24 1090.47 1106.65C1079.42 1107.21 1074.41 1099.33 1074.29 1089.49C1074.14 1071.42 1059.47 1073.91 1049.81 1073.26C1017.22 1071.12 987.437 1098.83 985.541 1131.54C984.919 1142.15 985.334 1151.84 999.942 1154.24C1008.39 1155.6 1013.1 1163.4 1010.73 1172.49C1010.35 1174.47 1009.58 1176.35 1008.45 1178.01C1007.33 1179.68 1005.88 1181.1 1004.18 1182.18C1002.49 1183.27 1000.6 1184 998.617 1184.33C996.634 1184.66 994.605 1184.59 992.653 1184.11C983.763 1182.66 977.6 1176.08 979.496 1167.37C982.459 1153 974.37 1148.14 963.643 1145.68C923.225 1136.49 896.912 1150.98 883.103 1190.48C879.844 1199.76 879.488 1208.53 892.171 1212.97C901.416 1216.2 904.023 1224.82 899.905 1233.71C896.112 1241.8 889.178 1245.74 880.377 1241.57C871.073 1237.15 866.48 1229 872.021 1219.76C877.206 1211.13 873.295 1206.81 867.339 1202.69C833.559 1179.37 790.503 1187.87 771.717 1227.76C767.864 1235.97 767.272 1243.34 776.428 1249.69C785.051 1255.61 785.94 1264.68 779.628 1273.04C773.909 1280.62 765.998 1280.86 758.649 1275.46C750.589 1269.54 749.048 1261.15 755.301 1253.48C761.019 1246.46 759.834 1240.88 754.5 1235.34C721.905 1201.56 674.494 1210.87 653.218 1245.36C649.248 1251.88 650.7 1257.21 655.767 1262.66C663.264 1270.58 664.893 1279.38 656.122 1287.29C649.277 1293.45 641.306 1292.86 634.758 1286.55C626.401 1278.49 627.29 1269.78 635.498 1262.07C641.069 1256.86 639.736 1251.4 636.95 1245.92C627.083 1226.51 609.481 1217 589.391 1214.9C579.257 1213.6 568.959 1214.91 559.471 1218.7C549.984 1222.49 541.618 1228.64 535.164 1236.56C530.512 1242.1 532.586 1247.28 535.313 1253C539.846 1262.37 540.024 1271.73 529.831 1277.48C528.138 1278.58 526.235 1279.31 524.243 1279.63C522.252 1279.95 520.216 1279.85 518.264 1279.34C516.313 1278.83 514.489 1277.92 512.909 1276.67C511.329 1275.41 510.028 1273.84 509.088 1272.06C503.162 1262.52 505.858 1253.77 515.311 1248C521.237 1244.41 521.712 1240.26 520.111 1234.31C517.31 1224.23 511.962 1215.04 504.583 1207.62C497.204 1200.21 488.042 1194.82 477.977 1191.96C467.912 1189.11 457.283 1188.9 447.111 1191.34C436.939 1193.79 427.567 1198.81 419.896 1205.92C414.977 1210.3 417.081 1214.3 418.74 1219.16C422.089 1229.15 420.578 1238.4 409.851 1242.48C407.996 1243.25 406.005 1243.63 403.997 1243.61C401.99 1243.58 400.009 1243.15 398.175 1242.33C396.341 1241.52 394.691 1240.34 393.326 1238.87C391.961 1237.4 390.909 1235.66 390.234 1233.77C386.204 1224.35 388.901 1215.82 398.828 1211.73C409.821 1207.19 408.191 1198.13 406.295 1190.42C395.331 1147.66 353.55 1134.12 319.118 1149.17C312.243 1152.14 308.154 1155.99 311.295 1165.15C314.436 1174.3 309.695 1182.01 300.242 1184.52C290.789 1187.04 283.293 1183.46 280.359 1173.86C277.425 1164.26 281.366 1156.29 290.671 1153.91C306.08 1150 306.702 1139.39 304.094 1127.63C294.908 1086.53 270.284 1072.69 232.77 1074.74C223.643 1075.24 217.302 1079.51 217.006 1090.5C216.709 1100.58 210.694 1107.63 200.175 1107.33C190.574 1107.07 184.618 1100.64 184.411 1090.95C184.144 1079.95 191.078 1074.92 201.479 1074.92C211.376 1074.92 214.28 1067.98 215.435 1060.57C221.984 1019.09 194.041 983.886 149.386 986.731C143.015 987.146 140.496 989.872 138.896 996.509C136.733 1006.35 130.273 1014.29 118.983 1011.53C110.39 1009.52 103.634 1002.64 105.856 992.954C108.286 982.316 116.109 977.308 127.162 980.33C134.807 982.405 137.948 978.108 141.029 972.626C160.083 938.875 135.103 888.412 96.8777 883.374C88.7882 882.308 82.9803 883.641 79.0985 892.264C75.2168 900.887 66.8013 905.51 57.0524 901.154C47.8961 897.064 45.644 888.619 49.1999 879.937C53.378 869.655 62.2972 868.262 71.4239 872.677C79.2467 876.47 83.4841 872.826 87.6326 867.373C95.5704 857.377 99.6603 844.866 99.1594 832.111ZM451.365 986.198C439.927 981.012 437.942 964.892 424.015 962.492C417.377 961.396 409.495 955.469 404.547 960.27C399.598 965.07 406.413 972.122 408.488 977.752C410.384 982.968 408.488 993.428 414.977 992.568C427.067 990.939 440.905 996.954 451.395 986.198C456.551 988.983 461.44 992.509 467.722 992.331C474.745 992.154 483.842 999.117 488.079 992.065C491.339 986.642 482.449 980.567 479.19 974.7C474.863 966.877 453.351 960.744 446.594 966.522C438.297 973.545 451.839 977.93 451.217 984.716C451.191 985.214 451.241 985.714 451.365 986.198ZM827.691 1172.88C828.017 1177 822.21 1178.81 823.632 1183.78C839.515 1186.21 855.842 1187.69 869.502 1197.86C873.147 1200.58 876.673 1199.43 877.147 1194.9C879.073 1177.29 889.948 1164.67 901.683 1150.45C877.473 1152.97 860.198 1142.03 844.878 1122.86C840.285 1142.39 844.641 1161.53 827.751 1172.7C837.057 1154.01 839.166 1132.55 833.677 1112.4C831.988 1105.53 829.232 1103.27 822.358 1105.73C800.19 1114.06 777.491 1120.9 754.411 1126.21C748.959 1127.36 745.018 1130.48 747.329 1136.7C752.841 1151.51 758.204 1166.33 772.102 1176.02C791.54 1189.62 809.853 1186.42 827.662 1172.88H827.691ZM1183.28 556.534C1169.44 556.534 1156.61 549.896 1142.38 551.022C1133.49 551.733 1130.03 554.696 1131.72 563.971C1134.32 578.551 1135.93 593.293 1136.52 608.093C1138.09 643.652 1147.75 648.719 1179.93 631.384L1181.2 630.673C1207.37 615.679 1211.51 587.262 1190.74 565.69C1188.05 562.727 1185.82 559.764 1183.36 556.593C1195.45 557.778 1198.89 570.638 1209 576.239C1212.28 559.734 1217.62 545.096 1230.03 534.102C1232.79 531.672 1235.4 527.968 1230.42 526.072C1214.27 519.879 1202.68 508.293 1190.65 490.514C1186.89 517.331 1172.87 532.354 1151.81 543.407C1163.54 549.985 1176.55 546.044 1183.22 556.534H1183.28ZM258.846 343.183C263.854 328.101 276.359 318.767 286.285 307.418C290.019 303.151 294.227 299.358 287.737 294.142C272.329 281.697 255.32 273.4 234.933 275.889C217.924 277.934 207.227 287.742 203.908 302.854C199.256 324.071 211.761 351.51 231.051 364.133C236.622 367.778 238.756 364.904 241.808 361.377C247.23 355.214 250.075 346.561 258.639 343.42C257.957 350.828 252.505 355.57 248.594 361.2C230.129 386.76 214.313 414.133 201.39 442.895C198.249 450.096 195.463 456.378 205.775 460.674C215.376 464.704 222.162 465.089 227.199 454.007C247.954 408.134 276.463 366.183 311.473 329.997C319.621 321.611 313.636 317.315 308.272 312.04C302.909 306.766 298.168 302.054 290.226 310.292C279.766 321.285 272.151 335.094 258.846 343.183ZM460.344 841.001C465.737 841.505 468.937 845.446 472.76 848.527C532.883 897.035 601.007 919.14 678.198 909.184C828.462 889.775 930.692 753.409 907.579 603.974C883.518 448.318 728.75 347.895 576.442 388.313C472.908 415.782 392.012 510.219 381.997 611.027C373.67 694.767 394.887 767.188 452.402 828.792C455.751 832.378 459.633 835.637 460.255 841.001C455.762 841.167 451.429 842.717 447.849 845.437C444.27 848.158 441.617 851.917 440.253 856.202C438.001 863.699 447.483 866.751 452.373 871.225C471.659 888.215 493.259 902.382 516.526 913.303C520.734 915.377 525.623 919.496 529.89 914.37C531.958 912.215 533.553 909.653 534.573 906.846C535.594 904.04 536.017 901.051 535.816 898.072C534.957 891.731 528.527 890.575 523.964 888.116C500.288 875.7 476.878 863.047 460.314 841.001H460.344ZM217.361 826.185C202.812 826.185 195.374 836.26 201.271 848.942C223.799 897.317 253.898 941.791 290.434 980.686C296.953 987.62 301.783 986.909 307.206 980.182C311.769 974.552 321.014 970.581 311.828 961.07C275.74 923.796 246.634 880.349 225.895 832.793C224.088 829.148 222.399 825.622 217.332 826.185H217.361ZM156.497 838.038C158.483 837.771 163.846 837.208 169.15 836.171C187.729 832.526 187.878 831.667 181.714 814.273C176.499 799.457 171.61 784.463 167.639 769.262C160.972 743.63 158.334 742.297 134.599 755.572C132.881 756.52 131.192 757.557 129.562 758.535C112.079 770.032 101.5 792.404 105.856 808.909C109.945 824.377 131.606 837.682 156.497 838.038ZM323.296 974.345C315.295 976.863 310.643 982.79 306.583 988.746C302.524 994.702 308.272 998.791 312.036 1002.23C350.507 1037.79 394.222 1067.21 441.646 1089.47C450.536 1093.58 456.195 1094.62 461.084 1083.54C465.974 1072.46 463.692 1067.98 453.321 1063.18C408.314 1042.76 367.033 1014.97 331.178 980.953C328.718 978.375 325.933 976.389 323.296 974.345ZM992.979 986.701C994.905 985.293 996.736 983.758 998.461 982.108C1036.04 942.132 1066.91 896.343 1089.88 846.512C1093.82 837.83 1092.25 832.941 1083.09 829.652C1075.3 826.866 1068.75 823.399 1063.86 834.363C1043.09 880.851 1014.66 923.521 979.763 960.595C976.296 964.27 972.473 968.27 977.007 973.337C981.541 978.404 985.334 984.153 992.86 986.583L992.979 986.701ZM1087.8 975.767C1086.91 956.388 1075.21 940.949 1059.77 927.734C1054.52 923.23 1050.88 926.608 1047.53 930.875C1033.47 949.932 1018.37 968.194 1002.28 985.575C998.698 989.309 997.453 993.042 1002.28 996.717C1016.3 1007.18 1030.82 1016.42 1049.31 1015.71C1072.87 1014.7 1087.65 1000.04 1087.77 975.649L1087.8 975.767ZM1144.4 895.257C1144.55 872.648 1128.04 849.446 1106.91 841.623C1099.62 838.927 1097.43 842.719 1094.79 848.083C1088.1 861.773 1079.98 874.752 1074.29 888.886C1070.17 898.991 1054.29 907.584 1062.85 918.696C1069.73 927.585 1084.45 929.334 1096.72 931.201L1098.17 931.467C1121.31 933.867 1144.22 915.999 1144.37 895.138L1144.4 895.257ZM188.826 932.001C200.85 930.319 212.55 926.822 223.525 921.629C229.451 918.666 231.437 915.377 227.91 908.947C216.828 888.679 205.963 868.262 195.315 847.698C191.937 841.179 188.085 839.193 181.21 842.69C169.061 848.883 157.742 856.824 152.201 869.092C135.399 906.191 150.867 927.437 188.826 932.001ZM985.926 992.598C982.667 984.746 976.296 980.745 970.666 976.152C965.599 972.093 962.932 977.841 959.702 980.39C946.249 991.087 933.952 1003.09 920.143 1013.49C893.292 1033.5 864.374 1050.58 833.885 1064.43C824.58 1068.69 824.995 1074.03 828.106 1082.21C831.929 1092.13 836.818 1094.71 847.011 1090.03C896.151 1067.08 941.354 1036.51 980.948 999.443C982.853 997.336 984.541 995.043 985.985 992.598H985.926ZM313.576 1087.12C335.741 1087.98 350.083 1074.56 363.595 1059.68C368.751 1053.97 363.773 1051 359.891 1047.83C345.638 1036.45 330.882 1025.67 317.192 1013.64C296.449 995.502 293.723 995.858 281.307 1021.64C279.751 1024.71 278.491 1027.93 277.544 1031.24C268.832 1064.37 283.5 1086.95 313.636 1087.12H313.576ZM662.108 1134L690.08 1131.36C732.879 1127.58 774.977 1118.08 815.246 1103.1C823.513 1099.93 829.025 1096.28 824.373 1085.64C820.491 1076.75 817.142 1071.72 805.942 1075.95C759.702 1093.35 710.946 1103.13 661.575 1104.9C650.64 1105.35 646.759 1110.27 647.114 1120.61C647.47 1130.95 652.537 1134.74 662.167 1134H662.108ZM242.934 1015.47C259.083 1015.74 271.914 1007.68 284.804 999.265C292.508 994.228 293.486 989.902 286.463 983.353C274.19 971.309 262.986 958.222 252.979 944.239C235.2 920.711 230.785 920.8 213.331 945.276C209.035 951.297 205.909 958.072 204.116 965.248C197.034 993.635 213.746 1015.24 242.993 1015.56L242.934 1015.47ZM142.007 551.141C133.081 551.031 124.211 552.568 115.842 555.674C99.6632 561.127 87.9289 572.565 85.5583 589.099C83.247 605.16 91.9885 618.731 104.967 628.391C114.687 635.71 126.332 638.11 138.007 640.57C147.667 642.615 151.934 639.829 151.934 629.725C151.934 609.427 154.897 589.425 157.86 569.394C160.231 551.496 159.638 550.815 142.007 551.141ZM153.534 453.355C134.481 453.029 117.116 462.008 108.701 477.061C100.908 491.017 106.538 504.174 113.205 516.175C121.917 531.85 138.303 537.628 154.156 543.199C160.438 545.422 162.572 540.829 164.024 535.465C168.558 518.842 172.913 502.129 178.218 485.802C187.907 456.496 186.87 454.689 154.986 453.474C154.512 453.474 154.008 453.503 153.534 453.444V453.355ZM137.533 739.956C159.609 740.4 160.201 739.719 157.712 721.969C154.749 701.938 151.786 681.936 151.786 661.638C151.786 652.749 148.823 649.104 139.34 650.586C128.624 651.954 118.238 655.225 108.671 660.246C101.794 663.812 95.9973 669.157 91.8856 675.723C87.7739 682.289 85.4969 689.837 85.2916 697.582C84.8768 712.013 93.3219 723.717 106.301 731.066C115.904 736.355 126.583 739.395 137.533 739.956ZM738.707 1152.55C738.973 1132.31 736.514 1130.42 719.09 1132.79C704.541 1134.74 689.873 1136.73 675.205 1137.32C648.033 1138.42 645.218 1141.91 653.692 1167.75C655.01 1172.49 656.89 1177.06 659.293 1181.35C672.687 1202.51 701.015 1218.78 726.38 1189.95C736.662 1178.24 737.344 1164.17 738.707 1152.55ZM323.207 316.929C325.489 315.092 327.829 313.344 329.993 311.418C335.919 306.173 341.608 300.78 347.564 295.594C379.694 267.782 415.762 244.876 454.595 227.619C464.937 222.966 465.174 217.514 461.203 207.913C456.995 197.72 451.691 197.453 443.128 201.513C394.722 223.875 350.174 253.78 311.147 290.112C307.68 293.372 302.494 296.869 306.672 302.41C310.85 307.951 315.325 314.233 323.207 316.929ZM931.077 1102.18C931.077 1090.09 926.07 1078.8 921.358 1067.42C918.069 1059.45 913.565 1059.21 906.542 1063.63C892.348 1072.52 877.947 1081.05 862.983 1088.37C834.477 1102.3 834.003 1103.18 855.042 1127.22C859.406 1132.59 864.926 1136.92 871.191 1139.87C905.505 1154.77 927.936 1138.57 931.077 1102.03V1102.18ZM1043.68 275.711C1029.96 276.274 1016.45 283.919 1003.59 293.491C997.453 298.024 998.638 302.084 1003.29 306.736C1019.03 323.032 1033.47 340.539 1046.46 359.096C1051.62 366.207 1056.27 367.541 1063.03 360.874C1072.3 351.747 1080.81 342.057 1084.51 329.523C1093.22 300.276 1081.52 275.948 1043.62 275.563L1043.68 275.711ZM985.452 299.98C985.435 298.419 985.035 296.886 984.285 295.517C983.536 294.147 982.461 292.983 981.156 292.127C941.121 254.683 895.341 223.9 845.56 200.95C837.707 197.335 833.351 198.253 829.499 206.876C824.61 217.722 826.773 223.618 837.796 228.685C882.685 249.067 923.887 276.742 959.732 310.588C962.695 313.551 965.658 318.796 970.725 315.359C976.82 311.472 981.859 306.138 985.393 299.832L985.452 299.98ZM1092.6 453.503C1090.94 449.295 1089.64 445.592 1088.01 442.006C1066.47 393.795 1036.27 351.391 1001.28 312.129C995.349 305.61 990.786 302.38 983.496 310.559C977.303 317.522 970.962 322.411 980.533 332.249C992.696 345.083 1004.08 358.629 1014.64 372.815C1034.32 398.784 1050.87 426.981 1063.95 456.822C1066.38 462.185 1069.25 466.927 1076.1 463.756C1082.05 461.148 1089.93 461.089 1092.54 453.355L1092.6 453.503ZM146.185 397.528C144.733 422.064 160.824 435.25 179.225 447.103C187.641 452.496 192.145 450.066 196.175 441.473C203.02 426.657 210.309 412.226 218.339 398.18C233.392 371.778 231.703 367.867 200.975 361.644C192.344 359.398 183.269 359.5 174.691 361.94C153.89 369.111 144.141 378.09 146.185 397.528ZM930.574 189.66C930.989 156.206 904.379 137.745 874.54 149.835C858.538 156.324 849.204 169.54 841.055 183.852C837.618 189.956 841.055 192.742 846.211 195.112C867.713 204.867 888.576 215.972 908.676 228.359C915.165 232.478 918.395 229.871 921.18 224.004C926.145 213.138 929.318 201.54 930.574 189.66ZM973.629 1087.12C999.231 1087.3 1008.8 1080.52 1013.4 1059.92C1018.2 1038.35 1009.96 1020.39 996.979 1003.95C993.127 999.058 989.008 999.413 984.356 1003.3C966.28 1018.45 948.106 1033.49 929.833 1048.42C925.596 1051.89 922.632 1055.12 927.433 1060.48C940.56 1075.09 954.22 1088.4 973.629 1087.12ZM738.499 138.545C738.617 130.011 736.962 121.545 733.64 113.684C727.476 98.275 715.475 87.5482 699.948 85.7407C684.421 83.9331 671.294 92.4079 662.375 105.387C656.142 114.902 652.095 125.679 650.522 136.945C648.714 147.938 652.092 153.953 664.449 153.213C682.732 152.146 700.807 154.991 718.824 157.539C737.462 160.206 739.062 159.139 738.499 138.545ZM1144.28 395.543C1146.26 383.927 1139.92 375.067 1128.78 368.252C1119.11 362.755 1108.11 360.044 1097 360.421C1085.88 360.797 1075.09 364.246 1065.81 370.385C1058.88 375.245 1060.75 379.897 1064.04 385.409C1075.3 404.492 1086.79 423.456 1095.24 444.021C1097.34 449.118 1099.98 451.962 1106.47 449.681C1126.94 442.451 1143.75 419.634 1144.28 395.543ZM836.403 158.487C837.026 134.782 830.151 118.01 811.424 108.409C799.986 102.483 777.228 109.002 766.413 120.084C758.353 128.322 753.671 138.663 748.989 149.035C745.048 157.924 747.033 162.606 756.752 165.065C772.517 169.036 788.162 173.481 803.601 178.518C833.885 188.386 836.107 187.023 836.403 158.398V158.487ZM276.359 243.887C274.729 260.599 283.589 274.733 293.545 288.542C296.983 293.253 300.124 293.698 304.331 289.549C321.933 272.265 340.944 256.476 361.165 242.346C366.114 238.849 367.329 235.175 362.706 230.256C353.491 220.448 343.949 210.373 330.882 206.787C302.287 198.905 275.025 205.484 276.359 243.798V243.887ZM1014.37 244.627C1014.37 215.766 1001.1 203.143 973.155 204.061C952.412 204.713 939.048 217.87 926.484 232.152C922.988 236.093 924.914 239.383 928.588 242.049C948.265 256.199 967.066 271.527 984.889 287.949C989.512 292.236 993.66 291.861 997.335 286.823C1006.55 273.815 1015.26 260.629 1014.37 244.538V244.627ZM552.114 1156.05C552.05 1159.94 552.368 1163.83 553.062 1167.66C557.24 1185.8 568.056 1199.34 585.657 1204.76C600.947 1209.42 613.511 1200.58 623.883 1190.36C633.691 1180.67 636.624 1167.28 639.706 1154.21C642.432 1142.74 638.817 1137.11 626.579 1137.77C608.8 1138.68 591.021 1136.08 573.479 1133.71C552.855 1130.86 551.729 1131.6 552.055 1155.96L552.114 1156.05ZM552.114 139.463C551.877 159.228 552.381 160.561 562.9 159.05C585.331 155.791 607.733 152.62 630.491 153.124C638.076 153.272 641.454 149.272 640.299 141.923C637.958 127.107 634.372 112.884 624.238 101.268C604.859 79.0438 574.96 81.7107 559.789 106.957C554.163 116.801 551.479 128.051 552.055 139.375L552.114 139.463ZM158.009 675.802C159.075 714.68 173.565 781.737 188.085 817.295C191.908 826.629 196.412 828.881 206.131 825.088C215.85 821.296 219.317 817.147 215.02 806.539C203.908 780.048 198.101 752.046 192.471 723.895C188.174 702.442 188.441 680.721 185.211 659.268C183.64 648.867 177.062 648.511 169.15 648.689C161.238 648.867 157.979 653.549 158.097 661.135C158.038 665.965 157.979 670.913 157.979 675.832L158.009 675.802ZM1137.61 452.822L1115.89 456.555C1105.67 458.274 1103.15 463.193 1107.15 473.179C1114.81 492.372 1120.76 512.203 1124.93 532.443C1126.5 539.94 1129.23 545.629 1138.89 542.31C1162.74 534.102 1180.58 520.442 1184.61 493.625C1185.47 488.113 1185.73 482.839 1182.18 478.127C1171.04 463.223 1157.55 452.614 1137.61 452.822ZM397.109 1144.94C417.022 1145.8 444.076 1125.56 450.447 1105.7C452.462 1099.27 448.372 1098.18 444.342 1096.13C428.934 1088.34 413.436 1080.66 398.265 1072.43C371.833 1058.06 365.106 1061.4 360.454 1092.22C359.909 1096.15 359.72 1100.11 359.891 1104.07C360.276 1127.69 375.27 1144.02 397.109 1144.94ZM396.309 147.612C383.33 145.627 372.781 151.435 365.67 164.977C354.172 186.964 360.573 207.054 370.825 227.026C374.5 234.197 378.826 230.197 382.945 227.708C402.607 215.384 423.091 204.424 444.253 194.905C448.432 193.097 452.343 191.942 450.18 185.393C443.898 165.391 420.103 147.76 396.309 147.612ZM1136.37 837.652C1143.27 838.356 1150.24 837.2 1156.55 834.304C1187.31 818.095 1192.73 802.746 1174.89 772.906C1167.84 761.054 1155.27 755.572 1142.95 750.149C1132.96 745.764 1127.77 747.808 1125.17 759.039C1121.22 775.277 1116.53 791.308 1111.12 807.131C1102.47 832.319 1103.92 835.045 1130.56 837.475C1132.43 837.563 1134.38 837.563 1136.37 837.652ZM158.038 613.723C158.038 618.761 158.038 621.724 158.038 624.687C158.038 633.073 156.675 641.755 169.624 642.466C181.477 643.237 185.448 637.222 186.159 626.91C187.078 613.634 187.463 600.241 189.122 587.144C193.385 551.849 202.015 517.221 214.813 484.054C219.317 472.468 212.028 469.416 204.057 465.534C195.167 461.296 191.433 465.326 188.618 473.031C171.603 518.181 161.3 565.583 158.038 613.723ZM665.812 158.576C652.833 156.354 647.647 159.376 647.44 169.362C647.233 178.518 647.44 185.689 660.063 186.075C709.435 187.378 758.233 197.005 804.401 214.551C816.668 219.233 820.906 214.551 824.847 204.002C829.38 191.912 820.669 190.727 813.468 188.03C766.186 170.221 716.308 160.271 665.812 158.576ZM453.113 151.138C453.676 157.539 454.032 163.939 454.862 170.31C456.817 185.126 460.314 187.23 474.3 182.756C488.287 178.281 502.273 173.036 516.556 169.155C547.817 160.71 549.536 156.324 530.601 129.033C529.475 127.403 528.319 125.803 527.075 124.292C515.015 109.891 493.235 102.453 479.397 107.935C464.403 113.891 453.143 132.381 453.113 151.138ZM1145.02 739.896C1176.64 739.896 1203.04 722.562 1205.62 701.049C1208.02 681.077 1186.21 657.905 1159.93 652.482C1158.5 652.186 1156.96 652.038 1155.57 651.83C1144.96 650.23 1139.18 653.134 1138.47 665.461C1137.51 685.069 1135.37 704.602 1132.07 723.954C1129.7 737.289 1134.18 741.319 1145.02 739.896ZM454.21 1135.45C454.21 1138.89 454.21 1142.36 454.21 1145.8C454.149 1153.55 456.411 1161.15 460.705 1167.61C464.998 1174.06 471.126 1179.09 478.301 1182.04C492.939 1188.58 507.459 1183.9 519.637 1174.12C530.631 1165.23 537.239 1153.23 541.98 1139.93C544.943 1131.78 542.395 1127.87 534.305 1126.36C516.484 1122.54 498.987 1117.34 481.975 1110.8C458.003 1102.33 454.862 1104.64 454.328 1131.01C454.21 1132.49 454.21 1133.97 454.21 1135.45ZM630.491 1133.08C639.38 1134.15 640.951 1128.49 641.277 1121.23C641.721 1111.54 639.617 1105.32 627.883 1104.81C578.507 1103.14 529.743 1093.35 483.546 1075.83C471.693 1071.24 469.174 1077.38 465.381 1085.67C461.203 1094.8 464.314 1098.92 473.026 1102.15C523.399 1121.25 576.635 1131.71 630.491 1133.08ZM1132.49 671.032C1132.81 650.645 1128.43 645.933 1114.53 648.897C1103.57 651.238 1104.84 660.749 1104.42 667.772C1101.87 716.024 1091.87 763.59 1074.79 808.791C1069.61 822.422 1081.04 821.681 1087.3 825.355C1095.15 829.978 1098.59 825.355 1101.31 818.362C1119.71 770.121 1128.84 719.954 1132.49 671.032ZM1132.9 620.361C1131.83 610.375 1130.86 600.093 1129.58 589.84C1124.87 549.702 1115.29 510.288 1101.05 472.468C1097.28 462.689 1091.77 463.252 1083.74 466.719C1076.21 469.949 1070.53 472.408 1074.85 482.631C1080.63 496.737 1085.4 511.233 1089.13 526.013C1097.85 559.023 1101.94 592.566 1104.81 626.465C1106.02 640.955 1112.9 645.519 1125.11 641.933C1137.32 638.348 1130.65 627.976 1132.9 620.361ZM641.01 171.081C642.314 159.524 636.387 156.265 625.868 157.776C619.082 158.754 612.178 159.228 605.303 159.672C560.569 163.04 516.571 172.954 474.715 189.097C467.366 191.823 460.877 194.52 465.648 204.95C469.5 213.336 472.137 219.529 483.842 215.055C530.015 197.682 578.7 187.915 628.001 186.134C638.521 185.66 642.017 180.77 641.01 171.081ZM299.205 885.597C290.463 884.975 282.996 889.775 275.855 895.257C270.995 898.991 270.877 903.347 274.433 908.088C287.441 925.452 299.975 943.231 315.621 958.462C320.659 963.381 324.214 962.936 329.311 958.462C344.127 945.454 347.298 929.897 339.297 907.08C335.386 895.998 316.54 885.686 299.205 885.597ZM477.708 1036.25C477.53 1021.43 463.099 1000.01 451.039 996.776C430.06 991.265 409.347 999.473 399.894 1016.48C396.665 1022.26 396.457 1026.14 402.68 1029.85C420.827 1040.82 439.573 1050.77 458.832 1059.66C466.626 1063.18 470.922 1060.78 473.648 1053.37C475.575 1047.8 478.004 1042.5 477.708 1036.25ZM732.839 1069.17C735.269 1076.28 730.469 1090.86 746.796 1088.1C767.627 1084.14 787.98 1077.98 807.512 1069.73C812.757 1067.66 814.802 1064.34 813.172 1058.14C808.075 1038.59 787.599 1025.55 764.664 1028.1C750.411 1029.7 732.721 1051.86 732.839 1069.17ZM293.812 851.076C298.227 834.808 286.641 827.37 274.64 819.34C261.098 810.45 247.971 811.013 234.163 818.273C228.622 821.236 226.992 824.792 229.866 830.126C239.763 848.853 249.69 867.61 259.824 886.249C263.676 893.331 268.714 893.835 275.796 889.538C289.96 880.885 295.916 868.499 293.812 851.165V851.076ZM557.744 1068.25C557.951 1053.43 541.209 1031.59 527.134 1028.48C509.148 1024.48 486.746 1035.89 479.101 1052.19C474.508 1061.97 476.138 1068.13 486.775 1071.39C502.747 1076.31 518.6 1081.7 534.72 1086.21C553.003 1091.24 557.507 1087.45 557.744 1068.34V1068.25ZM294.019 436.643C295.619 422.597 290.078 410.329 275.559 401.647C267.558 396.877 262.906 398.477 258.965 405.944C249.482 423.723 240.03 441.502 230.607 459.281C227.644 464.793 227.644 468.793 234.163 472.468C240.337 475.892 247.302 477.635 254.361 477.524C261.42 477.412 268.326 475.449 274.389 471.831C280.451 468.213 285.458 463.067 288.908 456.908C292.358 450.748 294.131 443.791 294.049 436.732L294.019 436.643ZM947.108 925.57C946.071 942.698 953.835 951.41 962.724 959.618C967.021 963.618 970.34 962.848 973.896 958.788C987.852 942.905 1002.02 927.2 1014.4 909.984C1019.8 902.517 1018.05 898.339 1011.14 893.212C995.112 881.36 979.911 886.101 963.91 893.212C947.197 900.413 949.953 916.147 947.138 925.511L947.108 925.57ZM191.107 672.987C192.619 684.84 194.9 702.264 197.034 719.776C198.13 728.666 202.664 730.829 211.346 729.288C229.748 725.999 243.526 710.65 246.104 689.107C247.497 677.64 232.77 655.653 220.354 650.586C201.508 642.97 190.87 649.015 191.107 672.987ZM1099.89 665.52C1101.85 652.304 1095.95 647.563 1083.09 648.571C1066.35 649.874 1044.33 669.135 1042.91 684.573C1041.25 702.916 1059.59 724.903 1078.85 729.021C1087.74 730.948 1092.1 728.044 1093.19 719.598C1095.53 701.73 1097.61 683.566 1099.89 665.52ZM811.69 1037.28C812.105 1052.28 821.498 1063.95 830.418 1060.01C850.302 1051.48 869.39 1041.21 887.459 1029.31C892.319 1025.99 893.682 1023.03 890.63 1017.25C881.236 999.473 863.961 992.272 841.678 997.547C827.306 1001.01 811.246 1022.17 811.69 1037.28ZM927.699 343.183C940.708 345.169 949.331 338.324 957.509 329.819C962.31 324.782 962.25 320.93 957.183 316.248C941.856 301.705 925.582 288.192 908.468 275.8C901.771 271.089 898.067 272.126 892.911 278.763C879.37 295.891 886.215 311.892 893.534 328.397C900.497 344.013 915.847 339.568 927.699 343.183ZM405.317 990.939C405.317 975.145 394.472 955.025 384.219 951.291C363.803 943.824 345.935 947.261 333.845 960.181C328.452 965.929 327.326 970.522 333.608 976.271C349.284 990.494 365.735 1003.84 382.886 1016.24C386.679 1019.03 390.709 1021.07 394.413 1016.24C400.013 1008.66 405.287 1001.01 405.317 990.939ZM617.719 1098.8C623.142 1098.8 628.564 1098.8 633.987 1098.8C635.099 1098.92 636.224 1098.81 637.29 1098.46C638.355 1098.12 639.338 1097.57 640.175 1096.82C641.012 1096.08 641.684 1095.17 642.15 1094.16C642.615 1093.14 642.862 1092.04 642.877 1090.92C645.336 1071.48 626.105 1046.65 606.133 1043.86C587.376 1041.25 562.9 1062.41 560.885 1082.38C560.144 1089.58 563.048 1092.19 569.419 1093.29C585.34 1096.45 601.495 1098.29 617.719 1098.8ZM262.135 528.294C262.135 499.996 252.861 484.795 234.548 478.276C228.059 475.964 223.317 475.846 220.651 483.58C213.598 504.026 206.22 524.353 202.397 545.807C201.805 549.155 200.323 553.926 204.353 554.874C215.198 557.452 226.429 561.512 237.215 554.874C248.86 547.259 259.972 539.258 262.135 528.265V528.294ZM673.19 1099.6L719.683 1093.32C727.891 1092.22 729.669 1087.54 728.839 1079.69C726.498 1057.85 710.201 1050.85 692.925 1045.25C675.65 1039.65 666.76 1053.4 656.122 1062.03C646.284 1069.97 644.536 1082.21 648.685 1093.23C652.566 1103.45 663.53 1097.2 673.19 1099.6ZM361.521 343.569C374.203 340.279 389.553 343.569 397.079 327.478C404.606 311.388 409.584 295.417 397.405 278.704C391.923 271.148 387.686 270.704 380.782 276.482C367.951 287.238 354.409 297.224 341.579 307.892C325.4 321.463 327.978 334.057 348.305 341.287C352.638 342.42 357.059 343.183 361.521 343.569ZM858.005 295.091C871.102 295.713 882.096 288.305 889.919 274.704C893.326 268.777 892.882 265.37 886.955 261.518C869.502 250.543 851.337 240.742 832.581 232.182C823.691 227.885 819.217 231.5 815.75 239.827C805.023 266.14 825.528 295.091 858.005 295.091ZM341.994 364.252C341.994 355.362 341.727 348.517 337.727 342.324C327.207 326.056 321.873 325.256 309.309 339.835C298.049 352.903 287.856 366.889 276.714 380.046C269.632 388.372 272.181 393.261 280.3 398.951C296.894 410.507 312.302 404.373 327.711 397.054C343.12 389.735 339.86 374.978 341.994 364.252ZM1029.28 515.375C1028.74 535.317 1044.86 555.141 1061.87 558.193C1082.38 561.867 1090.85 553.274 1085.34 533.539C1080.72 516.975 1074.82 500.766 1069.84 484.321C1067.38 476.261 1063.47 475.075 1055.62 478.098C1036.86 485.417 1028.92 498.959 1029.19 515.493L1029.28 515.375ZM261.809 771.781C262.313 748.282 237.748 729.792 212.768 734.059C203.879 735.57 200.916 739.067 202.753 747.808C207.326 767.992 213.266 787.842 220.532 807.22C223.258 814.747 227.584 815.28 234.311 812.969C251.942 807.013 261.157 793.59 261.661 771.899L261.809 771.781ZM996.86 852.646C994.786 869.655 1000.36 882.011 1015.47 890.042C1022.2 893.627 1026.23 892.797 1030.02 886.367C1040.78 868.055 1051.65 849.861 1059.83 830.067C1062.2 824.377 1061.07 821.562 1055.62 818.214C1041.52 809.858 1028.71 812.287 1015.17 819.755C1001.63 827.222 993.393 836.941 996.86 852.646ZM884.852 990.376C884.585 999.265 889.207 1006.2 893.949 1013.28C898.275 1019.74 902.571 1020.57 908.468 1015.71C924.43 1002.51 940.451 989.388 956.531 976.33C962.458 971.559 962.458 967.441 957.272 961.514C944.441 947.261 929.537 944.031 907.313 951.617C895.43 955.825 884.97 973.782 884.822 990.376H884.852ZM444.431 295.535C458.032 297.402 464.966 284.69 472.345 271.83C479.723 258.969 478.271 246.405 471.663 233.871C468.522 227.945 463.811 228.774 459.04 231.293C440.727 240.953 422.464 250.692 404.25 260.51C396.931 264.422 397.109 269.074 400.961 276.215C409.703 292.424 424.548 294.172 444.431 295.535ZM191.048 625.161C189.004 638.318 194.486 643.355 207.524 642.615C224.088 641.666 245.215 622.376 246.43 605.96C247.793 587.262 230.251 565.631 211.998 562.342C202.782 560.682 198.782 563.023 196.649 572.565C192.737 590.018 194.752 607.945 191.048 625.161ZM1029.07 770.358C1029.07 794.301 1037.4 806.48 1057.28 813.354C1063.21 815.369 1066.76 814.925 1068.69 808.761C1074.94 788.582 1081.4 768.462 1087.3 748.193C1088.84 742.948 1088.6 737.793 1081.67 735.007C1058.64 725.91 1029.01 745.645 1029.07 770.506V770.358ZM988.178 405.411C993.419 405.654 998.642 404.638 1003.41 402.447C1020.71 393.884 1021.72 390.595 1009.75 375.571C998.698 361.822 986.874 348.665 976.029 334.768C970.103 327.212 966.162 328.545 959.583 334.323C942.189 349.643 945.242 367.896 952.264 385.705C958.843 402.447 976.118 402.092 988.178 405.411ZM764.368 263.177C793.2 259.651 804.134 256.036 811.631 236.716C814.772 228.567 814.12 223.885 805.349 220.892C786.321 214.063 766.932 208.286 747.27 203.587C742.618 202.55 737.966 201.809 735.98 207.232C732.099 217.692 730.321 228.745 736.662 238.582C743.774 249.428 751.359 260.718 764.368 262.97V263.177ZM1082.11 642.466C1091.42 642.792 1101.02 643.355 1099.59 629.488C1097.64 610.405 1095.59 591.292 1093.31 572.239C1092.54 565.986 1090.5 561.304 1082.08 561.867C1062.55 563.201 1042.55 585.158 1043.32 605.456C1043.92 620.983 1065.75 641.815 1082.11 642.466ZM996.505 435.813C996.505 469.03 1028.74 487.491 1055.77 472.527C1061.7 469.356 1062.26 466.215 1059.56 460.674C1050.11 441.68 1040.98 422.567 1029.78 404.522C1025.72 398.003 1021.69 397.588 1015.17 401.084C1008.82 404.174 1003.61 409.18 1000.26 415.396C996.907 421.611 995.594 428.722 996.505 435.724V435.813ZM557.685 222.522C554.218 216.092 560.648 200.002 544.38 203.143C524.201 207.054 504.643 214.373 484.909 220.507C478.39 222.522 475.634 226.67 477.827 234.138C483.012 251.917 503.458 264.659 524.319 262.703C538.691 261.369 557.507 239.471 557.685 222.522ZM675.59 192.564C647.529 191.853 642.58 198.283 649.425 218.373C653.692 230.819 676.865 248.154 687.621 246.939C708.63 244.568 725.046 230.345 728.454 212.269C729.995 203.972 728.217 198.846 719.12 197.779C702.556 195.853 686.021 193.838 675.59 192.564ZM621.245 192.386C607.141 193.72 591.85 194.52 576.797 196.742C561.744 198.964 558.07 205.987 563.819 220.744C568.797 233.456 589.302 246.82 604.088 246.939C613.808 246.939 634.728 232.123 639.025 221.989C646.907 203.38 640.536 192.06 621.245 192.386ZM81.4691 713.909C76.7576 732.755 70.3275 750.031 52.252 763.513C73.7944 769.054 87.0103 781.589 99.2187 797.353C102.775 772.64 117.709 758.002 140.052 747.453C101.974 734.711 101.974 734.711 81.4691 714.028V713.909ZM139.548 545.007C118.805 533.45 102.893 519.049 100.019 490.277C86.5362 509.567 73.35 522.249 51.0963 527.583C71.4831 540.829 76.0761 558.786 82.2988 577.958C96.4925 556.534 114.894 546.162 139.548 545.125V545.007ZM645.425 1156.91C638.017 1182.92 627.261 1202.19 599.851 1210.04C618.223 1219.19 632.743 1227.28 641.336 1242.63C642.847 1245.33 645.692 1247.94 647.944 1243.91C656.833 1228.05 672.035 1219.37 690.258 1210.1C663.412 1201.24 651.677 1183.37 645.425 1156.91ZM899.786 754.357C893.415 753.764 891.756 758.298 889.948 762.209C878.822 786.332 863.895 808.512 845.737 827.903C837.855 836.349 844.256 840.675 849.204 846.127C854.805 852.35 859.575 852.054 864.968 845.742C883.951 824.436 899.905 800.615 912.38 774.951C917.773 763.424 911.876 754.475 899.786 754.357ZM1121.31 843.401C1141.43 857.15 1150.21 876.589 1151.12 903.702C1164.18 888.256 1182.48 878.177 1202.51 875.403C1186.59 859.402 1184.88 840.942 1185.35 818.332C1167.36 841.001 1145.97 844.942 1121.31 843.401ZM127.962 645.43C104.256 639.059 89.0549 624.391 79.2171 600.478C71.9869 618.642 63.8973 632.569 49.0517 641.163C45.644 643.118 43.1253 646.348 47.7775 648.985C62.801 657.579 70.6534 672.276 80.0468 689.789C89.5586 664.898 106.153 652.867 127.962 645.43ZM449.35 456.111C446.858 450.211 442.618 445.216 437.201 441.799C431.482 437.591 428.104 442.539 424.904 446.006C404.932 467.43 389.849 492.173 376.456 518.042C372.426 525.865 374.144 530.665 382.53 534.043C390.916 537.421 396.102 537.599 400.309 528.324C411.181 504.548 425.92 482.739 443.928 463.786C445.91 461.324 447.722 458.73 449.35 456.022V456.111ZM219.85 929.126C193.478 939.557 171.906 938.016 150.363 922.578C152.586 941.305 154.453 956.98 147.667 971.945C145.563 976.537 146.778 980.034 152.349 979.856C166.75 979.382 179.195 985.072 191.522 991.413C195.374 993.398 198.99 992.983 197.893 987.679C193.359 965.692 204.057 948.861 219.85 929.126ZM644.862 42.3891C635.409 61.6795 620.119 71.7247 598.844 80.9106C626.757 88.4075 637.039 107.076 645.455 130.633C652.537 105.683 665.071 88.9706 690.288 80.0217C669.457 72.1396 655.352 61.1165 644.862 42.3891ZM930.84 1072.63C935.196 1095.39 939.108 1114.71 926.484 1132.73C922.958 1137.79 926.662 1140.37 931.581 1139.16C948.175 1135.1 963.613 1139.16 979.881 1146.3C977.333 1126.09 985.452 1109.53 994.875 1090.62C969.421 1097.55 950.605 1089.23 930.84 1072.63ZM1190.54 798.183C1203.07 783.781 1213.38 771.129 1229.41 765.587C1233.77 764.076 1234.42 760.639 1230.89 757.705C1217.41 746.534 1212.82 730.503 1207.19 711.953C1194.45 733.852 1176.58 743.66 1153.05 746.652C1173.64 757.705 1185.73 773.558 1190.54 798.183ZM850.33 858.513C849.204 851.194 844.196 847.757 839.633 844.171C834.418 840.023 830.506 843.668 826.773 847.135C807.216 864.558 786.325 880.145 762.057 890.368C751.122 894.961 754.026 901.45 757.078 909.273C760.753 918.666 766.531 917.214 773.554 913.807C799.502 900.748 823.629 884.351 845.322 865.032C847.201 863.029 848.879 860.845 850.33 858.513ZM544.113 139.701C545.447 115.639 555.255 96.9416 578.131 82.7478C556.974 77.2066 540.32 70.5691 527.756 54.0048C521.237 74.7472 509.029 87.6964 489.442 100.26C518.156 103.164 533.357 117.98 544.113 139.701ZM389.76 755.068C375.567 755.868 371.3 762.476 377.374 775.277C389.523 800.849 406.265 823.399 424.43 844.912C428.963 850.246 433.616 854.157 440.312 847.372C445.972 841.623 451.987 837.297 443.898 828.052C425.93 808.328 411.018 786.024 399.657 761.883C397.82 757.676 395.539 753.586 389.76 755.068ZM105.441 820.258C105.441 840.823 102.478 856.558 92.3737 869.922C89.4105 873.922 91.1884 876.5 95.3369 877.122C112.02 879.552 124.761 889.331 140.407 903.791C137.207 874.9 151.312 858.395 172.232 841.297C145.059 845.12 124.376 840.556 105.441 820.258ZM456.403 448.466C458.91 447.197 461.283 445.678 463.485 443.932C482.923 425.353 505.71 411.633 529.297 399.217C539.254 393.943 535.224 387.365 532.261 380.579C529.09 372.608 523.934 374.06 517.948 376.905C491.72 389.499 467.4 405.729 445.705 425.116C442.298 428.079 436.638 431.457 441.024 437.176C444.817 442.125 448.669 447.636 456.403 448.466ZM711.949 1208.44C731.447 1214.22 746.855 1218.3 757.286 1231.55C760.486 1235.64 763.42 1234.25 764.872 1230.16C770.531 1214.36 782.947 1203.9 797.852 1191.22C772.131 1186.92 757.434 1172.55 745.907 1152.7C743.448 1176.2 733.136 1193.89 711.949 1208.44ZM745.552 141.39C756.93 120.055 769.079 105.831 789.733 101.92C795.185 100.883 796.222 97.2675 791.422 93.8598C777.393 84.2469 766.967 70.2339 761.79 54.0344C749.937 71.8136 732.484 76.8807 711.949 83.1034C734.617 97.2379 743.033 115.491 745.552 141.39ZM139.696 387.187C125.206 402.655 111.812 410.359 96.0481 413.856C92.5811 414.626 88.4919 415.841 92.107 420.582C102.419 434.242 105.708 450.214 106.627 467.845C124.406 449.503 145.148 446.006 171.965 449.414C150.601 432.85 138.481 415.722 139.696 387.187ZM1209.41 600.537C1202.09 625.458 1185.71 636.955 1164.96 646.022C1185.71 654.23 1201.8 666.054 1209.41 690.47C1218.3 672.187 1226.95 659.386 1240.38 650.378C1244.7 647.415 1244.38 643.592 1240.23 640.807C1226.86 631.71 1218.24 618.761 1209.38 600.478L1209.41 600.537ZM576.264 1207.99C554.129 1195.64 547.373 1175.4 543.876 1152.43C532.29 1173.59 517.533 1188.2 493.087 1191.84C509.47 1202.47 521.83 1218.27 528.201 1236.74C540.972 1220.29 557.122 1212.88 576.234 1208.02L576.264 1207.99ZM980.118 143.73C973.115 148.225 965.29 151.286 957.096 152.736C948.902 154.186 940.501 153.995 932.381 152.176C928.499 151.346 922.543 151.553 926.633 157.776C939.167 176.948 936.856 196.92 929.211 221.011C948.975 201.454 969.036 193.245 996.653 200.594C983.941 181.511 976.8 165.391 980.118 143.73ZM360.247 648.719C350.32 647.859 347.416 653.638 348.098 662.438C350.082 689.923 355.467 717.056 364.129 743.215C366.766 751.097 370.055 756.431 380.041 752.52C388.931 749.023 392.131 744.697 388.753 734.74C380.426 710.531 373.937 685.788 373.937 659.86C373.966 650.497 368.485 648.096 360.247 648.719ZM279.559 1010.23C259.083 1022.38 238.608 1025.58 214.902 1013.96C219.673 1033.22 226.755 1048.42 220.828 1064.96C219.05 1070 222.962 1070.29 226.933 1069.76C240.065 1067.56 253.54 1068.67 266.136 1072.99C270.462 1074.62 274.729 1074.53 272.744 1068.04C266.728 1048.01 270.136 1029.37 279.559 1010.17V1010.23ZM218.636 359.54C200.856 341.05 193.241 321.671 198.367 296.246C181.596 304.691 167.609 311.981 151.282 311.299C150.532 311.159 149.757 311.237 149.05 311.525C148.343 311.814 147.735 312.3 147.297 312.925C146.859 313.55 146.611 314.289 146.582 315.051C146.553 315.814 146.745 316.569 147.134 317.226C154.453 332.812 152.201 349.436 151.667 366.296C181.981 352.606 181.981 352.606 218.636 359.54ZM277.099 213.484C261.895 221.181 244.7 224.045 227.821 221.692C224.858 221.277 219.199 219.351 220.799 225.248C225.392 242.168 221.717 258.11 215.821 275.415C238.667 264.836 259.32 270.141 279.885 280.275C267.617 258.614 266.965 237.753 277.099 213.484ZM468.078 106.987C449.024 105.92 434.179 102.69 421.2 93.7117C418 91.4893 414.296 90.0669 413.555 95.4896C411.54 110.306 403.421 121.981 394.087 133.033C390.531 137.211 391.123 141.004 397.05 140.915C418.118 140.619 432.786 152.413 447.009 169.244C449.024 156.057 447.009 145.538 449.972 135.611C452.936 125.685 459.514 117.625 468.078 106.987ZM844.404 165.154C860.138 148.56 877.206 137.33 904.231 142.308C889.83 125.744 878.095 113.654 876.614 95.7266C876.199 90.867 872.376 90.6892 869.058 93.445C855.901 104.231 839.426 104.557 821.646 107.965C838.922 123.907 844.671 142.516 844.493 165.154H844.404ZM357.521 1075.36C339.327 1090.38 319.888 1096.78 294.375 1090.86C304.035 1107.87 310.998 1122.39 310.317 1139.22C310.139 1143.81 314.199 1144.7 317.873 1142.95C332.689 1135.87 348.305 1136.76 368.514 1140.46C352.394 1118.74 350.291 1098.03 357.521 1075.36ZM1071.24 360.459C1094.2 353.584 1112.37 351.362 1129.82 362.266C1136.93 366.741 1138.89 362.266 1137.91 356.34C1135.65 343.682 1137.23 330.637 1142.44 318.885C1144.55 314.144 1143.92 311.062 1138.09 311.21C1124.73 311.422 1111.61 307.657 1100.39 300.395C1095.15 297.195 1091.65 298.083 1092.48 304.988C1094.91 325.404 1087.33 342.354 1071.24 360.459ZM348.216 623.858C347.92 634.377 347.446 642.111 358.469 642.378C366.351 642.555 373.581 642.378 373.848 631.591C374.909 605.035 380.159 578.814 389.405 553.896C393.168 543.199 385.849 541.392 379.004 538.458C370.885 535.021 367.151 539.169 364.81 546.192C355.476 572.298 351.742 599.5 348.275 623.858H348.216ZM1006.76 283.623C1027.11 272.155 1044.15 265.548 1063.83 272.481C1073.7 275.978 1073.52 269.518 1071.18 262.762C1066.86 251.656 1066.17 239.469 1069.19 227.945C1070.73 222.314 1070.17 219.499 1063.09 221.011C1050.49 223.705 1037.39 222.844 1025.25 218.522C1019.32 216.447 1014.7 217.01 1017.51 224.922C1024.57 244.805 1019.17 262.703 1006.76 283.623ZM1185.35 472.379C1184.99 451.903 1186.3 435.872 1196.52 422.004C1199.04 418.567 1198.03 415.219 1193.56 414.3C1177.73 411.1 1165.23 401.884 1151.42 388.728C1151.18 415.396 1140.69 433.591 1121.97 447.992C1146.98 444.673 1167.13 450.807 1185.35 472.379ZM668.42 941.75C694.958 939.409 721.099 933.755 746.233 924.919C753.374 922.37 755.626 918.518 752.574 911.584C749.848 905.361 748.07 897.213 738.44 900.709C711.771 910.369 684.095 914.162 656.3 917.955C649.514 918.903 647.559 923.081 647.41 929.274C646.907 944.713 658.256 941.098 668.42 941.75ZM1072.57 931.141C1085.49 949.306 1096.63 965.514 1092.57 986.998C1091.42 993.102 1095.77 993.339 1100.04 990.879C1111.74 984.123 1123.98 979.412 1137.79 979.945C1141.64 980.123 1145.17 978.938 1143.03 974.019C1137.44 960.807 1135.71 946.275 1138.06 932.119C1138.74 927.852 1135.69 925.156 1131.6 927.852C1113.52 939.675 1094.35 937.334 1072.57 931.201V931.141ZM446.713 1124.37C432.579 1139.19 418.622 1151.04 397.642 1150.06C390.649 1149.8 390.768 1153.97 394.679 1158.6C403.569 1169.26 411.629 1180.32 413.377 1194.72C413.881 1199.13 416.488 1201.44 420.311 1198.36C433.408 1187.78 449.706 1186.33 468.463 1182.54C449.291 1166.21 446.031 1146.36 446.713 1124.37ZM673.131 349.495C650.196 349.11 648.062 350.384 647.499 360.666C646.729 375.482 658.315 374.119 666.908 374.949C690.514 376.822 713.768 381.804 736.069 389.765C745.789 393.439 748.9 387.868 752.011 380.046C755.389 371.571 751.508 368.4 744.574 365.822C719.949 356.577 694.229 352.429 673.131 349.495ZM855.783 440.258C850.412 443.067 845.89 447.262 842.685 452.407C839.307 457.415 843.515 460.674 846.448 463.815C864.05 482.544 878.536 503.973 889.356 527.287C893.563 536.473 898.719 538.399 907.816 534.043C916.913 529.687 916.054 523.375 912.35 515.849C899.53 490.218 883.237 466.476 863.931 445.295C861.976 443.132 860.553 440.406 855.783 440.258ZM850.33 433.176C849.31 431.182 848.035 429.329 846.537 427.664C823.424 407.514 799.126 389.143 770.709 376.875C763.775 373.912 759.597 375.097 756.93 382.357C754.263 389.617 751.004 395.869 761.256 400.432C785.649 411.269 808 426.213 827.336 444.614C830.684 447.784 834.448 450.54 839.189 447.251C843.93 443.962 848.7 440.139 850.33 433.176ZM929.863 648.719C921.477 647.978 917.299 651.386 916.528 660.305C914.276 685.907 910.365 711.302 901.179 735.481C897.267 745.764 902.542 750.031 911.017 753.053C920.528 756.461 922.869 750.297 925.358 743.097C933.94 716.818 939.507 689.649 941.952 662.112C942.812 652.452 939.789 647.859 929.863 648.719ZM357.787 214.788C350.468 192.505 352.513 172.266 367.981 151.375C348.335 154.339 332.719 155.228 317.962 148.027C314.999 146.575 311.858 146.575 311.68 150.99C310.998 167.881 304.153 182.934 294.523 200.031C320.125 194.401 339.416 201.157 357.787 214.788ZM1075.92 1013.4C1055.59 1023.65 1038.49 1022.73 1021.31 1015.41C1013.81 1012.24 1012.15 1015.95 1014.94 1022.5C1020.86 1036.63 1022.61 1050.85 1017.4 1065.67C1014.94 1072.66 1018.08 1075.15 1024.8 1072.75C1036.66 1068.49 1048.95 1068.37 1061.31 1069.29C1066.55 1069.7 1070.44 1068.99 1068.84 1062.29C1065.01 1046.68 1069.87 1032.1 1075.92 1013.4ZM621.749 941.75C625.186 941.75 627.142 941.75 629.098 941.75C637.987 942.194 640.951 937.334 641.454 929.097C642.136 920.385 638.047 918.044 630.461 917.244C604.021 915.017 577.957 909.543 552.855 900.946C542.187 897.272 540.528 904.828 537.594 911.643C534.394 919.051 537.594 922.37 544.321 924.859C569.175 934.214 595.257 939.903 621.749 941.75ZM620.89 349.406C596.799 352.191 570.752 356.488 545.654 365.704C536.765 368.904 535.816 373.438 538.513 381.379C541.209 389.32 544.884 393.232 554.603 389.794C576.659 381.348 599.91 376.437 623.497 375.245C632.713 374.919 641.484 373.438 641.099 360.696C640.714 347.954 631.409 349.614 620.89 349.317V349.406ZM940.204 619.916C938.773 594.352 933.395 569.164 924.262 545.244C921.773 538.577 918.01 535.702 910.75 538.547C903.49 541.392 897.267 544.177 900.497 553.215C909.468 579.289 915.055 606.406 917.121 633.903C918.039 644.007 926.277 642.289 933.004 642.318C940.263 642.318 942.278 638.229 941.33 631.68C940.767 627.65 940.56 623.739 940.204 619.828V619.916ZM704.422 948.061C704.069 964.397 699.006 980.284 689.843 993.813C687.236 997.665 685.991 1001.52 690.258 1005.67C704.096 1019.03 731.743 1013.9 740.633 996.332C741.266 995.421 741.694 994.383 741.887 993.291C742.081 992.198 742.035 991.077 741.754 990.004C741.472 988.931 740.961 987.931 740.256 987.075C739.551 986.218 738.668 985.525 737.669 985.042C724.839 976.449 715.357 964.803 704.422 948.061ZM932.885 765.173C945.656 778.596 955.524 790.093 960.858 804.613C961.717 806.983 963.436 809.709 966.073 808.791C976.503 805.235 986.815 799.723 991.527 790.034C996.742 779.396 992.119 767.928 987.171 757.587C985.956 755.009 982.963 755.305 980.652 756.461C966.665 763.365 951.464 764.224 932.885 765.173ZM645.129 958.343C637.217 973.752 630.313 987.412 619.29 998.139C618.684 998.58 618.176 999.141 617.8 999.789C617.423 1000.44 617.185 1001.15 617.102 1001.9C617.018 1002.64 617.09 1003.4 617.314 1004.11C617.538 1004.83 617.908 1005.49 618.401 1006.05C625.423 1014.02 633.839 1020.87 644.625 1021.13C656.181 1021.46 664.508 1013.4 672.361 1005.84C674.909 1003.41 673.724 1000.18 671.294 998.05C659.648 987.768 652.803 974.167 645.129 958.343ZM764.042 934.905C762.649 952.18 762.59 967.5 756.338 981.605C756.005 982.133 755.781 982.724 755.68 983.34C755.579 983.957 755.602 984.588 755.748 985.195C755.895 985.803 756.161 986.375 756.532 986.878C756.903 987.381 757.371 987.804 757.908 988.124C767.39 992.42 777.702 997.25 787.688 992.983C797.674 988.716 803.808 978.819 807.542 968.27C807.948 967.072 807.865 965.761 807.31 964.623C806.755 963.485 805.773 962.613 804.578 962.196C789.97 956.21 778.028 946.046 764.042 934.905ZM904.349 818.332C912.557 833.148 920.677 845.001 923.255 859.432C924.47 866.336 929.181 867.492 935.522 866.484C955.524 863.254 962.695 852.379 960.739 829.267C960.087 821.473 957.361 818.777 949.597 820.377C934.576 823.424 919.035 822.722 904.349 818.332ZM865.146 866.277C872.436 882.278 876.555 896.739 875.843 912.177C875.695 915.14 876.969 918.903 880.199 919.051C891.134 919.585 902.838 919.051 910.78 911.258C918.721 903.465 918.662 892.501 918.128 882.071C917.98 878.87 914.632 877.181 911.52 877.241C896.112 877.626 881.977 871.551 865.146 866.277ZM471.337 905.717C462.773 910.251 456.195 914.251 449.202 917.273C442.209 920.296 434.386 922.429 426.978 925.096C425.598 925.633 424.437 926.616 423.68 927.889C422.923 929.161 422.613 930.65 422.8 932.119C422.444 950.965 445.32 967.411 463.425 961.336C467.574 959.944 470.626 957.81 470.004 953.01C468.311 937.258 468.76 921.349 471.337 905.717ZM583.613 952.654C573.182 966.64 563.789 977.96 551.462 986.346C548.943 988.035 546.691 991.057 548.647 993.931C554.781 1002.82 561.122 1013.22 572.353 1014.47C583.168 1015.65 593.302 1009.93 601.985 1002.91C604.266 1001.04 602.962 998.139 601.54 996.154C592.858 983.886 588.769 969.663 583.613 952.654ZM338.704 706.353C321.903 702.945 308.006 698.204 295.59 689.789C292.627 687.774 289.219 685.344 286.7 689.255C280.626 698.352 274.847 708.131 277.307 719.51C279.589 730.266 288.508 736.578 297.071 742.385C300.805 744.934 303.353 741.734 305.368 738.681C313.458 726.118 324.688 716.546 338.704 706.353ZM524.704 934.193C511.577 946.046 500.999 955.469 487.664 961.04C482.005 963.411 480.997 968.063 484.375 973.159C487.888 979.066 491.851 984.693 496.228 989.99C501.473 995.917 529.001 993.517 533.505 987.561C535.698 984.597 534.542 981.871 533.505 979.204C527.669 964.917 524.68 949.627 524.704 934.193ZM763.805 356.162C777.91 345.258 789.2 335.035 803.541 329.493C804.275 329.325 804.964 329.006 805.567 328.555C806.169 328.105 806.671 327.534 807.039 326.878C807.407 326.222 807.634 325.496 807.706 324.748C807.777 323.999 807.691 323.243 807.453 322.53C803.571 312.218 798.03 301.787 787.836 297.846C778.087 294.083 767.598 299.269 758.204 303.269C755.241 304.543 755.597 308.514 756.93 311.21C763.271 324.456 762.768 338.857 763.805 356.162ZM523.786 356.31C525.327 346.384 526.156 339.124 527.638 332.042C529.057 324.853 530.947 317.766 533.298 310.825C535.283 305.195 533.742 302.469 528.26 301.284C522.778 300.098 516.822 298.558 511.014 297.639C500.376 295.95 481.916 312.811 482.449 323.36C482.524 324.841 483.045 326.264 483.944 327.444C484.843 328.623 486.078 329.503 487.487 329.967C500.969 335.42 511.637 344.724 523.934 356.31H523.786ZM906.779 470.334C921.595 470.334 934.278 470.334 947.019 470.334C951.909 470.334 956.887 470.808 959.583 465.089C967.525 448.318 951.02 423.605 932.263 424.197C927.818 424.197 924.084 426.064 923.61 430.509C922.188 445.117 912.231 456.17 906.927 470.334H906.779ZM959.08 645.43C974.222 653.608 987.615 660.572 998.194 671.535C998.977 672.521 1000.11 673.167 1001.36 673.338C1002.61 673.51 1003.87 673.193 1004.89 672.454C1013.13 665.165 1020.92 656.245 1020.92 645.489C1020.92 634.732 1013.16 625.754 1004.8 618.583C1003.77 617.858 1002.49 617.566 1001.24 617.771C999.998 617.976 998.882 618.661 998.135 619.679C987.971 630.969 974.162 637.459 959.08 645.43ZM952.116 706.827C959.554 712.753 965.658 717.02 970.903 722.088C976.21 727.201 981.031 732.795 985.304 738.8C988.86 743.867 991.882 743.037 996.297 740.311C1013.66 729.555 1017.78 712.161 1007.02 694.826C1003.59 689.315 999.527 686.707 993.719 690.618C981.689 698.767 967.614 701.73 952.116 706.797V706.827ZM332.096 645.43C316.777 637.725 303.383 632.48 293.99 621.102C291.767 618.435 288.063 616.331 284.893 619.116C276.388 626.317 269.632 635.533 269.751 646.645C269.751 657.282 277.692 665.313 285.367 672.335C287.856 674.647 291.293 673.195 293.249 670.854C303.205 659.534 316.688 653.46 332.096 645.43ZM834.803 961.959C853.916 961.633 865.472 950.639 867.398 932.978C867.902 928.119 866.45 925.274 861.709 924.593C849.856 922.933 839.574 917.036 829.114 911.406C826.654 910.043 823.958 907.554 821.202 909.984C818.446 912.414 819.928 915.525 820.491 918.34C822.537 926.967 822.679 935.937 820.906 944.624C817.557 958.551 824.047 962.492 834.803 961.959ZM354.765 764.935C340.422 764.889 326.179 762.558 312.569 758.031C308.065 756.431 304.183 756.342 301.161 761.32C290.641 778.655 301.309 804.228 320.777 807.961C324.037 808.583 326.97 808.376 328.304 804.998C334.141 790.952 344.364 779.544 354.854 764.935H354.765ZM471.663 386.09C468.968 374 467.971 361.594 468.7 349.228C469.559 331.005 465.322 327.271 447.039 330.293C440.556 331.598 434.678 334.985 430.297 339.938C425.916 344.891 423.273 351.139 422.77 357.733C422.444 362.355 423.807 365.585 428.519 366.444C443.483 369.082 456.077 376.697 471.752 386.09H471.663ZM645.01 332.071C652.27 317.255 658.789 305.166 668.716 295.328C672.242 291.831 673.22 288.364 669.901 283.682C658.315 267.444 629.928 267.711 619.023 284.186C618.46 284.832 618.034 285.585 617.77 286.399C617.507 287.214 617.411 288.074 617.488 288.927C617.566 289.78 617.815 290.608 618.222 291.362C618.628 292.115 619.183 292.779 619.853 293.313C630.55 303.773 636.891 317.107 645.099 332.071H645.01ZM384.901 820.051C372.307 820.91 361.61 822.747 351.061 822.096C328.57 820.762 328.6 820.258 329.874 842.986C330.556 855.432 349.431 870.485 360.899 867.788C362.11 867.561 363.22 866.963 364.075 866.076C364.93 865.189 365.487 864.058 365.67 862.84C369.048 847.935 376.278 834.63 384.901 820.051ZM933.418 525.687C943.76 526.576 951.198 526.694 958.28 527.939C965.478 529.392 972.591 531.242 979.585 533.48C984.741 534.962 987.674 533.243 989.986 528.354C998.194 511.108 991.527 493.506 973.866 486.069C968.799 483.935 964.117 483.106 961.272 488.736C954.635 501.892 944.797 512.678 933.418 525.687ZM705.43 337.257C714.319 328.041 721.461 321.522 727.239 313.877C731.684 307.951 745.463 307.951 740.159 296.098C736.721 288.512 729.521 283.119 722.379 278.882C712.275 272.956 703.563 280.156 694.733 283.564C688.243 286.083 685.843 290.468 690.377 297.432C698.145 309.498 703.275 323.069 705.43 337.257ZM422.978 869.003C416.222 867.225 411.718 871.255 406.591 872.233C400.665 873.359 395.183 875.196 389.375 876.204C370.885 878.959 368.336 882.841 373.907 901.065C377.315 912.266 396.013 922.459 407.273 919.466C408.728 919.177 410.048 918.417 411.028 917.303C412.008 916.189 412.594 914.783 412.695 913.303C414.854 898.27 418.294 883.45 422.978 869.003ZM354.232 525.628C346.942 515.582 340.571 507.996 335.534 499.64C323.029 478.898 323.207 479.135 304.005 493.921C291.026 503.878 298.849 515.286 300.272 526.279C301.131 532.917 305.309 535.584 312.124 533.154C324.955 528.383 338.527 526.694 354.232 525.628ZM337.015 584.21C324.244 573.809 313.873 564.92 305.724 553.719C303.324 550.4 300.153 547.348 295.857 549.807C286.611 555.141 279.292 562.964 277.485 573.513C275.677 584.062 281.041 593.514 286.76 602.197C287.134 602.696 287.611 603.111 288.159 603.411C288.706 603.712 289.312 603.892 289.934 603.94C290.557 603.987 291.183 603.902 291.77 603.688C292.357 603.474 292.892 603.137 293.338 602.7C305.635 593.307 320.303 589.277 337.015 584.21ZM329.844 454.303C332.185 459.074 325.074 470.393 337.312 470.245C349.55 470.097 361.669 468.734 373.966 470.038C379.893 470.66 382.471 467.608 379.063 461.919C373.159 451.744 368.767 440.764 366.025 429.324C364.869 424.76 362.469 423.19 357.461 423.782C339.475 425.738 330.141 435.517 329.844 454.303ZM583.02 337.079C588.621 330.086 587.346 321.996 590.813 315.566C594.517 308.692 597.836 301.61 601.422 294.646C603.377 290.824 601.866 288.394 598.933 285.757C584.857 273.252 559.67 277.578 550.01 294.113C547.64 298.143 547.373 301.758 551.284 304.395C563.967 312.988 573.123 324.96 583.02 337.079ZM951.909 584.328C968.206 588.981 982.578 592.329 994.638 601.308C997.601 603.441 1001.01 605.249 1003.53 601.308C1009.45 592.211 1015.71 582.402 1012.68 571.32C1009.9 561.127 1000.68 554.904 992.268 548.948C988.949 546.577 987.052 550.015 985.482 552.444C977.333 564.949 965.925 574.135 951.909 584.328ZM889.237 373.052C880.584 371.808 875.103 375.216 875.547 385.853C875.502 395.217 873.682 404.488 870.184 413.174C867.546 420.819 869.887 423.486 877.829 420.582C887.866 416.507 898.557 414.279 909.387 414.004C915.076 414.004 918.276 411.604 918.751 405.114C919.817 386.416 909.12 374.238 889.237 373.052ZM821.824 363.629C821.824 365.022 821.321 367.956 821.291 370.889C821.291 374.504 817.765 379.038 822.417 381.527C825.765 383.305 828.729 379.69 831.632 378.119C840.176 373.236 849.348 369.547 858.894 367.156C862.628 366.326 867.783 366.178 867.309 360.933C866.243 351.006 863.013 340.665 855.249 334.797C846.36 328.041 833.855 329.079 824.165 333.138C815.631 336.724 823.276 346.413 821.913 353.229C821.591 356.687 821.561 360.166 821.824 363.629ZM953.005 591.173C946.456 589.899 943.612 593.011 944.116 599.204C944.886 610.464 946.042 621.694 946.812 632.955C947.286 640.007 950.931 640.6 956.828 639.177C971.466 635.621 999.261 615.916 995.823 611.145C985.985 597.515 970.043 594.433 954.516 591.44L953.005 591.173ZM815.72 934.727C815.72 932.682 815.72 931.764 815.72 930.726C815.365 900.828 812.935 899.791 786.088 912.473C762.383 923.615 760.842 925.57 783.718 943.972C785.63 945.512 787.662 946.899 789.792 948.12C796.489 951.854 803.275 959.647 810.89 955.499C818.505 951.35 814.564 941.187 815.72 934.727ZM944.738 688.781C942.96 697.671 945.982 701.345 955.761 699.449C967.789 697.209 979.357 692.973 989.986 686.914C996.327 683.21 998.698 679.24 992.416 673.313C982.853 664.102 971.337 657.164 958.724 653.015C951.79 650.763 947.286 653.193 946.871 661.105C946.13 670.291 945.419 679.536 944.738 688.811V688.781ZM423.215 424.019C420.252 414.596 417.614 407.722 416.073 400.61C414.755 393.39 413.864 386.097 413.407 378.771C413.14 375.571 412.666 373.349 409.021 372.252C390.62 366.77 368.188 387.365 371.803 406.448C371.902 408.436 372.765 410.31 374.211 411.679C375.657 413.048 377.576 413.806 379.567 413.796C394.027 414.3 407.51 418.834 423.304 424.049L423.215 424.019ZM419.185 903.228C418.77 918.933 422.148 921.57 435.838 917.362C441.405 915.518 446.807 913.208 451.987 910.458C475.515 898.605 475.693 897.568 455.158 881.241C431.63 862.425 426.652 864.351 420.429 894.783C419.748 898.013 419.422 901.45 419.185 903.228ZM357.461 817.295C359.891 817.295 362.351 817.295 364.781 816.94C391.449 814.302 391.953 813.384 379.834 790.508C365.018 762.535 362.054 762.298 343.208 788.878C338.527 795.427 331.356 803.368 335.8 811.25C339.712 818.125 349.698 816.584 357.461 817.295ZM354.972 474.246C349.046 474.69 339.89 473.505 335.8 480.024C331.326 487.136 339.03 493.506 341.905 500.025C343.241 502.653 344.861 505.127 346.735 507.404C361.877 528.146 365.225 527.939 377.078 505.715C391.894 478.216 389.731 474.868 357.758 474.246H354.972ZM531.638 944.713C531.223 955.262 534.275 965.159 537.239 975.086C539.698 983.442 543.728 984.983 551.225 980.064C562.278 972.833 569.982 962.848 576.975 951.973C582.072 944.031 579.168 940.535 571.049 938.609C563.404 936.771 555.848 934.46 548.321 932.149C532.675 927.348 531.46 928.237 531.638 944.713ZM689.399 945.009C679.028 946.076 669.249 947.172 659.411 947.972C652.418 948.624 649.307 952.239 651.885 958.877C656.507 970.878 662.167 982.286 671.709 991.472C677.902 997.398 682.376 997.25 686.88 989.753C693.152 979.11 697.43 967.411 699.503 955.232C701.015 946.461 697.251 943.261 689.31 944.979L689.399 945.009ZM934.633 816.969C941.093 816.317 950.99 818.214 954.902 810.776C958.428 804.05 951.731 797.086 947.968 790.863C946.211 787.92 944.23 785.116 942.041 782.478C925.803 762.98 925.27 763.039 913.772 784.907C898.749 813.354 901.09 817.295 934.633 816.969ZM389.227 420.641C372.485 420.078 369.64 423.753 374.144 438.035C375.539 442.236 377.222 446.335 379.182 450.303C391.212 475.401 393.79 475.727 410.621 454.422C428.4 431.902 426.8 427.753 397.554 421.827C394.205 421.145 390.738 420.849 389.227 420.641ZM346.231 692.841C344.927 681.61 343.594 670.409 342.349 659.208C341.668 653.282 339.149 650.052 332.63 652.245C319.524 656.616 307.58 663.9 297.694 673.55C293.101 677.995 293.249 682.084 298.642 685.581C310.663 693.341 324.273 698.303 338.467 700.101C344.127 700.871 346.942 698.767 346.231 692.841ZM386.204 871.285C392.427 870.01 398.798 869.092 404.902 867.344C428.311 860.676 429.497 857.684 413.17 840.082C406.888 833.326 404.606 817.829 392.427 822.303C383.389 825.533 379.952 838.126 375.833 847.668C374.855 849.92 374.204 852.32 373.433 854.661C369.581 866.277 373.759 871.64 386.204 871.285ZM430.03 373.467C422.207 372.667 419.244 376.786 419.333 383.927C419.694 397.195 423.339 410.165 429.941 421.679C432.727 426.805 435.868 427.22 440.372 423.308C448.817 415.871 457.499 408.7 466.152 401.529C470.448 398.003 471.337 394.417 466.715 390.713C456.266 381.738 443.595 375.74 430.03 373.349V373.467ZM870.687 905.035C868.732 893.894 866.924 882.782 862.183 872.292C858.509 864.232 854.597 863.403 847.96 869.329C840.374 876.322 832.195 882.693 823.987 888.975C819.039 892.768 817.557 895.938 823.187 900.443C832.946 908.813 844.655 914.591 857.235 917.244C866.628 919.111 871.25 914.666 870.687 905.035ZM689.31 346.147C699.385 346.384 700.363 345.376 698.97 335.361C696.965 323.229 692.661 311.592 686.288 301.076C682.465 294.409 678.317 293.253 672.39 298.913C662.928 308.272 655.986 319.872 652.211 332.634C650.314 338.561 652.033 342.205 658.611 342.887C668.834 343.924 679.087 345.021 689.31 346.147ZM531.638 340.724C531.105 363.452 531.638 363.896 550.781 357.94C554.514 356.755 558.307 355.718 562.1 354.681C582.013 349.199 583.05 347.065 570.99 330.975C563.819 321.285 555.403 306.795 543.284 310.885C531.875 314.737 532.349 331.331 531.638 340.724ZM340.719 532.828C337.558 532.805 334.398 533.013 331.267 533.45C323.088 534.902 312.48 535.08 309.398 543.14C306.139 551.733 315.532 557.6 320.984 563.556C324.695 567.469 328.83 570.958 333.311 573.957C347.624 583.706 347.831 583.528 352.78 566.49C354.172 561.779 355.743 557.097 357.195 552.415C363.743 532.443 363.773 532.443 340.719 532.828ZM906.157 870.633C917.328 872.263 919.669 866.395 916.35 854.928C913.341 845.585 909.117 836.679 903.786 828.437C897.86 818.451 892.348 817.947 885.622 828.2C880.512 835.399 874.939 842.259 868.939 848.735C863.872 854.661 864.05 858.839 871.754 862.158C882.557 867.207 894.245 870.086 906.157 870.633ZM759.153 944.15C757.819 938.401 760.605 928.415 750.707 930.489C737.195 933.453 718.112 932.771 712.838 945.305C708.393 956.032 723.713 966.433 732.662 975.323C734.103 976.649 735.649 977.858 737.284 978.938C744.574 984.153 749.967 982.79 753.345 974.315C757.227 964.507 757.553 954.165 759.153 944.09V944.15ZM955.791 483.283C956.116 478.809 952.975 477.357 949.568 476.409C940.629 473.605 931.1 473.257 921.98 475.401C894.482 481.535 898.275 482.068 910.128 499.611C913.891 505.3 916.38 511.819 919.669 517.834C921.21 520.797 922.188 524.442 927.107 522.99C934.633 520.738 956.146 491.343 955.791 483.224V483.283ZM603.97 945.305C590.843 944.861 588.117 949.809 593.628 966.403C597.273 977.308 598.518 993.635 610.696 994.939C622.875 996.243 627.616 980.479 633.069 970.404C643.173 951.706 641.543 949.424 620.001 947.439C614.608 946.935 609.304 945.987 603.97 945.305ZM473.767 936.416C474.093 958.758 477.945 961.04 497.473 949.958C502.151 947.275 506.54 944.117 510.57 940.535C526.986 925.985 526.808 925.215 507.607 915.259C476.641 899.05 473.293 901.154 473.767 936.297V936.416ZM949.271 758.031C959.287 756.846 976.888 758.95 980.533 746.593C983.763 735.629 969.036 726.562 959.198 719.124L958.013 718.235C943.197 707.42 941.923 707.864 937.063 724.814C935.7 729.525 934.1 734.207 932.618 738.859C926.396 758.031 926.722 758.565 949.271 758.031ZM339.919 758.031C361.906 758.594 363.18 756.964 357.343 738.681C356.158 734.948 355.002 731.155 353.935 727.362C348.809 709.287 344.779 707.449 330.437 719.006C321.103 726.503 305.843 734.563 309.458 746.771C313.073 758.979 330.141 756.431 339.919 758.179V758.031ZM901.653 420.227C894.592 420.479 887.631 421.974 881.088 424.642C862.361 431.161 861.442 433.353 874.391 447.577C881.414 455.281 885.711 471.519 896.26 468.616C908.32 465.267 911.58 449.147 915.728 437.117C920.825 422.745 918.336 419.989 901.653 420.523V420.227ZM759.182 346.887C753.849 335.272 761.997 316.9 744.781 309.344C738.262 306.38 711.119 336.635 711.475 344.576C711.653 348.636 742.262 361.792 750.796 361.348C759.805 361.2 758.116 354.118 759.182 347.184V346.887ZM947.968 532.828C926.662 532.502 926.662 532.502 933.152 551.852C933.329 552.296 933.448 552.8 933.655 553.245C937.537 561.927 934.811 577.543 943.997 578.728C955.85 580.239 964.739 567.735 973.629 559.171C974.666 558.134 975.377 556.771 976.325 555.674C985.008 545.718 983.408 539.91 970.044 536.562C962.878 534.364 955.457 533.109 947.968 532.828ZM474.123 357.347C474.389 360.607 474.597 363.066 474.804 365.526C476.938 392.195 477.53 392.55 500.495 379.631C527.549 364.4 527.638 361.111 500.317 343.569C493.946 339.45 486.775 331.716 479.367 336.072C471.959 340.428 475.337 350.532 474.123 357.347ZM344.542 609.871C344.927 600.982 348.839 592.388 336.038 592.329C323.236 592.27 295.442 604.182 294.553 610.819C293.427 618.376 323.325 641.903 334.763 638.674C349.55 634.318 340.779 617.961 344.542 609.871ZM815.928 357.051C814.653 350.443 818.268 340.161 810.742 336.101C802.682 331.745 795.57 340.368 788.34 343.954C785.404 345.759 782.748 347.986 780.458 350.562C765.642 364.459 765.642 367.067 783.243 376.49C791.54 380.964 800.519 391.809 808.964 386.831C817.409 381.853 815.098 368.074 815.928 356.903V357.051ZM608.267 345.524C613.037 345.021 622.342 343.924 631.646 343.154C638.61 342.561 639.854 338.768 637.81 332.99C633.53 320.283 626.636 308.615 617.571 298.735C613.6 294.468 610.578 293.402 605.896 299.239C597.806 309.284 594.665 321.108 591.554 332.931C589.095 342.413 594.043 346.798 608.267 345.376V345.524ZM869.265 389.38C869.65 373.912 864.228 370.208 849.382 375.897C845.747 377.359 842.204 379.041 838.774 380.935C816.402 392.787 815.898 395.899 835.988 410.567C842.893 415.634 848.789 428.346 856.197 424.879C866.332 420.108 866.391 406.003 868.821 395.247C869.127 393.257 869.276 391.245 869.265 389.231V389.38ZM482.597 998.613C478.39 998.88 472.937 996.895 470.181 1000.66C466.774 1005.28 472.641 1008.24 474.389 1011.95C476.463 1016.36 478.953 1020.6 480.819 1025.1C482.686 1029.61 485.59 1032.16 490.983 1030.56C498.925 1028.22 506.955 1026.17 514.926 1023.95C518.571 1022.94 520.082 1020.42 517.119 1017.73C507.162 1008.69 499.043 996.302 482.597 998.613ZM820.906 1004.15C821.055 1003.61 821.091 1003.03 821.011 1002.47C820.93 1001.9 820.736 1001.36 820.439 1000.88C820.142 1000.39 819.749 999.972 819.284 999.644C818.819 999.316 818.292 999.086 817.735 998.969C807.216 994.672 778.799 1005.81 773.287 1016.51C772.309 1018.35 771.272 1020.96 773.287 1021.67C783.777 1025.52 796.519 1034.05 804.46 1030.88C812.401 1027.71 814.357 1012.07 820.906 1004.15ZM269.069 769.884C267.765 774.003 266.758 776.729 266.106 779.514C259.231 805.709 259.439 805.413 282.344 819.103C290.286 823.873 290.552 820.999 291.56 813.858C294.197 794.775 283.826 782.537 269.069 769.884ZM860.553 992.124C866.48 990.731 875.132 997.31 877.947 989.902C881.651 980.271 890.896 966.018 885.474 960.921C879.192 954.995 865.62 962.492 856.553 968.566C854.949 969.691 853.571 971.109 852.493 972.745C849.056 977.96 841.144 982.701 843.248 988.42C845.737 995.087 854.627 990.316 860.553 992.124ZM989.334 842.038C967.821 850.572 959.02 866.336 958.013 888.501L989.097 879.433C991.764 878.663 993.897 877.033 992.919 874.278C989.275 863.906 991.616 852.854 989.215 841.919L989.334 842.038ZM694.999 1039L722.202 1054C724.454 1055.21 727.18 1056.07 728.958 1054C736.158 1045.34 743.062 1036.42 750.53 1027.03C729.284 1021.76 710.852 1021.25 694.881 1038.88L694.999 1039ZM387.716 945.691C382.856 935.853 379.863 927.911 375.3 921.096C369.374 912.029 358.202 905.806 349.194 907.406C340.66 908.888 349.49 919.94 347.92 926.697C347.565 929.653 347.615 932.643 348.068 935.586C348.246 939.646 350.231 942.372 354.469 941.927C364.869 940.772 374.589 945.157 387.716 945.691ZM481.264 292.305C488.176 292.376 495.007 290.8 501.19 287.709C507.373 284.617 512.731 280.099 516.822 274.526C519.934 270.437 518.897 268.837 514.659 267.088C492.435 257.843 486.035 259.799 473.678 280.334C471.782 283.505 467.07 286.527 470.122 290.557C472.641 293.876 477.471 292.157 481.264 292.305ZM260.861 645.43C257.453 636.036 257.216 623.887 249.601 620.213C243.852 617.427 241.215 630.347 235.644 634.851C233.831 636.508 232.147 638.301 230.607 640.214C229.871 640.876 229.283 641.685 228.88 642.588C228.477 643.492 228.269 644.47 228.269 645.459C228.269 646.449 228.477 647.427 228.88 648.33C229.283 649.234 229.871 650.043 230.607 650.704C235.615 656.631 240.445 662.912 245.423 669.046C248.179 672.543 251.142 673.521 253.009 668.691C255.883 661.075 258.313 653.104 260.861 645.43ZM672.953 1041.14C653.841 1030.29 645.84 1028.78 632.002 1034.08C627.557 1035.77 620.356 1035.59 619.379 1040.36C618.075 1046.71 626.312 1047.36 629.868 1051C632.831 1054.17 636.387 1056.93 639.558 1060.13C642.729 1063.33 645.692 1064.9 649.722 1061.26C657.278 1054.5 664.982 1047.95 672.953 1041.14ZM540.35 263.355C561.922 271.118 579.849 268.451 596.206 251.502C585.598 247.057 575.286 243.531 567.197 236.123C564.026 233.16 562.041 234.79 560.47 238.079C555.877 247.679 547.077 253.843 540.35 263.355ZM673.072 250.435C646.818 227.026 646.936 227.233 623.734 243.975C617.393 248.539 616.178 250.228 624.327 254.347C641.277 262.91 656.567 259.769 673.072 250.435ZM386.175 345.258C374.707 346.206 365.432 350.028 355.535 349.169C352.572 348.902 349.224 349.436 348.75 353.11C347.292 362.253 346.392 371.475 346.053 380.727C346.053 386.357 350.587 383.69 353.757 382.979C372.84 378.416 380.515 363.926 386.175 345.376V345.258ZM269.425 522.249C276.833 513.745 283.441 507.789 287.945 500.529C293.338 491.877 294.345 479.787 289.012 472.734C284.033 466.186 277.366 477.476 270.847 479.372C269.019 480.078 267.246 480.92 265.543 481.891C260.772 484.054 259.38 487.313 261.039 492.558C263.884 501.448 266.106 510.426 269.425 522.368V522.249ZM750.352 263.71C743.092 254.821 736.395 246.791 729.61 238.671C726.646 235.234 723.683 236.301 720.483 238.168C712.186 242.968 703.8 247.62 695.355 252.421C710.882 269.755 729.402 269.548 750.352 263.829V263.71ZM251.26 597.1C267.528 580.061 270.995 561.719 262.254 539.673C254.875 547.348 247.971 554.845 239.23 560.119C234.904 562.727 234.666 566.046 237.778 569.809C244.001 577.543 246.223 587.292 251.26 597.1ZM1037.9 694.204C1030.14 706.057 1021.99 715.213 1023.38 728.577C1024.06 735.244 1021.69 744.341 1028.12 747.453C1033.69 750.149 1036.63 740.963 1041.46 737.97C1044.78 735.926 1047.8 733.377 1051.09 731.273C1055.06 728.755 1056.87 725.851 1052.98 721.91C1045.93 714.739 1044.27 704.516 1037.9 694.204ZM540.083 1026.85C547.402 1036.54 553.803 1045.02 560.144 1053.52C561.715 1055.6 563.73 1057.97 566.071 1055.68C574.338 1047.39 586.339 1045.17 595.703 1038.11C572.353 1021.52 571.345 1021.31 540.172 1026.85H540.083ZM262.195 749.142C271.084 723.362 267.706 708.724 250.342 695.419C246.282 704.308 243.675 713.998 237.333 721.762C234.133 725.673 234.933 728.488 239.111 731.451C246.638 736.904 253.809 742.8 262.195 749.142ZM813.972 291.327C814.46 291.741 815.038 292.033 815.66 292.183C816.282 292.332 816.931 292.333 817.553 292.186C818.176 292.039 818.755 291.748 819.245 291.336C819.734 290.925 820.12 290.404 820.372 289.816C822.061 286.349 818.031 283.89 816.52 280.927C813.853 275.711 811.038 270.555 808.668 265.222C806.297 259.888 803.512 258.406 798.326 261.103C791.662 264.212 784.536 266.214 777.228 267.029C770.324 268.096 770.442 271.711 774.976 275.919C784.903 284.749 794.948 293.52 813.972 291.446V291.327ZM1029.46 644.541C1032.42 653.904 1032.42 666.142 1039.62 670.083C1046.82 674.025 1048.51 660.838 1053.96 656.631C1055.76 654.961 1057.47 653.201 1059.09 651.356C1062.44 648.215 1063.35 645.281 1059.95 641.311C1054.85 635.384 1050.23 629.014 1045.4 622.85C1042.85 619.591 1039.86 617.961 1037.72 622.85C1034.49 629.991 1032.03 637.429 1029.46 644.541ZM334.111 890.101C331.356 879.937 329.815 872.322 327.148 864.914C323.177 854.009 313.843 845.564 303.798 845.149C297.22 844.853 301.842 858.039 298.909 864.588C298.482 866.003 298.165 867.45 297.96 868.914C296.242 875.285 297.96 878.693 305.102 880.352C314.08 882.486 322.673 886.16 334.111 890.101ZM332.659 401.469C323.77 404.699 315.858 407.396 308.183 410.359C304.094 411.93 296.923 410.359 297.694 417.797C298.569 427.428 300.274 436.965 302.79 446.303C303.502 448.762 307.68 445.443 310.198 444.11C327 435.043 330.496 419.426 332.659 401.469ZM999.616 822.896C1008.77 817.858 1016.8 813.176 1025.07 809.028C1029.87 806.628 1031.5 803.813 1029.63 798.509C1026.43 789.471 1023.71 780.255 1020.74 770.684C1002.08 783.544 996.683 801.027 999.616 822.896ZM904.438 944.713C915.521 943.735 926.07 942.698 936.648 941.898C940.737 941.601 941.004 939.32 941.212 935.971C941.569 928.618 942.39 921.294 943.671 914.044C945.212 905.806 943.256 904.739 935.404 907.376C917.506 913.392 909.298 926.934 904.438 944.713ZM1037.28 594.67C1056.75 565.186 1056.75 565.186 1035.35 547.051C1034.98 546.728 1034.64 546.382 1034.32 546.014C1028.92 540.473 1026.11 542.666 1024.63 549.185C1022.48 557.21 1022.52 565.663 1024.75 573.667C1026.97 581.67 1031.3 588.932 1037.28 594.7V594.67ZM887.993 331.834C884.703 321.671 881.888 312.84 879.103 304.01C877.947 300.484 875.992 296.987 871.843 298.409C862.242 301.758 851.93 300.187 841.974 302.084C850.745 322.441 865.383 331.805 887.993 331.864V331.834ZM999.824 486.513C997.186 499.67 1008.33 507.256 1015.88 516.471C1018.02 519.079 1020.48 518.99 1022.79 515.464C1033.52 499.285 1030.14 485.121 1013.16 476.231C999.498 469.149 999.35 469.238 999.824 486.513ZM915.135 347.599C911.461 347.599 906.424 345.85 907.49 353.525C909.179 366.237 927.018 383.809 939.493 384.905C942.456 385.172 944.619 384.431 944.204 381.32C942.96 371.571 942.93 361.229 939.345 352.399C936.767 346.087 927.492 350.414 921.566 348.665C919.58 348.28 917.595 348.073 914.987 347.599H915.135ZM402.739 333.109C414.207 330.768 423.719 329.849 431.512 324.426C437.972 319.952 445.557 313.137 444.876 306.084C444.076 298.024 433.319 302.41 427.334 299.921C424.504 299.09 421.593 298.564 418.651 298.35C414.74 297.609 411.866 298.35 410.74 302.765C408.28 312.129 405.821 321.493 402.739 333.109ZM989.127 450.481C990.193 438.628 991.053 429.027 992.09 419.426C992.295 418.451 992.273 417.442 992.027 416.476C991.781 415.51 991.317 414.613 990.67 413.855C990.024 413.097 989.212 412.497 988.297 412.101C987.382 411.706 986.388 411.525 985.393 411.574C976.74 411.011 969.54 402.684 960.443 406.359C957.746 407.426 959.524 411.663 959.791 414.537C961.302 432.079 974.607 439.902 989.127 450.481ZM559.729 1016.19C543.758 992.331 540.409 991.324 509.059 1000.84C523.845 1022.53 533.772 1025.52 559.729 1016.19ZM382.441 921.155C386.975 940.831 396.487 953.602 416.696 955.439C419.481 955.706 422.622 957.129 424.133 953.158C425.971 948.12 412.814 925.63 407.273 924.681C399.568 923.348 391.805 922.459 382.441 921.155ZM681.724 1036.1C691.325 1033.91 698.94 1028.42 706.882 1023.68C708.749 1022.56 709.193 1019.74 707.119 1018.88C698.229 1015.12 689.577 1007.03 680.095 1009.04C671.205 1010.97 657.841 1017.93 658.285 1025.58C658.611 1033.79 673.279 1032.93 681.606 1036.1H681.724ZM607.644 1035.74C609.574 1035.44 611.477 1034.99 613.334 1034.38C620.03 1031.42 631.291 1032.78 632.861 1026.56C634.758 1019 622.934 1018.05 618.045 1013.07C613.156 1008.1 587.85 1012.57 583.613 1019C583.285 1019.36 583.039 1019.79 582.893 1020.25C582.747 1020.71 582.703 1021.2 582.765 1021.68C582.827 1022.17 582.993 1022.63 583.252 1023.04C583.511 1023.45 583.857 1023.8 584.265 1024.07C591.287 1029.19 598.488 1034.32 607.644 1035.74ZM367.625 907.11C368.099 880.145 364.455 874.515 343.92 867.729C336.452 865.24 334.437 866.484 335.208 874.781C337.104 894.161 349.461 902.458 367.625 907.11ZM383.271 368.815C413.525 366.889 417.051 364.37 423.185 342.828C425.052 336.309 423.185 334.975 417.111 335.598C399.213 337.405 389.76 346.502 383.271 368.815ZM846.863 967.944C821.913 962.373 815.631 964.981 803.452 985.486C799.867 991.413 799.541 994.376 807.631 994.376C827.958 994.88 837.707 988.331 846.863 967.944ZM334.23 425.383C365.521 416.493 367.21 414.33 367.329 384.816C342.408 390.891 339.03 395.099 334.348 425.383H334.23ZM780.547 1001.37C748.396 990.702 742.025 992.776 731.595 1017.01C751.952 1026.2 767.805 1020.07 780.547 1001.37ZM847.574 323.152C839.722 305.758 827.691 296.78 809.379 297.254C806.564 297.254 803.097 295.713 801.408 298.795C799.719 301.876 802.919 304.099 804.371 306.499C816.609 326.471 820.491 328.012 847.663 323.152H847.574ZM1024.98 655.03L1010.34 675.506C1009.69 676.239 1009.12 677.033 1008.62 677.877C1006.99 681.314 1015.44 705.434 1018.88 707.005C1022.82 708.783 1023.68 705.197 1025.4 703.093C1038.35 687.3 1035.14 671.713 1025.07 654.912L1024.98 655.03ZM254.372 681.492C255.824 691.033 261.454 698.589 266.491 706.323C266.771 706.738 267.151 707.075 267.596 707.303C268.041 707.532 268.536 707.644 269.036 707.629C269.536 707.614 270.024 707.473 270.455 707.219C270.885 706.965 271.245 706.606 271.499 706.175C275.025 697.286 284.389 689.107 281.574 679.506C279.144 671.239 272.062 658.764 265.01 659.149C257.068 659.357 258.342 673.461 254.461 681.373L254.372 681.492ZM508.199 291.001C543.343 297.669 549.24 295.565 558.929 273.845C529.416 269.103 524.289 270.615 508.288 290.883L508.199 291.001ZM289.663 781.322C292.034 772.64 294.553 764.402 296.479 756.016C297.575 751.305 280.626 731.807 275.973 731.955C271.973 731.955 271.795 735.274 271.114 738.118C266.936 755.394 272.329 768.521 289.663 781.322ZM488.583 298.113C467.841 295.772 456.432 300.721 446.683 315.063C441.261 323.004 443.72 324.782 452.225 325.197C474.3 326.263 479.338 322.737 488.583 298.113ZM992.03 800.523C963.228 817.295 963.228 817.295 968.325 846.986C991.882 835.697 995.408 829.148 992.03 800.523ZM254.875 608.893C257.424 616.924 256.565 628.717 264.861 631.917C271.143 634.377 272.951 622.494 277.988 618.139C279.08 617.136 279.992 615.953 280.685 614.642C282.818 610.76 274.522 585.662 270.699 584.091C270.246 583.882 269.756 583.765 269.257 583.746C268.758 583.726 268.261 583.806 267.793 583.979C267.325 584.153 266.896 584.417 266.53 584.756C266.164 585.096 265.869 585.504 265.662 585.958C261.395 593.1 256.565 600.063 254.875 608.893ZM898.097 922.785C878.125 923.23 872.228 928.178 867.458 948.061C866.391 952.536 865.62 955.617 871.962 955.736C885.681 956.003 902.334 942.342 904.853 928.83C905.979 922.726 903.105 922.044 898.097 922.785ZM1015.65 729.555C989.304 754.031 989.304 754.09 1001.28 780.077C1022.14 763.335 1023.71 758.031 1015.65 729.555ZM955.702 865.388C937.448 869.744 922.366 875.048 921.98 897.716C921.803 908.443 924.944 906.754 931.7 904.147C949.449 897.302 954.516 882.989 955.702 865.388ZM1034.64 608.686C1033.4 599.796 1029.4 587.736 1021.51 584.98C1014.37 582.551 1014.2 596.27 1010.25 602.404C1001.93 615.353 1017.22 619.768 1020.24 628.658C1020.98 630.791 1023.56 633.992 1025.6 632.451C1031.94 627.65 1031.53 619.472 1034.08 612.686C1034.37 611.369 1034.55 610.032 1034.64 608.686ZM709.075 270.703C694.644 257.132 680.42 252.628 663.649 260.836C660.448 262.407 657.07 263.562 659.263 268.244C663.026 276.304 682.317 283.356 690.584 279.534C696.303 276.926 701.963 274.111 709.075 270.703ZM288.656 509.923C275.44 520.412 267.736 532.739 271.025 550.133C271.618 553.422 270.847 557.6 274.759 559.023C277.9 560.119 279.855 556.919 282.018 555.052C298.79 540.295 299.294 537.214 288.656 509.923ZM898.067 368.133C905.031 368.459 905.683 367.896 904.912 362.592C903.016 349.643 885.148 335.212 871.813 335.449C865.028 335.449 866.657 339.153 867.695 343.272C872.584 362.592 878.333 367.245 898.008 368.133H898.067ZM323.829 832.111C323.829 829.474 323.829 827.518 323.829 825.563C324.511 811.991 311.621 810.509 304.45 803.99C302.702 802.39 299.086 801.946 298.346 805.028C296.561 813.171 296.815 821.63 299.086 829.652C299.459 831.086 300.266 832.37 301.398 833.326C307.324 838.156 312.599 846.572 320.421 845.623C326.615 845.031 322.673 836.497 323.829 832.111ZM1015.97 561.127C1021.31 543.762 1023.41 528.531 1008.18 515.76C1002.49 511.019 1001.04 511.938 998.075 518.16C988.415 538.754 1000.71 549.837 1015.97 561.245V561.127ZM582.724 270.052C605.096 286.053 616.652 284.868 633.394 264.57C614.944 252.598 598.053 254.426 582.724 270.052ZM731.269 274.852C746.618 299.121 750.085 300.217 779.243 289.846C765.227 269.4 757.197 266.881 731.269 274.852ZM993.008 476.883C995.527 460.882 984.119 453.859 973.57 446.421C969.243 443.458 967.377 445.888 967.08 450.273C966.162 463.697 962.428 478.187 980.83 483.758C984.356 484.824 986.756 490.365 991.023 487.699C994.786 485.417 992.919 480.498 993.008 476.883ZM322.94 458.304C320.125 455.844 329.785 443.488 317.014 445.917C303.709 448.318 293.308 471.49 297.605 484.024C298.849 487.55 301.072 489.328 303.976 487.136C313.132 480.142 327.681 476.794 322.94 458.304ZM922.217 391.721C923.403 411.781 927.64 417.026 944.975 422.449C952.353 424.76 955.079 423.397 954.309 415.485C952.976 402.21 940.708 388.431 927.64 385.409C921.091 383.868 921.24 387.217 922.217 391.721Z" fill="#BF932F"/>
</svg>
