<svg width="1730" height="1730" viewBox="0 0 1730 1730" fill="none" xmlns="http://www.w3.org/2000/svg">
<g clip-path="url(#clip0_185_3378)">
<path d="M853.787 939.713C895.809 939.713 929.875 905.647 929.875 863.625C929.875 821.603 895.809 787.537 853.787 787.537C811.765 787.537 777.699 821.603 777.699 863.625C777.699 905.647 811.765 939.713 853.787 939.713Z" stroke="#F7931E" stroke-width="7.038" stroke-miterlimit="10"/>
<path d="M853.787 1024.29C942.52 1024.29 1014.45 952.358 1014.45 863.625C1014.45 774.892 942.52 702.959 853.787 702.959C765.054 702.959 693.121 774.892 693.121 863.625C693.121 952.358 765.054 1024.29 853.787 1024.29Z" stroke="#F7931E" stroke-width="8.7975" stroke-miterlimit="10"/>
<path d="M859.554 1160.93C1023.75 1160.93 1156.86 1027.82 1156.86 863.625C1156.86 699.429 1023.75 566.321 859.554 566.321C695.357 566.321 562.25 699.429 562.25 863.625C562.25 1027.82 695.357 1160.93 859.554 1160.93Z" stroke="#F7931E" stroke-width="11.6514" stroke-miterlimit="10"/>
<path d="M853.787 1238.46C1060.8 1238.46 1228.62 1070.64 1228.62 863.625C1228.62 656.61 1060.8 488.792 853.787 488.792C646.772 488.792 478.954 656.61 478.954 863.625C478.954 1070.64 646.772 1238.46 853.787 1238.46Z" stroke="#F7931E" stroke-width="10.557" stroke-miterlimit="10"/>
<path d="M815.182 819.734L893.032 901.589" stroke="#F7931E" stroke-width="7.038" stroke-miterlimit="10"/>
<path d="M892.712 822.778L814.862 904.472" stroke="#F7931E" stroke-width="7.038" stroke-miterlimit="10"/>
<path d="M827.837 792.022C827.837 792.022 826.716 830.146 853.627 828.224C880.698 826.302 876.213 795.386 876.213 795.386" stroke="#F7931E" stroke-width="7.038" stroke-miterlimit="10"/>
<path d="M783.466 887.973C783.466 887.973 821.59 889.094 819.668 862.183C817.745 835.112 786.83 839.597 786.83 839.597" stroke="#F7931E" stroke-width="7.038" stroke-miterlimit="10"/>
<path d="M925.07 885.09C925.07 885.09 886.945 886.211 888.868 859.3C890.79 832.229 921.706 836.714 921.706 836.714" stroke="#F7931E" stroke-width="7.038" stroke-miterlimit="10"/>
<path d="M829.759 934.267C829.759 934.267 828.638 896.142 855.549 898.065C882.62 899.987 878.135 930.903 878.135 930.903" stroke="#F7931E" stroke-width="7.038" stroke-miterlimit="10"/>
<path d="M854.107 762.228C863.131 762.228 870.446 754.913 870.446 745.889C870.446 736.865 863.131 729.55 854.107 729.55C845.084 729.55 837.769 736.865 837.769 745.889C837.769 754.913 845.084 762.228 854.107 762.228Z" stroke="#F7931E" stroke-width="5.2785" stroke-miterlimit="10"/>
<path d="M765.845 961.018C774.869 961.018 782.184 953.702 782.184 944.679C782.184 935.655 774.869 928.34 765.845 928.34C756.822 928.34 749.506 935.655 749.506 944.679C749.506 953.702 756.822 961.018 765.845 961.018Z" stroke="#F7931E" stroke-width="5.2785" stroke-miterlimit="10"/>
<path d="M765.845 798.91C774.869 798.91 782.184 791.595 782.184 782.571C782.184 773.548 774.869 766.232 765.845 766.232C756.822 766.232 749.506 773.548 749.506 782.571C749.506 791.595 756.822 798.91 765.845 798.91Z" stroke="#F7931E" stroke-width="5.2785" stroke-miterlimit="10"/>
<path d="M937.083 793.784C946.107 793.784 953.422 786.469 953.422 777.445C953.422 768.422 946.107 761.106 937.083 761.106C928.06 761.106 920.744 768.422 920.744 777.445C920.744 786.469 928.06 793.784 937.083 793.784Z" stroke="#F7931E" stroke-width="5.2785" stroke-miterlimit="10"/>
<path d="M733.007 879.964C742.031 879.964 749.346 872.649 749.346 863.625C749.346 854.601 742.031 847.286 733.007 847.286C723.984 847.286 716.668 854.601 716.668 863.625C716.668 872.649 723.984 879.964 733.007 879.964Z" stroke="#F7931E" stroke-width="5.2785" stroke-miterlimit="10"/>
<path d="M975.848 876.76C984.872 876.76 992.187 869.445 992.187 860.421C992.187 851.398 984.872 844.082 975.848 844.082C966.824 844.082 959.509 851.398 959.509 860.421C959.509 869.445 966.824 876.76 975.848 876.76Z" stroke="#F7931E" stroke-width="5.2785" stroke-miterlimit="10"/>
<path d="M853.787 997.7C862.811 997.7 870.126 990.385 870.126 981.361C870.126 972.337 862.811 965.022 853.787 965.022C844.763 965.022 837.448 972.337 837.448 981.361C837.448 990.385 844.763 997.7 853.787 997.7Z" stroke="#F7931E" stroke-width="5.2785" stroke-miterlimit="10"/>
<path d="M937.243 957.333C946.267 957.333 953.582 950.018 953.582 940.994C953.582 931.971 946.267 924.656 937.243 924.656C928.22 924.656 920.905 931.971 920.905 940.994C920.905 950.018 928.22 957.333 937.243 957.333Z" stroke="#F7931E" stroke-width="5.2785" stroke-miterlimit="10"/>
<path d="M770.491 496.481C770.491 496.481 828.638 524.673 785.708 573.69" stroke="#F7931E" stroke-width="8.7975" stroke-miterlimit="10"/>
<path d="M676.782 532.522C676.782 532.522 741.177 539.09 717.469 599.96" stroke="#F7931E" stroke-width="8.7975" stroke-miterlimit="10"/>
<path d="M603.418 588.587C603.418 588.587 667.812 595.155 644.105 656.025" stroke="#F7931E" stroke-width="8.7975" stroke-miterlimit="10"/>
<path d="M539.824 662.272C539.824 662.272 602.617 646.414 601.175 711.609" stroke="#F7931E" stroke-width="8.7975" stroke-miterlimit="10"/>
<path d="M947.976 1228.85C947.976 1228.85 889.829 1200.65 932.758 1151.64" stroke="#F7931E" stroke-width="8.7975" stroke-miterlimit="10"/>
<path d="M1040.4 1190.24C1040.4 1190.24 976.008 1183.68 999.716 1122.8" stroke="#F7931E" stroke-width="8.7975" stroke-miterlimit="10"/>
<path d="M1113.93 1135.78C1113.93 1135.78 1049.53 1129.21 1073.24 1068.34" stroke="#F7931E" stroke-width="8.7975" stroke-miterlimit="10"/>
<path d="M1175.28 1059.69C1175.28 1059.69 1112.49 1075.55 1113.93 1010.35" stroke="#F7931E" stroke-width="8.7975" stroke-miterlimit="10"/>
<path d="M496.254 756.621C496.254 756.621 549.756 720.259 570.74 782.091" stroke="#F7931E" stroke-width="8.7975" stroke-miterlimit="10"/>
<path d="M480.716 855.936C480.716 855.936 518.68 803.556 559.527 854.334" stroke="#F7931E" stroke-width="8.7975" stroke-miterlimit="10"/>
<path d="M492.569 947.402C492.569 947.402 530.533 895.021 571.38 945.8" stroke="#F7931E" stroke-width="8.7975" stroke-miterlimit="10"/>
<path d="M524.446 1039.19C524.446 1039.19 542.067 977.036 597.971 1010.84" stroke="#F7931E" stroke-width="8.7975" stroke-miterlimit="10"/>
<path d="M1217.57 970.629C1217.57 970.629 1164.07 1006.99 1143.08 945.159" stroke="#F7931E" stroke-width="8.7975" stroke-miterlimit="10"/>
<path d="M1231.18 871.314C1231.18 871.314 1193.22 923.695 1152.37 872.916" stroke="#F7931E" stroke-width="8.7975" stroke-miterlimit="10"/>
<path d="M1219.65 777.445C1219.65 777.445 1181.69 829.826 1140.84 779.047" stroke="#F7931E" stroke-width="8.7975" stroke-miterlimit="10"/>
<path d="M1186.33 687.902C1186.33 687.902 1168.71 750.054 1112.81 716.255" stroke="#F7931E" stroke-width="8.7975" stroke-miterlimit="10"/>
<path d="M584.195 1117.2C584.195 1117.2 579.55 1052.64 643.464 1065.3" stroke="#F7931E" stroke-width="8.7975" stroke-miterlimit="10"/>
<path d="M663.807 1184.48C663.807 1184.48 637.377 1125.37 701.771 1115.44" stroke="#F7931E" stroke-width="8.7975" stroke-miterlimit="10"/>
<path d="M754.152 1224.68C754.152 1224.68 727.721 1165.57 792.116 1155.64" stroke="#F7931E" stroke-width="8.7975" stroke-miterlimit="10"/>
<path d="M850.583 1238.78C850.583 1238.78 805.571 1192.33 862.757 1160.93" stroke="#F7931E" stroke-width="8.7975" stroke-miterlimit="10"/>
<path d="M1126.74 602.523C1126.74 602.523 1131.39 667.078 1067.47 654.423" stroke="#F7931E" stroke-width="8.7975" stroke-miterlimit="10"/>
<path d="M1049.05 539.731C1049.05 539.731 1075.48 598.839 1011.09 608.771" stroke="#F7931E" stroke-width="8.7975" stroke-miterlimit="10"/>
<path d="M963.354 505.291C963.354 505.291 989.784 564.399 925.39 574.331" stroke="#F7931E" stroke-width="8.7975" stroke-miterlimit="10"/>
<path d="M871.568 488.792C871.568 488.792 916.58 535.245 859.394 566.642" stroke="#F7931E" stroke-width="8.7975" stroke-miterlimit="10"/>
<path d="M560.968 719.939C567.515 719.939 572.822 714.632 572.822 708.085C572.822 701.539 567.515 696.231 560.968 696.231C554.422 696.231 549.115 701.539 549.115 708.085C549.115 714.632 554.422 719.939 560.968 719.939Z" stroke="#F7931E" stroke-width="8.7494" stroke-miterlimit="10"/>
<path d="M700.49 1175.51C707.037 1175.51 712.344 1170.2 712.344 1163.65C712.344 1157.11 707.037 1151.8 700.49 1151.8C693.943 1151.8 688.636 1157.11 688.636 1163.65C688.636 1170.2 693.943 1175.51 700.49 1175.51Z" stroke="#F7931E" stroke-width="8.7494" stroke-miterlimit="10"/>
<path d="M622.96 1121.52C629.507 1121.52 634.814 1116.22 634.814 1109.67C634.814 1103.12 629.507 1097.82 622.96 1097.82C616.414 1097.82 611.106 1103.12 611.106 1109.67C611.106 1116.22 616.414 1121.52 622.96 1121.52Z" stroke="#F7931E" stroke-width="8.7494" stroke-miterlimit="10"/>
<path d="M572.822 1049.6C579.369 1049.6 584.676 1044.29 584.676 1037.75C584.676 1031.2 579.369 1025.89 572.822 1025.89C566.276 1025.89 560.969 1031.2 560.969 1037.75C560.969 1044.29 566.276 1049.6 572.822 1049.6Z" stroke="#F7931E" stroke-width="8.7494" stroke-miterlimit="10"/>
<path d="M538.062 974.473C544.609 974.473 549.916 969.166 549.916 962.62C549.916 956.073 544.609 950.766 538.062 950.766C531.515 950.766 526.208 956.073 526.208 962.62C526.208 969.166 531.515 974.473 538.062 974.473Z" stroke="#F7931E" stroke-width="8.7494" stroke-miterlimit="10"/>
<path d="M514.515 896.783C521.061 896.783 526.369 891.476 526.369 884.93C526.369 878.383 521.061 873.076 514.515 873.076C507.968 873.076 502.661 878.383 502.661 884.93C502.661 891.476 507.968 896.783 514.515 896.783Z" stroke="#F7931E" stroke-width="8.7494" stroke-miterlimit="10"/>
<path d="M526.369 804.196C532.915 804.196 538.222 798.889 538.222 792.343C538.222 785.796 532.915 780.489 526.369 780.489C519.822 780.489 514.515 785.796 514.515 792.343C514.515 798.889 519.822 804.196 526.369 804.196Z" stroke="#F7931E" stroke-width="8.7494" stroke-miterlimit="10"/>
<path d="M1136.19 692.067C1142.74 692.067 1148.05 686.76 1148.05 680.213C1148.05 673.666 1142.74 668.359 1136.19 668.359C1129.65 668.359 1124.34 673.666 1124.34 680.213C1124.34 686.76 1129.65 692.067 1136.19 692.067Z" stroke="#F7931E" stroke-width="8.7494" stroke-miterlimit="10"/>
<path d="M1078.05 627.672C1084.59 627.672 1089.9 622.365 1089.9 615.819C1089.9 609.272 1084.59 603.965 1078.05 603.965C1071.5 603.965 1066.19 609.272 1066.19 615.819C1066.19 622.365 1071.5 627.672 1078.05 627.672Z" stroke="#F7931E" stroke-width="8.7494" stroke-miterlimit="10"/>
<path d="M1003.24 579.777C1009.79 579.777 1015.09 574.47 1015.09 567.923C1015.09 561.377 1009.79 556.069 1003.24 556.069C996.693 556.069 991.386 561.377 991.386 567.923C991.386 574.47 996.693 579.777 1003.24 579.777Z" stroke="#F7931E" stroke-width="8.7494" stroke-miterlimit="10"/>
<path d="M920.424 548.701C926.971 548.701 932.278 543.394 932.278 536.847C932.278 530.301 926.971 524.994 920.424 524.994C913.877 524.994 908.57 530.301 908.57 536.847C908.57 543.394 913.877 548.701 920.424 548.701Z" stroke="#F7931E" stroke-width="8.7494" stroke-miterlimit="10"/>
<path d="M837.769 541.332C844.315 541.332 849.622 536.025 849.622 529.479C849.622 522.932 844.315 517.625 837.769 517.625C831.222 517.625 825.915 522.932 825.915 529.479C825.915 536.025 831.222 541.332 837.769 541.332Z" stroke="#F7931E" stroke-width="8.7494" stroke-miterlimit="10"/>
<path d="M749.987 557.992C756.534 557.992 761.841 552.685 761.841 546.138C761.841 539.591 756.534 534.284 749.987 534.284C743.44 534.284 738.133 539.591 738.133 546.138C738.133 552.685 743.44 557.992 749.987 557.992Z" stroke="#F7931E" stroke-width="8.7494" stroke-miterlimit="10"/>
<path d="M677.744 591.791C684.29 591.791 689.597 586.484 689.597 579.937C689.597 573.39 684.29 568.083 677.744 568.083C671.197 568.083 665.89 573.39 665.89 579.937C665.89 586.484 671.197 591.791 677.744 591.791Z" stroke="#F7931E" stroke-width="8.7494" stroke-miterlimit="10"/>
<path d="M611.107 647.215C617.653 647.215 622.96 641.908 622.96 635.361C622.96 628.815 617.653 623.507 611.107 623.507C604.56 623.507 599.253 628.815 599.253 635.361C599.253 641.908 604.56 647.215 611.107 647.215Z" stroke="#F7931E" stroke-width="8.7494" stroke-miterlimit="10"/>
<path d="M1173.52 770.237C1180.06 770.237 1185.37 764.93 1185.37 758.383C1185.37 751.837 1180.06 746.53 1173.52 746.53C1166.97 746.53 1161.66 751.837 1161.66 758.383C1161.66 764.93 1166.97 770.237 1173.52 770.237Z" stroke="#F7931E" stroke-width="8.7494" stroke-miterlimit="10"/>
<path d="M1185.21 948.683C1191.76 948.683 1197.06 943.376 1197.06 936.83C1197.06 930.283 1191.76 924.976 1185.21 924.976C1178.66 924.976 1173.36 930.283 1173.36 936.83C1173.36 943.376 1178.66 948.683 1185.21 948.683Z" stroke="#F7931E" stroke-width="8.7494" stroke-miterlimit="10"/>
<path d="M1159.74 1023.49C1166.29 1023.49 1171.59 1018.18 1171.59 1011.64C1171.59 1005.09 1166.29 999.782 1159.74 999.782C1153.19 999.782 1147.89 1005.09 1147.89 1011.64C1147.89 1018.18 1153.19 1023.49 1159.74 1023.49Z" stroke="#F7931E" stroke-width="8.7494" stroke-miterlimit="10"/>
<path d="M1107.68 1101.02C1114.23 1101.02 1119.53 1095.71 1119.53 1089.17C1119.53 1082.62 1114.23 1077.31 1107.68 1077.31C1101.13 1077.31 1095.83 1082.62 1095.83 1089.17C1095.83 1095.71 1101.13 1101.02 1107.68 1101.02Z" stroke="#F7931E" stroke-width="8.7494" stroke-miterlimit="10"/>
<path d="M1039.28 1154.2C1045.83 1154.2 1051.14 1148.89 1051.14 1142.35C1051.14 1135.8 1045.83 1130.49 1039.28 1130.49C1032.73 1130.49 1027.43 1135.8 1027.43 1142.35C1027.43 1148.89 1032.73 1154.2 1039.28 1154.2Z" stroke="#F7931E" stroke-width="8.7494" stroke-miterlimit="10"/>
<path d="M958.869 1192.97C965.415 1192.97 970.722 1187.66 970.722 1181.11C970.722 1174.57 965.415 1169.26 958.869 1169.26C952.322 1169.26 947.015 1174.57 947.015 1181.11C947.015 1187.66 952.322 1192.97 958.869 1192.97Z" stroke="#F7931E" stroke-width="8.7494" stroke-miterlimit="10"/>
<path d="M873.97 1213.95C880.517 1213.95 885.824 1208.64 885.824 1202.1C885.824 1195.55 880.517 1190.24 873.97 1190.24C867.424 1190.24 862.117 1195.55 862.117 1202.1C862.117 1208.64 867.424 1213.95 873.97 1213.95Z" stroke="#F7931E" stroke-width="8.7494" stroke-miterlimit="10"/>
<path d="M786.349 1202.1C792.896 1202.1 798.203 1196.79 798.203 1190.24C798.203 1183.7 792.896 1178.39 786.349 1178.39C779.802 1178.39 774.495 1183.7 774.495 1190.24C774.495 1196.79 779.802 1202.1 786.349 1202.1Z" stroke="#F7931E" stroke-width="8.7494" stroke-miterlimit="10"/>
<path d="M1189.86 855.936C1196.4 855.936 1201.71 850.629 1201.71 844.082C1201.71 837.536 1196.4 832.229 1189.86 832.229C1183.31 832.229 1178 837.536 1178 844.082C1178 850.629 1183.31 855.936 1189.86 855.936Z" stroke="#F7931E" stroke-width="8.7494" stroke-miterlimit="10"/>
<path d="M608.543 493.597L616.393 478.54" stroke="#F7931E" stroke-width="8.7975" stroke-miterlimit="10"/>
<path d="M659.963 696.712H685.272L683.67 671.082" stroke="#F7931E" stroke-width="8.7975" stroke-miterlimit="10"/>
<path d="M754.152 734.676C754.152 734.676 783.626 701.838 754.953 669.481C745.982 660.03 732.367 657.146 721.154 661.952C706.897 668.039 703.854 683.257 703.693 684.538C701.771 695.591 706.897 706.163 716.028 710.969C726.6 716.575 737.493 710.969 738.454 710.488C739.575 709.527 740.696 708.566 741.818 707.605" stroke="#F7931E" stroke-width="8.7975" stroke-miterlimit="10"/>
<path d="M724.357 767.033C724.357 767.033 691.519 796.508 659.162 767.834C649.711 758.864 646.828 745.248 651.633 734.035C657.72 719.779 672.938 716.735 674.219 716.575C685.272 714.653 695.844 719.779 700.65 728.909C706.256 739.482 700.65 750.374 700.169 751.335C699.208 752.457 698.247 753.578 697.286 754.699" stroke="#F7931E" stroke-width="8.7975" stroke-miterlimit="10"/>
<path d="M553.28 634.08C553.28 634.08 532.456 573.69 584.516 568.243C592.845 567.282 603.097 567.923 615.592 570.326" stroke="#F7931E" stroke-width="8.7975" stroke-miterlimit="10"/>
<path d="M576.827 520.669L579.23 569.044" stroke="#F7931E" stroke-width="8.7975" stroke-miterlimit="10"/>
<path d="M631.931 529.799L607.903 567.923" stroke="#F7931E" stroke-width="8.7975" stroke-miterlimit="10"/>
<path d="M526.689 544.856L559.367 576.733" stroke="#F7931E" stroke-width="8.7975" stroke-miterlimit="10"/>
<path d="M503.302 599.96L549.275 602.844" stroke="#F7931E" stroke-width="8.7975" stroke-miterlimit="10"/>
<path d="M512.593 652.981L551.998 629.755" stroke="#F7931E" stroke-width="8.7975" stroke-miterlimit="10"/>
<path d="M542.868 621.906C542.868 621.906 542.868 621.906 488.725 629.755C434.582 637.604 449.96 678.771 449.96 678.771C467.1 717.536 508.588 697.193 508.588 697.193L520.762 683.897" stroke="#F7931E" stroke-width="8.7975" stroke-miterlimit="10"/>
<path d="M466.139 634.24C464.377 633.919 444.193 630.395 435.543 611.654C428.655 596.596 432.18 578.335 444.514 565.841C445.956 564.719 448.038 563.118 450.921 561.516C462.455 555.268 473.828 556.069 478.793 556.87C483.919 557.671 489.526 559.593 495.453 562.637C522.684 576.893 547.513 590.189 547.513 590.189" stroke="#F7931E" stroke-width="8.7975" stroke-miterlimit="10"/>
<path d="M477.192 556.71C463.736 542.934 459.091 523.872 465.658 509.135C470.945 497.121 481.837 491.355 483.599 490.394C487.924 488.151 496.894 484.467 507.627 486.389C528.131 489.753 537.742 510.096 539.824 514.101C549.115 531.561 558.406 549.181 567.696 566.642" stroke="#F7931E" stroke-width="8.7975" stroke-miterlimit="10"/>
<path d="M535.659 506.572C531.655 490.233 536.781 473.414 548.955 463.963C549.756 463.322 563.531 452.75 580.831 456.434C583.394 456.915 589.962 458.517 596.049 463.643C619.436 483.666 605.981 535.726 602.456 548.861C599.733 559.594 598.772 565.04 598.932 567.443" stroke="#F7931E" stroke-width="8.7975" stroke-miterlimit="10"/>
<path d="M612.388 484.146C612.388 484.146 613.189 482.545 614.791 480.302C620.397 472.453 636.095 456.274 664.769 467.808C701.771 482.705 664.769 532.362 664.769 532.362L656.119 541.813" stroke="#F7931E" stroke-width="8.7975" stroke-miterlimit="10"/>
<path d="M674.7 1040.95H700.009L698.407 1066.74" stroke="#F7931E" stroke-width="8.7975" stroke-miterlimit="10"/>
<path d="M768.889 1002.99C768.889 1002.99 798.363 1035.82 769.69 1068.18C760.719 1077.63 747.104 1080.52 735.891 1075.71C721.634 1069.62 718.591 1054.41 718.431 1053.12C716.508 1042.07 721.634 1031.5 730.765 1026.69C741.337 1021.09 752.23 1026.69 753.191 1027.17C754.312 1028.14 755.433 1029.1 756.555 1030.06" stroke="#F7931E" stroke-width="8.7975" stroke-miterlimit="10"/>
<path d="M727.721 963.42C707.858 953.969 679.345 956.212 668.132 977.517C655.638 1001.22 682.549 1034.7 707.538 1017.56C718.431 1010.03 722.115 993.055 712.183 983.283" stroke="#F7931E" stroke-width="8.7975" stroke-miterlimit="10"/>
<path d="M568.017 1103.58C568.017 1103.58 547.193 1163.97 599.253 1169.42C607.582 1170.38 617.834 1169.74 630.329 1167.34" stroke="#F7931E" stroke-width="8.7975" stroke-miterlimit="10"/>
<path d="M591.564 1216.99L593.967 1168.62" stroke="#F7931E" stroke-width="8.7975" stroke-miterlimit="10"/>
<path d="M646.668 1207.86L622.64 1169.74" stroke="#F7931E" stroke-width="8.7975" stroke-miterlimit="10"/>
<path d="M541.426 1192.81L574.104 1160.93" stroke="#F7931E" stroke-width="8.7975" stroke-miterlimit="10"/>
<path d="M518.039 1137.7L564.012 1134.82" stroke="#F7931E" stroke-width="8.7975" stroke-miterlimit="10"/>
<path d="M527.33 1084.68L566.735 1107.91" stroke="#F7931E" stroke-width="8.7975" stroke-miterlimit="10"/>
<path d="M557.765 1115.92C557.765 1115.92 557.765 1115.92 503.622 1108.07C449.48 1100.22 464.857 1059.05 464.857 1059.05C481.997 1020.29 523.485 1040.63 523.485 1040.63L535.659 1053.92" stroke="#F7931E" stroke-width="8.7975" stroke-miterlimit="10"/>
<path d="M480.876 1103.42C479.114 1103.74 458.931 1107.27 450.281 1126.01C443.393 1141.07 446.917 1159.33 459.251 1171.82C460.693 1172.94 462.775 1174.54 465.658 1176.15C477.192 1182.39 488.565 1181.59 493.531 1180.79C498.656 1179.99 504.263 1178.07 510.19 1175.02C537.421 1160.77 562.25 1147.47 562.25 1147.47" stroke="#F7931E" stroke-width="8.7975" stroke-miterlimit="10"/>
<path d="M491.929 1180.95C478.473 1194.73 473.828 1213.79 480.395 1228.53C485.682 1240.54 496.574 1246.31 498.336 1247.27C502.661 1249.51 511.632 1253.2 522.364 1251.27C542.868 1247.91 552.479 1227.57 554.561 1223.56C563.852 1206.1 573.143 1188.48 582.433 1171.02" stroke="#F7931E" stroke-width="8.7975" stroke-miterlimit="10"/>
<path d="M550.396 1231.09C546.392 1247.43 551.518 1264.25 563.692 1273.7C564.493 1274.34 578.268 1284.91 595.568 1281.23C598.131 1280.75 604.699 1279.15 610.786 1274.02C634.173 1254 620.718 1201.94 617.193 1188.8C614.47 1178.07 613.509 1172.62 613.669 1170.22" stroke="#F7931E" stroke-width="8.7975" stroke-miterlimit="10"/>
<path d="M627.285 1253.52C627.285 1253.52 628.086 1255.12 629.688 1257.36C635.294 1265.21 650.993 1281.39 679.666 1269.85C716.668 1254.96 679.666 1205.3 679.666 1205.3L671.016 1195.85" stroke="#F7931E" stroke-width="8.7975" stroke-miterlimit="10"/>
<path d="M1227.66 549.822C1241.11 536.046 1245.76 516.984 1239.19 502.247C1233.91 490.233 1223.01 484.467 1221.25 483.506C1216.93 481.263 1207.96 477.579 1197.22 479.501C1176.72 482.865 1167.11 503.208 1165.03 507.213C1155.74 524.673 1146.45 542.294 1137.15 559.754" stroke="#F7931E" stroke-width="8.7975" stroke-miterlimit="10"/>
<path d="M1044.89 689.824H1019.58L1021.18 664.194" stroke="#F7931E" stroke-width="8.7975" stroke-miterlimit="10"/>
<path d="M950.539 727.788C950.539 727.788 921.065 694.95 949.738 662.593C958.708 653.142 972.324 650.258 983.537 655.064C997.793 661.151 1000.84 676.369 1001 677.65C1002.92 688.703 997.794 699.275 988.663 704.081C978.091 709.687 967.198 704.081 966.237 703.6C965.116 702.639 963.994 701.678 962.873 700.717" stroke="#F7931E" stroke-width="8.7975" stroke-miterlimit="10"/>
<path d="M980.493 760.145C980.493 760.145 1013.33 789.62 1045.69 760.946C1055.14 751.976 1058.02 738.36 1053.22 727.147C1047.13 712.891 1031.91 709.847 1030.63 709.687C1019.58 707.765 1009.01 712.891 1004.2 722.021C998.594 732.594 1004.2 743.486 1004.68 744.447C1005.64 745.569 1006.6 746.69 1007.56 747.811" stroke="#F7931E" stroke-width="8.7975" stroke-miterlimit="10"/>
<path d="M1151.57 627.192C1151.57 627.192 1172.4 566.802 1120.34 561.356C1112.01 560.395 1101.75 561.035 1089.26 563.438" stroke="#F7931E" stroke-width="8.7975" stroke-miterlimit="10"/>
<path d="M1128.02 513.941L1125.62 562.317" stroke="#F7931E" stroke-width="8.7975" stroke-miterlimit="10"/>
<path d="M1072.92 522.911L1096.95 561.035" stroke="#F7931E" stroke-width="8.7975" stroke-miterlimit="10"/>
<path d="M1178.16 538.129L1145.48 569.845" stroke="#F7931E" stroke-width="8.7975" stroke-miterlimit="10"/>
<path d="M1201.55 593.072L1155.58 596.116" stroke="#F7931E" stroke-width="8.7975" stroke-miterlimit="10"/>
<path d="M1192.1 646.254L1152.69 622.867" stroke="#F7931E" stroke-width="8.7975" stroke-miterlimit="10"/>
<path d="M1161.82 615.018C1161.82 615.018 1161.82 615.018 1215.97 622.867C1270.11 630.716 1254.73 671.883 1254.73 671.883C1237.59 710.648 1196.1 690.305 1196.1 690.305L1183.93 677.009" stroke="#F7931E" stroke-width="8.7975" stroke-miterlimit="10"/>
<path d="M1238.71 627.352C1240.47 627.032 1260.66 623.508 1269.31 604.766C1276.2 589.708 1272.67 571.447 1260.34 558.953C1258.9 557.832 1256.81 556.23 1253.93 554.628C1242.4 548.381 1231.02 549.182 1226.06 549.982C1220.93 550.783 1215.32 552.706 1209.4 555.749C1182.17 570.006 1157.34 583.301 1157.34 583.301" stroke="#F7931E" stroke-width="8.7975" stroke-miterlimit="10"/>
<path d="M1169.19 499.684C1173.2 483.345 1168.07 466.526 1155.9 457.075C1155.1 456.434 1141.32 445.862 1124.02 449.546C1121.46 450.027 1114.89 451.629 1108.8 456.755C1085.41 476.778 1098.87 528.838 1102.39 541.973C1105.12 552.706 1106.08 558.152 1105.92 560.555" stroke="#F7931E" stroke-width="8.7975" stroke-miterlimit="10"/>
<path d="M1092.3 477.419C1092.3 477.419 1091.5 475.817 1089.9 473.574C1084.29 465.725 1068.6 449.546 1039.92 461.08C1002.92 475.977 1039.92 525.634 1039.92 525.634L1048.57 535.085" stroke="#F7931E" stroke-width="8.7975" stroke-miterlimit="10"/>
<path d="M1044.57 1032.78H1019.42L1020.86 1058.41" stroke="#F7931E" stroke-width="8.7975" stroke-miterlimit="10"/>
<path d="M950.379 994.817C950.379 994.817 920.905 1027.65 949.578 1060.01C958.548 1069.46 972.164 1072.35 983.377 1067.54C997.633 1061.45 1000.68 1046.24 1000.84 1044.95C1002.76 1033.9 997.633 1023.33 988.503 1018.52C977.931 1012.92 967.038 1018.52 966.077 1019C964.956 1019.97 963.834 1020.93 962.713 1021.89" stroke="#F7931E" stroke-width="8.7975" stroke-miterlimit="10"/>
<path d="M980.173 962.459C980.173 962.459 1013.01 932.985 1045.37 961.658C1054.82 970.629 1057.7 984.244 1052.9 995.457C1046.81 1009.71 1031.59 1012.76 1030.31 1012.92C1019.26 1014.84 1008.69 1009.71 1003.88 1000.58C998.274 990.011 1003.88 979.118 1004.36 978.157C1005.32 977.036 1006.28 975.915 1007.24 974.793" stroke="#F7931E" stroke-width="8.7975" stroke-miterlimit="10"/>
<path d="M1151.25 1095.41C1151.25 1095.41 1172.08 1155.8 1120.01 1161.25C1111.69 1162.21 1101.43 1161.57 1088.94 1159.17" stroke="#F7931E" stroke-width="8.7975" stroke-miterlimit="10"/>
<path d="M1127.7 1208.66L1125.46 1160.29" stroke="#F7931E" stroke-width="8.7975" stroke-miterlimit="10"/>
<path d="M1072.76 1199.69L1096.63 1161.57" stroke="#F7931E" stroke-width="8.7975" stroke-miterlimit="10"/>
<path d="M1177.84 1184.48L1145.16 1152.76" stroke="#F7931E" stroke-width="8.7975" stroke-miterlimit="10"/>
<path d="M1201.39 1129.53L1155.26 1126.49" stroke="#F7931E" stroke-width="8.7975" stroke-miterlimit="10"/>
<path d="M1191.94 1076.51L1152.53 1099.74" stroke="#F7931E" stroke-width="8.7975" stroke-miterlimit="10"/>
<path d="M1161.66 1107.59C1161.66 1107.59 1161.66 1107.59 1215.81 1099.74C1269.95 1091.89 1254.57 1050.72 1254.57 1050.72C1237.43 1011.96 1195.94 1032.3 1195.94 1032.3L1183.77 1045.6" stroke="#F7931E" stroke-width="8.7975" stroke-miterlimit="10"/>
<path d="M1238.39 1095.25C1240.15 1095.57 1260.34 1099.1 1268.99 1117.84C1275.88 1132.9 1272.35 1151.16 1260.02 1163.65C1258.57 1164.77 1256.49 1166.37 1253.61 1167.98C1242.08 1174.22 1230.7 1173.42 1225.74 1172.62C1220.61 1171.82 1215 1169.9 1209.08 1166.86C1181.85 1152.6 1157.02 1139.3 1157.02 1139.3" stroke="#F7931E" stroke-width="8.7975" stroke-miterlimit="10"/>
<path d="M1227.34 1172.78C1240.79 1186.56 1245.44 1205.62 1238.87 1220.36C1233.59 1232.37 1222.69 1238.14 1220.93 1239.1C1216.61 1241.34 1207.64 1245.03 1196.9 1243.1C1176.4 1239.74 1166.79 1219.4 1164.71 1215.39C1155.42 1197.93 1146.12 1180.31 1136.83 1162.85" stroke="#F7931E" stroke-width="8.7975" stroke-miterlimit="10"/>
<path d="M1168.87 1222.92C1172.88 1239.26 1167.75 1256.08 1155.58 1265.53C1154.78 1266.17 1141 1276.74 1123.7 1273.06C1121.14 1272.58 1114.57 1270.98 1108.48 1265.85C1085.09 1245.83 1098.55 1193.77 1102.07 1180.63C1104.8 1169.9 1105.76 1164.45 1105.6 1162.05" stroke="#F7931E" stroke-width="8.7975" stroke-miterlimit="10"/>
<path d="M1092.14 1245.35C1092.14 1245.35 1091.34 1246.95 1089.74 1249.19C1084.13 1257.04 1068.44 1273.22 1039.76 1261.69C1002.76 1246.79 1039.76 1197.13 1039.76 1197.13L1048.41 1187.68" stroke="#F7931E" stroke-width="8.7975" stroke-miterlimit="10"/>
<path d="M845.137 1116.88L862.918 1099.1L880.057 1118.32" stroke="#F7931E" stroke-width="8.7975" stroke-miterlimit="10"/>
<path d="M885.023 1023.49C885.023 1023.49 929.074 1025.89 931.637 1068.98C931.957 1081.96 924.429 1093.65 913.056 1098.14C898.639 1103.9 885.824 1095.25 884.703 1094.45C875.572 1088.04 871.728 1076.83 874.771 1067.06C878.455 1055.69 889.829 1051.84 890.95 1051.52C892.392 1051.36 893.833 1051.2 895.275 1051.2" stroke="#F7931E" stroke-width="8.7975" stroke-miterlimit="10"/>
<path d="M830.24 1023.65C809.896 1029.42 793.878 1046.56 794.358 1068.66C794.999 1100.7 843.855 1110.31 851.544 1077.79C854.588 1064.98 844.656 1049.28 830.56 1049.6" stroke="#F7931E" stroke-width="8.7975" stroke-miterlimit="10"/>
<path d="M814.061 1236.54C814.061 1236.54 842.093 1293.88 882.62 1261.04C889.188 1255.76 896.076 1248.07 903.124 1237.5" stroke="#F7931E" stroke-width="8.7975" stroke-miterlimit="10"/>
<path d="M910.813 1300.13L878.295 1264.25" stroke="#F7931E" stroke-width="8.7975" stroke-miterlimit="10"/>
<path d="M943.33 1254.8L899.44 1244.71" stroke="#F7931E" stroke-width="8.7975" stroke-miterlimit="10"/>
<path d="M858.272 1318.39L858.913 1272.9" stroke="#F7931E" stroke-width="8.7975" stroke-miterlimit="10"/>
<path d="M802.688 1296.12L833.123 1261.52" stroke="#F7931E" stroke-width="8.7975" stroke-miterlimit="10"/>
<path d="M771.932 1251.91L816.143 1240.54" stroke="#F7931E" stroke-width="8.7975" stroke-miterlimit="10"/>
<path d="M815.342 1252.55C815.342 1252.55 815.342 1252.55 771.452 1285.23C727.561 1317.91 709.3 1278.02 709.3 1278.02C693.922 1238.46 737.813 1223.56 737.813 1223.56L755.754 1224.36" stroke="#F7931E" stroke-width="8.7975" stroke-miterlimit="10"/>
<path d="M752.229 1298.05C751.268 1299.49 739.415 1316.31 746.623 1335.69C752.39 1351.23 767.767 1361.64 785.388 1361.8C787.15 1361.64 789.873 1361.16 793.077 1360.2C805.571 1356.51 813.1 1347.86 815.983 1343.86C819.027 1339.7 821.59 1334.41 823.672 1328C832.803 1298.69 840.972 1271.62 840.972 1271.62" stroke="#F7931E" stroke-width="8.7975" stroke-miterlimit="10"/>
<path d="M814.862 1345.14C815.022 1364.52 825.274 1381.18 840.331 1386.95C852.505 1391.76 864.359 1388.07 866.281 1387.43C870.766 1385.99 879.897 1382.14 886.144 1373.33C898.158 1356.51 890.79 1335.21 889.348 1331.05C883.581 1311.98 877.654 1293.08 871.888 1274.02" stroke="#F7931E" stroke-width="8.7975" stroke-miterlimit="10"/>
<path d="M891.751 1339.21C900.401 1353.63 915.939 1361.8 931.316 1360.04C932.278 1359.88 949.578 1357.64 959.189 1342.74C960.63 1340.5 964.154 1334.73 964.795 1326.88C967.198 1296.12 920.904 1268.89 909.211 1262.01C899.76 1256.4 895.115 1253.2 893.673 1251.43" stroke="#F7931E" stroke-width="8.7975" stroke-miterlimit="10"/>
<path d="M961.912 1300.77C961.912 1300.77 963.514 1301.25 966.237 1301.73C975.688 1303.33 998.274 1303.65 1010.45 1275.14C1025.99 1238.46 964.795 1229.49 964.795 1229.49L951.98 1228.85" stroke="#F7931E" stroke-width="8.7975" stroke-miterlimit="10"/>
<path d="M890.149 383.55C889.989 364.168 879.737 347.508 864.679 341.742C852.505 336.936 840.652 340.62 838.729 341.261C834.244 342.703 825.114 346.547 818.866 355.357C806.853 372.177 814.221 393.482 815.663 397.646C821.429 416.708 827.356 435.61 833.123 454.672" stroke="#F7931E" stroke-width="8.7975" stroke-miterlimit="10"/>
<path d="M859.874 611.814L842.093 629.755L824.954 610.372" stroke="#F7931E" stroke-width="8.7975" stroke-miterlimit="10"/>
<path d="M819.988 705.362C819.988 705.362 775.937 702.959 773.374 659.869C773.053 646.894 780.582 635.201 791.955 630.716C806.372 624.949 819.187 633.599 820.308 634.4C829.439 640.807 833.283 652.02 830.24 661.792C826.555 673.165 815.182 677.009 814.061 677.33C812.619 677.49 811.178 677.65 809.736 677.65" stroke="#F7931E" stroke-width="8.7975" stroke-miterlimit="10"/>
<path d="M876.533 704.561C896.716 698.154 912.735 679.572 910.332 657.307C906.968 626.391 858.753 620.144 853.146 652.341C850.903 664.835 860.835 679.412 874.291 679.092" stroke="#F7931E" stroke-width="8.7975" stroke-miterlimit="10"/>
<path d="M890.95 492.156C890.95 492.156 862.918 434.809 822.391 467.647C815.823 472.933 808.935 480.622 801.887 491.194" stroke="#F7931E" stroke-width="8.7975" stroke-miterlimit="10"/>
<path d="M794.198 428.562L826.716 464.443" stroke="#F7931E" stroke-width="8.7975" stroke-miterlimit="10"/>
<path d="M761.68 473.894L805.571 483.986" stroke="#F7931E" stroke-width="8.7975" stroke-miterlimit="10"/>
<path d="M846.739 410.301L846.098 455.794" stroke="#F7931E" stroke-width="8.7975" stroke-miterlimit="10"/>
<path d="M902.323 432.567L871.888 467.167" stroke="#F7931E" stroke-width="8.7975" stroke-miterlimit="10"/>
<path d="M933.079 476.778L888.867 488.151" stroke="#F7931E" stroke-width="8.7975" stroke-miterlimit="10"/>
<path d="M889.668 476.137C889.668 476.137 889.668 476.137 933.559 443.459C977.45 410.781 995.711 450.668 995.711 450.668C1011.09 490.233 967.198 505.131 967.198 505.131L949.257 504.33" stroke="#F7931E" stroke-width="8.7975" stroke-miterlimit="10"/>
<path d="M952.781 430.644C953.742 429.203 965.596 412.383 958.388 393.001C952.621 377.463 937.243 367.051 919.623 366.891C917.861 367.051 915.138 367.531 911.934 368.493C899.44 372.177 891.911 380.827 889.028 384.831C885.984 388.996 883.421 394.282 881.339 400.69C872.208 430.004 864.039 457.075 864.039 457.075" stroke="#F7931E" stroke-width="8.7975" stroke-miterlimit="10"/>
<path d="M813.26 389.477C804.61 375.06 789.072 366.891 773.694 368.653C772.733 368.813 755.433 371.056 745.822 385.953C744.381 388.195 740.856 393.962 740.216 401.811C737.813 432.567 784.106 459.798 795.8 466.686C805.251 472.293 809.896 475.496 811.338 477.258" stroke="#F7931E" stroke-width="8.7975" stroke-miterlimit="10"/>
<path d="M743.099 427.921C743.099 427.921 741.497 427.441 738.774 426.96C729.323 425.358 706.737 425.038 694.563 453.551C679.025 490.233 740.216 499.204 740.216 499.204L753.03 499.844" stroke="#F7931E" stroke-width="8.7975" stroke-miterlimit="10"/>
<path d="M1105.28 863.945L1087.34 846.165L1106.56 829.025" stroke="#F7931E" stroke-width="8.7975" stroke-miterlimit="10"/>
<path d="M1011.73 824.059C1011.73 824.059 1014.13 780.008 1057.22 777.445C1070.2 777.125 1081.89 784.654 1086.38 796.027C1092.14 810.444 1083.49 823.258 1082.69 824.38C1076.28 833.51 1065.07 837.355 1055.3 834.311C1043.93 830.627 1040.08 819.254 1039.76 818.132C1039.6 816.691 1039.44 815.249 1039.44 813.807" stroke="#F7931E" stroke-width="8.7975" stroke-miterlimit="10"/>
<path d="M1013.17 882.687C1020.22 902.71 1040.4 918.568 1062.51 914.083C1091.66 908.317 1095.51 861.863 1063.95 857.218C1051.78 855.456 1037.52 865.387 1037.84 878.522" stroke="#F7931E" stroke-width="8.7975" stroke-miterlimit="10"/>
<path d="M1224.94 895.021C1224.94 895.021 1282.28 866.989 1249.44 826.462C1244.16 819.894 1236.47 813.007 1225.9 805.958" stroke="#F7931E" stroke-width="8.7975" stroke-miterlimit="10"/>
<path d="M1288.53 798.27L1252.65 830.787" stroke="#F7931E" stroke-width="8.7975" stroke-miterlimit="10"/>
<path d="M1243.2 765.752L1233.11 809.643" stroke="#F7931E" stroke-width="8.7975" stroke-miterlimit="10"/>
<path d="M1306.79 850.81L1261.14 850.17" stroke="#F7931E" stroke-width="8.7975" stroke-miterlimit="10"/>
<path d="M1284.53 906.394L1249.93 875.959" stroke="#F7931E" stroke-width="8.7975" stroke-miterlimit="10"/>
<path d="M1240.31 937.15L1228.94 892.939" stroke="#F7931E" stroke-width="8.7975" stroke-miterlimit="10"/>
<path d="M1240.95 893.74C1240.95 893.74 1240.95 893.74 1273.63 937.631C1306.31 981.521 1266.42 999.782 1266.42 999.782C1226.86 1015.16 1211.96 971.27 1211.96 971.27L1212.76 953.329" stroke="#F7931E" stroke-width="8.7975" stroke-miterlimit="10"/>
<path d="M1286.45 956.853C1287.89 957.814 1304.71 969.668 1324.09 962.459C1339.63 956.693 1350.04 941.315 1350.2 923.695C1350.04 921.932 1349.56 919.209 1348.6 916.006C1344.91 903.511 1336.26 895.983 1332.26 893.099C1328.1 890.056 1322.81 887.493 1316.4 885.41C1287.09 876.28 1260.02 868.11 1260.02 868.11" stroke="#F7931E" stroke-width="8.7975" stroke-miterlimit="10"/>
<path d="M1333.54 894.22C1352.92 894.06 1369.58 883.808 1375.35 868.751C1380.16 856.577 1376.47 844.723 1375.83 842.801C1374.39 838.316 1370.54 829.185 1361.73 822.938C1344.91 810.924 1323.61 818.293 1319.45 819.734C1300.38 825.501 1281.48 831.428 1262.42 837.194" stroke="#F7931E" stroke-width="8.7975" stroke-miterlimit="10"/>
<path d="M1327.61 817.332C1342.03 808.682 1350.2 793.144 1348.44 777.766C1348.28 776.805 1346.04 759.505 1331.14 749.894C1328.9 748.452 1323.13 744.928 1315.28 744.287C1284.52 741.884 1257.29 788.178 1250.41 799.871C1244.8 809.322 1241.6 813.968 1239.83 815.409" stroke="#F7931E" stroke-width="8.7975" stroke-miterlimit="10"/>
<path d="M1289.01 747.331C1289.01 747.331 1289.49 745.729 1289.97 743.006C1291.57 733.555 1291.89 710.969 1263.38 698.794C1226.7 683.257 1217.73 744.447 1217.73 744.447L1217.09 757.262" stroke="#F7931E" stroke-width="8.7975" stroke-miterlimit="10"/>
<path d="M372.431 813.807C353.048 813.968 336.389 824.219 330.622 839.277C325.817 851.451 329.501 863.305 330.142 865.227C331.583 869.712 335.428 878.843 344.238 885.09C361.057 897.104 382.362 889.735 386.527 888.294C405.589 882.527 424.491 876.6 443.553 870.833" stroke="#F7931E" stroke-width="8.7975" stroke-miterlimit="10"/>
<path d="M600.694 843.922L618.475 861.863L599.253 878.843" stroke="#F7931E" stroke-width="8.7975" stroke-miterlimit="10"/>
<path d="M694.082 883.809C694.082 883.809 691.68 927.859 648.59 930.422C635.615 930.743 623.921 923.214 619.436 911.841C613.669 897.424 622.319 884.609 623.12 883.488C629.528 874.358 640.741 870.513 650.512 873.557C661.885 877.241 665.73 888.614 666.05 889.735C666.21 891.177 666.37 892.619 666.37 894.06" stroke="#F7931E" stroke-width="8.7975" stroke-miterlimit="10"/>
<path d="M695.844 839.758C695.844 839.758 693.442 795.707 650.352 793.144C637.377 792.823 625.683 800.352 621.198 811.725C615.431 826.142 624.081 838.957 624.882 840.078C631.29 849.208 642.503 853.053 652.274 850.009C663.647 846.325 667.492 834.952 667.812 833.831C667.972 832.389 668.132 830.947 668.132 829.506" stroke="#F7931E" stroke-width="8.7975" stroke-miterlimit="10"/>
<path d="M481.036 812.846C481.036 812.846 423.69 840.879 456.528 881.406C461.814 887.973 469.503 894.861 480.075 901.909" stroke="#F7931E" stroke-width="8.7975" stroke-miterlimit="10"/>
<path d="M417.443 909.598L453.324 877.081" stroke="#F7931E" stroke-width="8.7975" stroke-miterlimit="10"/>
<path d="M462.775 942.116L472.867 898.225" stroke="#F7931E" stroke-width="8.7975" stroke-miterlimit="10"/>
<path d="M399.181 857.057L444.674 857.698" stroke="#F7931E" stroke-width="8.7975" stroke-miterlimit="10"/>
<path d="M421.447 801.633L456.047 832.069" stroke="#F7931E" stroke-width="8.7975" stroke-miterlimit="10"/>
<path d="M465.658 770.718L477.031 815.089" stroke="#F7931E" stroke-width="8.7975" stroke-miterlimit="10"/>
<path d="M465.017 814.128C465.017 814.128 465.018 814.128 432.34 770.237C399.662 726.346 439.548 708.085 439.548 708.085C479.114 692.708 494.011 736.598 494.011 736.598L493.21 754.539" stroke="#F7931E" stroke-width="8.7975" stroke-miterlimit="10"/>
<path d="M419.525 751.015C418.083 750.054 401.264 738.2 381.881 745.408C366.343 751.175 355.931 766.553 355.771 784.173C355.931 785.935 356.412 788.658 357.373 791.862C361.057 804.357 369.707 811.885 373.712 814.769C377.877 817.812 383.163 820.375 389.57 822.457C418.884 831.588 445.955 839.758 445.955 839.758" stroke="#F7931E" stroke-width="8.7975" stroke-miterlimit="10"/>
<path d="M378.357 890.536C363.941 899.186 355.771 914.724 357.533 930.102C357.693 931.063 359.936 948.363 374.833 957.974C377.076 959.416 382.843 962.94 390.692 963.581C421.447 965.983 448.679 919.69 455.567 907.996C461.173 898.545 464.377 893.9 466.139 892.458" stroke="#F7931E" stroke-width="8.7975" stroke-miterlimit="10"/>
<path d="M416.802 960.697C416.802 960.697 416.321 962.299 415.841 965.022C414.239 974.473 413.918 997.059 442.431 1009.23C479.114 1024.77 488.084 963.581 488.084 963.581L488.725 950.766" stroke="#F7931E" stroke-width="8.7975" stroke-miterlimit="10"/>
<path d="M854.107 1440.45C1176.31 1440.45 1437.5 1179.26 1437.5 857.057C1437.5 534.858 1176.31 273.663 854.107 273.663C531.908 273.663 270.713 534.858 270.713 857.057C270.713 1179.26 531.908 1440.45 854.107 1440.45Z" stroke="#F7931E" stroke-width="10.557" stroke-miterlimit="10"/>
<path d="M848.341 1554.5C1227.34 1554.5 1534.57 1247.27 1534.57 868.27C1534.57 489.274 1227.34 182.037 848.341 182.037C469.344 182.037 162.107 489.274 162.107 868.27C162.107 1247.27 469.344 1554.5 848.341 1554.5Z" stroke="#F7931E" stroke-width="12.3165" stroke-miterlimit="10"/>
<path d="M601.175 805.318C606.306 805.318 610.466 801.158 610.466 796.027C610.466 790.896 606.306 786.736 601.175 786.736C596.044 786.736 591.884 790.896 591.884 796.027C591.884 801.158 596.044 805.318 601.175 805.318Z" stroke="#F7931E" stroke-width="6.9501" stroke-miterlimit="10"/>
<path d="M643.464 1026.53C648.595 1026.53 652.755 1022.37 652.755 1017.24C652.755 1012.11 648.595 1007.95 643.464 1007.95C638.333 1007.95 634.173 1012.11 634.173 1017.24C634.173 1022.37 638.333 1026.53 643.464 1026.53Z" stroke="#F7931E" stroke-width="6.9501" stroke-miterlimit="10"/>
<path d="M725.959 1107.11C731.09 1107.11 735.25 1102.95 735.25 1097.82C735.25 1092.68 731.09 1088.52 725.959 1088.52C720.828 1088.52 716.668 1092.68 716.668 1097.82C716.668 1102.95 720.828 1107.11 725.959 1107.11Z" stroke="#F7931E" stroke-width="6.9501" stroke-miterlimit="10"/>
<path d="M643.464 907.195C648.595 907.195 652.755 903.036 652.755 897.905C652.755 892.774 648.595 888.614 643.464 888.614C638.333 888.614 634.173 892.774 634.173 897.905C634.173 903.036 638.333 907.195 643.464 907.195Z" stroke="#F7931E" stroke-width="6.9501" stroke-miterlimit="10"/>
<path d="M693.121 1004.11C698.252 1004.11 702.412 999.948 702.412 994.817C702.412 989.685 698.252 985.526 693.121 985.526C687.99 985.526 683.831 989.685 683.831 994.817C683.831 999.948 687.99 1004.11 693.121 1004.11Z" stroke="#F7931E" stroke-width="6.9501" stroke-miterlimit="10"/>
<path d="M598.612 932.825C603.743 932.825 607.903 928.666 607.903 923.534C607.903 918.403 603.743 914.244 598.612 914.244C593.481 914.244 589.321 918.403 589.321 923.534C589.321 928.666 593.481 932.825 598.612 932.825Z" stroke="#F7931E" stroke-width="6.9501" stroke-miterlimit="10"/>
<path d="M646.507 831.428C651.638 831.428 655.798 827.268 655.798 822.137C655.798 817.006 651.638 812.846 646.507 812.846C641.376 812.846 637.217 817.006 637.217 822.137C637.217 827.268 641.376 831.428 646.507 831.428Z" stroke="#F7931E" stroke-width="6.9501" stroke-miterlimit="10"/>
<path d="M971.203 689.504C976.334 689.504 980.494 685.344 980.494 680.213C980.494 675.082 976.334 670.922 971.203 670.922C966.072 670.922 961.912 675.082 961.912 680.213C961.912 685.344 966.072 689.504 971.203 689.504Z" stroke="#F7931E" stroke-width="6.9501" stroke-miterlimit="10"/>
<path d="M1002.28 644.492C1007.41 644.492 1011.57 640.332 1011.57 635.201C1011.57 630.07 1007.41 625.91 1002.28 625.91C997.148 625.91 992.988 630.07 992.988 635.201C992.988 640.332 997.148 644.492 1002.28 644.492Z" stroke="#F7931E" stroke-width="6.9501" stroke-miterlimit="10"/>
<path d="M893.032 610.212C898.164 610.212 902.323 606.052 902.323 600.921C902.323 595.79 898.164 591.631 893.032 591.631C887.901 591.631 883.742 595.79 883.742 600.921C883.742 606.052 887.901 610.212 893.032 610.212Z" stroke="#F7931E" stroke-width="6.9501" stroke-miterlimit="10"/>
<path d="M881.82 665.156C886.951 665.156 891.11 660.996 891.11 655.865C891.11 650.734 886.951 646.574 881.82 646.574C876.688 646.574 872.529 650.734 872.529 655.865C872.529 660.996 876.688 665.156 881.82 665.156Z" stroke="#F7931E" stroke-width="6.9501" stroke-miterlimit="10"/>
<path d="M782.344 613.896C787.476 613.896 791.635 609.737 791.635 604.606C791.635 599.474 787.476 595.315 782.344 595.315C777.213 595.315 773.054 599.474 773.054 604.606C773.054 609.737 777.213 613.896 782.344 613.896Z" stroke="#F7931E" stroke-width="6.9501" stroke-miterlimit="10"/>
<path d="M705.616 650.579C710.747 650.579 714.906 646.419 714.906 641.288C714.906 636.157 710.747 631.997 705.616 631.997C700.485 631.997 696.325 636.157 696.325 641.288C696.325 646.419 700.485 650.579 705.616 650.579Z" stroke="#F7931E" stroke-width="6.9501" stroke-miterlimit="10"/>
<path d="M727.721 697.032C732.853 697.032 737.012 692.873 737.012 687.742C737.012 682.611 732.853 678.451 727.721 678.451C722.59 678.451 718.431 682.611 718.431 687.742C718.431 692.873 722.59 697.032 727.721 697.032Z" stroke="#F7931E" stroke-width="6.9501" stroke-miterlimit="10"/>
<path d="M634.173 725.385C639.304 725.385 643.464 721.226 643.464 716.094C643.464 710.963 639.304 706.804 634.173 706.804C629.042 706.804 624.882 710.963 624.882 716.094C624.882 721.226 629.042 725.385 634.173 725.385Z" stroke="#F7931E" stroke-width="6.9501" stroke-miterlimit="10"/>
<path d="M1075.64 718.657C1080.77 718.657 1084.93 714.498 1084.93 709.367C1084.93 704.236 1080.77 700.076 1075.64 700.076C1070.51 700.076 1066.35 704.236 1066.35 709.367C1066.35 714.498 1070.51 718.657 1075.64 718.657Z" stroke="#F7931E" stroke-width="6.9501" stroke-miterlimit="10"/>
<path d="M1113.93 910.88C1119.06 910.88 1123.22 906.72 1123.22 901.589C1123.22 896.458 1119.06 892.298 1113.93 892.298C1108.8 892.298 1104.64 896.458 1104.64 901.589C1104.64 906.72 1108.8 910.88 1113.93 910.88Z" stroke="#F7931E" stroke-width="6.9501" stroke-miterlimit="10"/>
<path d="M1027.59 994.656C1032.72 994.656 1036.88 990.497 1036.88 985.366C1036.88 980.235 1032.72 976.075 1027.59 976.075C1022.46 976.075 1018.3 980.235 1018.3 985.366C1018.3 990.497 1022.46 994.656 1027.59 994.656Z" stroke="#F7931E" stroke-width="6.9501" stroke-miterlimit="10"/>
<path d="M1078.05 1019.65C1083.18 1019.65 1087.34 1015.49 1087.34 1010.35C1087.34 1005.22 1083.18 1001.06 1078.05 1001.06C1072.92 1001.06 1068.76 1005.22 1068.76 1010.35C1068.76 1015.49 1072.92 1019.65 1078.05 1019.65Z" stroke="#F7931E" stroke-width="6.9501" stroke-miterlimit="10"/>
<path d="M975.848 1052.48C980.979 1052.48 985.139 1048.32 985.139 1043.19C985.139 1038.06 980.979 1033.9 975.848 1033.9C970.717 1033.9 966.557 1038.06 966.557 1043.19C966.557 1048.32 970.717 1052.48 975.848 1052.48Z" stroke="#F7931E" stroke-width="6.9501" stroke-miterlimit="10"/>
<path d="M1003.24 1093.81C1008.37 1093.81 1012.53 1089.65 1012.53 1084.52C1012.53 1079.39 1008.37 1075.23 1003.24 1075.23C998.109 1075.23 993.949 1079.39 993.949 1084.52C993.949 1089.65 998.109 1093.81 1003.24 1093.81Z" stroke="#F7931E" stroke-width="6.9501" stroke-miterlimit="10"/>
<path d="M899.44 1084.84C904.571 1084.84 908.731 1080.68 908.731 1075.55C908.731 1070.42 904.571 1066.26 899.44 1066.26C894.309 1066.26 890.149 1070.42 890.149 1075.55C890.149 1080.68 894.309 1084.84 899.44 1084.84Z" stroke="#F7931E" stroke-width="6.9501" stroke-miterlimit="10"/>
<path d="M823.192 1079.07C828.323 1079.07 832.482 1074.91 832.482 1069.78C832.482 1064.65 828.323 1060.49 823.192 1060.49C818.061 1060.49 813.901 1064.65 813.901 1069.78C813.901 1074.91 818.061 1079.07 823.192 1079.07Z" stroke="#F7931E" stroke-width="6.9501" stroke-miterlimit="10"/>
<path d="M1116.97 810.604C1122.1 810.604 1126.26 806.444 1126.26 801.313C1126.26 796.182 1122.1 792.022 1116.97 792.022C1111.84 792.022 1107.68 796.182 1107.68 801.313C1107.68 806.444 1111.84 810.604 1116.97 810.604Z" stroke="#F7931E" stroke-width="6.9501" stroke-miterlimit="10"/>
<path d="M744.861 1059.21C749.992 1059.21 754.152 1055.05 754.152 1049.92C754.152 1044.79 749.992 1040.63 744.861 1040.63C739.73 1040.63 735.57 1044.79 735.57 1049.92C735.57 1055.05 739.73 1059.21 744.861 1059.21Z" stroke="#F7931E" stroke-width="6.9501" stroke-miterlimit="10"/>
<path d="M917.06 1133.86C922.191 1133.86 926.351 1129.7 926.351 1124.57C926.351 1119.44 922.191 1115.28 917.06 1115.28C911.929 1115.28 907.769 1119.44 907.769 1124.57C907.769 1129.7 911.929 1133.86 917.06 1133.86Z" stroke="#F7931E" stroke-width="6.9501" stroke-miterlimit="10"/>
<path d="M804.61 1130.01C809.741 1130.01 813.901 1125.85 813.901 1120.72C813.901 1115.59 809.741 1111.43 804.61 1111.43C799.479 1111.43 795.319 1115.59 795.319 1120.72C795.319 1125.85 799.479 1130.01 804.61 1130.01Z" stroke="#F7931E" stroke-width="6.9501" stroke-miterlimit="10"/>
<path d="M801.567 665.156C806.698 665.156 810.857 660.996 810.857 655.865C810.857 650.734 806.698 646.574 801.567 646.574C796.435 646.574 792.276 650.734 792.276 655.865C792.276 660.996 796.435 665.156 801.567 665.156Z" stroke="#F7931E" stroke-width="6.9501" stroke-miterlimit="10"/>
<path d="M676.943 752.296C682.074 752.296 686.233 748.137 686.233 743.006C686.233 737.874 682.074 733.715 676.943 733.715C671.811 733.715 667.652 737.874 667.652 743.006C667.652 748.137 671.811 752.296 676.943 752.296Z" stroke="#F7931E" stroke-width="6.9501" stroke-miterlimit="10"/>
<path d="M1027.59 746.53C1032.72 746.53 1036.88 742.37 1036.88 737.239C1036.88 732.108 1032.72 727.948 1027.59 727.948C1022.46 727.948 1018.3 732.108 1018.3 737.239C1018.3 742.37 1022.46 746.53 1027.59 746.53Z" stroke="#F7931E" stroke-width="6.9501" stroke-miterlimit="10"/>
<path d="M1061.07 815.73C1066.2 815.73 1070.36 811.57 1070.36 806.439C1070.36 801.308 1066.2 797.148 1061.07 797.148C1055.94 797.148 1051.78 801.308 1051.78 806.439C1051.78 811.57 1055.94 815.73 1061.07 815.73Z" stroke="#F7931E" stroke-width="6.9501" stroke-miterlimit="10"/>
<path d="M1059.46 895.182C1064.6 895.182 1068.76 891.022 1068.76 885.891C1068.76 880.76 1064.6 876.6 1059.46 876.6C1054.33 876.6 1050.17 880.76 1050.17 885.891C1050.17 891.022 1054.33 895.182 1059.46 895.182Z" stroke="#F7931E" stroke-width="6.9501" stroke-miterlimit="10"/>
<path d="M404.948 599.159C415.564 599.159 424.17 590.553 424.17 579.937C424.17 569.321 415.564 560.715 404.948 560.715C394.332 560.715 385.726 569.321 385.726 579.937C385.726 590.553 394.332 599.159 404.948 599.159Z" stroke="#F7931E" stroke-width="5.3854" stroke-miterlimit="10"/>
<path d="M688.796 1312.14C699.412 1312.14 708.018 1303.54 708.018 1292.92C708.018 1282.31 699.412 1273.7 688.796 1273.7C678.18 1273.7 669.574 1282.31 669.574 1292.92C669.574 1303.54 678.18 1312.14 688.796 1312.14Z" stroke="#F7931E" stroke-width="5.3854" stroke-miterlimit="10"/>
<path d="M582.594 1327.04C593.21 1327.04 601.816 1318.43 601.816 1307.82C601.816 1297.2 593.21 1288.6 582.594 1288.6C571.977 1288.6 563.371 1297.2 563.371 1307.82C563.371 1318.43 571.977 1327.04 582.594 1327.04Z" stroke="#F7931E" stroke-width="5.3854" stroke-miterlimit="10"/>
<path d="M475.59 1282.03C486.206 1282.03 494.812 1273.42 494.812 1262.81C494.812 1252.19 486.206 1243.58 475.59 1243.58C464.974 1243.58 456.368 1252.19 456.368 1262.81C456.368 1273.42 464.974 1282.03 475.59 1282.03Z" stroke="#F7931E" stroke-width="5.3854" stroke-miterlimit="10"/>
<path d="M447.878 1056.97C458.494 1056.97 467.1 1048.36 467.1 1037.75C467.1 1027.13 458.494 1018.52 447.878 1018.52C437.262 1018.52 428.656 1027.13 428.656 1037.75C428.656 1048.36 437.262 1056.97 447.878 1056.97Z" stroke="#F7931E" stroke-width="5.3854" stroke-miterlimit="10"/>
<path d="M339.432 977.517C350.049 977.517 358.655 968.911 358.655 958.294C358.655 947.678 350.049 939.072 339.432 939.072C328.816 939.072 320.21 947.678 320.21 958.294C320.21 968.911 328.816 977.517 339.432 977.517Z" stroke="#F7931E" stroke-width="5.3854" stroke-miterlimit="10"/>
<path d="M301.148 871.955C311.764 871.955 320.37 863.349 320.37 852.732C320.37 842.116 311.764 833.51 301.148 833.51C290.532 833.51 281.926 842.116 281.926 852.732C281.926 863.349 290.532 871.955 301.148 871.955Z" stroke="#F7931E" stroke-width="5.3854" stroke-miterlimit="10"/>
<path d="M1249.92 498.082C1260.54 498.082 1269.15 489.476 1269.15 478.86C1269.15 468.244 1260.54 459.638 1249.92 459.638C1239.31 459.638 1230.7 468.244 1230.7 478.86C1230.7 489.476 1239.31 498.082 1249.92 498.082Z" stroke="#F7931E" stroke-width="5.3854" stroke-miterlimit="10"/>
<path d="M1019.58 468.128C1030.19 468.128 1038.8 459.522 1038.8 448.906C1038.8 438.289 1030.19 429.683 1019.58 429.683C1008.96 429.683 1000.36 438.289 1000.36 448.906C1000.36 459.522 1008.96 468.128 1019.58 468.128Z" stroke="#F7931E" stroke-width="5.3854" stroke-miterlimit="10"/>
<path d="M961.752 378.424C972.368 378.424 980.974 369.818 980.974 359.202C980.974 348.586 972.368 339.98 961.752 339.98C951.136 339.98 942.53 348.586 942.53 359.202C942.53 369.818 951.136 378.424 961.752 378.424Z" stroke="#F7931E" stroke-width="5.3854" stroke-miterlimit="10"/>
<path d="M849.622 331.49C860.238 331.49 868.844 322.884 868.844 312.268C868.844 301.651 860.238 293.045 849.622 293.045C839.006 293.045 830.4 301.651 830.4 312.268C830.4 322.884 839.006 331.49 849.622 331.49Z" stroke="#F7931E" stroke-width="5.3854" stroke-miterlimit="10"/>
<path d="M733.007 383.87C743.624 383.87 752.23 375.264 752.23 364.648C752.23 354.032 743.624 345.426 733.007 345.426C722.391 345.426 713.785 354.032 713.785 364.648C713.785 375.264 722.391 383.87 733.007 383.87Z" stroke="#F7931E" stroke-width="5.3854" stroke-miterlimit="10"/>
<path d="M674.7 469.089C685.316 469.089 693.922 460.483 693.922 449.867C693.922 439.251 685.316 430.645 674.7 430.645C664.084 430.645 655.478 439.251 655.478 449.867C655.478 460.483 664.084 469.089 674.7 469.089Z" stroke="#F7931E" stroke-width="5.3854" stroke-miterlimit="10"/>
<path d="M453.324 498.243C463.94 498.243 472.546 489.637 472.546 479.02C472.546 468.404 463.94 459.798 453.324 459.798C442.708 459.798 434.102 468.404 434.102 479.02C434.102 489.637 442.708 498.243 453.324 498.243Z" stroke="#F7931E" stroke-width="5.3854" stroke-miterlimit="10"/>
<path d="M570.58 449.707C581.196 449.707 589.802 441.1 589.802 430.484C589.802 419.868 581.196 411.262 570.58 411.262C559.964 411.262 551.357 419.868 551.357 430.484C551.357 441.1 559.964 449.707 570.58 449.707Z" stroke="#F7931E" stroke-width="5.3854" stroke-miterlimit="10"/>
<path d="M1278.76 696.232C1289.37 696.232 1297.98 687.625 1297.98 677.009C1297.98 666.393 1289.37 657.787 1278.76 657.787C1268.14 657.787 1259.54 666.393 1259.54 677.009C1259.54 687.625 1268.14 696.232 1278.76 696.232Z" stroke="#F7931E" stroke-width="5.3854" stroke-miterlimit="10"/>
<path d="M1396.97 874.358C1407.59 874.358 1416.2 865.751 1416.2 855.135C1416.2 844.519 1407.59 835.913 1396.97 835.913C1386.36 835.913 1377.75 844.519 1377.75 855.135C1377.75 865.751 1386.36 874.358 1396.97 874.358Z" stroke="#F7931E" stroke-width="5.3854" stroke-miterlimit="10"/>
<path d="M1360.13 984.084C1370.75 984.084 1379.35 975.478 1379.35 964.862C1379.35 954.246 1370.75 945.64 1360.13 945.64C1349.52 945.64 1340.91 954.246 1340.91 964.862C1340.91 975.478 1349.52 984.084 1360.13 984.084Z" stroke="#F7931E" stroke-width="5.3854" stroke-miterlimit="10"/>
<path d="M1297.82 1161.57C1308.44 1161.57 1317.04 1152.96 1317.04 1142.35C1317.04 1131.73 1308.44 1123.12 1297.82 1123.12C1287.2 1123.12 1278.6 1131.73 1278.6 1142.35C1278.6 1152.96 1287.2 1161.57 1297.82 1161.57Z" stroke="#F7931E" stroke-width="5.3854" stroke-miterlimit="10"/>
<path d="M1249.92 1262.97C1260.54 1262.97 1269.15 1254.36 1269.15 1243.74C1269.15 1233.13 1260.54 1224.52 1249.92 1224.52C1239.31 1224.52 1230.7 1233.13 1230.7 1243.74C1230.7 1254.36 1239.31 1262.97 1249.92 1262.97Z" stroke="#F7931E" stroke-width="5.3854" stroke-miterlimit="10"/>
<path d="M1032.23 1301.41C1042.85 1301.41 1051.46 1292.8 1051.46 1282.19C1051.46 1271.57 1042.85 1262.97 1032.23 1262.97C1021.62 1262.97 1013.01 1271.57 1013.01 1282.19C1013.01 1292.8 1021.62 1301.41 1032.23 1301.41Z" stroke="#F7931E" stroke-width="5.3854" stroke-miterlimit="10"/>
<path d="M966.557 1389.51C977.174 1389.51 985.78 1380.91 985.78 1370.29C985.78 1359.67 977.174 1351.07 966.557 1351.07C955.941 1351.07 947.335 1359.67 947.335 1370.29C947.335 1380.91 955.941 1389.51 966.557 1389.51Z" stroke="#F7931E" stroke-width="5.3854" stroke-miterlimit="10"/>
<path d="M858.272 1436.93C868.888 1436.93 877.494 1428.32 877.494 1417.71C877.494 1407.09 868.888 1398.48 858.272 1398.48C847.656 1398.48 839.05 1407.09 839.05 1417.71C839.05 1428.32 847.656 1436.93 858.272 1436.93Z" stroke="#F7931E" stroke-width="5.3854" stroke-miterlimit="10"/>
<path d="M1367.82 774.882C1378.44 774.882 1387.04 766.276 1387.04 755.66C1387.04 745.044 1378.44 736.438 1367.82 736.438C1357.21 736.438 1348.6 745.044 1348.6 755.66C1348.6 766.276 1357.21 774.882 1367.82 774.882Z" stroke="#F7931E" stroke-width="5.3854" stroke-miterlimit="10"/>
<path d="M430.898 706.964C441.514 706.964 450.12 698.358 450.12 687.742C450.12 677.126 441.514 668.52 430.898 668.52C420.282 668.52 411.676 677.126 411.676 687.742C411.676 698.358 420.282 706.964 430.898 706.964Z" stroke="#F7931E" stroke-width="5.3854" stroke-miterlimit="10"/>
<path d="M343.437 760.626C354.053 760.626 362.659 752.02 362.659 741.404C362.659 730.787 354.053 722.181 343.437 722.181C332.821 722.181 324.215 730.787 324.215 741.404C324.215 752.02 332.821 760.626 343.437 760.626Z" stroke="#F7931E" stroke-width="5.3854" stroke-miterlimit="10"/>
<path d="M420.166 1159.81C430.782 1159.81 439.388 1151.2 439.388 1140.59C439.388 1129.97 430.782 1121.36 420.166 1121.36C409.549 1121.36 400.943 1129.97 400.943 1140.59C400.943 1151.2 409.549 1159.81 420.166 1159.81Z" stroke="#F7931E" stroke-width="5.3854" stroke-miterlimit="10"/>
<path d="M744.38 1394.16C754.997 1394.16 763.603 1385.55 763.603 1374.94C763.603 1364.32 754.997 1355.71 744.38 1355.71C733.764 1355.71 725.158 1364.32 725.158 1374.94C725.158 1385.55 733.764 1394.16 744.38 1394.16Z" stroke="#F7931E" stroke-width="5.3854" stroke-miterlimit="10"/>
<path d="M1297.82 607.649C1308.44 607.649 1317.04 599.043 1317.04 588.427C1317.04 577.811 1308.44 569.205 1297.82 569.205C1287.2 569.205 1278.6 577.811 1278.6 588.427C1278.6 599.043 1287.2 607.649 1297.82 607.649Z" stroke="#F7931E" stroke-width="5.3854" stroke-miterlimit="10"/>
<path d="M1262.42 1043.51C1273.04 1043.51 1281.64 1034.91 1281.64 1024.29C1281.64 1013.67 1273.04 1005.07 1262.42 1005.07C1251.8 1005.07 1243.2 1013.67 1243.2 1024.29C1243.2 1034.91 1251.8 1043.51 1262.42 1043.51Z" stroke="#F7931E" stroke-width="5.3854" stroke-miterlimit="10"/>
<path d="M1136.19 442.018C1146.81 442.018 1155.42 433.412 1155.42 422.795C1155.42 412.179 1146.81 403.573 1136.19 403.573C1125.58 403.573 1116.97 412.179 1116.97 422.795C1116.97 433.412 1125.58 442.018 1136.19 442.018Z" stroke="#F7931E" stroke-width="5.3854" stroke-miterlimit="10"/>
<path d="M1167.59 1121.04C1178.21 1121.04 1186.81 1112.44 1186.81 1101.82C1186.81 1091.2 1178.21 1082.6 1167.59 1082.6C1156.97 1082.6 1148.37 1091.2 1148.37 1101.82C1148.37 1112.44 1156.97 1121.04 1167.59 1121.04Z" stroke="#F7931E" stroke-width="5.3854" stroke-miterlimit="10"/>
<path d="M1309.03 348.149C1322.49 330.369 1346.04 328.126 1358.05 338.057C1370.86 348.63 1372.47 375.06 1353.89 391.239" stroke="#F7931E" stroke-width="8.7975" stroke-miterlimit="10"/>
<path d="M1391.53 310.986L1364.14 337.417" stroke="#F7931E" stroke-width="7.038" stroke-miterlimit="10"/>
<path d="M1415.88 357.44L1369.26 360.003" stroke="#F7931E" stroke-width="7.038" stroke-miterlimit="10"/>
<path d="M1402.42 411.743L1366.54 388.035" stroke="#F7931E" stroke-width="7.038" stroke-miterlimit="10"/>
<path d="M1339.79 288.24V327.966" stroke="#F7931E" stroke-width="7.038" stroke-miterlimit="10"/>
<path d="M1290.13 305.7L1312.88 337.417" stroke="#F7931E" stroke-width="7.038" stroke-miterlimit="10"/>
<path d="M1329.54 333.412C1329.54 333.412 1298.46 297.05 1350.2 237.301C1350.2 237.301 1390.41 283.755 1358.69 333.412" stroke="#F7931E" stroke-width="7.038" stroke-miterlimit="10"/>
<path d="M1370.7 374.74C1370.7 374.74 1407.07 405.816 1466.82 354.076C1466.82 354.076 1420.36 313.869 1370.7 345.586" stroke="#F7931E" stroke-width="7.038" stroke-miterlimit="10"/>
<path d="M1296.38 344.785C1296.38 344.785 1251.21 328.767 1266.1 251.237C1266.1 251.237 1324.09 271.42 1321.53 330.208" stroke="#F7931E" stroke-width="7.038" stroke-miterlimit="10"/>
<path d="M1371.03 378.424C1371.03 378.424 1418.12 369.614 1443.91 444.26C1443.91 444.26 1383.68 455.794 1356.45 403.573" stroke="#F7931E" stroke-width="7.038" stroke-miterlimit="10"/>
<path d="M1366.54 318.675C1366.54 318.675 1370.22 270.94 1449.04 265.333C1449.04 265.333 1444.55 326.524 1387.04 339.179" stroke="#F7931E" stroke-width="7.038" stroke-miterlimit="10"/>
<path d="M1369.26 389.797L1364.14 385.312" stroke="#F7931E" stroke-width="7.038" stroke-miterlimit="10"/>
<path d="M397.58 1397.04C384.124 1414.82 360.577 1417.06 348.563 1407.13C335.748 1396.56 334.146 1370.13 352.728 1353.95" stroke="#F7931E" stroke-width="8.7975" stroke-miterlimit="10"/>
<path d="M314.924 1434.2L342.476 1407.77" stroke="#F7931E" stroke-width="7.038" stroke-miterlimit="10"/>
<path d="M290.736 1387.75L337.19 1385.19" stroke="#F7931E" stroke-width="7.038" stroke-miterlimit="10"/>
<path d="M304.192 1333.45L340.073 1357.16" stroke="#F7931E" stroke-width="7.038" stroke-miterlimit="10"/>
<path d="M366.824 1456.95V1417.23" stroke="#F7931E" stroke-width="7.038" stroke-miterlimit="10"/>
<path d="M416.481 1439.49L393.735 1407.77" stroke="#F7931E" stroke-width="7.038" stroke-miterlimit="10"/>
<path d="M377.076 1411.78C377.076 1411.78 408.152 1448.14 356.412 1507.89C356.412 1507.89 316.206 1461.44 347.922 1411.78" stroke="#F7931E" stroke-width="7.038" stroke-miterlimit="10"/>
<path d="M335.748 1370.45C335.748 1370.45 299.386 1339.37 239.637 1391.11C239.637 1391.11 286.091 1431.32 335.748 1399.6" stroke="#F7931E" stroke-width="7.038" stroke-miterlimit="10"/>
<path d="M410.234 1400.41C410.234 1400.41 455.407 1416.42 440.509 1493.95C440.509 1493.95 382.522 1473.77 385.085 1414.98" stroke="#F7931E" stroke-width="7.038" stroke-miterlimit="10"/>
<path d="M335.428 1366.77C335.428 1366.77 288.333 1375.58 262.543 1300.93C262.543 1300.93 322.773 1289.4 350.005 1341.62" stroke="#F7931E" stroke-width="7.038" stroke-miterlimit="10"/>
<path d="M340.073 1426.52C340.073 1426.52 336.389 1474.25 257.578 1479.86C257.578 1479.86 262.063 1418.67 319.569 1406.01" stroke="#F7931E" stroke-width="7.038" stroke-miterlimit="10"/>
<path d="M337.19 1355.39L342.476 1359.88" stroke="#F7931E" stroke-width="7.038" stroke-miterlimit="10"/>
<path d="M1329.06 1366.61C1342.51 1384.39 1366.06 1386.63 1378.07 1376.7C1390.89 1366.13 1392.49 1339.7 1373.91 1323.52" stroke="#F7931E" stroke-width="8.7975" stroke-miterlimit="10"/>
<path d="M1411.71 1403.77L1384.16 1377.34" stroke="#F7931E" stroke-width="7.038" stroke-miterlimit="10"/>
<path d="M1435.9 1357.32L1389.29 1354.75" stroke="#F7931E" stroke-width="7.038" stroke-miterlimit="10"/>
<path d="M1422.44 1303.01L1386.56 1326.72" stroke="#F7931E" stroke-width="7.038" stroke-miterlimit="10"/>
<path d="M1359.81 1426.52V1386.95" stroke="#F7931E" stroke-width="7.038" stroke-miterlimit="10"/>
<path d="M1310.15 1409.06L1332.9 1377.34" stroke="#F7931E" stroke-width="7.038" stroke-miterlimit="10"/>
<path d="M1349.56 1381.34C1349.56 1381.34 1318.48 1417.71 1370.22 1477.45C1370.22 1477.45 1410.43 1431 1378.71 1381.34" stroke="#F7931E" stroke-width="7.038" stroke-miterlimit="10"/>
<path d="M1390.89 1340.02C1390.89 1340.02 1427.25 1308.94 1487 1360.68C1487 1360.68 1440.55 1400.89 1390.89 1369.17" stroke="#F7931E" stroke-width="7.038" stroke-miterlimit="10"/>
<path d="M1316.4 1369.97C1316.4 1369.97 1271.23 1385.99 1286.13 1463.52C1286.13 1463.52 1344.11 1443.33 1341.55 1384.55" stroke="#F7931E" stroke-width="7.038" stroke-miterlimit="10"/>
<path d="M1391.05 1336.33C1391.05 1336.33 1438.14 1345.14 1463.93 1270.5C1463.93 1270.5 1403.7 1258.96 1376.47 1311.18" stroke="#F7931E" stroke-width="7.038" stroke-miterlimit="10"/>
<path d="M1386.56 1396.08C1386.56 1396.08 1390.25 1443.82 1469.06 1449.42C1469.06 1449.42 1464.57 1388.23 1407.07 1375.58" stroke="#F7931E" stroke-width="7.038" stroke-miterlimit="10"/>
<path d="M1389.29 1324.96L1384.16 1329.44" stroke="#F7931E" stroke-width="7.038" stroke-miterlimit="10"/>
<path d="M381.401 360.964C367.945 343.183 344.398 340.941 332.384 350.872C319.569 361.445 317.968 387.875 336.549 404.054" stroke="#F7931E" stroke-width="8.7975" stroke-miterlimit="10"/>
<path d="M298.745 323.801L326.137 350.232" stroke="#F7931E" stroke-width="7.038" stroke-miterlimit="10"/>
<path d="M274.397 370.415L321.011 372.818" stroke="#F7931E" stroke-width="7.038" stroke-miterlimit="10"/>
<path d="M287.853 424.718L323.734 400.85" stroke="#F7931E" stroke-width="7.038" stroke-miterlimit="10"/>
<path d="M350.485 301.215V340.781" stroke="#F7931E" stroke-width="7.038" stroke-miterlimit="10"/>
<path d="M400.143 318.515L377.396 350.232" stroke="#F7931E" stroke-width="7.038" stroke-miterlimit="10"/>
<path d="M360.737 346.387C360.737 346.387 391.813 310.025 340.073 250.276C340.073 250.276 299.866 296.73 331.583 346.387" stroke="#F7931E" stroke-width="7.038" stroke-miterlimit="10"/>
<path d="M319.569 387.555C319.569 387.555 283.207 418.631 223.458 366.891C223.458 366.891 269.912 326.684 319.569 358.401" stroke="#F7931E" stroke-width="7.038" stroke-miterlimit="10"/>
<path d="M393.895 357.6C393.895 357.6 439.067 341.582 424.17 264.052C424.17 264.052 366.183 284.235 368.746 343.023" stroke="#F7931E" stroke-width="7.038" stroke-miterlimit="10"/>
<path d="M319.249 391.399C319.249 391.399 272.155 382.589 246.365 457.235C246.365 457.235 306.594 468.769 333.826 416.548" stroke="#F7931E" stroke-width="7.038" stroke-miterlimit="10"/>
<path d="M323.734 331.65C323.734 331.65 320.05 283.915 241.239 278.308C241.239 278.308 245.724 339.499 303.23 352.154" stroke="#F7931E" stroke-width="7.038" stroke-miterlimit="10"/>
<path d="M321.011 402.772L326.137 398.127" stroke="#F7931E" stroke-width="7.038" stroke-miterlimit="10"/>
<path d="M892.071 1556.91C895.115 1579.01 880.057 1597.27 864.679 1598.71C848.02 1600.32 828.317 1582.7 830.079 1558.19" stroke="#F7931E" stroke-width="8.7975" stroke-miterlimit="10"/>
<path d="M859.874 1641.48L860.675 1603.52" stroke="#F7931E" stroke-width="7.038" stroke-miterlimit="10"/>
<path d="M809.896 1625.79L840.972 1591.19" stroke="#F7931E" stroke-width="7.038" stroke-miterlimit="10"/>
<path d="M780.903 1577.89L823.192 1569.4" stroke="#F7931E" stroke-width="7.038" stroke-miterlimit="10"/>
<path d="M912.575 1620.98L884.542 1592.95" stroke="#F7931E" stroke-width="7.038" stroke-miterlimit="10"/>
<path d="M935.321 1573.57L896.877 1567.16" stroke="#F7931E" stroke-width="7.038" stroke-miterlimit="10"/>
<path d="M887.907 1581.74C887.907 1581.74 935.642 1585.42 941.248 1664.23C941.248 1664.23 880.057 1659.75 867.403 1602.24" stroke="#F7931E" stroke-width="7.038" stroke-miterlimit="10"/>
<path d="M829.599 1581.74C829.599 1581.74 781.864 1585.42 776.258 1664.23C776.258 1664.23 837.448 1659.75 850.103 1602.24" stroke="#F7931E" stroke-width="7.038" stroke-miterlimit="10"/>
<path d="M903.284 1550.34C903.284 1550.34 946.534 1529.67 990.745 1595.03C990.745 1595.03 935.482 1621.78 895.756 1578.37" stroke="#F7931E" stroke-width="7.038" stroke-miterlimit="10"/>
<path d="M826.716 1579.33C826.716 1579.33 799.644 1618.9 728.522 1584.3C728.522 1584.3 762.962 1533.52 819.187 1551.3" stroke="#F7931E" stroke-width="7.038" stroke-miterlimit="10"/>
<path d="M872.048 1618.42C872.048 1618.42 903.124 1654.78 851.384 1714.53C851.384 1714.53 811.178 1668.07 842.894 1618.42" stroke="#F7931E" stroke-width="7.038" stroke-miterlimit="10"/>
<path d="M815.983 175.63C812.94 153.524 827.997 135.263 843.375 133.821C860.034 132.22 879.737 149.84 877.975 174.348" stroke="#F7931E" stroke-width="8.7975" stroke-miterlimit="10"/>
<path d="M848.02 91.0519L847.38 129.016" stroke="#F7931E" stroke-width="7.038" stroke-miterlimit="10"/>
<path d="M898.158 106.75L866.922 141.35" stroke="#F7931E" stroke-width="7.038" stroke-miterlimit="10"/>
<path d="M926.992 154.645L884.863 163.135" stroke="#F7931E" stroke-width="7.038" stroke-miterlimit="10"/>
<path d="M795.48 111.556L823.352 139.588" stroke="#F7931E" stroke-width="7.038" stroke-miterlimit="10"/>
<path d="M772.573 158.97L811.018 165.378" stroke="#F7931E" stroke-width="7.038" stroke-miterlimit="10"/>
<path d="M820.148 150.801C820.148 150.801 772.413 147.117 766.807 68.3055C766.807 68.3055 827.997 72.7907 840.652 130.297" stroke="#F7931E" stroke-width="7.038" stroke-miterlimit="10"/>
<path d="M878.456 150.801C878.456 150.801 926.191 147.117 931.797 68.3055C931.797 68.3055 870.607 72.7907 857.952 130.297" stroke="#F7931E" stroke-width="7.038" stroke-miterlimit="10"/>
<path d="M804.61 182.197C804.61 182.197 761.36 202.861 717.149 137.506C717.149 137.506 772.413 110.755 812.139 154.165" stroke="#F7931E" stroke-width="7.038" stroke-miterlimit="10"/>
<path d="M881.339 153.204C881.339 153.204 908.41 113.638 979.532 148.238C979.532 148.238 945.093 199.017 888.868 181.236" stroke="#F7931E" stroke-width="7.038" stroke-miterlimit="10"/>
<path d="M835.846 114.119C835.846 114.119 804.771 77.7565 856.51 18.0074C856.51 18.0074 896.717 64.4612 865 114.119" stroke="#F7931E" stroke-width="7.038" stroke-miterlimit="10"/>
<path d="M888.067 162.495L881.179 162.975" stroke="#F7931E" stroke-width="7.038" stroke-miterlimit="10"/>
<path d="M157.622 850.81C135.517 847.767 117.256 862.824 115.814 878.202C114.212 894.861 131.832 914.564 156.341 912.802" stroke="#F7931E" stroke-width="8.7975" stroke-miterlimit="10"/>
<path d="M73.0444 883.008L111.008 882.207" stroke="#F7931E" stroke-width="7.038" stroke-miterlimit="10"/>
<path d="M88.5825 932.985L123.343 901.909" stroke="#F7931E" stroke-width="7.038" stroke-miterlimit="10"/>
<path d="M136.638 961.979L145.128 919.69" stroke="#F7931E" stroke-width="7.038" stroke-miterlimit="10"/>
<path d="M93.5481 830.307L121.581 858.339" stroke="#F7931E" stroke-width="7.038" stroke-miterlimit="10"/>
<path d="M140.963 807.56L147.37 846.005" stroke="#F7931E" stroke-width="7.038" stroke-miterlimit="10"/>
<path d="M132.793 854.975C132.793 854.975 129.109 807.24 50.2981 801.633C50.2981 801.633 54.7833 862.824 112.29 875.479" stroke="#F7931E" stroke-width="7.038" stroke-miterlimit="10"/>
<path d="M132.793 913.282C132.793 913.282 129.109 961.018 50.2981 966.624C50.2981 966.624 54.7833 905.433 112.29 892.779" stroke="#F7931E" stroke-width="7.038" stroke-miterlimit="10"/>
<path d="M164.19 839.597C164.19 839.597 184.854 796.347 119.498 752.136C119.498 752.136 92.7471 807.4 136.157 847.126" stroke="#F7931E" stroke-width="7.038" stroke-miterlimit="10"/>
<path d="M135.196 916.166C135.196 916.166 95.6306 943.237 130.231 1014.36C130.231 1014.36 181.009 979.919 163.229 923.694" stroke="#F7931E" stroke-width="7.038" stroke-miterlimit="10"/>
<path d="M96.1111 870.833C96.1111 870.833 59.7491 839.758 0 891.497C0 891.497 46.4537 931.704 96.1111 899.987" stroke="#F7931E" stroke-width="7.038" stroke-miterlimit="10"/>
<path d="M144.487 923.054L144.968 916.166" stroke="#F7931E" stroke-width="7.038" stroke-miterlimit="10"/>
<path d="M1538.9 891.818C1561 894.861 1579.27 879.804 1580.71 864.426C1582.31 847.767 1564.69 828.064 1540.18 829.826" stroke="#F7931E" stroke-width="8.7975" stroke-miterlimit="10"/>
<path d="M1623.48 859.62L1585.51 860.421" stroke="#F7931E" stroke-width="7.038" stroke-miterlimit="10"/>
<path d="M1607.94 809.643L1573.18 840.719" stroke="#F7931E" stroke-width="7.038" stroke-miterlimit="10"/>
<path d="M1559.88 780.809L1551.39 822.938" stroke="#F7931E" stroke-width="7.038" stroke-miterlimit="10"/>
<path d="M1602.97 912.321L1574.94 884.289" stroke="#F7931E" stroke-width="7.038" stroke-miterlimit="10"/>
<path d="M1555.56 935.068L1549.15 896.623" stroke="#F7931E" stroke-width="7.038" stroke-miterlimit="10"/>
<path d="M1563.73 887.653C1563.73 887.653 1567.41 935.388 1646.22 940.995C1646.22 940.995 1641.74 879.804 1584.23 867.149" stroke="#F7931E" stroke-width="7.038" stroke-miterlimit="10"/>
<path d="M1563.73 829.345C1563.73 829.345 1567.41 781.61 1646.22 776.004C1646.22 776.004 1641.74 837.195 1584.23 849.849" stroke="#F7931E" stroke-width="7.038" stroke-miterlimit="10"/>
<path d="M1532.33 903.191C1532.33 903.191 1511.67 946.441 1577.02 990.652C1577.02 990.652 1603.77 935.388 1560.36 895.662" stroke="#F7931E" stroke-width="7.038" stroke-miterlimit="10"/>
<path d="M1561.32 826.462C1561.32 826.462 1600.89 799.391 1566.29 728.269C1566.29 728.269 1515.51 762.708 1533.29 818.933" stroke="#F7931E" stroke-width="7.038" stroke-miterlimit="10"/>
<path d="M1600.41 871.955C1600.41 871.955 1636.77 903.031 1696.52 851.291C1696.52 851.291 1650.07 811.084 1600.41 842.801" stroke="#F7931E" stroke-width="7.038" stroke-miterlimit="10"/>
<path d="M1552.03 819.734L1551.55 826.622" stroke="#F7931E" stroke-width="7.038" stroke-miterlimit="10"/>
<path d="M1145.16 143.112L1129.95 178.032" stroke="#F7931E" stroke-width="7.038" stroke-miterlimit="10"/>
<path d="M1185.37 176.751L1143.24 196.934" stroke="#F7931E" stroke-width="7.038" stroke-miterlimit="10"/>
<path d="M1088.62 141.991L1103.84 178.513" stroke="#F7931E" stroke-width="7.038" stroke-miterlimit="10"/>
<path d="M1049.37 177.071L1082.53 197.575" stroke="#F7931E" stroke-width="7.038" stroke-miterlimit="10"/>
<path d="M1096.47 187.644C1096.47 187.644 1053.7 165.858 1078.69 91.0519C1078.69 91.0519 1133.47 118.604 1123.22 176.591" stroke="#F7931E" stroke-width="7.038" stroke-miterlimit="10"/>
<path d="M1150.29 209.909C1150.29 209.909 1195.94 224.806 1231.18 154.165C1231.18 154.165 1172.88 134.943 1139.24 183.158" stroke="#F7931E" stroke-width="7.038" stroke-miterlimit="10"/>
<path d="M1070.04 210.71C1070.04 210.71 1022.14 213.273 1006.28 135.904C1006.28 135.904 1067.63 132.38 1087.66 187.644" stroke="#F7931E" stroke-width="7.038" stroke-miterlimit="10"/>
<path d="M1152.05 213.273C1152.05 213.273 1192.26 187.163 1244.64 246.271C1244.64 246.271 1193.38 280.07 1148.21 242.106" stroke="#F7931E" stroke-width="7.038" stroke-miterlimit="10"/>
<path d="M1124.98 159.771C1124.98 159.771 1110.08 114.119 1180.72 78.8778C1180.72 78.8778 1199.95 137.185 1151.73 170.824" stroke="#F7931E" stroke-width="7.038" stroke-miterlimit="10"/>
<path d="M642.503 1526.95C636.896 1548.58 615.912 1559.63 601.175 1555.14C585.156 1550.34 573.623 1526.47 584.676 1504.53" stroke="#F7931E" stroke-width="8.7975" stroke-miterlimit="10"/>
<path d="M580.351 1592.79L595.568 1557.87" stroke="#F7931E" stroke-width="7.038" stroke-miterlimit="10"/>
<path d="M540.145 1559.15L582.113 1538.97" stroke="#F7931E" stroke-width="7.038" stroke-miterlimit="10"/>
<path d="M531.815 1503.89L573.944 1512.05" stroke="#F7931E" stroke-width="7.038" stroke-miterlimit="10"/>
<path d="M636.896 1593.91L621.679 1557.39" stroke="#F7931E" stroke-width="7.038" stroke-miterlimit="10"/>
<path d="M676.142 1558.83L642.983 1538.32" stroke="#F7931E" stroke-width="7.038" stroke-miterlimit="10"/>
<path d="M629.047 1548.26C629.047 1548.26 671.817 1570.04 646.828 1644.85C646.828 1644.85 592.044 1617.3 602.296 1559.31" stroke="#F7931E" stroke-width="7.038" stroke-miterlimit="10"/>
<path d="M575.225 1525.99C575.225 1525.99 529.572 1511.09 494.332 1581.74C494.332 1581.74 552.639 1600.96 586.278 1552.74" stroke="#F7931E" stroke-width="7.038" stroke-miterlimit="10"/>
<path d="M655.318 1525.19C655.318 1525.19 703.213 1522.63 719.071 1600C719.071 1600 657.72 1603.52 637.697 1548.26" stroke="#F7931E" stroke-width="7.038" stroke-miterlimit="10"/>
<path d="M573.463 1522.63C573.463 1522.63 533.257 1548.74 480.876 1489.63C480.876 1489.63 532.135 1455.83 577.307 1493.79" stroke="#F7931E" stroke-width="7.038" stroke-miterlimit="10"/>
<path d="M600.534 1575.97C600.534 1575.97 615.431 1621.62 544.79 1656.86C544.79 1656.86 525.568 1598.55 573.783 1564.92" stroke="#F7931E" stroke-width="7.038" stroke-miterlimit="10"/>
<path d="M570.74 1511.41L577.307 1513.66" stroke="#F7931E" stroke-width="7.038" stroke-miterlimit="10"/>
<path d="M1483.96 1139.62C1503.34 1151 1525.76 1143.95 1533.13 1130.33C1540.98 1115.6 1532.33 1090.61 1508.94 1082.76" stroke="#F7931E" stroke-width="8.7975" stroke-miterlimit="10"/>
<path d="M1574.46 1142.19L1538.9 1128.41" stroke="#F7931E" stroke-width="7.038" stroke-miterlimit="10"/>
<path d="M1579.11 1089.97L1535.05 1105.5" stroke="#F7931E" stroke-width="7.038" stroke-miterlimit="10"/>
<path d="M1545.95 1044.95L1521.76 1080.68" stroke="#F7931E" stroke-width="7.038" stroke-miterlimit="10"/>
<path d="M1535.21 1183.03L1520.16 1146.51" stroke="#F7931E" stroke-width="7.038" stroke-miterlimit="10"/>
<path d="M1482.67 1185.92L1491.64 1147.95" stroke="#F7931E" stroke-width="7.038" stroke-miterlimit="10"/>
<path d="M1508.46 1145.23C1508.46 1145.23 1493.57 1190.88 1564.21 1226.12C1564.21 1226.12 1583.43 1167.82 1535.21 1134.18" stroke="#F7931E" stroke-width="7.038" stroke-miterlimit="10"/>
<path d="M1530.89 1091.41C1530.89 1091.41 1552.67 1048.64 1627.48 1073.63C1627.48 1073.63 1599.93 1128.41 1541.94 1118.16" stroke="#F7931E" stroke-width="7.038" stroke-miterlimit="10"/>
<path d="M1473.54 1147.47C1473.54 1147.47 1437.98 1179.51 1481.39 1245.51C1481.39 1245.51 1527.21 1204.66 1502.38 1151.32" stroke="#F7931E" stroke-width="7.038" stroke-miterlimit="10"/>
<path d="M1529.61 1087.72C1529.61 1087.72 1576.54 1077.79 1571.74 998.981C1571.74 998.981 1511.67 1011.48 1506.54 1070.1" stroke="#F7931E" stroke-width="7.038" stroke-miterlimit="10"/>
<path d="M1548.35 1144.75C1548.35 1144.75 1570.13 1187.52 1644.94 1162.53C1644.94 1162.53 1617.39 1107.75 1559.4 1118" stroke="#F7931E" stroke-width="7.038" stroke-miterlimit="10"/>
<path d="M1523.68 1077.95L1520.64 1084.2" stroke="#F7931E" stroke-width="7.038" stroke-miterlimit="10"/>
<path d="M219.294 573.85C199.911 562.477 177.485 569.525 170.117 583.141C162.268 597.878 170.918 622.867 194.305 630.716" stroke="#F7931E" stroke-width="8.7975" stroke-miterlimit="10"/>
<path d="M128.629 571.287L164.19 585.063" stroke="#F7931E" stroke-width="7.038" stroke-miterlimit="10"/>
<path d="M123.983 623.507L168.034 607.969" stroke="#F7931E" stroke-width="7.038" stroke-miterlimit="10"/>
<path d="M157.302 668.519L181.33 632.798" stroke="#F7931E" stroke-width="7.038" stroke-miterlimit="10"/>
<path d="M167.874 530.44L183.092 566.962" stroke="#F7931E" stroke-width="7.038" stroke-miterlimit="10"/>
<path d="M220.415 527.557L211.605 565.52" stroke="#F7931E" stroke-width="7.038" stroke-miterlimit="10"/>
<path d="M194.625 568.244C194.625 568.244 209.522 522.591 138.881 487.35C138.881 487.35 119.658 545.657 167.874 579.296" stroke="#F7931E" stroke-width="7.038" stroke-miterlimit="10"/>
<path d="M172.359 622.066C172.359 622.066 150.574 664.835 75.7676 639.846C75.7676 639.846 103.319 585.063 161.306 595.315" stroke="#F7931E" stroke-width="7.038" stroke-miterlimit="10"/>
<path d="M229.706 566.001C229.706 566.001 265.267 533.964 221.856 467.968C221.856 467.968 176.043 508.815 200.872 562.157" stroke="#F7931E" stroke-width="7.038" stroke-miterlimit="10"/>
<path d="M173.481 625.75C173.481 625.75 126.546 635.682 131.352 714.493C131.352 714.493 191.421 701.998 196.547 643.37" stroke="#F7931E" stroke-width="7.038" stroke-miterlimit="10"/>
<path d="M154.739 568.724C154.739 568.724 132.954 525.955 58.1472 550.944C58.1472 550.944 85.6991 605.727 143.686 595.475" stroke="#F7931E" stroke-width="7.038" stroke-miterlimit="10"/>
<path d="M179.407 635.521L182.451 629.274" stroke="#F7931E" stroke-width="7.038" stroke-miterlimit="10"/>
<path d="M1160.38 1485.3C1171.75 1504.69 1164.71 1527.11 1151.09 1534.48C1136.35 1542.33 1111.36 1533.68 1103.52 1510.29" stroke="#F7931E" stroke-width="8.7975" stroke-miterlimit="10"/>
<path d="M1163.1 1575.81L1149.17 1540.41" stroke="#F7931E" stroke-width="7.038" stroke-miterlimit="10"/>
<path d="M1110.88 1580.45L1126.42 1536.4" stroke="#F7931E" stroke-width="7.038" stroke-miterlimit="10"/>
<path d="M1065.87 1547.3L1101.59 1523.27" stroke="#F7931E" stroke-width="7.038" stroke-miterlimit="10"/>
<path d="M1203.95 1536.72L1167.27 1521.51" stroke="#F7931E" stroke-width="7.038" stroke-miterlimit="10"/>
<path d="M1166.15 1509.97C1166.15 1509.97 1211.8 1495.07 1247.04 1565.72C1247.04 1565.72 1188.73 1584.94 1155.1 1536.72" stroke="#F7931E" stroke-width="7.038" stroke-miterlimit="10"/>
<path d="M1112.17 1532.24C1112.17 1532.24 1069.4 1554.02 1094.39 1628.83C1094.39 1628.83 1149.17 1601.28 1138.92 1543.29" stroke="#F7931E" stroke-width="7.038" stroke-miterlimit="10"/>
<path d="M1168.39 1474.89C1168.39 1474.89 1200.43 1439.33 1266.42 1482.74C1266.42 1482.74 1225.58 1528.55 1172.24 1503.72" stroke="#F7931E" stroke-width="7.038" stroke-miterlimit="10"/>
<path d="M1108.64 1530.96C1108.64 1530.96 1098.71 1577.89 1019.9 1573.09C1019.9 1573.09 1032.39 1513.02 1091.02 1507.89" stroke="#F7931E" stroke-width="7.038" stroke-miterlimit="10"/>
<path d="M1165.51 1549.7C1165.51 1549.7 1208.28 1571.48 1183.29 1646.29C1183.29 1646.29 1128.5 1618.74 1138.76 1560.75" stroke="#F7931E" stroke-width="7.038" stroke-miterlimit="10"/>
<path d="M561.449 238.422C550.076 219.04 557.124 196.614 570.74 189.245C585.477 181.396 610.466 190.046 618.315 213.433" stroke="#F7931E" stroke-width="8.7975" stroke-miterlimit="10"/>
<path d="M558.886 147.757L572.662 183.319" stroke="#F7931E" stroke-width="7.038" stroke-miterlimit="10"/>
<path d="M611.107 143.112L595.569 187.163" stroke="#F7931E" stroke-width="7.038" stroke-miterlimit="10"/>
<path d="M656.119 176.431L620.397 200.458" stroke="#F7931E" stroke-width="7.038" stroke-miterlimit="10"/>
<path d="M518.039 187.003L554.561 202.06" stroke="#F7931E" stroke-width="7.038" stroke-miterlimit="10"/>
<path d="M515.156 239.544L553.119 230.733" stroke="#F7931E" stroke-width="7.038" stroke-miterlimit="10"/>
<path d="M555.842 213.754C555.842 213.754 510.19 228.651 474.949 158.009C474.949 158.009 533.256 138.787 566.895 187.003" stroke="#F7931E" stroke-width="7.038" stroke-miterlimit="10"/>
<path d="M609.665 191.488C609.665 191.488 652.434 169.703 627.445 94.8964C627.445 94.8964 572.662 122.448 582.914 180.435" stroke="#F7931E" stroke-width="7.038" stroke-miterlimit="10"/>
<path d="M553.6 248.674C553.6 248.674 521.563 284.235 455.567 240.825C455.567 240.825 496.414 195.012 549.756 219.841" stroke="#F7931E" stroke-width="7.038" stroke-miterlimit="10"/>
<path d="M613.349 192.609C613.349 192.609 623.281 145.675 702.092 150.481C702.092 150.481 689.597 210.55 630.969 215.676" stroke="#F7931E" stroke-width="7.038" stroke-miterlimit="10"/>
<path d="M556.323 173.868C556.323 173.868 513.554 152.082 538.543 77.276C538.543 77.276 593.326 104.828 583.074 162.815" stroke="#F7931E" stroke-width="7.038" stroke-miterlimit="10"/>
<path d="M623.12 198.536L616.873 201.58" stroke="#F7931E" stroke-width="7.038" stroke-miterlimit="10"/>
<path d="M211.765 1113.99C190.14 1119.6 179.087 1140.59 183.572 1155.32C188.378 1171.34 212.245 1182.87 234.191 1171.82" stroke="#F7931E" stroke-width="8.7975" stroke-miterlimit="10"/>
<path d="M145.768 1176.15L180.689 1160.93" stroke="#F7931E" stroke-width="7.038" stroke-miterlimit="10"/>
<path d="M179.407 1216.35L199.591 1174.38" stroke="#F7931E" stroke-width="7.038" stroke-miterlimit="10"/>
<path d="M234.831 1224.68L226.502 1182.55" stroke="#F7931E" stroke-width="7.038" stroke-miterlimit="10"/>
<path d="M144.647 1119.6L181.33 1134.82" stroke="#F7931E" stroke-width="7.038" stroke-miterlimit="10"/>
<path d="M179.728 1080.36L200.391 1113.51" stroke="#F7931E" stroke-width="7.038" stroke-miterlimit="10"/>
<path d="M190.3 1127.45C190.3 1127.45 168.515 1084.68 93.7083 1109.67C93.7083 1109.67 121.26 1164.45 179.247 1154.2" stroke="#F7931E" stroke-width="7.038" stroke-miterlimit="10"/>
<path d="M212.566 1181.27C212.566 1181.27 227.463 1226.92 156.821 1262.17C156.821 1262.17 137.599 1203.86 185.815 1170.22" stroke="#F7931E" stroke-width="7.038" stroke-miterlimit="10"/>
<path d="M213.527 1101.18C213.527 1101.18 216.09 1053.28 138.72 1037.43C138.72 1037.43 135.196 1098.78 190.46 1118.8" stroke="#F7931E" stroke-width="7.038" stroke-miterlimit="10"/>
<path d="M216.09 1183.03C216.09 1183.03 189.98 1223.24 249.088 1275.62C249.088 1275.62 282.887 1224.36 244.923 1179.19" stroke="#F7931E" stroke-width="7.038" stroke-miterlimit="10"/>
<path d="M162.588 1155.96C162.588 1155.96 116.935 1141.07 81.6943 1211.71C81.6943 1211.71 140.002 1230.93 173.641 1182.71" stroke="#F7931E" stroke-width="7.038" stroke-miterlimit="10"/>
<path d="M227.143 1185.76L224.9 1179.19" stroke="#F7931E" stroke-width="7.038" stroke-miterlimit="10"/>
<path d="M1494.53 625.109C1516.15 619.503 1527.21 598.519 1522.72 583.782C1517.91 567.763 1494.05 556.23 1472.1 567.282" stroke="#F7931E" stroke-width="8.7975" stroke-miterlimit="10"/>
<path d="M1560.36 562.958L1525.44 578.335" stroke="#F7931E" stroke-width="7.038" stroke-miterlimit="10"/>
<path d="M1526.72 522.751L1506.54 564.88" stroke="#F7931E" stroke-width="7.038" stroke-miterlimit="10"/>
<path d="M1471.46 514.421L1479.63 556.71" stroke="#F7931E" stroke-width="7.038" stroke-miterlimit="10"/>
<path d="M1561.49 619.503L1524.96 604.445" stroke="#F7931E" stroke-width="7.038" stroke-miterlimit="10"/>
<path d="M1526.4 658.748L1505.9 625.75" stroke="#F7931E" stroke-width="7.038" stroke-miterlimit="10"/>
<path d="M1515.83 611.814C1515.83 611.814 1537.62 654.583 1612.42 629.595C1612.42 629.595 1584.87 574.811 1526.88 585.063" stroke="#F7931E" stroke-width="7.038" stroke-miterlimit="10"/>
<path d="M1493.57 557.832C1493.57 557.832 1478.67 512.179 1549.31 476.938C1549.31 476.938 1568.53 535.245 1520.32 568.884" stroke="#F7931E" stroke-width="7.038" stroke-miterlimit="10"/>
<path d="M1492.77 638.084C1492.77 638.084 1490.2 685.98 1567.57 701.838C1567.57 701.838 1571.1 640.487 1515.83 620.464" stroke="#F7931E" stroke-width="7.038" stroke-miterlimit="10"/>
<path d="M1490.2 556.23C1490.2 556.23 1516.31 516.023 1457.2 463.643C1457.2 463.643 1423.41 514.902 1461.37 560.074" stroke="#F7931E" stroke-width="7.038" stroke-miterlimit="10"/>
<path d="M1543.7 583.301C1543.7 583.301 1589.36 598.198 1624.6 527.557C1624.6 527.557 1566.29 508.334 1532.65 556.55" stroke="#F7931E" stroke-width="7.038" stroke-miterlimit="10"/>
<path d="M1478.99 553.507L1481.23 559.914" stroke="#F7931E" stroke-width="7.038" stroke-miterlimit="10"/>
<path d="M1081.09 210.87C1086.7 189.245 1107.68 178.193 1122.42 182.678C1138.44 187.483 1149.97 211.351 1138.92 233.296" stroke="#F7931E" stroke-width="8.7975" stroke-miterlimit="10"/>
<path d="M847.7 1508.05C1201.04 1508.05 1487.48 1221.61 1487.48 868.271C1487.48 514.93 1201.04 228.491 847.7 228.491C494.36 228.491 207.92 514.93 207.92 868.271C207.92 1221.61 494.36 1508.05 847.7 1508.05Z" stroke="#F7931E" stroke-width="10.557" stroke-miterlimit="10"/>
</g>
<defs>
<clipPath id="clip0_185_3378">
<rect width="1730" height="1730" fill="white"/>
</clipPath>
</defs>
</svg>
