<svg width="111" height="47" viewBox="0 0 111 47" fill="none" xmlns="http://www.w3.org/2000/svg">
<g clip-path="url(#clip0_409_1011)">
<path d="M36.743 21.5786C35.092 23.9242 33.6129 26.3863 32.3176 28.9455C30.0045 33.4455 27.7632 37.9828 25.4845 42.4999C25.0942 43.2719 24.7498 44.1817 23.6822 44.1358C22.6146 44.0899 22.3018 43.1916 21.9603 42.3966C19.2856 36.2551 16.6367 30.1021 13.9476 23.9663C13.3392 22.5715 12.6102 21.2284 11.9042 19.7935C11.5283 20.2728 11.6545 20.6918 11.6574 21.0792C11.6574 26.773 11.6718 32.4659 11.7005 38.1578C11.7005 40.7149 12.1596 41.2946 14.6277 41.9805C15.2017 42.1412 15.6465 42.3852 15.7585 43.0108C15.8164 43.282 15.7928 43.5644 15.6907 43.8222C15.5886 44.0801 15.4124 44.302 15.1845 44.4601C14.4871 44.9939 13.7294 45.4243 12.8082 45.4014C10.2002 45.3094 7.58896 45.413 4.99642 45.7113C3.93597 45.8172 2.87575 45.5086 2.03764 44.8504C1.82216 44.7169 1.65321 44.52 1.55405 44.2867C1.45488 44.0535 1.43031 43.7952 1.4837 43.5475C1.5985 42.9735 2.05772 42.9476 2.53412 42.8759C4.41389 42.5889 5.17149 41.9375 5.21454 40.0347C5.31211 35.8045 5.25476 31.5657 5.26337 27.3327C5.26337 26.7271 4.91037 26.3282 4.53154 25.9207C3.3635 24.6694 2.96741 23.1599 3.61887 21.6159C5.30923 17.6267 5.46996 13.5286 5.07392 9.27541C4.82137 6.55764 3.63901 4.65203 1.30293 3.34624C0.757656 3.03916 0.0315774 2.8268 0.154982 2.00889C0.278387 1.19097 0.975766 1.14792 1.58992 0.969992C3.63327 0.396017 5.75407 0.218071 7.65393 1.09912C10.6386 2.4824 13.5487 1.96009 16.4903 1.26845C18.3988 0.820753 20.1264 1.08191 21.7221 2.1782C22.8126 2.93011 22.936 3.59018 22.0091 4.52863C21.1682 5.38959 21.1309 6.2649 21.5757 7.26935C23.4411 11.4785 25.3094 15.6877 27.1806 19.8968C27.3614 20.3015 27.5221 20.8238 28.0588 20.8467C28.5954 20.8697 28.7734 20.3216 28.98 19.9399C31.3218 15.6121 33.654 11.2767 35.9767 6.93358C36.499 5.96644 36.3699 5.08538 35.5548 4.3507C35.1502 3.98048 34.7169 3.64759 34.2893 3.3032C33.7153 2.84402 33.7526 2.51684 34.4786 2.28438C37.1247 1.44064 39.7707 1.07042 42.322 2.53406C43.5963 3.26301 44.6868 3.13961 45.8921 2.34753C48.0991 0.889632 50.3606 0.984342 51.962 2.47668C52.4728 2.95308 52.932 3.48112 52.7368 4.25599C52.5589 4.96484 51.9189 5.08539 51.342 5.18584C50.0248 5.40969 49.425 6.27926 49.4106 7.48174C49.3676 10.8969 49.3877 14.312 49.4365 17.7243C49.4594 19.2511 50.1195 20.4909 51.2818 21.5413C52.4441 22.5916 52.3494 23.1685 50.9948 23.9405C49.9473 24.5374 49.5599 25.3754 49.5599 26.5234C49.5828 30.5412 49.5598 34.5389 49.6144 38.5481C49.6459 40.7005 50.3835 41.2917 52.4842 41.0535C53.7384 40.9129 54.0943 41.3405 53.6954 42.5516C52.8344 45.1345 49.9157 46.5694 46.9626 45.8405C46.4295 45.7101 45.9059 45.5433 45.3957 45.3411C44.6289 45.0311 43.806 44.8842 42.9793 44.9099C42.1526 44.9356 41.3404 45.1333 40.5944 45.4904C38.4534 46.4374 36.3125 46.2537 34.1859 45.4358C33.8125 45.3205 33.4729 45.1157 33.1968 44.839C32.9207 44.5624 32.7164 44.2225 32.6018 43.8488C32.2775 42.7008 32.8199 42.0924 33.9908 42.2474C36.2867 42.5344 36.8262 42.0035 36.9554 39.742C37.2424 34.691 37.096 29.6372 37.1419 24.5862C37.181 23.5682 37.0462 22.5511 36.743 21.5786ZM9.96707 22.8585C9.96707 22.5428 8.50919 21.0763 8.19063 21.0792C7.87208 21.0821 6.33095 22.5916 6.46871 22.8729C6.83156 23.6084 7.42802 24.2029 8.16478 24.5632C8.44029 24.7038 9.95846 23.2144 9.96707 22.8585ZM46.2509 22.8413C46.2509 22.517 44.7758 21.0706 44.4572 21.0821C44.1387 21.0935 42.609 22.6175 42.7496 22.8872C43.116 23.6207 43.7171 24.2106 44.4572 24.5632C44.7442 24.6952 46.2509 23.1886 46.2509 22.8413Z" fill="#02012B" stroke="#FCE300" stroke-width="0.286988" stroke-miterlimit="10"/>
<path d="M13.606 22.7352C13.87 23.3092 14.1255 23.8831 14.3723 24.4571C16.9838 30.5011 19.5696 36.5565 22.1812 42.6005C22.5141 43.3725 22.8211 44.3224 23.8514 44.3224C24.7382 44.3224 25.0453 43.4758 25.4098 42.7927C26.8591 40.0807 28.182 37.3055 29.5309 34.539C31.4307 30.6331 33.3909 26.7415 35.948 22.7151L13.606 22.7352Z" fill="#F7C427" stroke="#FFE91F" stroke-width="0.823654" stroke-miterlimit="10"/>
<path d="M52.8459 41.1454C50.2343 41.8198 49.6115 40.3016 49.5656 38.2439C49.4824 34.3093 49.4881 30.3747 49.4766 26.4373C49.4766 25.2491 49.8813 24.2045 51.0149 23.6879C51.9333 23.2718 52.2404 22.8528 52.1629 22.4194H37.3428C37.3428 28.6987 37.3629 34.5217 37.3228 40.3389C37.3228 41.7739 36.3642 42.388 34.9379 42.4512C34.2089 42.4827 33.0639 41.4697 32.797 42.8501C32.5616 44.0669 33.4456 44.9881 34.5878 45.3497C36.5967 45.9782 38.7864 46.2107 40.6145 45.3268C42.7153 44.3022 44.3999 44.6294 46.4203 45.4043C49.5771 46.6096 52.6135 45.2149 53.6839 42.4713C54.0599 41.5529 54.1144 40.8153 52.8459 41.1454Z" fill="#F7C427" stroke="#FFE600" stroke-width="0.823654" stroke-miterlimit="10"/>
<path d="M14.7225 42.055C12.4007 42.0091 11.8038 40.2441 11.7694 38.5452C11.6632 33.2646 11.6919 27.9697 11.7062 22.3906H3.78248C3.61028 23.6763 3.91453 24.9276 5.39825 26.1703C5.59914 26.3367 5.57902 26.8217 5.57902 27.1575C5.60198 31.3504 5.65365 35.5433 5.59339 39.7362C5.5733 41.2744 5.0194 42.606 3.21137 42.893C2.68332 42.982 1.85393 42.5658 1.71331 43.4297C1.5899 44.1931 2.24711 44.701 2.86126 44.9823C3.54142 45.3037 4.35357 45.6395 5.05956 45.5563C7.73715 45.2435 10.3889 44.8819 13.1096 45.2062C13.7725 45.2836 14.5445 44.7613 15.2132 44.394C15.4825 44.2496 15.6965 44.02 15.8216 43.7412C15.9467 43.4624 15.976 43.15 15.9048 42.8528C15.7786 42.2703 15.2706 42.0665 14.7225 42.055Z" fill="#F7C427" stroke="#FFE600" stroke-width="0.823654" stroke-miterlimit="10"/>
<path d="M52.903 40.7665C50.2914 41.4438 49.6686 39.9256 49.6227 37.8651C49.5395 33.9333 49.5453 29.9959 49.5338 26.0613C49.5338 24.8703 49.9355 23.8285 51.072 23.3091C51.8727 22.9474 52.2056 22.583 52.2343 22.207H43.5386C43.8573 22.4329 44.1141 22.7353 44.2856 23.0863C44.4571 23.4373 44.5377 23.8257 44.52 24.2159V44.4428C45.1932 44.5846 45.8529 44.7844 46.4917 45.0397C49.6485 46.248 52.6878 44.8503 53.7582 42.1067C54.117 41.174 54.1715 40.4393 52.903 40.7665Z" fill="#D3942D"/>
<path d="M31.9593 22.0922L18.5972 22.0664C19.6877 24.7153 20.8385 27.2322 21.8889 29.8696C22.724 31.9761 23.6108 34.0252 24.5435 36.0599C26.7064 31.2464 29.1836 26.5804 31.9593 22.0922Z" fill="#D3942D"/>
<path d="M15.8616 42.5143C15.7353 41.9231 15.2417 41.7193 14.6935 41.7078C12.3718 41.659 11.7749 39.8941 11.7404 38.198C11.6371 32.9662 11.6629 27.7258 11.6773 22.207H8.82178V44.8188C10.2348 44.6978 11.6562 44.7132 13.0663 44.8647C13.7293 44.945 14.5012 44.4199 15.1699 44.0525C15.4393 43.909 15.6535 43.68 15.7787 43.4016C15.9039 43.1232 15.933 42.811 15.8616 42.5143Z" fill="#D3942D"/>
<path d="M1.60411 2.86408C3.9775 4.15266 5.33493 6.19601 5.4612 8.83629C5.62766 12.0764 6.00357 15.4198 4.99051 18.5307C4.54281 19.9054 3.8885 21.2255 3.72492 22.5141H11.6601C11.6601 21.0533 11.6601 19.5754 11.6601 18.0687C12.4206 19.7533 13.0778 21.1681 13.6834 22.5141H35.9823C36.43 21.8052 36.8921 21.0964 37.3799 20.3818V22.5141H52.2258C52.1828 22.0836 51.7637 21.6388 51.1869 21.1595C50.6791 20.7586 50.2672 20.2493 49.9812 19.6689C49.6952 19.0885 49.5424 18.4516 49.5339 17.8047C49.4908 14.2977 49.5052 10.7907 49.5167 7.28082C49.5167 5.95207 50.016 4.94761 51.4739 4.69794C52.1368 4.58027 52.926 4.60322 52.9088 3.61599C52.9088 2.84686 52.3636 2.38768 51.7982 1.9859C49.7175 0.505045 47.6857 1.07328 45.8461 2.3676C44.6981 3.17403 43.9434 3.22856 42.6892 2.45944C40.0375 0.826477 37.2364 1.25982 34.048 2.35898C35.6494 3.75948 37.6181 4.51713 36.3066 6.86182C33.8902 11.1925 31.6029 15.5977 29.2898 19.9857C28.5637 21.3662 28.0098 21.4465 27.3497 19.9312C25.4384 15.5432 23.484 11.1724 21.5383 6.79581C21.1164 5.84589 21.0761 4.97344 21.9859 4.26458C23.4926 3.0908 22.4509 2.33603 21.4751 1.75919C20.6239 1.24508 19.6576 0.951891 18.6642 0.906281C17.6708 0.860671 16.6818 1.06408 15.787 1.49802C13.5829 2.51395 11.5884 2.4135 9.41016 1.44062C7.05232 0.35185 4.38685 0.126349 1.87961 0.803513C1.30563 0.955616 0.556607 0.958485 0.459032 1.68169C0.361456 2.4049 1.09327 2.57709 1.60411 2.86408Z" fill="#F60929" stroke="#FFE600" stroke-width="0.823654" stroke-miterlimit="10"/>
<path d="M32.2577 22.0924C32.3381 21.8341 32.2348 22.1727 32.3066 21.9431C32.3238 21.9144 32.3065 21.923 32.3266 21.8743C32.2922 21.7021 38.3534 11.0003 38.3534 10.8051L35.8279 7.67986C34.8321 9.5625 30.51 18.2496 29.5142 20.1322C28.7852 21.5126 27.686 21.7365 27.0288 20.2212C25.1146 15.8303 23.057 10.9859 21.1141 6.60939C20.6922 5.65946 21.0653 4.93338 21.975 4.22739C23.4817 3.05074 21.5761 1.9315 20.4913 1.59285C17.8337 0.769196 17.1134 1.52971 15.469 2.0348C15.4059 2.04969 15.3464 2.07702 15.2939 2.11517C15.0586 2.29023 13.1673 2.79533 11.52 2.50834V11.9961L18.2901 22.101H20.4941C20.6692 22.0665 25.1405 22.0866 25.3385 22.0866H31.9966L32.2577 22.0924Z" fill="#BA0028"/>
<path d="M44.8419 3.20839C44.1675 3.4265 41.972 2.39335 41.0278 2.026C37.9657 0.829266 37.6701 1.71032 34.0454 2.33308C35.6468 3.73071 37.6156 4.48836 36.304 6.83592C36.0027 7.37545 35.7099 7.92073 35.4115 8.46313C35.9766 8.55573 36.4886 8.85148 36.8511 9.29484C37.2136 9.7382 37.4018 10.2987 37.3802 10.871L37.7906 20.3674C37.7906 21.1422 37.7906 21.3288 37.805 22.0893H44.8419V3.20839Z" fill="#BA0028"/>
<path d="M11.5282 17.3914V2.51972C10.6845 2.36188 10.5066 2.359 9.90967 2.06628C9.70017 1.96583 8.97696 1.69608 8.76172 1.61572V22.715H11.6603C11.6603 21.2514 11.6603 19.7734 11.6603 18.2639C11.568 17.9824 11.5234 17.6875 11.5282 17.3914Z" fill="#BA0028"/>
<path d="M44.7067 20.5564L42.6206 22.6426L44.7067 24.7287L46.7929 22.6426L44.7067 20.5564Z" fill="white"/>
<path d="M8.41914 20.5574L6.33301 22.6436L8.41913 24.7297L10.5053 22.6435L8.41914 20.5574Z" fill="white"/>
<path d="M109.848 1.38037L94.4651 45.7343H75.9142L60.5288 1.38037L78.1958 9.17207L85.2212 31.89L92.218 9.12042L109.848 1.38037Z" fill="#0C1429" stroke="#FFE600" stroke-width="0.286988" stroke-miterlimit="10"/>
<path d="M109.848 1.36304L94.4651 45.7169H75.9142L60.5288 1.36304L78.1958 9.15187L85.2212 31.8698L92.218 9.10021L109.848 1.36304Z" fill="#0993C9" stroke="#FFE600" stroke-width="0.723208" stroke-miterlimit="10"/>
<path d="M89.9678 31.1209C90.0624 31.1564 90.1422 31.2227 90.1943 31.3092C90.2464 31.3956 90.2677 31.4972 90.2548 31.5973C90.2548 33.8301 90.2405 36.06 90.2548 38.2899C90.2547 38.3533 90.2499 38.4166 90.2405 38.4793H90.8144C90.8144 36.1834 90.8144 33.8875 90.8144 31.5916C90.7999 31.4968 90.8185 31.3999 90.8671 31.3173C90.9158 31.2347 90.9914 31.1714 91.0813 31.1382C91.307 31.0282 91.4876 30.8434 91.5922 30.6152C91.6969 30.3871 91.7192 30.1296 91.6553 29.8869C91.5851 29.6485 91.4395 29.4393 91.2402 29.2908C91.041 29.1423 90.7989 29.0624 90.5504 29.0632C90.3018 29.0543 90.0574 29.1288 89.8561 29.275C89.6548 29.4211 89.5082 29.6305 89.4398 29.8697C89.3677 30.1071 89.3811 30.3622 89.4776 30.5908C89.5741 30.8193 89.7475 31.0069 89.9678 31.1209ZM90.5131 29.4765C90.6987 29.4741 90.8778 29.5447 91.012 29.6729C91.1461 29.8012 91.2246 29.9769 91.2306 30.1624C91.2291 30.2542 91.2093 30.3448 91.1722 30.4288C91.1351 30.5128 91.0815 30.5885 91.0145 30.6514C90.9476 30.7143 90.8688 30.7631 90.7826 30.795C90.6965 30.8268 90.6048 30.841 90.5131 30.8368C90.3322 30.8368 90.1586 30.7654 90.0301 30.638C89.9017 30.5106 89.8287 30.3376 89.8272 30.1566C89.8287 29.9757 89.9017 29.8027 90.0301 29.6753C90.1586 29.548 90.3322 29.4765 90.5131 29.4765Z" fill="#F6F6F6" stroke="#FFE600" stroke-width="0.286988" stroke-miterlimit="10"/>
<path d="M79.7769 31.1209C79.8711 31.1568 79.9506 31.2232 80.0026 31.3096C80.0546 31.3959 80.0762 31.4973 80.0638 31.5973C80.0638 33.8301 80.0466 36.06 80.0638 38.2899C80.0698 38.3529 80.0698 38.4163 80.0638 38.4793H80.6378C80.6378 36.1834 80.6378 33.8875 80.6378 31.5916C80.6233 31.4968 80.6419 31.3999 80.6905 31.3173C80.7391 31.2347 80.8148 31.1714 80.9047 31.1382C81.1304 31.0282 81.311 30.8434 81.4156 30.6152C81.5203 30.3871 81.5426 30.1296 81.4787 29.8869C81.4085 29.6485 81.2628 29.4393 81.0636 29.2908C80.8644 29.1423 80.6223 29.0624 80.3738 29.0632C80.1252 29.0543 79.8808 29.1288 79.6795 29.275C79.4782 29.4211 79.3316 29.6305 79.2631 29.8697C79.1894 30.1054 79.2004 30.3595 79.2942 30.588C79.388 30.8165 79.5587 31.005 79.7769 31.1209ZM80.3221 29.4765C80.5077 29.4741 80.6868 29.5447 80.821 29.6729C80.9551 29.8012 81.0336 29.9769 81.0396 30.1624C81.0381 30.2542 81.0183 30.3448 80.9812 30.4288C80.9441 30.5128 80.8905 30.5885 80.8236 30.6514C80.7567 30.7143 80.6778 30.7631 80.5917 30.795C80.5055 30.8268 80.4138 30.841 80.3221 30.8368C80.2324 30.8372 80.1436 30.8199 80.0606 30.7859C79.9775 30.7519 79.902 30.7019 79.8383 30.6388C79.7746 30.5756 79.724 30.5005 79.6893 30.4178C79.6547 30.3351 79.6366 30.2463 79.6362 30.1566C79.6377 29.9767 79.7099 29.8046 79.8371 29.6774C79.9643 29.5501 80.1364 29.478 80.3164 29.4765H80.3221Z" fill="#F6F6F6" stroke="#FFE600" stroke-width="0.286988" stroke-miterlimit="10"/>
<path d="M96.5655 22.4538C96.4663 22.4704 96.3754 22.5194 96.3069 22.5931C96.2383 22.6668 96.1961 22.7611 96.1867 22.8613C96.1264 23.2574 96.0432 23.6505 95.9715 24.0437C95.2253 28.1514 94.4782 32.2582 93.7301 36.3641C93.6957 36.5592 93.6899 36.763 93.4919 36.8979C93.07 37.1849 92.6568 37.4718 92.2435 37.7818C90.2748 39.1995 88.3089 40.623 86.3373 42.0349C86.2404 42.1001 86.1581 42.1849 86.0958 42.2837C86.0335 42.3826 85.9927 42.4933 85.9757 42.6089C85.7748 43.7569 85.5653 44.9048 85.3644 46.0356L84.5752 45.9236C84.7703 44.8302 84.9913 43.7396 85.1492 42.6405C85.2353 42.0665 85.419 41.6188 85.97 41.3376C86.2122 41.1953 86.4434 41.0351 86.6616 40.8583C88.6093 39.4559 90.5589 38.0535 92.5104 36.6511C92.6416 36.5652 92.7534 36.453 92.8389 36.3216C92.9244 36.1901 92.9816 36.0424 93.0069 35.8877C93.7914 31.535 94.5834 27.1814 95.3831 22.8269C95.4219 22.7034 95.4178 22.5704 95.3714 22.4495C95.3251 22.3286 95.2392 22.227 95.1277 22.1611C94.8916 21.9785 94.7169 21.728 94.6271 21.4433C94.5373 21.1586 94.5368 20.8533 94.6255 20.5683C94.7215 20.2819 94.9004 20.0306 95.1396 19.8461C95.3787 19.6617 95.6672 19.5524 95.9686 19.5323C96.3402 19.4869 96.7154 19.5826 97.0199 19.8005C97.3244 20.0183 97.536 20.3425 97.613 20.7089C97.6974 21.0787 97.6355 21.4668 97.4403 21.7921C97.2451 22.1173 96.9316 22.3544 96.5655 22.4538ZM96.2786 20.1034C96.0363 20.0789 95.7931 20.1394 95.5905 20.2745C95.3879 20.4095 95.2385 20.6108 95.1679 20.8438C95.1483 20.9656 95.1529 21.09 95.1816 21.21C95.2103 21.33 95.2624 21.4431 95.335 21.5428C95.4075 21.6426 95.4991 21.727 95.6044 21.7912C95.7097 21.8555 95.8267 21.8983 95.9485 21.9171C96.0669 21.9438 96.1895 21.9462 96.3088 21.924C96.4281 21.9019 96.5416 21.8557 96.6425 21.7884C96.7435 21.721 96.8296 21.6338 96.8958 21.5321C96.962 21.4304 97.0069 21.3163 97.0276 21.1968C97.0521 21.0757 97.0519 20.9509 97.0273 20.8298C97.0026 20.7087 96.954 20.5938 96.8841 20.4918C96.8143 20.3899 96.7247 20.3029 96.6207 20.2362C96.5167 20.1695 96.4003 20.1243 96.2786 20.1034Z" fill="white" stroke="#FFE600" stroke-width="0.286988" stroke-miterlimit="10"/>
<path d="M74.4419 22.4539C74.5411 22.4705 74.6321 22.5195 74.7006 22.5932C74.7692 22.6669 74.8114 22.7612 74.8207 22.8614C74.8839 23.2575 74.9642 23.6506 75.036 24.0438C75.7821 28.1515 76.5293 32.2583 77.2774 36.3642C77.3147 36.5593 77.3176 36.7631 77.5156 36.898C77.9375 37.185 78.3507 37.4719 78.7639 37.7819C80.7327 39.1996 82.6986 40.6231 84.673 42.035C84.7692 42.1008 84.8507 42.1857 84.9125 42.2845C84.9742 42.3833 85.0148 42.4938 85.0318 42.609C85.2327 43.757 85.4421 44.9049 85.6459 46.0357L86.4351 45.9237C86.2371 44.8303 86.0161 43.7397 85.8611 42.6406C85.775 42.0666 85.5914 41.6189 85.0404 41.3377C84.7987 41.1961 84.5683 41.0359 84.3516 40.8584C82.4001 39.456 80.4495 38.0536 78.4999 36.6512C78.3688 36.5653 78.2569 36.4531 78.1714 36.3217C78.0859 36.1902 78.0288 36.0425 78.0035 35.8878C77.2209 31.5351 76.4298 27.1815 75.6301 22.827C75.5913 22.7035 75.5955 22.5705 75.6418 22.4496C75.6882 22.3287 75.774 22.2271 75.8854 22.1612C76.1208 21.9779 76.2947 21.7273 76.3839 21.4427C76.4731 21.1582 76.4734 20.8532 76.3848 20.5684C76.289 20.2825 76.1105 20.0314 75.8719 19.847C75.6333 19.6626 75.3454 19.5531 75.0446 19.5324C74.6725 19.4862 74.2966 19.5816 73.9915 19.7995C73.6864 20.0174 73.4743 20.3421 73.3973 20.709C73.3135 21.0784 73.3754 21.4658 73.5699 21.7908C73.7645 22.1158 74.0767 22.3533 74.4419 22.4539ZM74.7289 20.1035C74.9707 20.0797 75.2133 20.1405 75.4152 20.2755C75.6172 20.4106 75.7662 20.6114 75.8367 20.8439C75.8563 20.9657 75.8516 21.0901 75.8229 21.2101C75.7943 21.3301 75.7422 21.4432 75.6696 21.5429C75.5971 21.6427 75.5055 21.7271 75.4002 21.7913C75.2949 21.8556 75.178 21.8984 75.0561 21.9172C74.9379 21.9439 74.8155 21.9462 74.6964 21.924C74.5772 21.9019 74.4639 21.8557 74.3632 21.7883C74.2625 21.7209 74.1766 21.6337 74.1107 21.532C74.0448 21.4304 74.0003 21.3163 73.9799 21.1969C73.9551 21.0755 73.9549 20.9504 73.9796 20.829C74.0043 20.7076 74.0531 20.5924 74.1233 20.4903C74.1935 20.3882 74.2836 20.3014 74.3882 20.2349C74.4927 20.1684 74.6095 20.1237 74.7318 20.1035H74.7289Z" fill="white" stroke="#FFE600" stroke-width="0.286988" stroke-miterlimit="10"/>
</g>
<defs>
<clipPath id="clip0_409_1011">
<rect width="110.461" height="46.3227" fill="white"/>
</clipPath>
</defs>
</svg>
