<svg width="203" height="53" viewBox="0 0 203 53" fill="none" xmlns="http://www.w3.org/2000/svg">
<g clip-path="url(#clip0_102_2)">
<path d="M36.743 21.5786C35.092 23.9242 33.6129 26.3863 32.3176 28.9455C30.0045 33.4455 27.7632 37.9828 25.4845 42.4999C25.0942 43.2719 24.7498 44.1817 23.6822 44.1358C22.6146 44.0899 22.3018 43.1916 21.9603 42.3966C19.2856 36.2551 16.6367 30.1021 13.9476 23.9663C13.3392 22.5715 12.6102 21.2284 11.9042 19.7935C11.5283 20.2728 11.6545 20.6918 11.6574 21.0792C11.6574 26.773 11.6718 32.4659 11.7005 38.1578C11.7005 40.7149 12.1596 41.2946 14.6277 41.9805C15.2017 42.1412 15.6465 42.3852 15.7585 43.0108C15.8164 43.282 15.7928 43.5644 15.6907 43.8222C15.5886 44.0801 15.4124 44.302 15.1845 44.4601C14.4871 44.9939 13.7294 45.4243 12.8082 45.4014C10.2002 45.3094 7.58896 45.413 4.99642 45.7113C3.93597 45.8172 2.87575 45.5086 2.03764 44.8504C1.82216 44.7169 1.65321 44.52 1.55405 44.2867C1.45488 44.0535 1.43031 43.7952 1.4837 43.5475C1.5985 42.9735 2.05772 42.9476 2.53412 42.8759C4.41389 42.5889 5.17149 41.9375 5.21454 40.0347C5.31211 35.8045 5.25476 31.5657 5.26337 27.3327C5.26337 26.7271 4.91037 26.3282 4.53154 25.9207C3.3635 24.6694 2.96741 23.1599 3.61887 21.6159C5.30923 17.6267 5.46996 13.5286 5.07392 9.27541C4.82137 6.55764 3.63901 4.65203 1.30293 3.34624C0.757656 3.03916 0.0315774 2.8268 0.154982 2.00889C0.278387 1.19097 0.975766 1.14792 1.58992 0.969992C3.63327 0.396017 5.75407 0.218071 7.65393 1.09912C10.6386 2.4824 13.5487 1.96009 16.4903 1.26845C18.3988 0.820753 20.1264 1.08191 21.7221 2.1782C22.8126 2.93011 22.936 3.59018 22.0091 4.52863C21.1682 5.38959 21.1309 6.2649 21.5757 7.26935C23.4411 11.4785 25.3094 15.6877 27.1806 19.8968C27.3614 20.3015 27.5221 20.8238 28.0588 20.8467C28.5954 20.8697 28.7734 20.3216 28.98 19.9399C31.3218 15.6121 33.654 11.2767 35.9767 6.93358C36.499 5.96644 36.3699 5.08538 35.5548 4.3507C35.1502 3.98048 34.7169 3.64759 34.2893 3.3032C33.7153 2.84402 33.7526 2.51684 34.4786 2.28438C37.1247 1.44064 39.7707 1.07042 42.322 2.53406C43.5963 3.26301 44.6868 3.13961 45.8921 2.34753C48.0991 0.889632 50.3606 0.984342 51.962 2.47668C52.4728 2.95308 52.932 3.48112 52.7368 4.25599C52.5589 4.96484 51.9189 5.08539 51.342 5.18584C50.0248 5.40969 49.425 6.27926 49.4106 7.48174C49.3676 10.8969 49.3877 14.312 49.4365 17.7243C49.4594 19.2511 50.1195 20.4909 51.2818 21.5413C52.4441 22.5916 52.3494 23.1685 50.9948 23.9405C49.9473 24.5374 49.5599 25.3754 49.5599 26.5234C49.5828 30.5412 49.5598 34.5389 49.6144 38.5481C49.6459 40.7005 50.3835 41.2917 52.4842 41.0535C53.7384 40.9129 54.0943 41.3405 53.6954 42.5516C52.8344 45.1345 49.9157 46.5694 46.9626 45.8405C46.4295 45.7101 45.9059 45.5433 45.3957 45.3411C44.6289 45.0311 43.806 44.8842 42.9793 44.9099C42.1526 44.9356 41.3404 45.1333 40.5944 45.4904C38.4534 46.4374 36.3125 46.2537 34.1859 45.4358C33.8125 45.3205 33.4729 45.1157 33.1968 44.839C32.9207 44.5624 32.7164 44.2225 32.6018 43.8488C32.2775 42.7008 32.8199 42.0924 33.9908 42.2474C36.2867 42.5344 36.8262 42.0035 36.9554 39.742C37.2424 34.691 37.096 29.6372 37.1419 24.5862C37.181 23.5682 37.0462 22.5511 36.743 21.5786ZM9.96707 22.8585C9.96707 22.5428 8.50919 21.0763 8.19063 21.0792C7.87208 21.0821 6.33095 22.5916 6.46871 22.8729C6.83156 23.6084 7.42802 24.2029 8.16478 24.5632C8.44029 24.7038 9.95846 23.2144 9.96707 22.8585ZM46.2509 22.8413C46.2509 22.517 44.7758 21.0706 44.4572 21.0821C44.1387 21.0935 42.609 22.6175 42.7496 22.8872C43.116 23.6207 43.7171 24.2106 44.4572 24.5632C44.7442 24.6952 46.2509 23.1886 46.2509 22.8413Z" fill="#02012B" stroke="#FCE300" stroke-width="0.286988" stroke-miterlimit="10"/>
<path d="M13.606 22.7352C13.87 23.3092 14.1255 23.8831 14.3723 24.4571C16.9838 30.5011 19.5696 36.5565 22.1812 42.6005C22.5141 43.3725 22.8211 44.3224 23.8514 44.3224C24.7382 44.3224 25.0453 43.4758 25.4098 42.7927C26.8591 40.0807 28.182 37.3055 29.5309 34.539C31.4307 30.6331 33.3909 26.7415 35.948 22.7151L13.606 22.7352Z" fill="#F7C427" stroke="#FFE91F" stroke-width="0.823654" stroke-miterlimit="10"/>
<path d="M52.8459 41.1454C50.2343 41.8198 49.6115 40.3016 49.5656 38.2439C49.4824 34.3093 49.4881 30.3747 49.4766 26.4373C49.4766 25.2491 49.8813 24.2045 51.0149 23.6879C51.9333 23.2718 52.2404 22.8528 52.1629 22.4194H37.3428C37.3428 28.6987 37.3629 34.5217 37.3228 40.3389C37.3228 41.7739 36.3642 42.388 34.9379 42.4512C34.2089 42.4827 33.0639 41.4697 32.797 42.8501C32.5616 44.0669 33.4456 44.9881 34.5878 45.3497C36.5967 45.9782 38.7864 46.2107 40.6145 45.3268C42.7153 44.3022 44.3999 44.6294 46.4203 45.4043C49.5771 46.6096 52.6135 45.2149 53.6839 42.4713C54.0599 41.5529 54.1144 40.8153 52.8459 41.1454Z" fill="#F7C427" stroke="#FFE600" stroke-width="0.823654" stroke-miterlimit="10"/>
<path d="M14.7222 42.055C12.4005 42.0091 11.8036 40.2441 11.7691 38.5452C11.6629 33.2646 11.6916 27.9697 11.706 22.3906H3.78223C3.61004 23.6763 3.91428 24.9276 5.39801 26.1703C5.5989 26.3367 5.57878 26.8217 5.57878 27.1575C5.60174 31.3504 5.65341 35.5433 5.59314 39.7362C5.57305 41.2744 5.01915 42.606 3.21113 42.893C2.68307 42.982 1.85369 42.5658 1.71306 43.4297C1.58966 44.1931 2.24686 44.701 2.86101 44.9823C3.54117 45.3037 4.35332 45.6395 5.05931 45.5563C7.73691 45.2435 10.3887 44.8819 13.1093 45.2062C13.7723 45.2836 14.5443 44.7613 15.213 44.394C15.4823 44.2496 15.6962 44.02 15.8213 43.7412C15.9465 43.4624 15.9757 43.15 15.9046 42.8528C15.7783 42.2703 15.2704 42.0665 14.7222 42.055Z" fill="#F7C427" stroke="#FFE600" stroke-width="0.823654" stroke-miterlimit="10"/>
<path d="M52.903 40.7665C50.2914 41.4438 49.6686 39.9256 49.6227 37.8651C49.5395 33.9333 49.5453 29.9959 49.5338 26.0613C49.5338 24.8703 49.9355 23.8285 51.072 23.3091C51.8727 22.9474 52.2056 22.583 52.2343 22.207H43.5386C43.8573 22.4329 44.1141 22.7353 44.2856 23.0863C44.4571 23.4373 44.5377 23.8257 44.52 24.2159V44.4428C45.1932 44.5846 45.8529 44.7844 46.4917 45.0397C49.6485 46.248 52.6878 44.8503 53.7582 42.1067C54.117 41.174 54.1715 40.4393 52.903 40.7665Z" fill="#D3942D"/>
<path d="M31.9593 22.0922L18.5972 22.0664C19.6877 24.7153 20.8385 27.2322 21.8889 29.8696C22.724 31.9761 23.6108 34.0252 24.5435 36.0599C26.7064 31.2464 29.1836 26.5804 31.9593 22.0922Z" fill="#D3942D"/>
<path d="M15.8618 42.5143C15.7356 41.9231 15.2419 41.7193 14.6938 41.7078C12.372 41.659 11.7751 39.8941 11.7407 38.198C11.6373 32.9662 11.6632 27.7258 11.6775 22.207H8.82202V44.8188C10.2351 44.6978 11.6565 44.7132 13.0666 44.8647C13.7295 44.945 14.5015 44.4199 15.1701 44.0525C15.4396 43.909 15.6538 43.68 15.7789 43.4016C15.9041 43.1232 15.9333 42.811 15.8618 42.5143Z" fill="#D3942D"/>
<path d="M1.60411 2.86408C3.9775 4.15266 5.33493 6.19601 5.4612 8.83629C5.62766 12.0764 6.00357 15.4198 4.99051 18.5307C4.54281 19.9054 3.8885 21.2255 3.72492 22.5141H11.6601C11.6601 21.0533 11.6601 19.5754 11.6601 18.0687C12.4206 19.7533 13.0778 21.1681 13.6834 22.5141H35.9823C36.43 21.8052 36.8921 21.0964 37.3799 20.3818V22.5141H52.2258C52.1828 22.0836 51.7637 21.6388 51.1869 21.1595C50.6791 20.7586 50.2672 20.2493 49.9812 19.6689C49.6952 19.0885 49.5424 18.4516 49.5339 17.8047C49.4908 14.2977 49.5052 10.7907 49.5167 7.28082C49.5167 5.95207 50.016 4.94761 51.4739 4.69794C52.1368 4.58027 52.926 4.60322 52.9088 3.61599C52.9088 2.84686 52.3636 2.38768 51.7982 1.9859C49.7175 0.505045 47.6857 1.07328 45.8461 2.3676C44.6981 3.17403 43.9434 3.22856 42.6892 2.45944C40.0375 0.826477 37.2364 1.25982 34.048 2.35898C35.6494 3.75948 37.6181 4.51713 36.3066 6.86182C33.8902 11.1925 31.6029 15.5977 29.2898 19.9857C28.5637 21.3662 28.0098 21.4465 27.3497 19.9312C25.4384 15.5432 23.484 11.1724 21.5383 6.79581C21.1164 5.84589 21.0761 4.97344 21.9859 4.26458C23.4926 3.0908 22.4509 2.33603 21.4751 1.75919C20.6239 1.24508 19.6576 0.951891 18.6642 0.906281C17.6708 0.860671 16.6818 1.06408 15.787 1.49802C13.5829 2.51395 11.5884 2.4135 9.41016 1.44062C7.05232 0.35185 4.38685 0.126349 1.87961 0.803513C1.30563 0.955616 0.556607 0.958485 0.459032 1.68169C0.361456 2.4049 1.09327 2.57709 1.60411 2.86408Z" fill="#F60929" stroke="#FFE600" stroke-width="0.823654" stroke-miterlimit="10"/>
<path d="M32.2577 22.0922C32.3381 21.834 32.2348 22.1726 32.3066 21.943C32.3238 21.9143 32.3065 21.9229 32.3266 21.8741C32.2922 21.7019 38.3534 11.0002 38.3534 10.805L35.8279 7.67974C34.8321 9.56238 30.51 18.2495 29.5142 20.1321C28.7852 21.5125 27.686 21.7364 27.0288 20.2211C25.1146 15.8302 23.057 10.9858 21.1141 6.60926C20.6922 5.65934 21.0653 4.93326 21.975 4.22727C23.4817 3.05062 21.5761 1.93137 20.4913 1.59273C17.8337 0.769074 17.1134 1.52958 15.469 2.03468C15.4059 2.04957 15.3464 2.07689 15.2939 2.11505C15.0586 2.29011 13.1673 2.79521 11.52 2.50822V11.996L18.2901 22.1009H20.4941C20.6692 22.0664 25.1405 22.0865 25.3385 22.0865H31.9966L32.2577 22.0922Z" fill="#BA0028"/>
<path d="M44.8419 3.20851C44.1675 3.42662 41.972 2.39347 41.0278 2.02613C37.9657 0.829388 37.6701 1.71044 34.0454 2.33321C35.6468 3.73083 37.6156 4.48848 36.304 6.83604C36.0027 7.37558 35.7099 7.92085 35.4115 8.46325C35.9766 8.55585 36.4886 8.8516 36.8511 9.29496C37.2136 9.73833 37.4018 10.2988 37.3802 10.8711L37.7906 20.3675C37.7906 21.1424 37.7906 21.3289 37.805 22.0894H44.8419V3.20851Z" fill="#BA0028"/>
<path d="M11.5285 17.3914V2.51972C10.6847 2.36188 10.5068 2.359 9.90991 2.06628C9.70041 1.96583 8.9772 1.69608 8.76196 1.61572V22.715H11.6605C11.6605 21.2514 11.6605 19.7734 11.6605 18.2639C11.5683 17.9824 11.5237 17.6875 11.5285 17.3914Z" fill="#BA0028"/>
<path d="M44.7067 20.5563L42.6206 22.6425L44.7067 24.7286L46.7929 22.6424L44.7067 20.5563Z" fill="white"/>
<path d="M8.41914 20.5574L6.33301 22.6436L8.41913 24.7297L10.5053 22.6435L8.41914 20.5574Z" fill="white"/>
<path d="M109.847 1.38037L94.4648 45.7343H75.914L60.5286 1.38037L78.1955 9.17207L85.221 31.89L92.2178 9.12042L109.847 1.38037Z" fill="#0C1429" stroke="#FFE600" stroke-width="0.286988" stroke-miterlimit="10"/>
<path d="M109.847 1.36316L94.4648 45.7171H75.914L60.5286 1.36316L78.1955 9.15199L85.221 31.8699L92.2178 9.10033L109.847 1.36316Z" fill="#0993C9" stroke="#FFE600" stroke-width="0.723208" stroke-miterlimit="10"/>
<path d="M89.9681 31.1208C90.0626 31.1562 90.1424 31.2226 90.1945 31.309C90.2466 31.3955 90.268 31.4971 90.2551 31.5972C90.2551 33.83 90.2407 36.0599 90.2551 38.2898C90.2549 38.3532 90.2501 38.4165 90.2407 38.4792H90.8147C90.8147 36.1833 90.8147 33.8874 90.8147 31.5915C90.8001 31.4967 90.8187 31.3998 90.8674 31.3172C90.916 31.2346 90.9917 31.1713 91.0816 31.138C91.3072 31.0281 91.4878 30.8433 91.5925 30.6151C91.6971 30.3869 91.7194 30.1295 91.6555 29.8868C91.5853 29.6484 91.4397 29.4392 91.2405 29.2907C91.0412 29.1422 90.7992 29.0623 90.5507 29.0631C90.3021 29.0541 90.0576 29.1287 89.8563 29.2749C89.655 29.421 89.5084 29.6304 89.44 29.8695C89.368 30.1069 89.3814 30.3621 89.4778 30.5906C89.5743 30.8192 89.7478 31.0068 89.9681 31.1208ZM90.5133 29.4764C90.6989 29.474 90.8781 29.5445 91.0122 29.6728C91.1464 29.801 91.2248 29.9768 91.2308 30.1623C91.2294 30.2541 91.2096 30.3447 91.1724 30.4287C91.1353 30.5127 91.0817 30.5884 91.0148 30.6513C90.9479 30.7142 90.869 30.763 90.7829 30.7949C90.6967 30.8267 90.6051 30.8409 90.5133 30.8367C90.3324 30.8367 90.1588 30.7652 90.0304 30.6378C89.9019 30.5104 89.829 30.3374 89.8275 30.1565C89.829 29.9756 89.9019 29.8026 90.0304 29.6752C90.1588 29.5478 90.3324 29.4764 90.5133 29.4764Z" fill="#F6F6F6" stroke="#FFE600" stroke-width="0.286988" stroke-miterlimit="10"/>
<path d="M79.7769 31.1208C79.8711 31.1567 79.9506 31.2231 80.0026 31.3094C80.0546 31.3958 80.0762 31.4971 80.0638 31.5972C80.0638 33.83 80.0466 36.0599 80.0638 38.2898C80.0698 38.3528 80.0698 38.4162 80.0638 38.4792H80.6378C80.6378 36.1833 80.6378 33.8874 80.6378 31.5915C80.6233 31.4967 80.6419 31.3998 80.6905 31.3172C80.7391 31.2346 80.8148 31.1713 80.9047 31.138C81.1304 31.0281 81.311 30.8433 81.4156 30.6151C81.5203 30.3869 81.5426 30.1295 81.4787 29.8868C81.4085 29.6484 81.2628 29.4392 81.0636 29.2907C80.8644 29.1422 80.6223 29.0623 80.3738 29.0631C80.1252 29.0541 79.8808 29.1287 79.6795 29.2749C79.4782 29.421 79.3316 29.6304 79.2631 29.8695C79.1894 30.1053 79.2004 30.3594 79.2942 30.5879C79.388 30.8164 79.5587 31.0049 79.7769 31.1208ZM80.3221 29.4764C80.5077 29.474 80.6868 29.5445 80.821 29.6728C80.9551 29.801 81.0336 29.9768 81.0396 30.1623C81.0381 30.2541 81.0183 30.3447 80.9812 30.4287C80.9441 30.5127 80.8905 30.5884 80.8236 30.6513C80.7567 30.7142 80.6778 30.763 80.5917 30.7949C80.5055 30.8267 80.4138 30.8409 80.3221 30.8367C80.2324 30.8371 80.1436 30.8198 80.0606 30.7858C79.9775 30.7518 79.902 30.7018 79.8383 30.6387C79.7746 30.5755 79.724 30.5004 79.6893 30.4177C79.6547 30.335 79.6366 30.2462 79.6362 30.1565C79.6377 29.9766 79.7099 29.8045 79.8371 29.6772C79.9643 29.55 80.1364 29.4779 80.3164 29.4764H80.3221Z" fill="#F6F6F6" stroke="#FFE600" stroke-width="0.286988" stroke-miterlimit="10"/>
<path d="M96.5655 22.4538C96.4663 22.4704 96.3754 22.5194 96.3069 22.5931C96.2383 22.6668 96.1961 22.7611 96.1867 22.8613C96.1264 23.2574 96.0432 23.6505 95.9715 24.0437C95.2253 28.1514 94.4782 32.2582 93.7301 36.3641C93.6957 36.5592 93.6899 36.763 93.4919 36.8979C93.07 37.1849 92.6568 37.4718 92.2435 37.7818C90.2748 39.1995 88.3089 40.623 86.3373 42.0349C86.2404 42.1001 86.1581 42.1849 86.0958 42.2837C86.0335 42.3826 85.9927 42.4933 85.9757 42.6089C85.7748 43.7569 85.5653 44.9048 85.3644 46.0356L84.5752 45.9236C84.7703 44.8302 84.9913 43.7396 85.1492 42.6405C85.2353 42.0665 85.419 41.6188 85.97 41.3376C86.2122 41.1953 86.4434 41.0351 86.6616 40.8583C88.6093 39.4559 90.5589 38.0535 92.5104 36.6511C92.6416 36.5652 92.7534 36.453 92.8389 36.3216C92.9244 36.1901 92.9816 36.0424 93.0069 35.8877C93.7914 31.535 94.5834 27.1814 95.3831 22.8269C95.4219 22.7034 95.4178 22.5704 95.3714 22.4495C95.3251 22.3286 95.2392 22.227 95.1277 22.1611C94.8916 21.9785 94.7169 21.728 94.6271 21.4433C94.5373 21.1586 94.5368 20.8533 94.6255 20.5683C94.7215 20.2819 94.9004 20.0306 95.1396 19.8461C95.3787 19.6617 95.6672 19.5524 95.9686 19.5323C96.3402 19.4869 96.7154 19.5826 97.0199 19.8005C97.3244 20.0183 97.536 20.3425 97.613 20.7089C97.6974 21.0787 97.6355 21.4668 97.4403 21.7921C97.2451 22.1173 96.9316 22.3544 96.5655 22.4538ZM96.2786 20.1034C96.0363 20.0789 95.7931 20.1394 95.5905 20.2745C95.3879 20.4095 95.2385 20.6108 95.1679 20.8438C95.1483 20.9656 95.1529 21.09 95.1816 21.21C95.2103 21.33 95.2624 21.4431 95.335 21.5428C95.4075 21.6426 95.4991 21.727 95.6044 21.7912C95.7097 21.8555 95.8267 21.8983 95.9485 21.9171C96.0669 21.9438 96.1895 21.9462 96.3088 21.924C96.4281 21.9019 96.5416 21.8557 96.6425 21.7884C96.7435 21.721 96.8296 21.6338 96.8958 21.5321C96.962 21.4304 97.0069 21.3163 97.0276 21.1968C97.0521 21.0757 97.0519 20.9509 97.0273 20.8298C97.0026 20.7087 96.954 20.5938 96.8841 20.4918C96.8143 20.3899 96.7247 20.3029 96.6207 20.2362C96.5167 20.1695 96.4003 20.1243 96.2786 20.1034Z" fill="white" stroke="#FFE600" stroke-width="0.286988" stroke-miterlimit="10"/>
<path d="M74.4416 22.4539C74.5409 22.4705 74.6319 22.5195 74.7004 22.5932C74.7689 22.6669 74.8111 22.7612 74.8205 22.8614C74.8836 23.2575 74.964 23.6506 75.0357 24.0438C75.7819 28.1515 76.529 32.2583 77.2771 36.3642C77.3144 36.5593 77.3173 36.7631 77.5153 36.898C77.9372 37.185 78.3504 37.4719 78.7637 37.7819C80.7324 39.1996 82.6983 40.6231 84.6728 42.035C84.769 42.1008 84.8505 42.1857 84.9122 42.2845C84.9739 42.3833 85.0146 42.4938 85.0315 42.609C85.2324 43.757 85.4419 44.9049 85.6456 46.0357L86.4349 45.9237C86.2368 44.8303 86.0159 43.7397 85.8609 42.6406C85.7748 42.0666 85.5912 41.6189 85.0401 41.3377C84.7984 41.1961 84.5681 41.0359 84.3513 40.8584C82.3998 39.456 80.4493 38.0536 78.4997 36.6512C78.3685 36.5653 78.2566 36.4531 78.1712 36.3217C78.0857 36.1902 78.0285 36.0425 78.0032 35.8878C77.2207 31.5351 76.4296 27.1815 75.6298 22.827C75.5911 22.7035 75.5952 22.5705 75.6416 22.4496C75.688 22.3287 75.7738 22.2271 75.8852 22.1612C76.1205 21.9779 76.2944 21.7273 76.3836 21.4427C76.4729 21.1582 76.4732 20.8532 76.3846 20.5684C76.2887 20.2825 76.1103 20.0314 75.8717 19.847C75.6331 19.6626 75.3452 19.5531 75.0443 19.5324C74.6722 19.4862 74.2964 19.5816 73.9913 19.7995C73.6862 20.0174 73.4741 20.3421 73.397 20.709C73.3133 21.0784 73.3751 21.4658 73.5697 21.7908C73.7642 22.1158 74.0765 22.3533 74.4416 22.4539ZM74.7286 20.1035C74.9704 20.0797 75.213 20.1405 75.415 20.2755C75.617 20.4106 75.7659 20.6114 75.8364 20.8439C75.856 20.9657 75.8514 21.0901 75.8227 21.2101C75.794 21.3301 75.7419 21.4432 75.6694 21.5429C75.5969 21.6427 75.5053 21.7271 75.4 21.7913C75.2947 21.8556 75.1777 21.8984 75.0558 21.9172C74.9376 21.9439 74.8152 21.9462 74.6961 21.924C74.577 21.9019 74.4637 21.8557 74.363 21.7883C74.2623 21.7209 74.1764 21.6337 74.1104 21.532C74.0445 21.4304 74 21.3163 73.9796 21.1969C73.9548 21.0755 73.9547 20.9504 73.9794 20.829C74.004 20.7076 74.0529 20.5924 74.1231 20.4903C74.1933 20.3882 74.2834 20.3014 74.3879 20.2349C74.4924 20.1684 74.6093 20.1237 74.7315 20.1035H74.7286Z" fill="white" stroke="#FFE600" stroke-width="0.286988" stroke-miterlimit="10"/>
</g>
<path d="M96.0234 50.245C94.4306 50.245 93.1441 49.7482 92.164 48.7544C91.0204 47.5836 90.4487 45.8411 90.4487 43.5268C90.4487 42.5466 90.5508 41.512 90.755 40.4229C90.9455 39.3339 91.2314 38.2584 91.6126 37.1965C92.4839 34.8006 93.675 32.8675 95.1861 31.3972C96.9287 29.7228 98.9366 28.8855 101.21 28.8855C102.34 28.8855 103.184 29.0829 103.742 29.4777C104.314 29.8589 104.6 30.3694 104.6 31.0092V31.3155L105.049 29.0897H111.073L108.071 43.3022C107.949 43.7106 107.887 44.1598 107.887 44.6499C107.887 45.8479 108.459 46.4469 109.603 46.4469C110.365 46.4469 111.059 46.0589 111.686 45.2829C112.217 44.6295 112.652 43.7038 112.993 42.5058H114.749C114 44.6295 113.095 46.3108 112.033 47.5496C111.134 48.5706 110.12 49.3057 108.99 49.755C108.16 50.0817 107.282 50.245 106.356 50.245C105.172 50.245 104.225 49.9251 103.518 49.2853C102.823 48.6318 102.401 47.6721 102.252 46.406C101.462 47.5224 100.632 48.3936 99.7603 49.0198C98.644 49.8366 97.3983 50.245 96.0234 50.245ZM98.7393 46.2018C99.0524 46.2018 99.3791 46.1202 99.7194 45.9568C100.073 45.7934 100.414 45.562 100.74 45.2625C101.476 44.5546 101.966 43.6357 102.211 42.5058L104.212 33.0717C104.212 32.9355 104.178 32.779 104.11 32.602C104.055 32.4114 103.974 32.2344 103.865 32.0711C103.538 31.6763 103.082 31.4789 102.497 31.4789C101.938 31.4789 101.394 31.6627 100.863 32.0302C100.346 32.3978 99.8556 32.9083 99.3927 33.5618C98.5759 34.7461 97.902 36.2912 97.3711 38.1971C97.1261 39.0412 96.9423 39.8784 96.8198 40.7088C96.6972 41.5256 96.636 42.2676 96.636 42.9346C96.636 44.3232 96.8946 45.2625 97.4119 45.7526C97.5889 45.9432 97.7863 46.0657 98.0041 46.1202C98.2219 46.1746 98.467 46.2018 98.7393 46.2018ZM118.036 50.245C116.444 50.245 115.157 49.7482 114.177 48.7544C113.033 47.5836 112.462 45.8411 112.462 43.5268C112.462 42.5466 112.564 41.512 112.768 40.4229C112.959 39.3339 113.244 38.2584 113.626 37.1965C114.497 34.8006 115.688 32.8675 117.199 31.3972C118.942 29.7228 120.95 28.8855 123.223 28.8855C124.353 28.8855 125.197 29.0829 125.755 29.4777C126.327 29.8589 126.613 30.3694 126.613 31.0092V31.1726L128.655 21.5547L134.842 20.7175L130.043 43.3022C129.921 43.7106 129.86 44.1598 129.86 44.6499C129.86 45.2217 129.996 45.6233 130.268 45.8547C130.54 46.0861 130.976 46.2018 131.575 46.2018C132.351 46.2018 133.045 45.8547 133.658 45.1604C134.175 44.5478 134.611 43.6629 134.965 42.5058H136.721C135.986 44.6023 135.08 46.2563 134.005 47.4679C133.093 48.4753 132.079 49.1764 130.962 49.5712C130.159 49.8571 129.281 50 128.328 50C127.171 50 126.238 49.6937 125.531 49.0811C124.823 48.4685 124.387 47.5768 124.224 46.406C123.475 47.536 122.665 48.4072 121.794 49.0198C120.664 49.8366 119.411 50.245 118.036 50.245ZM120.752 46.2018C121.052 46.2018 121.372 46.127 121.712 45.9772C122.066 45.8275 122.399 45.6165 122.713 45.3442C123.448 44.6771 123.938 43.8059 124.183 42.7304V42.5058L126.225 32.9287C126.13 32.5475 125.993 32.2412 125.816 32.0098C125.531 31.6559 125.095 31.4789 124.51 31.4789C123.951 31.4789 123.407 31.6627 122.876 32.0302C122.359 32.3978 121.869 32.9083 121.406 33.5618C120.589 34.7461 119.915 36.2912 119.384 38.1971C119.139 39.0412 118.955 39.8784 118.833 40.7088C118.71 41.5256 118.649 42.2676 118.649 42.9346C118.649 44.3232 118.908 45.2625 119.425 45.7526C119.602 45.9432 119.799 46.0657 120.017 46.1202C120.235 46.1746 120.48 46.2018 120.752 46.2018ZM160.408 50.245C158.679 50.245 157.4 49.755 156.569 48.7748C155.848 47.9308 155.487 46.8485 155.487 45.528C155.487 44.9018 155.562 44.1734 155.712 43.343C155.875 42.5126 156.113 41.4439 156.426 40.1371C156.739 38.8029 156.971 37.7411 157.121 36.9515C157.284 36.1483 157.366 35.454 157.366 34.8686C157.366 33.4392 156.862 32.7245 155.855 32.7245C155.147 32.7245 154.493 33.0989 153.894 33.8476C153.39 34.4875 152.955 35.3996 152.587 36.5839L149.749 50H143.725L146.788 35.5629C146.87 35.2362 146.91 34.8891 146.91 34.5215C146.91 33.9633 146.822 33.5345 146.645 33.235C146.414 32.8675 146.08 32.6837 145.644 32.6837C144.855 32.6837 144.167 33.0649 143.582 33.8272C143.065 34.4807 142.622 35.3996 142.255 36.5839L139.416 50H133.392L137.823 29.0897H143.847L143.398 31.2543C144.215 30.3422 145.107 29.6955 146.073 29.3144C146.836 29.0285 147.646 28.8855 148.503 28.8855C149.674 28.8855 150.607 29.1578 151.301 29.7023C152.077 30.3149 152.574 31.2407 152.791 32.4795C153.69 31.0909 154.725 30.1107 155.895 29.539C156.726 29.1306 157.631 28.9264 158.611 28.9264C160.013 28.9264 161.123 29.2939 161.94 30.0291C162.811 30.8323 163.247 32.037 163.247 33.6434C163.247 34.5555 163.076 35.8148 162.736 37.4212C162.6 38.0882 162.437 38.7621 162.246 39.4428C161.906 40.7497 161.627 41.9544 161.409 43.0571C161.3 43.6289 161.245 44.0918 161.245 44.4457C161.245 45.0039 161.368 45.4395 161.613 45.7526C161.872 46.0521 162.307 46.2018 162.92 46.2018C163.75 46.2018 164.451 45.8615 165.023 45.1808C165.459 44.6635 165.928 43.7718 166.432 42.5058H168.188C167.154 45.5688 165.847 47.7129 164.268 48.9382C163.151 49.8094 161.865 50.245 160.408 50.245ZM173.416 26.8231C172.967 26.8231 172.538 26.7414 172.129 26.578C171.721 26.4011 171.367 26.1628 171.068 25.8633C170.768 25.5775 170.53 25.2303 170.353 24.8219C170.189 24.4135 170.108 23.9847 170.108 23.5354C170.108 23.0862 170.189 22.6574 170.353 22.249C170.53 21.8406 170.768 21.4798 171.068 21.1667C171.367 20.8536 171.721 20.6154 172.129 20.452C172.538 20.275 172.967 20.1865 173.416 20.1865C173.865 20.1865 174.294 20.275 174.702 20.452C175.111 20.6154 175.472 20.8536 175.785 21.1667C176.098 21.4798 176.336 21.8406 176.499 22.249C176.676 22.6574 176.765 23.0862 176.765 23.5354C176.765 23.9847 176.676 24.4135 176.499 24.8219C176.336 25.2303 176.098 25.5775 175.785 25.8633C175.472 26.1628 175.111 26.4011 174.702 26.578C174.294 26.7414 173.865 26.8231 173.416 26.8231ZM170.577 50.245C169.243 50.245 168.188 49.8503 167.412 49.0607C166.541 48.1894 166.105 46.9166 166.105 45.2421C166.105 44.4525 166.214 43.5404 166.432 42.5058L169.271 29.0897H175.295L172.293 43.3022C172.184 43.6561 172.129 44.1054 172.129 44.6499C172.129 45.2217 172.259 45.6233 172.517 45.8547C172.79 46.0861 173.225 46.2018 173.824 46.2018C174.233 46.2018 174.627 46.1134 175.009 45.9364C175.403 45.7458 175.764 45.4871 176.091 45.1604C176.758 44.4934 177.262 43.6085 177.602 42.5058H179.358C178.609 44.6159 177.67 46.2971 176.54 47.5496C175.587 48.5706 174.512 49.3057 173.314 49.755C172.443 50.0817 171.53 50.245 170.577 50.245ZM192.713 50.245C190.984 50.245 189.704 49.755 188.874 48.7748C188.152 47.9308 187.792 46.8485 187.792 45.528C187.792 44.9018 187.867 44.1734 188.016 43.343C188.18 42.5126 188.418 41.4439 188.731 40.1371C189.044 38.8029 189.276 37.7411 189.425 36.9515C189.589 36.1483 189.67 35.454 189.67 34.8686C189.67 33.4392 189.167 32.7245 188.159 32.7245C187.451 32.7245 186.798 33.0989 186.199 33.8476C185.695 34.4875 185.26 35.3996 184.892 36.5839L182.054 50H176.03L180.461 29.0897H186.485L186.036 31.2543C186.852 30.3422 187.73 29.7023 188.67 29.3348C189.364 29.0625 190.113 28.9264 190.916 28.9264C192.332 28.9264 193.448 29.2939 194.265 30.0291C195.136 30.8323 195.572 32.037 195.572 33.6434C195.572 34.61 195.395 35.8692 195.041 37.4212C194.946 37.8704 194.789 38.5443 194.571 39.4428C194.176 40.9539 193.891 42.1586 193.714 43.0571C193.605 43.6289 193.55 44.0918 193.55 44.4457C193.55 45.0039 193.673 45.4395 193.918 45.7526C194.176 46.0521 194.612 46.2018 195.225 46.2018C196.055 46.2018 196.756 45.8615 197.328 45.1808C197.764 44.6635 198.233 43.7718 198.737 42.5058H200.493C199.458 45.5688 198.152 47.7129 196.572 48.9382C195.456 49.8094 194.17 50.245 192.713 50.245Z" fill="#F7C427"/>
<path d="M92.164 48.7544L90.9527 49.9374L90.9585 49.9433L92.164 48.7544ZM90.755 40.4229L92.4191 40.735L92.421 40.7249L92.4227 40.7148L90.755 40.4229ZM91.6126 37.1965L90.0214 36.6179L90.019 36.6245L91.6126 37.1965ZM95.1861 31.3972L94.013 30.1764L94.0054 30.1837L95.1861 31.3972ZM103.742 29.4777L102.764 30.86L102.784 30.8735L102.803 30.8865L103.742 29.4777ZM104.6 31.3155H102.907L106.26 31.6505L104.6 31.3155ZM105.049 29.0897V27.3966H103.664L103.389 28.7548L105.049 29.0897ZM111.073 29.0897L112.73 29.4396L113.161 27.3966H111.073V29.0897ZM108.071 43.3022L109.693 43.7887L109.713 43.7211L109.728 43.6521L108.071 43.3022ZM111.686 45.2829L110.372 44.2153L110.368 44.2196L111.686 45.2829ZM112.993 42.5058V40.8127H111.713L111.364 42.0431L112.993 42.5058ZM114.749 42.5058L116.345 43.0688L117.141 40.8127H114.749V42.5058ZM112.033 47.5496L113.304 48.6681L113.311 48.6598L113.318 48.6515L112.033 47.5496ZM108.99 49.755L109.61 51.3305L109.616 51.3283L108.99 49.755ZM103.518 49.2853L102.357 50.5182L102.37 50.5299L102.382 50.5414L103.518 49.2853ZM102.252 46.406L103.933 46.2072L103.415 41.829L100.869 45.4283L102.252 46.406ZM99.7603 49.0198L98.7721 47.645L98.7663 47.6492L98.7605 47.6534L99.7603 49.0198ZM99.7194 45.9568L99.0099 44.4195L98.9983 44.4249L98.9868 44.4304L99.7194 45.9568ZM100.74 45.2625L101.885 46.5106L101.9 46.4965L101.915 46.4821L100.74 45.2625ZM102.211 42.5058L103.865 42.8646L103.867 42.8571L102.211 42.5058ZM104.212 33.0717L105.868 33.423L105.905 33.2493V33.0717H104.212ZM104.11 32.602L102.482 33.0671L102.502 33.1395L102.529 33.2098L104.11 32.602ZM103.865 32.0711L105.273 31.1319L105.225 31.059L105.169 30.9916L103.865 32.0711ZM100.863 32.0302L99.8992 30.6382L99.8907 30.644L99.8823 30.65L100.863 32.0302ZM99.3927 33.5618L98.0111 32.5831L98.0049 32.5918L97.9989 32.6005L99.3927 33.5618ZM97.3711 38.1971L98.9971 38.6692L98.9997 38.6604L99.0021 38.6515L97.3711 38.1971ZM96.8198 40.7088L98.4942 40.96L98.4947 40.9559L96.8198 40.7088ZM97.4119 45.7526L98.6527 44.6005L98.6157 44.5608L98.5764 44.5235L97.4119 45.7526ZM96.0234 48.5519C94.814 48.5519 93.9856 48.1902 93.3694 47.5654L90.9585 49.9433C92.3026 51.3061 94.0471 51.9382 96.0234 51.9382V48.5519ZM93.3752 47.5713C92.6491 46.828 92.1418 45.5834 92.1418 43.5268H88.7555C88.7555 46.0988 89.3917 48.3392 90.9527 49.9374L93.3752 47.5713ZM92.1418 43.5268C92.1418 42.6638 92.2317 41.7342 92.4191 40.735L89.0908 40.1109C88.8698 41.2898 88.7555 42.4294 88.7555 43.5268H92.1418ZM92.4227 40.7148C92.5963 39.723 92.857 38.7412 93.2062 37.7686L90.019 36.6245C89.6058 37.7756 89.2948 38.9447 89.0872 40.1311L92.4227 40.7148ZM93.2038 37.7752C94.0058 35.5696 95.073 33.8696 96.3668 32.6107L94.0054 30.1837C92.2771 31.8653 90.9619 34.0315 90.0214 36.6179L93.2038 37.7752ZM96.3593 32.618C97.8083 31.2256 99.4035 30.5787 101.21 30.5787V27.1924C98.4698 27.1924 96.049 28.2199 94.013 30.1764L96.3593 32.618ZM101.21 30.5787C102.197 30.5787 102.625 30.761 102.764 30.86L104.72 28.0954C103.744 27.4048 102.483 27.1924 101.21 27.1924V30.5787ZM102.803 30.8865C102.905 30.9544 102.917 30.9897 102.908 30.9737C102.907 30.9716 102.906 30.9688 102.904 30.966C102.903 30.9631 102.903 30.9616 102.903 30.962C102.903 30.962 102.907 30.9761 102.907 31.0092H106.293C106.293 29.7553 105.683 28.7365 104.681 28.0689L102.803 30.8865ZM102.907 31.0092V31.3155H106.293V31.0092H102.907ZM106.26 31.6505L106.709 29.4247L103.389 28.7548L102.94 30.9806L106.26 31.6505ZM105.049 30.7829H111.073V27.3966H105.049V30.7829ZM109.416 28.7398L106.415 42.9523L109.728 43.6521L112.73 29.4396L109.416 28.7398ZM106.45 42.8157C106.273 43.4034 106.194 44.0191 106.194 44.6499H109.581C109.581 44.3005 109.624 44.0177 109.693 43.7887L106.45 42.8157ZM106.194 44.6499C106.194 45.4907 106.394 46.4356 107.092 47.1667C107.804 47.9125 108.749 48.14 109.603 48.14V44.7538C109.46 44.7538 109.406 44.7345 109.411 44.7361C109.414 44.7375 109.432 44.7443 109.459 44.7607C109.485 44.7775 109.514 44.8003 109.541 44.8286C109.568 44.8567 109.586 44.8834 109.598 44.9035C109.609 44.9229 109.611 44.9313 109.608 44.9227C109.605 44.9137 109.598 44.8883 109.592 44.8423C109.586 44.7963 109.581 44.733 109.581 44.6499H106.194ZM109.603 48.14C111.026 48.14 112.162 47.3883 113.003 46.3463L110.368 44.2196C109.957 44.7295 109.705 44.7538 109.603 44.7538V48.14ZM113 46.3506C113.728 45.4548 114.246 44.2909 114.621 42.9685L111.364 42.0431C111.059 43.1167 110.706 43.8042 110.372 44.2153L113 46.3506ZM112.993 44.1989H114.749V40.8127H112.993V44.1989ZM113.152 41.9428C112.448 43.939 111.632 45.4156 110.747 46.4477L113.318 48.6515C114.557 47.2059 115.552 45.32 116.345 43.0688L113.152 41.9428ZM110.762 46.431C110.018 47.2757 109.218 47.8422 108.365 48.1816L109.616 51.3283C111.022 50.7693 112.25 49.8654 113.304 48.6681L110.762 46.431ZM108.37 48.1794C107.745 48.4255 107.078 48.5519 106.356 48.5519V51.9382C107.486 51.9382 108.575 51.7378 109.61 51.3305L108.37 48.1794ZM106.356 48.5519C105.486 48.5519 104.979 48.3242 104.653 48.0292L102.382 50.5414C103.472 51.526 104.858 51.9382 106.356 51.9382V48.5519ZM104.678 48.0524C104.359 47.7517 104.052 47.2121 103.933 46.2072L100.57 46.6049C100.751 48.1321 101.288 49.512 102.357 50.5182L104.678 48.0524ZM100.869 45.4283C100.16 46.4313 99.4556 47.1537 98.7721 47.645L100.748 50.3947C101.807 49.6335 102.764 48.6134 103.634 47.3838L100.869 45.4283ZM98.7605 47.6534C97.9324 48.2593 97.0365 48.5519 96.0234 48.5519V51.9382C97.7602 51.9382 99.3555 51.414 100.76 50.3862L98.7605 47.6534ZM98.7393 47.895C99.3528 47.895 99.9295 47.7341 100.452 47.4832L98.9868 44.4304C98.8287 44.5063 98.7519 44.5087 98.7393 44.5087V47.895ZM100.429 47.4941C100.962 47.2481 101.446 46.9125 101.885 46.5106L99.5963 44.0144C99.3813 44.2116 99.1848 44.3388 99.0099 44.4195L100.429 47.4941ZM101.915 46.4821C102.923 45.5112 103.559 44.2777 103.865 42.8646L100.556 42.1469C100.372 42.9937 100.028 43.598 99.566 44.0429L101.915 46.4821ZM103.867 42.8571L105.868 33.423L102.556 32.7203L100.554 42.1545L103.867 42.8571ZM105.905 33.0717C105.905 32.6635 105.806 32.2945 105.69 31.9942L102.529 33.2098C102.538 33.2318 102.536 33.2317 102.532 33.2118C102.528 33.1921 102.519 33.1435 102.519 33.0717H105.905ZM105.738 32.1369C105.636 31.7795 105.48 31.4424 105.273 31.1319L102.456 33.0103C102.467 33.0265 102.475 33.0433 102.482 33.0671L105.738 32.1369ZM105.169 30.9916C104.473 30.1501 103.506 29.7858 102.497 29.7858V33.172C102.548 33.172 102.58 33.1764 102.596 33.1794C102.612 33.1824 102.613 33.1842 102.605 33.1808C102.597 33.1771 102.585 33.1708 102.574 33.1623C102.563 33.1539 102.558 33.1483 102.56 33.1506L105.169 30.9916ZM102.497 29.7858C101.542 29.7858 100.667 30.1063 99.8992 30.6382L101.827 33.4223C102.12 33.2191 102.335 33.172 102.497 33.172V29.7858ZM99.8823 30.65C99.1751 31.1525 98.5565 31.8131 98.0111 32.5831L100.774 34.5404C101.155 34.0035 101.516 33.6431 101.844 33.4104L99.8823 30.65ZM97.9989 32.6005C97.0438 33.9854 96.3039 35.7189 95.7401 37.7428L99.0021 38.6515C99.5002 36.8636 100.108 35.5068 100.787 34.523L97.9989 32.6005ZM95.7451 37.7251C95.4796 38.6394 95.279 39.5518 95.1448 40.4617L98.4947 40.9559C98.6055 40.205 98.7725 39.4429 98.9971 38.6692L95.7451 37.7251ZM95.1454 40.4577C95.0132 41.3389 94.9428 42.1665 94.9428 42.9346H98.3291C98.3291 42.3686 98.3813 41.7124 98.4941 40.96L95.1454 40.4577ZM94.9428 42.9346C94.9428 44.3973 95.1873 45.9773 96.2475 46.9817L98.5764 44.5235C98.6097 44.555 98.5387 44.5082 98.4623 44.231C98.3864 43.9553 98.3291 43.5357 98.3291 42.9346H94.9428ZM96.1712 46.9047C96.5353 47.2968 97.0093 47.6167 97.5935 47.7627L98.4148 44.4776C98.4821 44.4944 98.5403 44.5208 98.5856 44.5489C98.6293 44.576 98.6505 44.5982 98.6527 44.6005L96.1712 46.9047ZM97.5935 47.7627C97.9704 47.857 98.3568 47.895 98.7393 47.895V44.5087C98.5772 44.5087 98.4734 44.4923 98.4148 44.4776L97.5935 47.7627ZM114.177 48.7544L112.966 49.9374L112.971 49.9433L114.177 48.7544ZM112.768 40.4229L114.432 40.735L114.434 40.7249L114.436 40.7148L112.768 40.4229ZM113.626 37.1965L112.034 36.6179L112.032 36.6245L113.626 37.1965ZM117.199 31.3972L116.026 30.1764L116.018 30.1837L117.199 31.3972ZM125.755 29.4777L124.777 30.86L124.797 30.8735L124.816 30.8865L125.755 29.4777ZM126.613 31.1726H124.92L128.269 31.5242L126.613 31.1726ZM128.655 21.5547L128.428 19.8768L127.246 20.0367L126.999 21.203L128.655 21.5547ZM134.842 20.7175L136.498 21.0693L136.998 18.7172L134.615 19.0396L134.842 20.7175ZM130.043 43.3022L131.665 43.7887L131.685 43.7221L131.7 43.6541L130.043 43.3022ZM130.268 45.8547L129.171 47.1448L130.268 45.8547ZM133.658 45.1604L134.927 46.2806L134.94 46.2668L134.951 46.2528L133.658 45.1604ZM134.965 42.5058V40.8127H133.712L133.346 42.0105L134.965 42.5058ZM136.721 42.5058L138.319 43.066L139.109 40.8127H136.721V42.5058ZM134.005 47.4679L135.26 48.6043L135.266 48.5981L135.271 48.5919L134.005 47.4679ZM130.962 49.5712L130.398 47.9749L130.395 47.9761L130.962 49.5712ZM124.224 46.406L125.901 46.1721L125.283 41.743L122.812 45.4708L124.224 46.406ZM121.794 49.0198L120.82 47.6348L120.811 47.6412L120.802 47.6477L121.794 49.0198ZM121.712 45.9772L121.052 44.4179L121.041 44.4226L121.03 44.4275L121.712 45.9772ZM122.713 45.3442L123.824 46.6218L123.837 46.6101L123.85 46.5981L122.713 45.3442ZM124.183 42.7304L125.834 43.1065L125.876 42.9209V42.7304H124.183ZM124.183 42.5058L122.527 42.1527L122.49 42.3273V42.5058H124.183ZM126.225 32.9287L127.881 33.2818L127.962 32.8984L127.867 32.5181L126.225 32.9287ZM125.816 32.0098L127.161 30.9813L127.148 30.9635L127.134 30.946L125.816 32.0098ZM122.876 32.0302L121.912 30.6382L121.904 30.644L121.895 30.65L122.876 32.0302ZM121.406 33.5618L120.024 32.5831L120.018 32.5918L120.012 32.6005L121.406 33.5618ZM119.384 38.1971L121.01 38.6692L121.013 38.6604L121.015 38.6515L119.384 38.1971ZM118.833 40.7088L120.507 40.96L120.508 40.9559L118.833 40.7088ZM119.425 45.7526L120.666 44.6005L120.629 44.5608L120.589 44.5235L119.425 45.7526ZM118.036 48.5519C116.827 48.5519 115.999 48.1902 115.382 47.5654L112.971 49.9433C114.316 51.3061 116.06 51.9382 118.036 51.9382V48.5519ZM115.388 47.5713C114.662 46.828 114.155 45.5834 114.155 43.5268H110.768C110.768 46.0988 111.405 48.3392 112.966 49.9374L115.388 47.5713ZM114.155 43.5268C114.155 42.6638 114.245 41.7342 114.432 40.735L111.104 40.1109C110.883 41.2898 110.768 42.4294 110.768 43.5268H114.155ZM114.436 40.7148C114.609 39.723 114.87 38.7412 115.219 37.7686L112.032 36.6245C111.619 37.7756 111.308 38.9447 111.1 40.1311L114.436 40.7148ZM115.217 37.7752C116.019 35.5696 117.086 33.8696 118.38 32.6107L116.018 30.1837C114.29 31.8653 112.975 34.0315 112.034 36.6179L115.217 37.7752ZM118.372 32.618C119.821 31.2256 121.416 30.5787 123.223 30.5787V27.1924C120.483 27.1924 118.062 28.2199 116.026 30.1764L118.372 32.618ZM123.223 30.5787C124.21 30.5787 124.638 30.761 124.777 30.86L126.733 28.0954C125.757 27.4048 124.496 27.1924 123.223 27.1924V30.5787ZM124.816 30.8865C124.918 30.9544 124.93 30.9897 124.921 30.9737C124.92 30.9716 124.919 30.9688 124.917 30.966C124.916 30.9631 124.916 30.9616 124.916 30.962C124.916 30.962 124.92 30.9761 124.92 31.0092H128.306C128.306 29.7553 127.696 28.7365 126.694 28.0689L124.816 30.8865ZM124.92 31.0092V31.1726H128.306V31.0092H124.92ZM128.269 31.5242L130.311 21.9063L126.999 21.203L124.957 30.821L128.269 31.5242ZM128.882 23.2325L135.069 22.3953L134.615 19.0396L128.428 19.8768L128.882 23.2325ZM133.186 20.3656L128.387 42.9503L131.7 43.6541L136.498 21.0693L133.186 20.3656ZM128.422 42.8157C128.245 43.4034 128.166 44.0191 128.166 44.6499H131.553C131.553 44.3005 131.596 44.0177 131.665 43.7887L128.422 42.8157ZM128.166 44.6499C128.166 45.4241 128.343 46.4404 129.171 47.1448L131.365 44.5646C131.43 44.6199 131.478 44.6787 131.512 44.7313C131.545 44.7827 131.56 44.8213 131.565 44.8364C131.57 44.8508 131.567 44.845 131.562 44.8123C131.557 44.7797 131.553 44.7267 131.553 44.6499H128.166ZM129.171 47.1448C129.898 47.7623 130.825 47.895 131.575 47.895V44.5087C131.377 44.5087 131.272 44.4888 131.234 44.4787C131.198 44.4691 131.265 44.4802 131.365 44.5646L129.171 47.1448ZM131.575 47.895C132.931 47.895 134.061 47.2621 134.927 46.2806L132.388 44.0402C132.029 44.4473 131.771 44.5087 131.575 44.5087V47.895ZM134.951 46.2528C135.672 45.3994 136.194 44.2763 136.584 43.001L133.346 42.0105C133.028 43.0496 132.678 43.6962 132.364 44.068L134.951 46.2528ZM134.965 44.1989H136.721V40.8127H134.965V44.1989ZM135.123 41.9455C134.435 43.9065 133.625 45.3458 132.739 46.3439L135.271 48.5919C136.536 47.1668 137.536 45.2981 138.319 43.066L135.123 41.9455ZM132.75 46.3315C131.998 47.1617 131.212 47.6868 130.398 47.9749L131.527 51.1674C132.945 50.666 134.188 49.7888 135.26 48.6043L132.75 46.3315ZM130.395 47.9761C129.794 48.1899 129.11 48.3069 128.328 48.3069V51.6931C129.452 51.6931 130.524 51.5242 131.53 51.1663L130.395 47.9761ZM128.328 48.3069C127.478 48.3069 126.971 48.0884 126.638 47.8008L124.423 50.3614C125.506 51.299 126.864 51.6931 128.328 51.6931V48.3069ZM126.638 47.8008C126.316 47.5213 126.023 47.0468 125.901 46.1721L122.547 46.64C122.751 48.1068 123.33 49.4156 124.423 50.3614L126.638 47.8008ZM122.812 45.4708C122.15 46.4707 121.479 47.1716 120.82 47.6348L122.767 50.4049C123.851 49.6428 124.8 48.6012 125.635 47.3413L122.812 45.4708ZM120.802 47.6477C119.956 48.259 119.05 48.5519 118.036 48.5519V51.9382C119.773 51.9382 121.371 51.4143 122.786 50.392L120.802 47.6477ZM120.752 47.895C121.336 47.895 121.889 47.7491 122.394 47.527L121.03 44.4275C120.854 44.5048 120.767 44.5087 120.752 44.5087V47.895ZM122.372 47.5365C122.903 47.3119 123.386 47.0019 123.824 46.6218L121.602 44.0666C121.412 44.2311 121.229 44.343 121.052 44.4179L122.372 47.5365ZM123.85 46.5981C124.871 45.6722 125.52 44.481 125.834 43.1065L122.532 42.3543C122.355 43.1308 122.025 43.682 121.575 44.0903L123.85 46.5981ZM125.876 42.7304V42.5058H122.49V42.7304H125.876ZM125.839 42.8589L127.881 33.2818L124.569 32.5757L122.527 42.1527L125.839 42.8589ZM127.867 32.5181C127.735 31.9865 127.518 31.4483 127.161 30.9813L124.471 33.0383C124.468 33.0342 124.525 33.1086 124.582 33.3394L127.867 32.5181ZM127.134 30.946C126.438 30.085 125.448 29.7858 124.51 29.7858V33.172C124.635 33.172 124.666 33.1914 124.638 33.1803C124.623 33.1743 124.599 33.1622 124.57 33.1412C124.542 33.1202 124.518 33.0964 124.499 33.0737L127.134 30.946ZM124.51 29.7858C123.555 29.7858 122.68 30.1063 121.912 30.6382L123.84 33.4223C124.133 33.2191 124.348 33.172 124.51 33.172V29.7858ZM121.895 30.65C121.188 31.1525 120.569 31.8131 120.024 32.5831L122.787 34.5404C123.168 34.0035 123.529 33.6431 123.857 33.4104L121.895 30.65ZM120.012 32.6005C119.057 33.9854 118.317 35.7189 117.753 37.7428L121.015 38.6515C121.513 36.8636 122.121 35.5068 122.799 34.523L120.012 32.6005ZM117.758 37.7251C117.493 38.6394 117.292 39.5518 117.158 40.4617L120.508 40.9559C120.619 40.205 120.785 39.4429 121.01 38.6692L117.758 37.7251ZM117.158 40.4577C117.026 41.3389 116.956 42.1665 116.956 42.9346H120.342C120.342 42.3686 120.394 41.7124 120.507 40.96L117.158 40.4577ZM116.956 42.9346C116.956 44.3973 117.2 45.9773 118.26 46.9817L120.589 44.5235C120.623 44.555 120.552 44.5082 120.475 44.231C120.399 43.9553 120.342 43.5357 120.342 42.9346H116.956ZM118.184 46.9047C118.548 47.2968 119.022 47.6167 119.606 47.7627L120.428 44.4776C120.495 44.4944 120.553 44.5208 120.599 44.5489C120.642 44.576 120.663 44.5982 120.666 44.6005L118.184 46.9047ZM119.606 47.7627C119.983 47.857 120.37 47.895 120.752 47.895V44.5087C120.59 44.5087 120.486 44.4923 120.428 44.4776L119.606 47.7627ZM156.569 48.7748L157.861 47.6803L157.856 47.6746L156.569 48.7748ZM155.712 43.343L154.05 43.0162L154.048 43.0294L154.045 43.0425L155.712 43.343ZM156.426 40.1371L158.073 40.5315L158.075 40.5239L156.426 40.1371ZM157.121 36.9515L155.461 36.614L155.459 36.625L155.457 36.636L157.121 36.9515ZM153.894 33.8476L152.572 32.7899L152.564 32.8003L153.894 33.8476ZM152.587 36.5839L150.97 36.0821L150.947 36.1569L150.931 36.2335L152.587 36.5839ZM149.749 50V51.6931H151.121L151.405 50.3505L149.749 50ZM143.725 50L142.069 49.6486L141.635 51.6931H143.725V50ZM146.788 35.5629L145.145 35.1523L145.138 35.1818L145.132 35.2115L146.788 35.5629ZM146.645 33.235L148.103 32.3737L148.091 32.3531L148.078 32.3329L146.645 33.235ZM143.582 33.8272L144.909 34.8781L144.917 34.8683L144.925 34.8584L143.582 33.8272ZM142.255 36.5839L140.638 36.0821L140.614 36.1569L140.598 36.2335L142.255 36.5839ZM139.416 50V51.6931H140.789L141.073 50.3505L139.416 50ZM133.392 50L131.736 49.649L131.303 51.6931H133.392V50ZM137.823 29.0897V27.3966H136.452L136.167 28.7387L137.823 29.0897ZM143.847 29.0897L145.505 29.4338L145.928 27.3966H143.847V29.0897ZM143.398 31.2543L141.74 30.9102L140.462 37.0714L144.659 32.3838L143.398 31.2543ZM146.073 29.3144L145.479 27.729L145.465 27.734L145.452 27.7393L146.073 29.3144ZM151.301 29.7023L152.35 28.3734L152.346 28.3701L151.301 29.7023ZM152.791 32.4795L151.124 32.7727L151.871 37.0193L154.213 33.3993L152.791 32.4795ZM155.895 29.539L156.638 31.0604L156.643 31.0583L155.895 29.539ZM161.94 30.0291L163.087 28.7842L163.08 28.7773L163.072 28.7706L161.94 30.0291ZM162.736 37.4212L161.08 37.0702L161.077 37.0826L162.736 37.4212ZM162.246 39.4428L160.616 38.9862L160.611 39.0011L160.608 39.0161L162.246 39.4428ZM161.409 43.0571L159.748 42.729L159.746 42.7403L161.409 43.0571ZM161.613 45.7526L160.28 46.7961L160.305 46.8283L160.332 46.8593L161.613 45.7526ZM165.023 45.1808L163.728 44.0902L163.727 44.0918L165.023 45.1808ZM166.432 42.5058V40.8127H165.284L164.859 41.8799L166.432 42.5058ZM168.188 42.5058L169.792 43.0476L170.547 40.8127H168.188V42.5058ZM164.268 48.9381L163.23 47.6004L163.226 47.6034L164.268 48.9381ZM160.408 48.5519C158.995 48.5519 158.268 48.1609 157.861 47.6803L155.277 49.8693C156.531 51.349 158.364 51.9382 160.408 51.9382V48.5519ZM157.856 47.6746C157.445 47.193 157.18 46.5252 157.18 45.528H153.794C153.794 47.1718 154.251 48.6685 155.282 49.875L157.856 47.6746ZM157.18 45.528C157.18 45.0303 157.24 44.4065 157.378 43.6435L154.045 43.0425C153.883 43.9404 153.794 44.7732 153.794 45.528H157.18ZM157.373 43.6698C157.53 42.8712 157.762 41.8273 158.073 40.5315L154.78 39.7426C154.464 41.0606 154.22 42.154 154.05 43.0162L157.373 43.6698ZM158.075 40.5239C158.39 39.1801 158.628 38.0913 158.784 37.267L155.457 36.636C155.314 37.3909 155.089 38.4258 154.778 39.7502L158.075 40.5239ZM158.78 37.289C158.957 36.4151 159.059 35.6023 159.059 34.8686H155.672C155.672 35.3058 155.61 35.8815 155.461 36.614L158.78 37.289ZM159.059 34.8686C159.059 34.0067 158.916 33.0577 158.372 32.2852C157.751 31.4043 156.812 31.0314 155.855 31.0314V34.4177C155.907 34.4177 155.871 34.4265 155.792 34.3891C155.704 34.3476 155.638 34.2847 155.604 34.2359C155.577 34.1978 155.597 34.2082 155.623 34.3178C155.649 34.4278 155.672 34.6053 155.672 34.8686H159.059ZM155.855 31.0314C154.465 31.0314 153.371 31.7913 152.572 32.7899L155.216 34.9053C155.615 34.4064 155.828 34.4177 155.855 34.4177V31.0314ZM152.564 32.8003C151.883 33.6649 151.37 34.7926 150.97 36.0821L154.204 37.0858C154.539 36.0065 154.898 35.31 155.225 34.8949L152.564 32.8003ZM150.931 36.2335L148.092 49.6495L151.405 50.3505L154.244 36.9344L150.931 36.2335ZM149.749 48.3069H143.725V51.6931H149.749V48.3069ZM145.381 50.3514L148.444 35.9143L145.132 35.2115L142.069 49.6486L145.381 50.3514ZM148.431 35.9736C148.549 35.5009 148.604 35.015 148.604 34.5215H145.217C145.217 34.7631 145.191 34.9715 145.145 35.1523L148.431 35.9736ZM148.604 34.5215C148.604 33.8257 148.5 33.0468 148.103 32.3737L145.187 34.0964C145.16 34.0499 145.17 34.0467 145.186 34.1234C145.202 34.1995 145.217 34.3277 145.217 34.5215H148.604ZM148.078 32.3329C147.535 31.4713 146.66 30.9906 145.644 30.9906V34.3768C145.618 34.3768 145.522 34.3692 145.404 34.3044C145.286 34.2395 145.228 34.1614 145.212 34.1371L148.078 32.3329ZM145.644 30.9906C144.213 30.9906 143.067 31.7174 142.239 32.7961L144.925 34.8584C145.267 34.4123 145.497 34.3768 145.644 34.3768V30.9906ZM142.254 32.7763C141.561 33.6527 141.04 34.7864 140.638 36.0821L143.872 37.0858C144.205 36.0127 144.569 35.3086 144.909 34.8781L142.254 32.7763ZM140.598 36.2335L137.76 49.6495L141.073 50.3505L143.911 36.9344L140.598 36.2335ZM139.416 48.3069H133.392V51.6931H139.416V48.3069ZM135.049 50.351L139.48 29.4407L136.167 28.7387L131.736 49.649L135.049 50.351ZM137.823 30.7829H143.847V27.3966H137.823V30.7829ZM142.19 28.7457L141.74 30.9102L145.056 31.5983L145.505 29.4338L142.19 28.7457ZM144.659 32.3838C145.332 31.6331 146.013 31.1581 146.694 30.8894L145.452 27.7393C144.2 28.233 143.098 29.0512 142.137 30.1248L144.659 32.3838ZM146.668 30.8997C147.23 30.6888 147.838 30.5787 148.503 30.5787V27.1924C147.454 27.1924 146.441 27.3681 145.479 27.729L146.668 30.8997ZM148.503 30.5787C149.419 30.5787 149.944 30.7903 150.256 31.0346L152.346 28.3701C151.269 27.5253 149.929 27.1924 148.503 27.1924V30.5787ZM150.252 31.0312C150.62 31.322 150.958 31.8282 151.124 32.7727L154.459 32.1863C154.189 30.6531 153.534 29.3079 152.35 28.3734L150.252 31.0312ZM154.213 33.3993C154.989 32.2005 155.81 31.4651 156.638 31.0604L155.152 28.0176C153.64 28.7564 152.391 29.9813 151.37 31.5597L154.213 33.3993ZM156.643 31.0583C157.227 30.771 157.874 30.6195 158.611 30.6195V27.2332C157.388 27.2332 156.225 27.4902 155.148 28.0196L156.643 31.0583ZM158.611 30.6195C159.714 30.6195 160.38 30.9029 160.807 31.2875L163.072 28.7706C161.866 27.685 160.312 27.2332 158.611 27.2332V30.6195ZM160.792 31.2739C161.205 31.6546 161.553 32.335 161.553 33.6434H164.94C164.94 31.7391 164.417 30.0099 163.087 28.7842L160.792 31.2739ZM161.553 33.6434C161.553 34.3794 161.412 35.5033 161.08 37.0702L164.392 37.7721C164.741 36.1263 164.94 34.7317 164.94 33.6434H161.553ZM161.077 37.0826C160.949 37.7085 160.796 38.3431 160.616 38.9862L163.876 39.8993C164.078 39.1811 164.251 38.4679 164.395 37.7597L161.077 37.0826ZM160.608 39.0161C160.26 40.3493 159.973 41.5875 159.748 42.729L163.07 43.3852C163.28 42.3214 163.551 41.15 163.885 39.8695L160.608 39.0161ZM159.746 42.7403C159.628 43.3591 159.552 43.9397 159.552 44.4457H162.939C162.939 44.2439 162.972 43.8987 163.072 43.3739L159.746 42.7403ZM159.552 44.4457C159.552 45.2324 159.724 46.0855 160.28 46.7961L162.946 44.7091C163.012 44.7935 162.939 44.7753 162.939 44.4457H159.552ZM160.332 46.8593C161.054 47.6955 162.085 47.895 162.92 47.895V44.5087C162.835 44.5087 162.774 44.5034 162.733 44.4977C162.693 44.4919 162.678 44.4864 162.684 44.4884C162.691 44.4906 162.719 44.5012 162.76 44.5276C162.802 44.5548 162.849 44.5939 162.894 44.6459L160.332 46.8593ZM162.92 47.895C164.289 47.895 165.452 47.3027 166.32 46.2698L163.727 44.0918C163.451 44.4203 163.211 44.5087 162.92 44.5087V47.895ZM166.318 46.2714C166.938 45.5359 167.488 44.4314 168.005 43.1317L164.859 41.8799C164.369 43.1123 163.98 43.7911 163.728 44.0902L166.318 46.2714ZM166.432 44.1989H168.188V40.8127H166.432V44.1989ZM166.584 41.964C165.596 44.8889 164.43 46.6695 163.23 47.6004L165.306 50.2759C167.264 48.7564 168.711 46.2488 169.792 43.0476L166.584 41.964ZM163.226 47.6034C162.416 48.2353 161.499 48.5519 160.408 48.5519V51.9382C162.231 51.9382 163.886 51.3835 165.309 50.2729L163.226 47.6034ZM172.129 26.578L171.456 28.1316L171.478 28.1411L171.501 28.1501L172.129 26.578ZM171.068 25.8633L172.265 24.6661L172.251 24.6522L172.237 24.6386L171.068 25.8633ZM170.353 24.8219L168.781 25.4507L168.79 25.473L168.799 25.4951L170.353 24.8219ZM170.353 22.249L168.799 21.5758L168.79 21.5978L168.781 21.6202L170.353 22.249ZM172.129 20.452L172.758 22.024L172.781 22.0151L172.803 22.0055L172.129 20.452ZM174.702 20.452L174.029 22.0055L174.051 22.0151L174.074 22.024L174.702 20.452ZM176.499 22.249L174.927 22.8778L174.936 22.9001L174.946 22.9222L176.499 22.249ZM176.499 24.8219L174.946 24.1487L174.936 24.1708L174.927 24.1931L176.499 24.8219ZM175.785 25.8633L174.643 24.613L174.628 24.6262L174.614 24.6398L175.785 25.8633ZM174.702 26.578L175.331 28.1501L175.353 28.1411L175.376 28.1316L174.702 26.578ZM167.412 49.0607L168.62 47.8739L168.615 47.8687L168.61 47.8634L167.412 49.0607ZM166.432 42.5058L164.776 42.1553L164.775 42.157L166.432 42.5058ZM169.271 29.0897V27.3966H167.898L167.614 28.7393L169.271 29.0897ZM175.295 29.0897L176.951 29.4396L177.383 27.3966H175.295V29.0897ZM172.293 43.3022L173.911 43.8001L173.934 43.7269L173.949 43.6521L172.293 43.3022ZM172.517 45.8547L171.388 47.1165L171.404 47.1308L171.421 47.1448L172.517 45.8547ZM175.009 45.9364L175.722 47.4721L175.733 47.4667L175.745 47.4611L175.009 45.9364ZM176.091 45.1604L174.894 43.9632L176.091 45.1604ZM177.602 42.5058V40.8127H176.353L175.984 42.0065L177.602 42.5058ZM179.358 42.5058L180.954 43.072L181.755 40.8127H179.358V42.5058ZM176.54 47.5496L177.778 48.7048L177.788 48.6944L177.797 48.6837L176.54 47.5496ZM173.314 49.755L172.719 48.1696L173.314 49.755ZM173.416 25.13C173.177 25.13 172.962 25.0877 172.758 25.006L171.501 28.1501C172.113 28.3952 172.756 28.5162 173.416 28.5162V25.13ZM172.803 25.0245C172.58 24.9279 172.406 24.8073 172.265 24.6661L169.87 27.0606C170.328 27.5183 170.862 27.8742 171.456 28.1316L172.803 25.0245ZM172.237 24.6386C172.113 24.5205 172 24.3652 171.906 24.1487L168.799 25.4951C169.059 26.0955 169.423 26.6345 169.898 27.0881L172.237 24.6386ZM171.925 24.1931C171.843 23.989 171.801 23.774 171.801 23.5354H168.415C168.415 24.1954 168.536 24.838 168.781 25.4507L171.925 24.1931ZM171.801 23.5354C171.801 23.2969 171.843 23.0819 171.925 22.8778L168.781 21.6202C168.536 22.2329 168.415 22.8755 168.415 23.5354H171.801ZM171.906 22.9222C172.006 22.6926 172.134 22.5013 172.291 22.337L169.844 19.9964C169.402 20.4583 169.054 20.9885 168.799 21.5758L171.906 22.9222ZM172.291 22.337C172.421 22.2015 172.571 22.0989 172.758 22.024L171.501 18.88C170.871 19.1318 170.313 19.5057 169.844 19.9964L172.291 22.337ZM172.803 22.0055C172.996 21.9215 173.196 21.8797 173.416 21.8797V18.4934C172.737 18.4934 172.079 18.6285 171.456 18.8985L172.803 22.0055ZM173.416 21.8797C173.636 21.8797 173.835 21.9215 174.029 22.0055L175.376 18.8985C174.753 18.6285 174.094 18.4934 173.416 18.4934V21.8797ZM174.074 22.024C174.268 22.1016 174.435 22.2118 174.587 22.3639L176.982 19.9695C176.508 19.4953 175.954 19.1291 175.331 18.88L174.074 22.024ZM174.587 22.3639C174.739 22.516 174.85 22.6837 174.927 22.8778L178.071 21.6202C177.822 20.9974 177.456 20.4436 176.982 19.9695L174.587 22.3639ZM174.946 22.9222C175.03 23.1161 175.072 23.3156 175.072 23.5354H178.458C178.458 22.8568 178.323 22.1987 178.053 21.5758L174.946 22.9222ZM175.072 23.5354C175.072 23.7553 175.03 23.9548 174.946 24.1487L178.053 25.4951C178.323 24.8722 178.458 24.214 178.458 23.5354H175.072ZM174.927 24.1931C174.855 24.3737 174.76 24.5057 174.643 24.613L176.926 27.1137C177.435 26.6492 177.817 26.087 178.071 25.4507L174.927 24.1931ZM174.614 24.6398C174.45 24.797 174.259 24.925 174.029 25.0245L175.376 28.1316C175.963 27.8771 176.493 27.5287 176.955 27.0869L174.614 24.6398ZM174.074 25.006C173.869 25.0877 173.654 25.13 173.416 25.13V28.5162C174.076 28.5162 174.718 28.3952 175.331 28.1501L174.074 25.006ZM170.577 48.5519C169.598 48.5519 169.014 48.2747 168.62 47.8739L166.205 50.2474C167.363 51.4258 168.889 51.9382 170.577 51.9382V48.5519ZM168.61 47.8634C168.156 47.4101 167.799 46.6329 167.799 45.2421H164.412C164.412 47.2002 164.926 48.9687 166.215 50.2579L168.61 47.8634ZM167.799 45.2421C167.799 44.6015 167.888 43.8105 168.089 42.8546L164.775 42.157C164.541 43.2704 164.412 44.3035 164.412 45.2421H167.799ZM168.089 42.8562L170.927 29.4402L167.614 28.7393L164.776 42.1553L168.089 42.8562ZM169.271 30.7829H175.295V27.3966H169.271V30.7829ZM173.638 28.7398L170.636 42.9523L173.949 43.6521L176.951 29.4396L173.638 28.7398ZM170.675 42.8043C170.499 43.376 170.436 44.0082 170.436 44.6499H173.823C173.823 44.2026 173.869 43.9362 173.911 43.8001L170.675 42.8043ZM170.436 44.6499C170.436 45.4018 170.595 46.4065 171.388 47.1165L173.646 44.5929C173.713 44.6521 173.76 44.713 173.791 44.7645C173.822 44.8145 173.835 44.8502 173.838 44.8609C173.841 44.8711 173.837 44.8609 173.832 44.8238C173.827 44.7869 173.823 44.7301 173.823 44.6499H170.436ZM171.421 47.1448C172.147 47.7623 173.074 47.895 173.824 47.895V44.5087C173.627 44.5087 173.521 44.4888 173.483 44.4787C173.447 44.4691 173.515 44.4802 173.614 44.5646L171.421 47.1448ZM173.824 47.895C174.486 47.895 175.124 47.7497 175.722 47.4721L174.296 44.4007C174.131 44.4771 173.979 44.5087 173.824 44.5087V47.895ZM175.745 47.4611C176.32 47.1836 176.834 46.8113 177.288 46.3576L174.894 43.9632C174.694 44.163 174.487 44.308 174.273 44.4116L175.745 47.4611ZM177.288 46.3576C178.189 45.4568 178.816 44.3131 179.22 43.0051L175.984 42.0065C175.707 42.9038 175.327 43.5299 174.894 43.9632L177.288 46.3576ZM177.602 44.1989H179.358V40.8127H177.602V44.1989ZM177.762 41.9396C177.065 43.9049 176.224 45.3727 175.283 46.4154L177.797 48.6837C179.116 47.2216 180.154 45.3268 180.954 43.072L177.762 41.9396ZM175.302 46.3943C174.511 47.242 173.651 47.8204 172.719 48.1696L173.908 51.3403C175.373 50.7911 176.663 49.8991 177.778 48.7048L175.302 46.3943ZM172.719 48.1696C172.043 48.4233 171.332 48.5519 170.577 48.5519V51.9382C171.728 51.9382 172.842 51.74 173.908 51.3403L172.719 48.1696ZM188.874 48.7748L190.166 47.6803L190.161 47.6746L188.874 48.7748ZM188.016 43.343L186.355 43.0162L186.352 43.0294L186.35 43.0425L188.016 43.343ZM188.731 40.1371L190.378 40.5315L190.379 40.5239L188.731 40.1371ZM189.425 36.9515L187.766 36.614L187.764 36.625L187.762 36.636L189.425 36.9515ZM186.199 33.8476L184.877 32.7899L184.869 32.8003L186.199 33.8476ZM184.892 36.5839L183.275 36.0821L183.252 36.1569L183.236 36.2335L184.892 36.5839ZM182.054 50V51.6931H183.426L183.71 50.3505L182.054 50ZM176.03 50L174.373 49.649L173.94 51.6931H176.03V50ZM180.461 29.0897V27.3966H179.089L178.804 28.7387L180.461 29.0897ZM186.485 29.0897L188.143 29.4338L188.565 27.3966H186.485V29.0897ZM186.036 31.2543L184.378 30.9102L183.099 37.0714L187.297 32.3838L186.036 31.2543ZM188.67 29.3348L189.287 30.9115L189.288 30.911L188.67 29.3348ZM194.265 30.0291L195.412 28.7842L195.405 28.7773L195.398 28.7706L194.265 30.0291ZM195.041 37.4212L193.39 37.0447L193.387 37.0572L193.385 37.0698L195.041 37.4212ZM194.571 39.4428L196.209 39.8707L196.213 39.8562L196.217 39.8417L194.571 39.4428ZM193.714 43.0571L192.052 42.7299L192.05 42.7403L193.714 43.0571ZM193.918 45.7526L192.584 46.7961L192.61 46.8283L192.636 46.8593L193.918 45.7526ZM197.328 45.1808L196.033 44.0902L196.031 44.0918L197.328 45.1808ZM198.737 42.5058V40.8127H197.588L197.164 41.8799L198.737 42.5058ZM200.493 42.5058L202.097 43.0476L202.852 40.8127H200.493V42.5058ZM196.572 48.9381L195.534 47.6004L195.531 47.6034L196.572 48.9381ZM192.713 48.5519C191.3 48.5519 190.573 48.1609 190.166 47.6803L187.582 49.8693C188.836 51.349 190.668 51.9382 192.713 51.9382V48.5519ZM190.161 47.6746C189.749 47.193 189.485 46.5252 189.485 45.528H186.099C186.099 47.1718 186.556 48.6685 187.587 49.875L190.161 47.6746ZM189.485 45.528C189.485 45.0303 189.545 44.4065 189.683 43.6435L186.35 43.0425C186.188 43.9404 186.099 44.7732 186.099 45.528H189.485ZM189.678 43.6698C189.835 42.8712 190.067 41.8273 190.378 40.5315L187.084 39.7426C186.769 41.0606 186.525 42.154 186.355 43.0162L189.678 43.6698ZM190.379 40.5239C190.695 39.1801 190.932 38.0913 191.089 37.267L187.762 36.636C187.619 37.3909 187.394 38.4258 187.083 39.7502L190.379 40.5239ZM191.084 37.289C191.262 36.4151 191.363 35.6023 191.363 34.8686H187.977C187.977 35.3058 187.915 35.8815 187.766 36.614L191.084 37.289ZM191.363 34.8686C191.363 34.0067 191.221 33.0577 190.677 32.2852C190.056 31.4043 189.117 31.0314 188.159 31.0314V34.4177C188.211 34.4177 188.176 34.4265 188.096 34.3891C188.009 34.3476 187.943 34.2847 187.909 34.2359C187.882 34.1978 187.902 34.2082 187.928 34.3178C187.953 34.4278 187.977 34.6053 187.977 34.8686H191.363ZM188.159 31.0314C186.77 31.0314 185.676 31.7913 184.877 32.7899L187.521 34.9053C187.92 34.4064 188.133 34.4177 188.159 34.4177V31.0314ZM184.869 32.8003C184.188 33.6649 183.675 34.7926 183.275 36.0821L186.509 37.0858C186.844 36.0065 187.202 35.31 187.529 34.8949L184.869 32.8003ZM183.236 36.2335L180.397 49.6495L183.71 50.3505L186.548 36.9344L183.236 36.2335ZM182.054 48.3069H176.03V51.6931H182.054V48.3069ZM177.686 50.351L182.117 29.4407L178.804 28.7387L174.373 49.649L177.686 50.351ZM180.461 30.7829H186.485V27.3966H180.461V30.7829ZM184.827 28.7457L184.378 30.9102L187.693 31.5983L188.143 29.4338L184.827 28.7457ZM187.297 32.3838C187.974 31.6275 188.641 31.164 189.287 30.9115L188.053 27.7581C186.819 28.2407 185.731 29.0569 184.774 30.1248L187.297 32.3838ZM189.288 30.911C189.771 30.7218 190.308 30.6195 190.916 30.6195V27.2332C189.918 27.2332 188.958 27.4032 188.052 27.7585L189.288 30.911ZM190.916 30.6195C192.038 30.6195 192.708 30.9054 193.132 31.2875L195.398 28.7706C194.188 27.6824 192.626 27.2332 190.916 27.2332V30.6195ZM193.117 31.2739C193.53 31.6546 193.879 32.335 193.879 33.6434H197.265C197.265 31.7391 196.742 30.0099 195.412 28.7842L193.117 31.2739ZM193.879 33.6434C193.879 34.4284 193.731 35.5479 193.39 37.0447L196.692 37.7976C197.058 36.1906 197.265 34.7915 197.265 33.6434H193.879ZM193.385 37.0698C193.295 37.4943 193.143 38.1488 192.926 39.0439L196.217 39.8417C196.435 38.9398 196.597 38.2465 196.697 37.7725L193.385 37.0698ZM192.933 39.0148C192.535 40.5396 192.239 41.7823 192.052 42.7299L195.375 43.3843C195.542 42.535 195.818 41.3682 196.209 39.8707L192.933 39.0148ZM192.05 42.7403C191.932 43.3591 191.857 43.9397 191.857 44.4457H195.243C195.243 44.2439 195.277 43.8987 195.377 43.3739L192.05 42.7403ZM191.857 44.4457C191.857 45.2324 192.028 46.0855 192.584 46.7961L195.251 44.7091C195.317 44.7935 195.243 44.7753 195.243 44.4457H191.857ZM192.636 46.8593C193.359 47.6955 194.389 47.895 195.225 47.895V44.5087C195.139 44.5087 195.078 44.5034 195.038 44.4977C194.997 44.4919 194.983 44.4864 194.989 44.4884C194.995 44.4906 195.024 44.5012 195.065 44.5276C195.107 44.5548 195.154 44.5939 195.199 44.6459L192.636 46.8593ZM195.225 47.895C196.594 47.895 197.757 47.3027 198.624 46.2698L196.031 44.0918C195.756 44.4203 195.516 44.5087 195.225 44.5087V47.895ZM198.623 46.2714C199.242 45.5359 199.793 44.4314 200.31 43.1317L197.164 41.8799C196.673 43.1123 196.285 43.7911 196.033 44.0902L198.623 46.2714ZM198.737 44.1989H200.493V40.8127H198.737V44.1989ZM198.889 41.964C197.901 44.8889 196.734 46.6695 195.534 47.6004L197.61 50.2759C199.569 48.7564 201.016 46.2488 202.097 43.0476L198.889 41.964ZM195.531 47.6034C194.721 48.2353 193.804 48.5519 192.713 48.5519V51.9382C194.535 51.9382 196.191 51.3835 197.614 50.2729L195.531 47.6034Z" fill="#BA0028"/>
<defs>
<clipPath id="clip0_102_2">
<rect width="110.461" height="46.3227" fill="white"/>
</clipPath>
</defs>
</svg>
