<svg width="83" height="28" viewBox="0 0 83 28" fill="none" xmlns="http://www.w3.org/2000/svg">
<g clip-path="url(#clip0_544_13269)">
<path d="M18.489 10.858C17.6582 12.0383 16.914 13.2772 16.2622 14.565C15.0982 16.8293 13.9704 19.1124 12.8238 21.3854C12.6274 21.7739 12.4541 22.2317 11.9169 22.2086C11.3797 22.1855 11.2223 21.7335 11.0505 21.3335C9.70458 18.2431 8.37169 15.147 7.01858 12.0595C6.71243 11.3577 6.34562 10.6818 5.99037 9.95979C5.80119 10.2009 5.86472 10.4118 5.86616 10.6067C5.86616 13.4718 5.8734 16.3364 5.88784 19.2005C5.88784 20.4872 6.11889 20.7789 7.36081 21.1241C7.64963 21.2049 7.87345 21.3277 7.92977 21.6425C7.95892 21.779 7.94707 21.921 7.89568 22.0508C7.84429 22.1806 7.75565 22.2922 7.64096 22.3718C7.29004 22.6404 6.9088 22.857 6.44524 22.8454C5.13292 22.7991 3.81897 22.8513 2.51443 23.0014C1.98082 23.0546 1.44733 22.8994 1.0256 22.5682C0.917175 22.501 0.832161 22.4019 0.782262 22.2845C0.732363 22.1672 0.719998 22.0372 0.746865 21.9125C0.804629 21.6237 1.03571 21.6107 1.27543 21.5746C2.2213 21.4302 2.60252 21.1024 2.62418 20.145C2.67328 18.0164 2.64442 15.8835 2.64876 13.7534C2.64876 13.4487 2.47113 13.248 2.28051 13.0429C1.69276 12.4133 1.49345 11.6537 1.82126 10.8768C2.67183 8.8695 2.75271 6.80734 2.55342 4.6672C2.42634 3.29964 1.83139 2.34076 0.655904 1.6837C0.381527 1.52918 0.0161717 1.42232 0.0782677 1.01076C0.140364 0.59919 0.491278 0.57753 0.800313 0.487996C1.82851 0.199178 2.89567 0.109637 3.85166 0.552973C5.35352 1.24903 6.81783 0.986204 8.29802 0.638178C9.25835 0.4129 10.1277 0.54431 10.9306 1.09595C11.4794 1.4743 11.5415 1.80645 11.075 2.27866C10.6519 2.71189 10.6331 3.15234 10.8569 3.65777C11.7956 5.77577 12.7357 7.89377 13.6773 10.0118C13.7682 10.2154 13.8491 10.4782 14.1192 10.4898C14.3892 10.5013 14.4787 10.2255 14.5827 10.0334C15.7611 7.85575 16.9346 5.6742 18.1034 3.48881C18.3662 3.00215 18.3012 2.55882 17.8911 2.18913C17.6875 2.00284 17.4695 1.83533 17.2543 1.66204C16.9655 1.43099 16.9842 1.26635 17.3496 1.14938C18.681 0.724821 20.0125 0.538532 21.2963 1.27502C21.9375 1.64182 22.4862 1.57973 23.0927 1.18116C24.2032 0.44756 25.3412 0.495216 26.147 1.24614C26.4041 1.48586 26.6351 1.75157 26.5369 2.14147C26.4474 2.49816 26.1253 2.55882 25.8351 2.60937C25.1722 2.72201 24.8704 3.15957 24.8632 3.76464C24.8415 5.48311 24.8517 7.20158 24.8762 8.9186C24.8878 9.68686 25.2199 10.3107 25.8047 10.8392C26.3896 11.3678 26.3419 11.658 25.6603 12.0465C25.1332 12.3469 24.9383 12.7685 24.9383 13.3462C24.9498 15.3679 24.9383 17.3795 24.9657 19.3969C24.9816 20.48 25.3527 20.7775 26.4098 20.6576C27.0409 20.5869 27.22 20.802 27.0192 21.4114C26.586 22.7111 25.1173 23.4332 23.6314 23.0664C23.3631 23.0008 23.0997 22.9168 22.8429 22.8151C22.4571 22.6591 22.043 22.5852 21.627 22.5981C21.2111 22.611 20.8023 22.7105 20.4269 22.8902C19.3497 23.3667 18.2724 23.2743 17.2023 22.8627C17.0144 22.8047 16.8435 22.7016 16.7046 22.5624C16.5656 22.4233 16.4628 22.2522 16.4052 22.0642C16.242 21.4865 16.5149 21.1804 17.1041 21.2584C18.2594 21.4028 18.5309 21.1356 18.5958 19.9977C18.7403 17.4561 18.6666 14.913 18.6897 12.3714C18.7094 11.8592 18.6415 11.3474 18.489 10.858ZM5.01561 11.5021C5.01561 11.3432 4.28202 10.6053 4.12172 10.6067C3.96143 10.6082 3.18595 11.3678 3.25527 11.5093C3.43785 11.8794 3.73799 12.1785 4.10871 12.3599C4.24735 12.4306 5.01128 11.6811 5.01561 11.5021ZM23.2732 11.4934C23.2732 11.3302 22.531 10.6024 22.3707 10.6082C22.2104 10.614 21.4407 11.3808 21.5115 11.5165C21.6958 11.8856 21.9982 12.1824 22.3707 12.3599C22.5151 12.4263 23.2732 11.6681 23.2732 11.4934Z" fill="#02012B" stroke="#FCE300" stroke-width="0.144409" stroke-miterlimit="10"/>
<path d="M6.8457 11.44C6.97856 11.7289 7.10711 12.0177 7.2313 12.3065C8.54542 15.3478 9.84654 18.3948 11.1607 21.436C11.3282 21.8245 11.4827 22.3025 12.0011 22.3025C12.4473 22.3025 12.6019 21.8765 12.7853 21.5328C13.5145 20.1681 14.1802 18.7717 14.859 17.3796C15.815 15.4142 16.8013 13.456 18.088 11.4299L6.8457 11.44Z" fill="#F7C427" stroke="#FFE91F" stroke-width="0.414454" stroke-miterlimit="10"/>
<path d="M26.591 20.7038C25.2769 21.0432 24.9635 20.2793 24.9404 19.2439C24.8985 17.264 24.9014 15.2841 24.8956 13.3029C24.8956 12.705 25.0993 12.1794 25.6697 11.9194C26.1318 11.71 26.2863 11.4992 26.2473 11.2811H18.79C18.79 14.4408 18.8002 17.3709 18.7799 20.298C18.7799 21.0201 18.2976 21.3291 17.5799 21.3609C17.2131 21.3768 16.6369 20.867 16.5026 21.5616C16.3842 22.1739 16.829 22.6375 17.4037 22.8194C18.4146 23.1357 19.5164 23.2526 20.4363 22.8079C21.4934 22.2923 22.3411 22.4569 23.3577 22.8469C24.9462 23.4534 26.4741 22.7515 27.0127 21.371C27.2019 20.9089 27.2293 20.5378 26.591 20.7038Z" fill="#F7C427" stroke="#FFE600" stroke-width="0.414454" stroke-miterlimit="10"/>
<path d="M7.40815 21.1615C6.23988 21.1384 5.9395 20.2503 5.92218 19.3954C5.86874 16.7383 5.88319 14.0739 5.89041 11.2666H1.90326C1.81661 11.9136 1.9697 12.5432 2.7163 13.1685C2.81739 13.2522 2.80726 13.4963 2.80726 13.6652C2.81881 15.7751 2.84481 17.8849 2.81449 19.9947C2.80438 20.7687 2.52566 21.4388 1.61588 21.5832C1.35017 21.628 0.932834 21.4186 0.862073 21.8532C0.799977 22.2374 1.13067 22.493 1.43971 22.6345C1.78196 22.7962 2.19062 22.9652 2.54587 22.9233C3.89321 22.7659 5.22756 22.584 6.59655 22.7471C6.93014 22.7861 7.31861 22.5233 7.65508 22.3385C7.79061 22.2658 7.89825 22.1503 7.96121 22.01C8.02418 21.8697 8.03889 21.7125 8.0031 21.563C7.93956 21.2698 7.68397 21.1673 7.40815 21.1615Z" fill="#F7C427" stroke="#FFE600" stroke-width="0.414454" stroke-miterlimit="10"/>
<path d="M26.6203 20.5133C25.3062 20.8541 24.9928 20.0901 24.9697 19.0533C24.9278 17.0749 24.9307 15.0936 24.9249 13.1137C24.9249 12.5144 25.1271 11.9902 25.6989 11.7288C26.1018 11.5469 26.2694 11.3635 26.2838 11.1743H21.9082C22.0686 11.288 22.1978 11.4401 22.2841 11.6167C22.3704 11.7934 22.411 11.9888 22.4021 12.1852V22.3631C22.7408 22.4345 23.0727 22.535 23.3942 22.6635C24.9827 23.2715 26.512 22.5682 27.0506 21.1876C27.2311 20.7183 27.2586 20.3486 26.6203 20.5133Z" fill="#D3942D"/>
<path d="M16.0811 11.1165L9.35742 11.1035C9.90618 12.4364 10.4853 13.7029 11.0138 15.03C11.434 16.09 11.8802 17.121 12.3496 18.1449C13.4379 15.7228 14.6844 13.3749 16.0811 11.1165Z" fill="#D3942D"/>
<path d="M7.98181 21.3927C7.91827 21.0952 7.66988 20.9927 7.39406 20.9869C6.22579 20.9624 5.92541 20.0742 5.90808 19.2208C5.8561 16.5882 5.8691 13.9513 5.87632 11.1743H4.43945V22.5523C5.15048 22.4914 5.86572 22.4992 6.57527 22.5754C6.90886 22.6158 7.29729 22.3516 7.63377 22.1667C7.76934 22.0945 7.87711 21.9793 7.94011 21.8392C8.0031 21.6991 8.01777 21.542 7.98181 21.3927Z" fill="#D3942D"/>
<path d="M0.8072 1.44106C2.00146 2.08945 2.68451 3.11765 2.74805 4.44621C2.83181 6.07659 3.02096 7.75896 2.5112 9.32435C2.28592 10.0161 1.95668 10.6803 1.87437 11.3287H5.86727C5.86727 10.5937 5.86727 9.85 5.86727 9.09185C6.24995 9.93953 6.58065 10.6515 6.88536 11.3287H18.1059C18.3312 10.9721 18.5637 10.6154 18.8092 10.2558V11.3287H26.2795C26.2579 11.1121 26.047 10.8883 25.7567 10.6471C25.5012 10.4454 25.2939 10.1891 25.15 9.89707C25.0061 9.60502 24.9293 9.28454 24.925 8.95899C24.9033 7.19432 24.9105 5.42964 24.9163 3.66351C24.9163 2.9949 25.1675 2.48947 25.9011 2.36383C26.2347 2.30462 26.6319 2.31617 26.6232 1.81941C26.6232 1.43239 26.3488 1.20134 26.0643 0.999164C25.0174 0.254013 23.995 0.539945 23.0693 1.19123C22.4917 1.59702 22.1119 1.62446 21.4808 1.23744C20.1465 0.415755 18.737 0.633807 17.1326 1.18689C17.9384 1.89161 18.9291 2.27285 18.2691 3.45267C17.0532 5.63181 15.9023 7.84848 14.7383 10.0565C14.373 10.7511 14.0943 10.7915 13.7621 10.0291C12.8004 7.82105 11.8169 5.6217 10.8379 3.41946C10.6256 2.94147 10.6053 2.50246 11.0631 2.14577C11.8213 1.55514 11.2971 1.17535 10.8061 0.885084C10.3778 0.626391 9.89155 0.478862 9.39168 0.455911C8.89181 0.432961 8.39413 0.535312 7.94389 0.753667C6.83483 1.26488 5.83119 1.21433 4.73512 0.724783C3.54868 0.176927 2.20744 0.0634574 0.945827 0.404199C0.657009 0.480736 0.280108 0.48218 0.231009 0.846091C0.18191 1.21 0.550152 1.29665 0.8072 1.44106Z" fill="#F60929" stroke="#FFE600" stroke-width="0.414454" stroke-miterlimit="10"/>
<path d="M16.2319 11.1166C16.2723 10.9867 16.2204 11.1571 16.2565 11.0415C16.2651 11.0271 16.2564 11.0314 16.2665 11.0069C16.2492 10.9202 19.2991 5.53522 19.2991 5.43702L18.0284 3.86441C17.5273 4.81174 15.3525 9.183 14.8514 10.1303C14.4846 10.8249 13.9314 10.9376 13.6008 10.1751C12.6375 7.96563 11.6021 5.528 10.6245 3.32576C10.4122 2.84777 10.5999 2.48242 11.0577 2.12717C11.8159 1.53509 10.857 0.971896 10.3111 0.801493C8.97388 0.387039 8.61141 0.76972 7.78395 1.02388C7.75219 1.03137 7.72226 1.04512 7.69588 1.06432C7.57746 1.15241 6.62578 1.40657 5.79688 1.26216V6.03633L9.2035 11.121H10.3126C10.4006 11.1036 12.6506 11.1137 12.7502 11.1137H16.1005L16.2319 11.1166Z" fill="#BA0028"/>
<path d="M22.5635 1.61438C22.2242 1.72413 21.1195 1.20426 20.6443 1.01941C19.1035 0.417226 18.9547 0.860563 17.1309 1.17393C17.9367 1.8772 18.9273 2.25844 18.2674 3.43971C18.1157 3.7112 17.9684 3.98558 17.8182 4.25851C18.1026 4.3051 18.3602 4.45392 18.5427 4.67702C18.7251 4.90011 18.8197 5.18213 18.8089 5.4701L19.0154 10.2486C19.0154 10.6385 19.0154 10.7324 19.0226 11.1151H22.5635V1.61438Z" fill="#BA0028"/>
<path d="M5.80127 8.75115V1.26787C5.37671 1.18845 5.28719 1.187 4.98682 1.0397C4.8814 0.98916 4.51749 0.853423 4.40918 0.812988V11.4299H5.86769C5.86769 10.6935 5.86769 9.94975 5.86769 9.19015C5.82129 9.04853 5.79885 8.90016 5.80127 8.75115Z" fill="#BA0028"/>
<path d="M22.496 10.3437L21.4463 11.3934L22.496 12.4431L23.5457 11.3934L22.496 10.3437Z" fill="white"/>
<path d="M4.23624 10.3442L3.18652 11.3939L4.23624 12.4436L5.28596 11.3939L4.23624 10.3442Z" fill="white"/>
<path d="M55.2738 0.694458L47.5334 23.0129H38.1988L30.457 0.694458L39.3469 4.61516L42.882 16.0466L46.4027 4.58917L55.2738 0.694458Z" fill="#0C1429" stroke="#FFE600" stroke-width="0.144409" stroke-miterlimit="10"/>
<path d="M55.2738 0.685791L47.5334 23.0042H38.1988L30.457 0.685791L39.3469 4.60505L42.882 16.0365L46.4027 4.57906L55.2738 0.685791Z" fill="#0993C9" stroke="#FFE600" stroke-width="0.363911" stroke-miterlimit="10"/>
<path d="M45.2712 15.6597C45.3187 15.6775 45.3589 15.7109 45.3851 15.7544C45.4113 15.7979 45.422 15.849 45.4156 15.8994C45.4156 17.0229 45.4083 18.145 45.4156 19.267C45.4155 19.2989 45.4131 19.3308 45.4083 19.3623H45.6972C45.6972 18.2071 45.6972 17.0518 45.6972 15.8965C45.6898 15.8488 45.6992 15.8001 45.7237 15.7585C45.7481 15.7169 45.7862 15.6851 45.8314 15.6683C45.945 15.613 46.0359 15.52 46.0885 15.4052C46.1412 15.2904 46.1524 15.1609 46.1203 15.0387C46.0849 14.9188 46.0117 14.8135 45.9114 14.7388C45.8111 14.6641 45.6894 14.6239 45.5643 14.6243C45.4392 14.6198 45.3162 14.6573 45.2149 14.7308C45.1136 14.8044 45.0399 14.9097 45.0054 15.0301C44.9692 15.1495 44.9759 15.2779 45.0245 15.3929C45.073 15.5079 45.1603 15.6023 45.2712 15.6597ZM45.5455 14.8322C45.6389 14.831 45.729 14.8665 45.7965 14.9311C45.864 14.9956 45.9035 15.084 45.9065 15.1774C45.9058 15.2236 45.8958 15.2691 45.8772 15.3114C45.8585 15.3537 45.8315 15.3918 45.7978 15.4234C45.7642 15.4551 45.7245 15.4796 45.6811 15.4957C45.6378 15.5117 45.5917 15.5188 45.5455 15.5167C45.4545 15.5167 45.3671 15.4808 45.3025 15.4167C45.2379 15.3526 45.2012 15.2655 45.2004 15.1745C45.2012 15.0834 45.2379 14.9964 45.3025 14.9323C45.3671 14.8682 45.4545 14.8322 45.5455 14.8322Z" fill="#F6F6F6" stroke="#FFE600" stroke-width="0.144409" stroke-miterlimit="10"/>
<path d="M40.1432 15.6597C40.1906 15.6777 40.2306 15.7111 40.2567 15.7546C40.2829 15.7981 40.2938 15.849 40.2876 15.8994C40.2876 17.0229 40.2789 18.145 40.2876 19.267C40.2906 19.2987 40.2906 19.3306 40.2876 19.3623H40.5764C40.5764 18.2071 40.5764 17.0518 40.5764 15.8965C40.5691 15.8488 40.5784 15.8001 40.6029 15.7585C40.6274 15.7169 40.6654 15.6851 40.7107 15.6683C40.8242 15.613 40.9151 15.52 40.9678 15.4052C41.0204 15.2904 41.0316 15.1609 40.9995 15.0387C40.9642 14.9188 40.8909 14.8135 40.7906 14.7388C40.6904 14.6641 40.5686 14.6239 40.4435 14.6243C40.3184 14.6198 40.1954 14.6573 40.0941 14.7308C39.9929 14.8044 39.9191 14.9097 39.8847 15.0301C39.8475 15.1487 39.8531 15.2765 39.9003 15.3915C39.9475 15.5065 40.0334 15.6014 40.1432 15.6597ZM40.4175 14.8322C40.5109 14.831 40.601 14.8665 40.6685 14.9311C40.736 14.9956 40.7755 15.084 40.7785 15.1774C40.7778 15.2236 40.7678 15.2691 40.7492 15.3114C40.7305 15.3537 40.7035 15.3918 40.6698 15.4234C40.6362 15.4551 40.5965 15.4796 40.5531 15.4957C40.5098 15.5117 40.4637 15.5188 40.4175 15.5167C40.3724 15.5169 40.3277 15.5082 40.2859 15.4911C40.2441 15.474 40.2061 15.4489 40.1741 15.4171C40.142 15.3853 40.1166 15.3475 40.0991 15.3059C40.0817 15.2643 40.0726 15.2196 40.0724 15.1745C40.0731 15.0839 40.1095 14.9973 40.1735 14.9333C40.2375 14.8693 40.3241 14.833 40.4146 14.8322H40.4175Z" fill="#F6F6F6" stroke="#FFE600" stroke-width="0.144409" stroke-miterlimit="10"/>
<path d="M48.591 11.2985C48.5411 11.3069 48.4953 11.3315 48.4609 11.3686C48.4264 11.4057 48.4051 11.4532 48.4004 11.5036C48.3701 11.7029 48.3282 11.9007 48.2921 12.0985C47.9166 14.1655 47.5407 16.232 47.1643 18.298C47.147 18.3962 47.1441 18.4987 47.0444 18.5666C46.8321 18.711 46.6242 18.8554 46.4162 19.0114C45.4256 19.7248 44.4364 20.441 43.4443 21.1515C43.3955 21.1843 43.3541 21.227 43.3228 21.2767C43.2914 21.3265 43.2709 21.3822 43.2624 21.4404C43.1613 22.018 43.0558 22.5956 42.9547 23.1646L42.5576 23.1083C42.6558 22.5581 42.767 22.0093 42.8464 21.4562C42.8898 21.1674 42.9822 20.9421 43.2595 20.8006C43.3813 20.7291 43.4977 20.6484 43.6075 20.5595C44.5875 19.8538 45.5686 19.1481 46.5506 18.4424C46.6165 18.3992 46.6728 18.3428 46.7158 18.2766C46.7588 18.2105 46.7876 18.1361 46.8004 18.0583C47.1951 15.8681 47.5936 13.6774 47.9961 11.4862C48.0156 11.4241 48.0135 11.3572 47.9902 11.2963C47.9668 11.2355 47.9236 11.1844 47.8675 11.1512C47.7487 11.0593 47.6608 10.9333 47.6156 10.7901C47.5705 10.6468 47.5702 10.4932 47.6148 10.3497C47.6631 10.2057 47.7532 10.0792 47.8735 9.98635C47.9938 9.89354 48.139 9.83857 48.2907 9.82842C48.4777 9.80559 48.6665 9.85375 48.8197 9.96338C48.9729 10.073 49.0794 10.2361 49.1181 10.4205C49.1606 10.6066 49.1294 10.8019 49.0312 10.9655C48.933 11.1292 48.7752 11.2485 48.591 11.2985ZM48.4466 10.1158C48.3247 10.1035 48.2024 10.1339 48.1004 10.2019C47.9985 10.2699 47.9233 10.3711 47.8877 10.4884C47.8779 10.5497 47.8802 10.6123 47.8947 10.6726C47.9091 10.733 47.9353 10.7899 47.9718 10.8401C48.0083 10.8903 48.0544 10.9328 48.1074 10.9651C48.1604 10.9974 48.2192 11.019 48.2806 11.0285C48.3401 11.0419 48.4018 11.0431 48.4618 11.0319C48.5219 11.0208 48.579 10.9976 48.6298 10.9637C48.6806 10.9298 48.7239 10.8859 48.7572 10.8347C48.7905 10.7836 48.8131 10.7262 48.8235 10.666C48.8358 10.605 48.8358 10.5422 48.8234 10.4813C48.811 10.4204 48.7865 10.3626 48.7513 10.3113C48.7162 10.26 48.6711 10.2162 48.6188 10.1827C48.5664 10.1491 48.5079 10.1263 48.4466 10.1158Z" fill="white" stroke="#FFE600" stroke-width="0.144409" stroke-miterlimit="10"/>
<path d="M37.458 11.2986C37.508 11.3069 37.5538 11.3316 37.5882 11.3687C37.6227 11.4058 37.644 11.4532 37.6487 11.5036C37.6804 11.7029 37.7209 11.9007 37.757 12.0986C38.1324 14.1656 38.5084 16.2321 38.8848 18.2981C38.9036 18.3963 38.905 18.4988 39.0047 18.5667C39.217 18.7111 39.4249 18.8555 39.6328 19.0114C40.6235 19.7248 41.6127 20.4411 42.6062 21.1516C42.6546 21.1847 42.6956 21.2274 42.7267 21.2771C42.7578 21.3268 42.7782 21.3824 42.7868 21.4404C42.8878 22.018 42.9932 22.5957 43.0958 23.1647L43.4929 23.1083C43.3933 22.5581 43.2821 22.0094 43.2041 21.4563C43.1608 21.1675 43.0684 20.9422 42.7911 20.8007C42.6695 20.7294 42.5536 20.6488 42.4445 20.5595C41.4625 19.8538 40.481 19.1482 39.5 18.4425C39.434 18.3993 39.3777 18.3428 39.3347 18.2767C39.2917 18.2105 39.2629 18.1362 39.2502 18.0583C38.8564 15.8681 38.4583 13.6775 38.0559 11.4863C38.0364 11.4241 38.0385 11.3572 38.0618 11.2964C38.0852 11.2356 38.1284 11.1844 38.1844 11.1513C38.3028 11.0591 38.3903 10.933 38.4352 10.7898C38.4801 10.6466 38.4803 10.4931 38.4357 10.3498C38.3875 10.2059 38.2977 10.0796 38.1776 9.98679C38.0576 9.89399 37.9127 9.8389 37.7613 9.82847C37.5741 9.80526 37.3849 9.85323 37.2314 9.9629C37.0779 10.0726 36.9712 10.2359 36.9324 10.4205C36.8903 10.6064 36.9214 10.8014 37.0193 10.9649C37.1172 11.1284 37.2743 11.2479 37.458 11.2986ZM37.6024 10.1158C37.7241 10.1039 37.8462 10.1345 37.9478 10.2024C38.0495 10.2704 38.1244 10.3714 38.1599 10.4884C38.1697 10.5497 38.1674 10.6123 38.153 10.6727C38.1385 10.7331 38.1123 10.79 38.0758 10.8402C38.0393 10.8904 37.9933 10.9328 37.9403 10.9652C37.8873 10.9975 37.8284 11.019 37.7671 11.0285C37.7076 11.0419 37.646 11.0431 37.5861 11.0319C37.5261 11.0208 37.4691 10.9975 37.4184 10.9636C37.3678 10.9297 37.3245 10.8858 37.2914 10.8347C37.2582 10.7835 37.2358 10.7261 37.2256 10.666C37.2131 10.605 37.213 10.542 37.2254 10.4809C37.2378 10.4198 37.2624 10.3619 37.2977 10.3105C37.333 10.2591 37.3784 10.2154 37.431 10.182C37.4836 10.1485 37.5424 10.126 37.6039 10.1158H37.6024Z" fill="white" stroke="#FFE600" stroke-width="0.144409" stroke-miterlimit="10"/>
</g>
<path d="M49.0075 14.6595L51.0774 14.3863L50.0868 19.0588C50.5286 19.0269 50.9499 18.822 51.3506 18.444C51.7149 18.1024 52.0041 17.6698 52.2182 17.1461C52.4277 16.6451 52.5324 16.1351 52.5324 15.6159C52.5324 15.0694 52.3981 14.6208 52.1294 14.2701C51.9836 14.0925 51.7992 13.9559 51.576 13.8603C51.3529 13.7601 51.0933 13.71 50.7973 13.71C50.2326 13.71 49.7248 13.7874 49.2739 13.9423C48.8276 14.0971 48.4474 14.3202 48.1331 14.6117C47.8189 14.9032 47.5798 15.2607 47.4159 15.6842C47.2565 16.1077 47.1768 16.5836 47.1768 17.1119C47.1768 17.4034 47.2086 17.6356 47.2724 17.8087C47.2906 17.8679 47.3134 17.9203 47.3407 17.9658C47.3589 17.9977 47.368 18.0296 47.368 18.0615C46.8625 18.0615 46.4937 17.9613 46.2614 17.7609C46.0018 17.5423 45.872 17.1893 45.872 16.702C45.872 16.3969 45.938 16.0963 46.0701 15.8003C46.2022 15.4998 46.3889 15.2106 46.6303 14.9328C46.858 14.6686 47.1289 14.4227 47.4432 14.195C47.762 13.9627 48.1058 13.7624 48.4747 13.5939C49.2489 13.2432 50.0185 13.0679 50.7836 13.0679C51.863 13.0679 52.7009 13.3479 53.2975 13.9081C53.5616 14.1586 53.7575 14.4478 53.885 14.7757C54.0171 15.1036 54.0831 15.4519 54.0831 15.8208C54.0831 16.2717 53.9897 16.7203 53.803 17.1666C53.6208 17.6129 53.3567 18.0114 53.0106 18.362C52.6463 18.7355 52.2113 19.0315 51.7058 19.2501C51.2049 19.4641 50.6516 19.5711 50.0459 19.5711H49.9707L49.1168 23.5605H47.1085L49.0075 14.6595ZM54.7594 16.5654H56.7746L56.597 17.433C56.9157 17.1506 57.1753 16.9502 57.3757 16.8318C57.6854 16.6542 57.9882 16.5654 58.2843 16.5654C58.5848 16.5654 58.8262 16.6724 59.0084 16.8865C59.0903 16.9821 59.1518 17.0937 59.1928 17.2212C59.2338 17.3442 59.2543 17.4762 59.2543 17.6174C59.2543 17.7449 59.2338 17.8679 59.1928 17.9863C59.1518 18.1047 59.0903 18.2117 59.0084 18.3074C58.9173 18.4076 58.8057 18.4873 58.6736 18.5465C58.5461 18.6057 58.4027 18.6353 58.2433 18.6353C58.1203 18.6353 58.0224 18.6148 57.9495 18.5738C57.8767 18.5328 57.8197 18.4736 57.7788 18.3962C57.7423 18.3188 57.7173 18.2436 57.7036 18.1708C57.6626 17.9749 57.6216 17.8451 57.5806 17.7814C57.5488 17.7358 57.4987 17.7131 57.4304 17.7131C57.2345 17.7131 57.0683 17.754 56.9317 17.836C56.7951 17.918 56.622 18.0546 56.4125 18.2459L55.2922 23.5605H53.277L54.7594 16.5654ZM61.1124 23.6152C60.4201 23.6152 59.885 23.4467 59.507 23.1097C59.0835 22.7363 58.8717 22.1693 58.8717 21.4087C58.8717 21.1218 58.9013 20.8053 58.9605 20.4592C59.0197 20.1085 59.1108 19.7556 59.2338 19.4004C59.5161 18.5533 59.9192 17.877 60.4429 17.3715C61.0759 16.7521 61.8296 16.4425 62.704 16.4425C63.9018 16.4425 64.5006 17.1871 64.5006 18.6763V18.6899C64.528 18.699 64.5507 18.7036 64.5689 18.7036H64.6509C64.9606 18.7036 65.3272 18.6171 65.7507 18.444C66.1242 18.2892 66.4771 18.0956 66.8096 17.8633L66.9325 18.2459C66.6593 18.5328 66.3063 18.7764 65.8737 18.9768C65.4456 19.1772 64.972 19.3207 64.4528 19.4072C64.3982 20.0402 64.2752 20.6186 64.0839 21.1423C63.8927 21.6615 63.6467 22.1078 63.3462 22.4812C63.0501 22.8456 62.7109 23.1256 62.3283 23.3215C61.9458 23.5173 61.5405 23.6152 61.1124 23.6152ZM61.6725 22.3583C61.8365 22.3583 62.0027 22.2854 62.1712 22.1397C62.3443 21.9894 62.5059 21.7822 62.6562 21.518C62.8065 21.2539 62.9363 20.9442 63.0456 20.589C63.1549 20.2338 63.2369 19.8535 63.2915 19.4482C63.1549 19.4117 63.057 19.3434 62.9978 19.2432C62.9431 19.1431 62.9158 19.0155 62.9158 18.8607C62.9158 18.6694 62.9545 18.51 63.0319 18.3825C63.1093 18.255 63.2164 18.1616 63.353 18.1024C63.3348 17.8064 63.287 17.5947 63.2095 17.4671C63.1685 17.4034 63.1162 17.3578 63.0524 17.3305C62.9932 17.3032 62.9158 17.2895 62.8202 17.2895C62.5059 17.2895 62.1985 17.5263 61.8979 18C61.6201 18.4281 61.3924 18.9563 61.2148 19.5848C61.0418 20.1996 60.9552 20.7461 60.9552 21.2243C60.9552 21.4565 60.9666 21.6455 60.9894 21.7913C61.0167 21.937 61.06 22.0509 61.1192 22.1328C61.1738 22.2148 61.2444 22.274 61.331 22.3104C61.4175 22.3423 61.5313 22.3583 61.6725 22.3583ZM64.0566 27.0581C63.542 27.0581 63.1253 26.9169 62.8065 26.6346C62.6517 26.498 62.5332 26.3317 62.4513 26.1359C62.3647 25.9446 62.3215 25.7306 62.3215 25.4938C62.3215 25.1932 62.3875 24.9336 62.5196 24.715C62.6517 24.4964 62.8407 24.3051 63.0866 24.1412C63.2915 24.0091 63.5215 23.8907 63.7765 23.786C64.0316 23.6858 64.3526 23.5742 64.7397 23.4512L66.2972 16.0872C66.5477 14.9305 67.0145 14.1085 67.6976 13.6212C68.194 13.2614 68.8179 13.0815 69.5694 13.0815C70.2798 13.0815 70.8377 13.1817 71.243 13.3821C71.7986 13.6553 72.0764 14.0925 72.0764 14.6937C72.0764 15.0853 71.9648 15.3768 71.7417 15.5681C71.6415 15.6546 71.5231 15.7184 71.3865 15.7593C71.2544 15.8003 71.1155 15.8208 70.9697 15.8208C70.7329 15.8208 70.5417 15.7707 70.3959 15.6705C70.2183 15.5476 70.1295 15.3472 70.1295 15.0694C70.1295 14.8963 70.1705 14.7415 70.2525 14.6049C70.3436 14.4591 70.4597 14.3863 70.6009 14.3863H70.6692C70.6919 14.3863 70.7079 14.3908 70.717 14.3999C70.7079 14.2132 70.635 14.0743 70.4984 13.9832C70.3663 13.8876 70.1819 13.8398 69.9451 13.8398C69.5306 13.8398 69.1914 14.0015 68.9272 14.3248C68.7086 14.598 68.5538 14.9624 68.4627 15.4178L68.2236 16.5654H69.3439L69.2346 17.1256H68.1143L66.5158 24.6809C66.3382 25.5552 65.9875 26.1928 65.4638 26.5936C65.0631 26.9033 64.594 27.0581 64.0566 27.0581ZM70.3413 23.6425C69.895 23.6425 69.5398 23.5105 69.2756 23.2463C68.9842 22.9548 68.8384 22.529 68.8384 21.9689C68.8384 21.723 68.8771 21.4178 68.9546 21.0535L69.9041 16.5654H71.9193L70.9151 21.3199C70.8741 21.4565 70.8536 21.6068 70.8536 21.7708C70.8536 21.9621 70.8992 22.0964 70.9902 22.1738C71.0813 22.2512 71.2271 22.2899 71.4274 22.2899C71.5641 22.2899 71.6961 22.2603 71.8236 22.2011C71.9557 22.1374 72.0764 22.0509 72.1857 21.9416C72.4088 21.7184 72.5774 21.4224 72.6912 21.0535H73.2787C73.0282 21.7594 72.714 22.3218 72.336 22.7408C72.0172 23.0824 71.6574 23.3283 71.2567 23.4786C70.9652 23.5879 70.6601 23.6425 70.3413 23.6425ZM63.6672 25.8148C63.7401 25.8148 63.8152 25.7943 63.8927 25.7534C63.9701 25.7124 64.0429 25.6509 64.1112 25.5689C64.2798 25.3685 64.4004 25.0862 64.4733 24.7218L64.6441 23.9089C64.1796 24.0501 63.8107 24.2346 63.5374 24.4623C63.2414 24.6991 63.0934 24.9632 63.0934 25.2547C63.0934 25.4551 63.1708 25.6076 63.3257 25.7124C63.4304 25.7807 63.5443 25.8148 63.6672 25.8148ZM74.0779 23.6425C73.6316 23.6425 73.2787 23.5105 73.0191 23.2463C72.7276 22.9548 72.5819 22.529 72.5819 21.9689C72.5819 21.7047 72.6183 21.3996 72.6912 21.0535L74.1872 14.0447L76.2571 13.7646L74.6518 21.3199C74.6153 21.4383 74.5971 21.5886 74.5971 21.7708C74.5971 21.9621 74.6404 22.0964 74.7269 22.1738C74.818 22.2512 74.9637 22.2899 75.1641 22.2899C75.3007 22.2899 75.4328 22.2603 75.5603 22.2011C75.6924 22.1374 75.8131 22.0509 75.9224 21.9416C76.1455 21.7184 76.314 21.4224 76.4279 21.0535H77.0153C76.7649 21.7594 76.4506 22.3218 76.0726 22.7408C75.7538 23.0824 75.3941 23.3283 74.9933 23.4786C74.7018 23.5879 74.3967 23.6425 74.0779 23.6425ZM78.4362 23.6425C77.7486 23.6425 77.218 23.4695 76.8446 23.1234C76.4484 22.7545 76.2502 22.1875 76.2502 21.4224C76.2502 21.1355 76.2798 20.8167 76.3391 20.466C76.3937 20.1154 76.478 19.7647 76.5918 19.414C76.7193 19.0224 76.881 18.6512 77.0768 18.3005C77.2772 17.9499 77.5095 17.6402 77.7736 17.3715C78.3839 16.7521 79.1353 16.4425 80.0279 16.4425C80.5972 16.4425 81.0116 16.5791 81.2712 16.8523C81.4715 17.0664 81.5717 17.3761 81.5717 17.7814C81.5717 18.1776 81.4852 18.551 81.3121 18.9017C81.1391 19.2478 80.9 19.5552 80.5949 19.8239C80.2897 20.088 79.9436 20.2998 79.5565 20.4592C79.1694 20.614 78.7687 20.7051 78.3542 20.7324C78.3315 20.9693 78.3201 21.156 78.3201 21.2926C78.3201 21.748 78.4066 22.0622 78.5797 22.2353C78.73 22.3901 78.9804 22.4676 79.3311 22.4676C79.8366 22.4676 80.2989 22.3309 80.7178 22.0577C80.8954 21.9438 81.0662 21.8095 81.2302 21.6546C81.3941 21.4953 81.5854 21.2949 81.804 21.0535H82.2822C81.8404 21.8004 81.3326 22.3947 80.7588 22.8364C80.0529 23.3738 79.2787 23.6425 78.4362 23.6425ZM78.4635 20.063C78.7231 20.0448 78.9759 19.9696 79.2218 19.8376C79.4677 19.7055 79.6863 19.5324 79.8776 19.3184C80.0689 19.0998 80.2192 18.8561 80.3285 18.5875C80.4378 18.3142 80.4924 18.0364 80.4924 17.754C80.4924 17.5673 80.4651 17.4262 80.4104 17.3305C80.3603 17.2303 80.2715 17.1802 80.144 17.1802C79.9755 17.1802 79.8047 17.2622 79.6317 17.4262C79.4632 17.5901 79.2992 17.8155 79.1398 18.1024C78.9941 18.3711 78.862 18.6763 78.7436 19.0178C78.6252 19.3594 78.5319 19.7078 78.4635 20.063Z" fill="#F7C427"/>
<path d="M49.0075 14.6595L48.9334 14.098L48.537 14.1503L48.4536 14.5413L49.0075 14.6595ZM51.0774 14.3863L51.6315 14.5037L51.7976 13.7199L51.0032 13.8247L51.0774 14.3863ZM50.0868 19.0588L49.5328 18.9413L49.3766 19.6779L50.1276 19.6237L50.0868 19.0588ZM51.3506 18.444L50.9632 18.0308L50.962 18.032L51.3506 18.444ZM52.2182 17.1461L51.6956 16.9275L51.6939 16.9318L52.2182 17.1461ZM52.1294 14.2701L52.579 13.9257L52.5732 13.9182L52.5672 13.9109L52.1294 14.2701ZM51.576 13.8603L51.344 14.3771L51.3529 14.3809L51.576 13.8603ZM49.2739 13.9423L49.09 13.4066L49.0883 13.4071L49.2739 13.9423ZM47.4159 15.6842L46.8876 15.4797L46.8858 15.4847L47.4159 15.6842ZM47.2724 17.8087L47.8138 17.6421L47.8092 17.6274L47.8039 17.6129L47.2724 17.8087ZM47.3407 17.9658L47.8326 17.6847L47.8264 17.6744L47.3407 17.9658ZM47.368 18.0615V18.6279H47.9344V18.0615H47.368ZM46.2614 17.7609L46.6314 17.332L46.6262 17.3276L46.2614 17.7609ZM46.0701 15.8003L46.5874 16.0311L46.5887 16.0282L46.0701 15.8003ZM46.6303 14.9328L47.0578 15.3043L47.0593 15.3026L46.6303 14.9328ZM47.4432 14.195L47.7755 14.6537L47.7767 14.6528L47.4432 14.195ZM48.4747 13.5939L48.241 13.0779L48.2394 13.0787L48.4747 13.5939ZM53.2975 13.9081L53.6872 13.4971L53.6852 13.4952L53.2975 13.9081ZM53.885 14.7757L53.3571 14.981L53.3596 14.9873L53.885 14.7757ZM53.803 17.1666L53.2805 16.948L53.2786 16.9525L53.803 17.1666ZM53.0106 18.362L52.6075 17.9641L52.6052 17.9665L53.0106 18.362ZM51.7058 19.2501L51.9284 19.7709L51.9306 19.77L51.7058 19.2501ZM49.9707 19.5711V19.0047H49.5127L49.4169 19.4526L49.9707 19.5711ZM49.1168 23.5605V24.127H49.5748L49.6707 23.6791L49.1168 23.5605ZM47.1085 23.5605L46.5545 23.4424L46.4085 24.127H47.1085V23.5605ZM49.0817 15.2211L51.1515 14.9478L51.0032 13.8247L48.9334 14.098L49.0817 15.2211ZM50.5233 14.2688L49.5328 18.9413L50.6409 19.1763L51.6315 14.5037L50.5233 14.2688ZM50.1276 19.6237C50.7287 19.5804 51.2674 19.3011 51.7392 18.856L50.962 18.032C50.6323 18.3429 50.3285 18.4735 50.0461 18.4939L50.1276 19.6237ZM51.738 18.8572C52.1692 18.453 52.5017 17.9494 52.7425 17.3604L51.6939 16.9318C51.5065 17.3902 51.2607 17.7519 50.9632 18.0308L51.738 18.8572ZM52.7407 17.3646C52.9778 16.7977 53.0988 16.2135 53.0988 15.6159H51.966C51.966 16.0566 51.8775 16.4926 51.6956 16.9276L52.7407 17.3646ZM53.0988 15.6159C53.0988 14.975 52.9399 14.3967 52.579 13.9257L51.6798 14.6146C51.8562 14.8449 51.966 15.1638 51.966 15.6159H53.0988ZM52.5672 13.9109C52.3606 13.6591 52.1009 13.469 51.7992 13.3397L51.3529 14.3809C51.4975 14.4428 51.6067 14.526 51.6915 14.6294L52.5672 13.9109ZM51.808 13.3436C51.4983 13.2045 51.1568 13.1436 50.7973 13.1436V14.2764C51.0298 14.2764 51.2075 14.3157 51.3441 14.377L51.808 13.3436ZM50.7973 13.1436C50.1812 13.1436 49.6098 13.228 49.09 13.4066L49.4579 14.4779C49.8398 14.3468 50.2839 14.2764 50.7973 14.2764V13.1436ZM49.0883 13.4071C48.5755 13.585 48.1253 13.8464 47.748 14.1964L48.5183 15.027C48.7694 14.7941 49.0798 14.6091 49.4596 14.4774L49.0883 13.4071ZM47.748 14.1964C47.3669 14.5499 47.0808 14.9809 46.8876 15.4797L47.9441 15.8887C48.0789 15.5405 48.2709 15.2565 48.5183 15.027L47.748 14.1964ZM46.8858 15.4847C46.6987 15.9817 46.6104 16.5267 46.6104 17.1119H47.7432C47.7432 16.6406 47.8142 16.2338 47.946 15.8837L46.8858 15.4847ZM46.6104 17.1119C46.6104 17.436 46.6446 17.7431 46.7409 18.0045L47.8039 17.6129C47.7727 17.5281 47.7432 17.3708 47.7432 17.1119H46.6104ZM46.731 17.9753C46.7605 18.0711 46.8007 18.1666 46.855 18.2572L47.8264 17.6744C47.8261 17.6739 47.8207 17.6647 47.8138 17.6421L46.731 17.9753ZM46.8489 18.2468C46.8258 18.2063 46.8016 18.1423 46.8016 18.0615H47.9344C47.9344 17.9169 47.8921 17.7891 47.8325 17.6848L46.8489 18.2468ZM47.368 17.495C46.9165 17.495 46.7123 17.4018 46.6314 17.332L45.8914 18.1897C46.275 18.5207 46.8086 18.6279 47.368 18.6279V17.495ZM46.6262 17.3276C46.5426 17.2572 46.4384 17.0975 46.4384 16.702H45.3056C45.3056 17.2811 45.461 17.8274 45.8965 18.1941L46.6262 17.3276ZM46.4384 16.702C46.4384 16.4813 46.4857 16.2591 46.5874 16.0311L45.5529 15.5696C45.3904 15.9336 45.3056 16.3125 45.3056 16.702H46.4384ZM46.5887 16.0282C46.6952 15.7857 46.8494 15.5442 47.0578 15.3043L46.2027 14.5613C45.9284 14.877 45.7091 15.2138 45.5516 15.5725L46.5887 16.0282ZM47.0593 15.3026C47.2553 15.0752 47.4929 14.8584 47.7755 14.6537L47.1108 13.7364C46.765 13.987 46.4607 14.2621 46.2013 14.5629L47.0593 15.3026ZM47.7767 14.6528C48.0639 14.4435 48.3747 14.2622 48.71 14.1091L48.2394 13.0787C47.8369 13.2625 47.46 13.482 47.1097 13.7372L47.7767 14.6528ZM48.7084 14.1098C49.4174 13.7887 50.1077 13.6343 50.7836 13.6343V12.5015C49.9294 12.5015 49.0804 12.6977 48.241 13.0779L48.7084 14.1098ZM50.7836 13.6343C51.7661 13.6343 52.4482 13.8876 52.9098 14.321L53.6852 13.4952C52.9536 12.8083 51.9598 12.5015 50.7836 12.5015V13.6343ZM52.9078 14.3191C53.1134 14.5141 53.2609 14.7337 53.3571 14.9809L54.4129 14.5704C54.254 14.1618 54.0099 13.8031 53.6872 13.4971L52.9078 14.3191ZM53.3596 14.9873C53.4634 15.245 53.5167 15.5212 53.5167 15.8208H54.6495C54.6495 15.3826 54.5707 14.9621 54.4104 14.564L53.3596 14.9873ZM53.5167 15.8208C53.5167 16.1913 53.4404 16.5658 53.2805 16.948L54.3255 17.3852C54.5391 16.8747 54.6495 16.3521 54.6495 15.8208H53.5167ZM53.2786 16.9525C53.1251 17.3287 52.9027 17.665 52.6075 17.9641L53.4137 18.7599C53.8107 18.3577 54.1166 17.8971 54.3274 17.3806L53.2786 16.9525ZM52.6052 17.9665C52.2952 18.2842 51.9226 18.5392 51.481 18.7302L51.9306 19.77C52.5001 19.5237 52.9973 19.1867 53.416 18.7576L52.6052 17.9665ZM51.4833 18.7292C51.0602 18.91 50.5836 19.0047 50.0459 19.0047V20.1375C50.7195 20.1375 51.3496 20.0182 51.9284 19.7709L51.4833 18.7292ZM50.0459 19.0047H49.9707V20.1375H50.0459V19.0047ZM49.4169 19.4526L48.563 23.442L49.6707 23.6791L50.5246 19.6897L49.4169 19.4526ZM49.1168 22.9941H47.1085V24.127H49.1168V22.9941ZM47.6624 23.6787L49.5615 14.7777L48.4536 14.5413L46.5545 23.4424L47.6624 23.6787ZM54.7594 16.5654V15.999H54.3004L54.2053 16.448L54.7594 16.5654ZM56.7746 16.5654L57.3295 16.679L57.4687 15.999H56.7746V16.5654ZM56.597 17.433L56.0421 17.3194L55.7015 18.9827L56.9725 17.857L56.597 17.433ZM57.3757 16.8318L57.0939 16.3405L57.0876 16.3442L57.3757 16.8318ZM59.0084 16.8865L58.577 17.2536L58.5783 17.2551L59.0084 16.8865ZM59.1928 17.2212L58.6535 17.3946L58.6555 17.4003L59.1928 17.2212ZM59.0084 18.3074L59.4275 18.6884L59.433 18.6823L59.4384 18.676L59.0084 18.3074ZM58.6736 18.5465L58.4419 18.0296L58.4351 18.0327L58.6736 18.5465ZM57.7788 18.3962L57.2663 18.6374L57.2719 18.6494L57.2782 18.6612L57.7788 18.3962ZM57.7036 18.1707L58.2604 18.0663L58.258 18.0547L57.7036 18.1707ZM57.5806 17.7814L58.0571 17.4751L58.0511 17.4657L58.0447 17.4566L57.5806 17.7814ZM56.4125 18.2459L56.0306 17.8276L55.8959 17.9506L55.8583 18.1291L56.4125 18.2459ZM55.2922 23.5605V24.127H55.7517L55.8464 23.6774L55.2922 23.5605ZM53.277 23.5605L52.7229 23.4431L52.578 24.127H53.277V23.5605ZM54.7594 17.1318H56.7746V15.999H54.7594V17.1318ZM56.2197 16.4518L56.0421 17.3194L57.1519 17.5466L57.3295 16.679L56.2197 16.4518ZM56.9725 17.857C57.2825 17.5824 57.5102 17.4102 57.6639 17.3195L57.0876 16.3442C56.8404 16.4902 56.5489 16.7189 56.2214 17.009L56.9725 17.857ZM57.6575 17.3232C57.8991 17.1846 58.1056 17.1318 58.2843 17.1318V15.999C57.8708 15.999 57.4717 16.1238 57.0939 16.3405L57.6575 17.3232ZM58.2843 17.1318C58.4319 17.1318 58.5107 17.1756 58.577 17.2536L59.4397 16.5194C59.1417 16.1693 58.7378 15.999 58.2843 15.999V17.1318ZM58.5783 17.2551C58.6082 17.29 58.6342 17.3341 58.6536 17.3945L59.732 17.0479C59.6695 16.8533 59.5725 16.6743 59.4384 16.5179L58.5783 17.2551ZM58.6555 17.4003C58.6756 17.4606 58.6879 17.5317 58.6879 17.6174H59.8207C59.8207 17.4208 59.792 17.2277 59.7301 17.0421L58.6555 17.4003ZM58.6879 17.6174C58.6879 17.683 58.6776 17.7433 58.6576 17.801L59.728 18.1716C59.79 17.9925 59.8207 17.8069 59.8207 17.6174H58.6879ZM58.6576 17.801C58.64 17.8519 58.6143 17.8968 58.5783 17.9388L59.4384 18.676C59.5664 18.5267 59.6637 18.3575 59.728 18.1716L58.6576 17.801ZM58.5893 17.9264C58.5542 17.965 58.5078 18.0001 58.4419 18.0296L58.9053 19.0633C59.1036 18.9744 59.2804 18.8502 59.4275 18.6884L58.5893 17.9264ZM58.4351 18.0327C58.3917 18.0529 58.3313 18.0689 58.2433 18.0689V19.2017C58.474 19.2017 58.7005 19.1585 58.9122 19.0602L58.4351 18.0327ZM58.2433 18.0689C58.2282 18.0689 58.2165 18.0682 58.2081 18.0674C58.1996 18.0667 58.195 18.0658 58.1937 18.0655C58.1906 18.0649 58.2044 18.0673 58.2272 18.0801L57.6718 19.0675C57.8602 19.1734 58.0657 19.2017 58.2433 19.2017V18.0689ZM58.2272 18.0801C58.2381 18.0863 58.2499 18.0951 58.2605 18.1061C58.2709 18.1169 58.2768 18.1264 58.2793 18.1312L57.2782 18.6612C57.3674 18.8298 57.4996 18.9706 57.6718 19.0675L58.2272 18.0801ZM58.2912 18.155C58.2722 18.1146 58.2639 18.0853 58.2603 18.0664L57.1469 18.2751C57.1707 18.4019 57.2124 18.5229 57.2663 18.6374L58.2912 18.155ZM58.258 18.0547C58.2188 17.8675 58.1621 17.6385 58.0571 17.4751L57.1042 18.0877C57.0918 18.0684 57.0877 18.0575 57.0898 18.0625C57.0914 18.0662 57.0957 18.077 57.102 18.0971C57.1149 18.1379 57.131 18.1996 57.1492 18.2868L58.258 18.0547ZM58.0447 17.4566C57.8821 17.2243 57.6357 17.1467 57.4304 17.1467V18.2795C57.4027 18.2795 57.3489 18.2749 57.2848 18.2458C57.2166 18.2148 57.1582 18.1655 57.1166 18.1062L58.0447 17.4566ZM57.4304 17.1467C57.1553 17.1467 56.8831 17.2047 56.6403 17.3503L57.2231 18.3217C57.2536 18.3034 57.3137 18.2795 57.4304 18.2795V17.1467ZM56.6403 17.3503C56.4556 17.4611 56.25 17.6273 56.0306 17.8276L56.7944 18.6642C56.994 18.4819 57.1345 18.3749 57.2231 18.3217L56.6403 17.3503ZM55.8583 18.1291L54.738 23.4437L55.8464 23.6774L56.9667 18.3627L55.8583 18.1291ZM55.2922 22.9941H53.277V24.127H55.2922V22.9941ZM53.8311 23.678L55.3135 16.6828L54.2053 16.448L52.7229 23.4431L53.8311 23.678ZM59.507 23.1097L59.884 22.6869L59.8816 22.6848L59.507 23.1097ZM58.9605 20.4592L59.5188 20.5547L59.519 20.5535L58.9605 20.4592ZM59.2338 19.4004L59.7691 19.5857L59.7711 19.5795L59.2338 19.4004ZM60.4429 17.3715L60.8363 17.779L60.839 17.7764L60.4429 17.3715ZM64.5006 18.6899H63.9342V19.0982L64.3215 19.2273L64.5006 18.6899ZM65.7507 18.444L65.965 18.9683L65.9677 18.9672L65.7507 18.444ZM66.8096 17.8633L67.3488 17.69L67.114 16.9597L66.4852 17.399L66.8096 17.8633ZM66.9325 18.2459L67.3427 18.6365L67.5747 18.3929L67.4718 18.0726L66.9325 18.2459ZM65.8737 18.9768L65.6356 18.4629L65.6336 18.4638L65.8737 18.9768ZM64.4528 19.4072L64.3597 18.8485L63.9263 18.9207L63.8885 19.3585L64.4528 19.4072ZM64.0839 21.1423L64.6154 21.3381L64.616 21.3366L64.0839 21.1423ZM63.3462 22.4812L63.7858 22.8384L63.7874 22.8364L63.3462 22.4812ZM62.1712 22.1397L62.5417 22.5681L62.5426 22.5673L62.1712 22.1397ZM63.2915 19.4482L63.8528 19.5239L63.9195 19.0294L63.4375 18.9009L63.2915 19.4482ZM62.9978 19.2432L62.5005 19.5145L62.5052 19.523L62.5101 19.5314L62.9978 19.2432ZM63.353 18.1024L63.5782 18.6221L63.9427 18.4642L63.9183 18.0676L63.353 18.1024ZM63.2095 17.4671L63.6937 17.1732L63.6899 17.167L63.686 17.1609L63.2095 17.4671ZM63.0524 17.3305L62.8151 17.8448L62.8221 17.8481L62.8293 17.8511L63.0524 17.3305ZM61.8979 18L62.3731 18.3083L62.3762 18.3035L61.8979 18ZM61.2148 19.5848L60.6698 19.4308L60.6696 19.4313L61.2148 19.5848ZM60.9894 21.7913L60.4298 21.8787L60.4311 21.8872L60.4327 21.8957L60.9894 21.7913ZM61.1192 22.1328L61.5905 21.8186L61.5846 21.8098L61.5784 21.8012L61.1192 22.1328ZM61.331 22.3104L61.1112 22.8325L61.1231 22.8375L61.1352 22.8419L61.331 22.3104ZM61.1124 23.0488C60.5078 23.0488 60.1254 22.9022 59.884 22.6869L59.1301 23.5325C59.6447 23.9912 60.3325 24.1816 61.1124 24.1816V23.0488ZM59.8816 22.6848C59.6184 22.4527 59.4381 22.0659 59.4381 21.4087H58.3053C58.3053 22.2726 58.5486 23.0198 59.1324 23.5345L59.8816 22.6848ZM59.4381 21.4087C59.4381 21.16 59.4639 20.876 59.5188 20.5547L58.4023 20.3637C58.3388 20.7346 58.3053 21.0837 58.3053 21.4087H59.4381ZM59.519 20.5535C59.5727 20.2354 59.6558 19.9129 59.769 19.5856L58.6985 19.2151C58.5659 19.5983 58.4668 19.9816 58.402 20.3649L59.519 20.5535ZM59.7711 19.5795C60.0311 18.7997 60.3915 18.2083 60.8363 17.779L60.0496 16.964C59.4469 17.5457 59.0012 18.3069 58.6965 19.2212L59.7711 19.5795ZM60.839 17.7764C61.3677 17.2591 61.9798 17.0089 62.704 17.0089V15.8761C61.6794 15.8761 60.7841 16.2452 60.0468 16.9667L60.839 17.7764ZM62.704 17.0089C63.1789 17.0089 63.4448 17.1504 63.6101 17.3559C63.7943 17.585 63.9342 17.9927 63.9342 18.6763H65.067C65.067 17.8706 64.9075 17.1615 64.4928 16.6459C64.0592 16.1068 63.4269 15.8761 62.704 15.8761V17.0089ZM63.9342 18.6763V18.6899H65.067V18.6763H63.9342ZM64.3215 19.2273C64.3771 19.2458 64.4651 19.27 64.5689 19.27V18.1372C64.6057 18.1372 64.6335 18.1416 64.6493 18.1448C64.6656 18.148 64.6762 18.1514 64.6797 18.1526L64.3215 19.2273ZM64.5689 19.27H64.6509V18.1372H64.5689V19.27ZM64.6509 19.27C65.0604 19.27 65.503 19.1571 65.965 18.9683L65.5365 17.9197C65.1514 18.077 64.8608 18.1372 64.6509 18.1372V19.27ZM65.9677 18.9672C66.3791 18.7966 66.768 18.5833 67.1339 18.3277L66.4852 17.399C66.1862 17.6079 65.8693 17.7817 65.5338 17.9208L65.9677 18.9672ZM66.2703 18.0367L66.3933 18.4192L67.4718 18.0726L67.3488 17.69L66.2703 18.0367ZM66.5224 17.8553C66.3071 18.0813 66.0165 18.2865 65.6357 18.4629L66.1117 19.4908C66.5962 19.2664 67.0114 18.9843 67.3427 18.6365L66.5224 17.8553ZM65.6336 18.4638C65.2571 18.64 64.8337 18.7695 64.3597 18.8485L64.5459 19.9659C65.1103 19.8718 65.6341 19.7144 66.1138 19.4898L65.6336 18.4638ZM63.8885 19.3585C63.8376 19.9485 63.7239 20.4772 63.5519 20.948L64.616 21.3366C64.8265 20.76 64.9588 20.1319 65.0171 19.4559L63.8885 19.3585ZM63.5524 20.9465C63.3792 21.4167 63.1615 21.8072 62.9049 22.1261L63.7874 22.8364C64.1319 22.4083 64.4061 21.9062 64.6154 21.3381L63.5524 20.9465ZM62.9066 22.1241C62.6556 22.433 62.3765 22.6605 62.0702 22.8173L62.5864 23.8256C63.0453 23.5908 63.4447 23.2581 63.7858 22.8384L62.9066 22.1241ZM62.0702 22.8173C61.7672 22.9724 61.4503 23.0488 61.1124 23.0488V24.1816C61.6306 24.1816 62.1243 24.0622 62.5864 23.8256L62.0702 22.8173ZM61.6725 22.9247C62.0147 22.9247 62.3074 22.7707 62.5417 22.5681L61.8007 21.7113C61.698 21.8001 61.6583 21.7919 61.6725 21.7919V22.9247ZM62.5426 22.5673C62.7769 22.3639 62.9763 22.1009 63.1485 21.7981L62.1639 21.2379C62.0356 21.4634 61.9116 21.6149 61.7998 21.712L62.5426 22.5673ZM63.1485 21.7981C63.3232 21.4911 63.4681 21.1419 63.5869 20.7556L62.5042 20.4224C62.4045 20.7465 62.2898 21.0166 62.1639 21.2379L63.1485 21.7981ZM63.5869 20.7556C63.7062 20.3679 63.7944 19.9569 63.8528 19.5239L62.7302 19.3725C62.6793 19.7501 62.6035 20.0997 62.5042 20.4224L63.5869 20.7556ZM63.4375 18.9009C63.4214 18.8966 63.4256 18.8953 63.4397 18.9051C63.4555 18.9161 63.4727 18.9335 63.4854 18.9551L62.5101 19.5314C62.6605 19.7859 62.8983 19.9295 63.1456 19.9955L63.4375 18.9009ZM63.495 18.972C63.499 18.9794 63.4822 18.9531 63.4822 18.8607H62.3494C62.3494 19.078 62.3872 19.3067 62.5005 19.5145L63.495 18.972ZM63.4822 18.8607C63.4822 18.7443 63.5057 18.6936 63.5161 18.6765L62.5478 18.0886C62.4033 18.3264 62.3494 18.5946 62.3494 18.8607H63.4822ZM63.5161 18.6765C63.5328 18.649 63.5494 18.6346 63.5782 18.6221L63.1278 17.5827C62.8833 17.6887 62.6859 17.861 62.5478 18.0886L63.5161 18.6765ZM63.9183 18.0676C63.899 17.7536 63.8462 17.4244 63.6937 17.1732L62.7254 17.7611C62.7214 17.7546 62.735 17.7755 62.751 17.8464C62.7663 17.9142 62.7798 18.0094 62.7877 18.1372L63.9183 18.0676ZM63.686 17.1609C63.5898 17.0112 63.4529 16.8859 63.2755 16.8099L62.8293 17.8511C62.8071 17.8416 62.786 17.8284 62.7679 17.8126C62.75 17.7971 62.739 17.7826 62.7331 17.7734L63.686 17.1609ZM63.2898 16.8162C63.1298 16.7424 62.9626 16.7231 62.8202 16.7231V17.8559C62.8307 17.8559 62.8385 17.8563 62.8439 17.8567C62.8493 17.8572 62.8517 17.8576 62.8515 17.8576C62.8513 17.8575 62.8479 17.8569 62.8418 17.8551C62.8358 17.8533 62.8266 17.8501 62.8151 17.8448L63.2898 16.8162ZM62.8202 16.7231C62.1985 16.7231 61.7436 17.1862 61.4197 17.6965L62.3762 18.3035C62.6535 17.8665 62.8133 17.8559 62.8202 17.8559V16.7231ZM61.4228 17.6916C61.1069 18.1785 60.8587 18.7621 60.6698 19.4308L61.7599 19.7388C61.9261 19.1505 62.1334 18.6776 62.3731 18.3083L61.4228 17.6916ZM60.6696 19.4313C60.4869 20.0805 60.3888 20.6802 60.3888 21.2243H61.5217C61.5217 20.812 61.5967 20.3187 61.76 19.7383L60.6696 19.4313ZM60.3888 21.2243C60.3888 21.4712 60.4007 21.6925 60.4298 21.8787L61.549 21.7038C61.5326 21.5986 61.5217 21.4419 61.5217 21.2243H60.3888ZM60.4327 21.8957C60.4688 22.0882 60.5346 22.2908 60.66 22.4645L61.5784 21.8012C61.583 21.8076 61.5793 21.8044 61.5718 21.7848C61.5643 21.7651 61.5549 21.7336 61.5461 21.6869L60.4327 21.8957ZM60.6479 22.447C60.761 22.6166 60.917 22.7507 61.1112 22.8325L61.5508 21.7884C61.5587 21.7918 61.5682 21.7973 61.5771 21.8047C61.5859 21.8121 61.59 21.8179 61.5905 21.8186L60.6479 22.447ZM61.1352 22.8419C61.3085 22.9058 61.4962 22.9247 61.6725 22.9247V21.7919C61.6225 21.7919 61.5856 21.789 61.5598 21.7854C61.5335 21.7817 61.5242 21.778 61.5268 21.779L61.1352 22.8419ZM62.8065 26.6346L63.182 26.2106L63.1812 26.2099L62.8065 26.6346ZM62.4513 26.1359L62.9737 25.9172L62.9706 25.9098L62.9673 25.9024L62.4513 26.1359ZM63.0866 24.1412L62.7797 23.665L62.7724 23.6699L63.0866 24.1412ZM63.7765 23.786L63.5694 23.2587L63.5613 23.262L63.7765 23.786ZM64.7397 23.4512L64.9112 23.9911L65.2256 23.8912L65.2939 23.5685L64.7397 23.4512ZM66.2972 16.0872L65.7436 15.9674L65.7431 15.97L66.2972 16.0872ZM67.6976 13.6212L68.0266 14.0823L68.03 14.0798L67.6976 13.6212ZM71.243 13.3821L70.992 13.8898L70.993 13.8904L71.243 13.3821ZM71.7417 15.5681L71.3731 15.138L71.3715 15.1394L71.7417 15.5681ZM71.3864 15.7593L71.2237 15.2168L71.2186 15.2184L71.3864 15.7593ZM70.3959 15.6705L70.0735 16.1362L70.075 16.1373L70.3959 15.6705ZM70.2525 14.6049L69.7721 14.3046L69.7668 14.3135L70.2525 14.6049ZM70.717 14.3999L70.3165 14.8004L71.3542 15.8382L71.2827 14.3723L70.717 14.3999ZM70.4984 13.9832L70.1662 14.442L70.1751 14.4484L70.1842 14.4545L70.4984 13.9832ZM68.9272 14.3248L68.4886 13.9664L68.4849 13.971L68.9272 14.3248ZM68.4627 15.4178L69.0172 15.5333L69.0181 15.5289L68.4627 15.4178ZM68.2236 16.5654L67.6691 16.4499L67.5271 17.1318H68.2236V16.5654ZM69.3439 16.5654L69.8998 16.6739L70.0315 15.999H69.3439V16.5654ZM69.2346 17.1256V17.692H69.7012L69.7906 17.2341L69.2346 17.1256ZM68.1143 17.1256V16.5592H67.6552L67.5602 17.0083L68.1143 17.1256ZM66.5158 24.6809L65.9617 24.5636L65.9608 24.5681L66.5158 24.6809ZM65.4638 26.5936L65.1196 26.1438L65.1175 26.1454L65.4638 26.5936ZM68.9546 21.0535L69.5086 21.1712L69.5087 21.1707L68.9546 21.0535ZM69.9041 16.5654V15.999H69.445L69.3499 16.4482L69.9041 16.5654ZM71.9193 16.5654L72.4735 16.6825L72.6178 15.999H71.9193V16.5654ZM70.9151 21.3199L71.4576 21.4827L71.4644 21.4601L71.4693 21.437L70.9151 21.3199ZM71.8236 22.2011L72.0622 22.7149L72.0699 22.7112L71.8236 22.2011ZM72.1857 21.9416L71.7852 21.5411L72.1857 21.9416ZM72.6912 21.0535V20.4871H72.2733L72.15 20.8865L72.6912 21.0535ZM73.2787 21.0535L73.8125 21.2429L74.0807 20.4871H73.2787V21.0535ZM72.336 22.7408L72.7501 23.1273L72.7565 23.1202L72.336 22.7408ZM71.2567 23.4786L71.4555 24.0089L71.2567 23.4786ZM64.1112 25.5689L63.6777 25.2044L63.6761 25.2063L64.1112 25.5689ZM64.4733 24.7218L63.919 24.6054L63.9179 24.6108L64.4733 24.7218ZM64.6441 23.9089L65.1984 24.0254L65.3952 23.0887L64.4794 23.367L64.6441 23.9089ZM63.5374 24.4623L63.8913 24.9046L63.9 24.8974L63.5374 24.4623ZM63.3257 25.7124L63.0083 26.1816L63.0163 26.1868L63.3257 25.7124ZM64.0566 26.4917C63.6501 26.4917 63.3766 26.3829 63.182 26.2106L62.431 27.0586C62.8739 27.4509 63.4339 27.6245 64.0566 27.6245V26.4917ZM63.1812 26.2099C63.0924 26.1315 63.0236 26.0364 62.9737 25.9172L61.9288 26.3546C62.0429 26.6271 62.2109 26.8644 62.4317 27.0593L63.1812 26.2099ZM62.9673 25.9024C62.918 25.7934 62.8879 25.6604 62.8879 25.4938H61.7551C61.7551 25.8008 61.8115 26.0959 61.9352 26.3694L62.9673 25.9024ZM62.8879 25.4938C62.8879 25.278 62.9345 25.1236 63.0044 25.0079L62.0348 24.4221C61.8405 24.7437 61.7551 25.1084 61.7551 25.4938H62.8879ZM63.0044 25.0079C63.0871 24.871 63.2133 24.7375 63.4008 24.6125L62.7724 23.6699C62.468 23.8728 62.2162 24.1219 62.0348 24.4221L63.0044 25.0079ZM63.3934 24.6173C63.5658 24.5062 63.7645 24.4032 63.9917 24.3099L63.5613 23.262C63.2784 23.3782 63.0172 23.5121 62.7798 23.6651L63.3934 24.6173ZM63.9836 24.3132C64.2228 24.2192 64.531 24.1118 64.9112 23.9911L64.5682 22.9114C64.1743 23.0366 63.8403 23.1524 63.5694 23.2588L63.9836 24.3132ZM65.2939 23.5685L66.8514 16.2044L65.7431 15.97L64.1856 23.334L65.2939 23.5685ZM66.8508 16.2071C67.0837 15.1317 67.4978 14.4595 68.0265 14.0823L67.3687 13.1601C66.5312 13.7575 66.0117 14.7293 65.7437 15.9674L66.8508 16.2071ZM68.03 14.0798C68.4097 13.8046 68.9099 13.6479 69.5694 13.6479V12.5151C68.726 12.5151 67.9783 12.7182 67.3652 13.1626L68.03 14.0798ZM69.5694 13.6479C70.2374 13.6479 70.6968 13.7439 70.992 13.8898L71.494 12.8744C70.9786 12.6195 70.3222 12.5151 69.5694 12.5151V13.6479ZM70.993 13.8904C71.1958 13.9901 71.3169 14.1037 71.39 14.2187C71.4624 14.3327 71.51 14.4831 71.51 14.6937H72.6428C72.6428 14.3031 72.5515 13.9344 72.3461 13.6112C72.1414 13.2889 71.8458 13.0473 71.493 12.8738L70.993 13.8904ZM71.51 14.6937C71.51 14.9783 71.4323 15.0872 71.3731 15.138L72.1103 15.9981C72.4973 15.6664 72.6428 15.1924 72.6428 14.6937H71.51ZM71.3715 15.1394C71.3362 15.1699 71.2899 15.197 71.2237 15.2168L71.5492 16.3019C71.7562 16.2398 71.9468 16.1393 72.1119 15.9967L71.3715 15.1394ZM71.2186 15.2184C71.1437 15.2416 71.0616 15.2544 70.9697 15.2544V16.3872C71.1693 16.3872 71.365 16.359 71.5543 16.3003L71.2186 15.2184ZM70.9697 15.2544C70.8094 15.2544 70.7409 15.2204 70.7168 15.2038L70.075 16.1373C70.3424 16.3211 70.6565 16.3872 70.9697 16.3872V15.2544ZM70.7183 15.2048C70.7155 15.2029 70.7156 15.2025 70.7165 15.2036C70.7174 15.2047 70.7163 15.2038 70.7139 15.1985C70.7089 15.1872 70.6959 15.1497 70.6959 15.0694H69.5631C69.5631 15.4738 69.7001 15.8777 70.0735 16.1362L70.7183 15.2048ZM70.6959 15.0694C70.6959 14.9898 70.7135 14.9374 70.7382 14.8963L69.7668 14.3135C69.6275 14.5456 69.5631 14.8028 69.5631 15.0694H70.6959ZM70.7328 14.9051C70.7441 14.8869 70.7394 14.9016 70.7089 14.9207C70.6936 14.9303 70.6749 14.939 70.654 14.9449C70.6332 14.9508 70.6148 14.9527 70.6009 14.9527V13.8199C70.2199 13.8199 69.9407 14.035 69.7722 14.3047L70.7328 14.9051ZM70.6009 14.9527H70.6692V13.8199H70.6009V14.9527ZM70.6692 14.9527C70.6461 14.9527 70.6001 14.9507 70.5426 14.9343C70.4839 14.9175 70.3968 14.8808 70.3165 14.8004L71.1175 13.9994C70.9453 13.8272 70.736 13.8199 70.6692 13.8199V14.9527ZM71.2827 14.3723C71.2663 14.0347 71.1209 13.7175 70.8126 13.512L70.1842 14.4545C70.1821 14.4531 70.1767 14.4491 70.1702 14.4419C70.1635 14.4346 70.158 14.4266 70.1539 14.4188C70.1455 14.4027 70.15 14.4008 70.1513 14.4275L71.2827 14.3723ZM70.8306 13.5245C70.5671 13.3337 70.2495 13.2734 69.9451 13.2734V14.4062C70.1143 14.4062 70.1656 14.4416 70.1662 14.442L70.8306 13.5245ZM69.9451 13.2734C69.3591 13.2734 68.8594 13.5126 68.4886 13.9665L69.3659 14.6831C69.5234 14.4903 69.7022 14.4062 69.9451 14.4062V13.2734ZM68.4849 13.971C68.1943 14.3342 68.0106 14.7904 67.9073 15.3067L69.0181 15.5289C69.097 15.1344 69.2229 14.8619 69.3695 14.6786L68.4849 13.971ZM67.9082 15.3023L67.6691 16.4499L68.7781 16.6809L69.0172 15.5333L67.9082 15.3023ZM68.2236 17.1318H69.3439V15.999H68.2236V17.1318ZM68.788 16.457L68.6787 17.0171L69.7906 17.2341L69.8998 16.6739L68.788 16.457ZM69.2346 16.5592H68.1143V17.692H69.2346V16.5592ZM67.5602 17.0083L65.9617 24.5636L67.07 24.7981L68.6685 17.2428L67.5602 17.0083ZM65.9608 24.5681C65.8007 25.3561 65.5014 25.8516 65.1196 26.1438L65.808 27.0434C66.4737 26.534 66.8757 25.7544 67.0709 24.7936L65.9608 24.5681ZM65.1175 26.1454C64.8222 26.3736 64.4768 26.4917 64.0566 26.4917V27.6245C64.7111 27.6245 65.3039 27.433 65.8101 27.0418L65.1175 26.1454ZM70.3413 23.0761C70.0138 23.0761 69.8138 22.9834 69.6761 22.8458L68.8751 23.6468C69.2658 24.0375 69.7761 24.2089 70.3413 24.2089V23.0761ZM69.6761 22.8458C69.5245 22.6942 69.4048 22.4342 69.4048 21.9689H68.272C68.272 22.6239 68.4438 23.2155 68.8751 23.6468L69.6761 22.8458ZM69.4048 21.9689C69.4048 21.7772 69.4356 21.5145 69.5086 21.1712L68.4005 20.9358C68.3186 21.3212 68.272 21.6687 68.272 21.9689H69.4048ZM69.5087 21.1707L70.4582 16.6827L69.3499 16.4482L68.4004 20.9363L69.5087 21.1707ZM69.9041 17.1318H71.9193V15.999H69.9041V17.1318ZM71.3651 16.4484L70.3609 21.2029L71.4693 21.437L72.4735 16.6825L71.3651 16.4484ZM70.3726 21.1572C70.3136 21.3538 70.2872 21.5598 70.2872 21.7708H71.42C71.42 21.6539 71.4346 21.5593 71.4576 21.4827L70.3726 21.1572ZM70.2872 21.7708C70.2872 22.0298 70.3462 22.3697 70.6234 22.6054L71.3571 21.7423C71.3788 21.7607 71.395 21.7804 71.4064 21.798C71.4175 21.8152 71.4225 21.8281 71.4242 21.8332C71.4258 21.838 71.4246 21.8361 71.4231 21.8251C71.4216 21.8142 71.42 21.7965 71.42 21.7708H70.2872ZM70.6234 22.6054C70.8665 22.812 71.1765 22.8564 71.4274 22.8564V21.7235C71.3613 21.7235 71.3261 21.7169 71.3133 21.7135C71.3012 21.7103 71.3238 21.714 71.3571 21.7423L70.6234 22.6054ZM71.4274 22.8564C71.6489 22.8564 71.8622 22.8077 72.0622 22.7149L71.5851 21.6874C71.5301 21.713 71.4792 21.7235 71.4274 21.7235V22.8564ZM72.0699 22.7112C72.2622 22.6184 72.4344 22.4938 72.5862 22.3421L71.7852 21.5411C71.7184 21.6079 71.6492 21.6564 71.5774 21.6911L72.0699 22.7112ZM72.5862 22.3421C72.8876 22.0407 73.0974 21.6581 73.2324 21.2205L72.15 20.8865C72.0573 21.1867 71.9301 21.3961 71.7852 21.5411L72.5862 22.3421ZM72.6912 21.6199H73.2787V20.4871H72.6912V21.6199ZM72.7449 20.8641C72.5116 21.5216 72.2301 22.0126 71.9154 22.3614L72.7565 23.1202C73.1978 22.6311 73.5448 21.9972 73.8125 21.2429L72.7449 20.8641ZM71.9219 22.3543C71.6572 22.6379 71.3694 22.8314 71.0578 22.9482L71.4555 24.0089C71.9455 23.8252 72.3772 23.5268 72.7501 23.1273L71.9219 22.3543ZM71.0578 22.9482C70.8315 23.0331 70.5938 23.0761 70.3413 23.0761V24.2089C70.7263 24.2089 71.0989 24.1426 71.4555 24.0089L71.0578 22.9482ZM63.6672 26.3812C63.8494 26.3812 64.015 26.3295 64.1577 26.2539L63.6276 25.2528C63.6213 25.2561 63.6219 25.255 63.6292 25.253C63.6369 25.2509 63.65 25.2484 63.6672 25.2484V26.3812ZM64.1577 26.2539C64.3128 26.1718 64.4409 26.0581 64.5464 25.9315L63.6761 25.2063C63.6607 25.2248 63.6485 25.2366 63.6401 25.2436C63.636 25.2471 63.6328 25.2494 63.6308 25.2508C63.6287 25.2522 63.6277 25.2527 63.6276 25.2528L64.1577 26.2539ZM64.5448 25.9334C64.7949 25.636 64.9445 25.2538 65.0287 24.8329L63.9179 24.6108C63.8563 24.9186 63.7646 25.1011 63.6777 25.2044L64.5448 25.9334ZM65.0276 24.8383L65.1984 24.0254L64.0898 23.7925L63.919 24.6054L65.0276 24.8383ZM64.4794 23.367C63.9672 23.5227 63.5233 23.7367 63.1748 24.0271L63.9 24.8974C64.098 24.7324 64.3919 24.5776 64.8088 24.4509L64.4794 23.367ZM63.1836 24.02C62.7969 24.3293 62.527 24.7421 62.527 25.2547H63.6598C63.6598 25.1844 63.6859 25.0688 63.8913 24.9045L63.1836 24.02ZM62.527 25.2547C62.527 25.6271 62.6849 25.9627 63.0083 26.1815L63.643 25.2432C63.6392 25.2406 63.6406 25.241 63.6445 25.2453C63.6486 25.2498 63.653 25.256 63.6566 25.2631C63.6582 25.2664 63.6594 25.2692 63.6602 25.2714C63.6609 25.2736 63.6612 25.2747 63.6612 25.2746C63.6611 25.2744 63.6598 25.2683 63.6598 25.2547H62.527ZM63.0163 26.1868C63.2114 26.314 63.4324 26.3812 63.6672 26.3812V25.2484C63.6561 25.2484 63.6494 25.2473 63.6351 25.2379L63.0163 26.1868ZM73.0191 23.2463L73.4231 22.8493L73.4196 22.8458L73.0191 23.2463ZM72.6912 21.0535L72.1373 20.9353L72.137 20.9368L72.6912 21.0535ZM74.1872 14.0447L74.1113 13.4834L73.7165 13.5369L73.6333 13.9265L74.1872 14.0447ZM76.2571 13.7646L76.8111 13.8824L76.9783 13.0955L76.1811 13.2034L76.2571 13.7646ZM74.6518 21.3199L75.1931 21.4865L75.2005 21.4623L75.2058 21.4376L74.6518 21.3199ZM74.7269 22.1738L74.3492 22.5959L74.3546 22.6007L74.3601 22.6054L74.7269 22.1738ZM75.5603 22.2011L75.7988 22.7149L75.8065 22.7112L75.5603 22.2011ZM76.4279 21.0535V20.4871H76.0099L75.8866 20.8865L76.4279 21.0535ZM77.0153 21.0535L77.5491 21.2429L77.8173 20.4871H77.0153V21.0535ZM76.0726 22.7408L76.4868 23.1273L76.4932 23.1202L76.0726 22.7408ZM74.0779 23.0761C73.7502 23.0761 73.5548 22.9834 73.4231 22.8493L72.6151 23.6433C73.0025 24.0375 73.5131 24.2089 74.0779 24.2089V23.0761ZM73.4196 22.8458C73.268 22.6942 73.1483 22.4342 73.1483 21.9689H72.0155C72.0155 22.6239 72.1873 23.2155 72.6186 23.6468L73.4196 22.8458ZM73.1483 21.9689C73.1483 21.7546 73.1781 21.49 73.2455 21.1702L72.137 20.9368C72.0585 21.3093 72.0155 21.6549 72.0155 21.9689H73.1483ZM73.2451 21.1717L74.7412 14.163L73.6333 13.9265L72.1373 20.9353L73.2451 21.1717ZM74.2632 14.606L76.333 14.3259L76.1811 13.2034L74.1113 13.4834L74.2632 14.606ZM75.703 13.6469L74.0977 21.2022L75.2058 21.4376L76.8111 13.8824L75.703 13.6469ZM74.1104 21.1534C74.0515 21.3446 74.0307 21.5561 74.0307 21.7708H75.1635C75.1635 21.6211 75.1791 21.532 75.1931 21.4865L74.1104 21.1534ZM74.0307 21.7708C74.0307 22.0223 74.0838 22.3584 74.3492 22.5959L75.1046 21.7517C75.1267 21.7715 75.1425 21.7919 75.153 21.8091C75.1633 21.8258 75.1675 21.8378 75.1687 21.8414C75.1698 21.8448 75.1683 21.8414 75.1667 21.829C75.165 21.8166 75.1635 21.7976 75.1635 21.7708H74.0307ZM74.3601 22.6054C74.6031 22.812 74.9131 22.8564 75.1641 22.8564V21.7235C75.098 21.7235 75.0627 21.7169 75.0499 21.7135C75.0379 21.7103 75.0605 21.714 75.0937 21.7423L74.3601 22.6054ZM75.1641 22.8564C75.3855 22.8564 75.5988 22.8077 75.7988 22.7149L75.3218 21.6874C75.2668 21.713 75.2159 21.7235 75.1641 21.7235V22.8564ZM75.8065 22.7112C75.9988 22.6184 76.1711 22.4938 76.3229 22.3421L75.5218 21.5411C75.455 21.6079 75.3859 21.6564 75.3141 21.6911L75.8065 22.7112ZM76.3229 22.3421C76.6242 22.0407 76.834 21.6581 76.9691 21.2205L75.8866 20.8865C75.794 21.1867 75.6668 21.3961 75.5218 21.5411L76.3229 22.3421ZM76.4279 21.6199H77.0153V20.4871H76.4279V21.6199ZM76.4815 20.8641C76.2482 21.5216 75.9668 22.0126 75.6521 22.3614L76.4932 23.1202C76.9345 22.6311 77.2815 21.9972 77.5491 21.2429L76.4815 20.8641ZM75.6586 22.3543C75.3939 22.6379 75.106 22.8314 74.7944 22.9482L75.1922 24.0089C75.6821 23.8252 76.1138 23.5268 76.4867 23.1273L75.6586 22.3543ZM74.7944 22.9482C74.5681 23.0331 74.3305 23.0761 74.0779 23.0761V24.2089C74.463 24.2089 74.8356 24.1426 75.1922 24.0089L74.7944 22.9482ZM76.8446 23.1234L76.4586 23.5379L76.4595 23.5388L76.8446 23.1234ZM76.3391 20.466L76.8976 20.5603L76.8987 20.5532L76.3391 20.466ZM76.5918 19.414L76.0532 19.2387L76.0531 19.2391L76.5918 19.414ZM77.0768 18.3005L76.585 18.0195L76.5823 18.0244L77.0768 18.3005ZM77.7736 17.3715L77.3701 16.974L77.3697 16.9744L77.7736 17.3715ZM81.2712 16.8523L81.6847 16.4652L81.6818 16.4622L81.2712 16.8523ZM81.3121 18.9017L81.8188 19.155L81.8201 19.1523L81.3121 18.9017ZM80.5949 19.8239L80.9656 20.2521L80.9692 20.249L80.5949 19.8239ZM79.5565 20.4592L79.7669 20.9851L79.7722 20.9829L79.5565 20.4592ZM78.3542 20.7324L78.317 20.1673L77.8365 20.1989L77.7904 20.6782L78.3542 20.7324ZM78.5797 22.2353L78.9862 21.8408L78.9802 21.8348L78.5797 22.2353ZM80.7178 22.0577L80.4122 21.5808L80.4084 21.5833L80.7178 22.0577ZM81.2302 21.6546L81.6191 22.0665L81.625 22.0608L81.2302 21.6546ZM81.804 21.0535V20.4871H81.5528L81.3842 20.6733L81.804 21.0535ZM82.2822 21.0535L82.7697 21.3419L83.2752 20.4871H82.2822V21.0535ZM80.7588 22.8364L81.1019 23.2871L81.1043 23.2853L80.7588 22.8364ZM78.4635 20.063L77.9073 19.956L77.7682 20.6796L78.5032 20.628L78.4635 20.063ZM79.8776 19.3184L80.3 19.6958L80.3039 19.6914L79.8776 19.3184ZM80.3285 18.5875L80.8531 18.8009L80.8544 18.7978L80.3285 18.5875ZM80.4104 17.3305L79.9038 17.5838L79.9109 17.5979L79.9187 17.6115L80.4104 17.3305ZM79.6317 17.4262L79.2421 17.0149L79.2367 17.0202L79.6317 17.4262ZM79.1398 18.1024L78.6447 17.8274L78.6419 17.8324L79.1398 18.1024ZM78.4362 23.0761C77.8404 23.0761 77.4661 22.9272 77.2296 22.7079L76.4595 23.5388C76.9698 24.0117 77.6567 24.2089 78.4362 24.2089V23.0761ZM77.2305 22.7088C76.9904 22.4852 76.8167 22.0967 76.8167 21.4224H75.6838C75.6838 22.2783 75.9063 23.0237 76.4586 23.5379L77.2305 22.7088ZM76.8167 21.4224C76.8167 21.1735 76.8424 20.8869 76.8976 20.5603L75.7806 20.3717C75.7173 20.7465 75.6838 21.0975 75.6838 21.4224H76.8167ZM76.8987 20.5532C76.9485 20.2334 77.0256 19.9121 77.1305 19.5889L76.0531 19.2391C75.9303 19.6173 75.8389 19.9973 75.7794 20.3788L76.8987 20.5532ZM77.1304 19.5894C77.2468 19.2318 77.3939 18.8945 77.5713 18.5767L76.5823 18.0244C76.3681 18.408 76.1918 18.813 76.0532 19.2387L77.1304 19.5894ZM77.5686 18.5816C77.7465 18.2702 77.9499 18.0001 78.1775 17.7686L77.3697 16.9744C77.069 17.2803 76.8079 17.6296 76.585 18.0195L77.5686 18.5816ZM78.1771 17.769C78.6777 17.2609 79.2824 17.0089 80.0279 17.0089V15.8761C78.9881 15.8761 78.09 16.2434 77.3701 16.974L78.1771 17.769ZM80.0279 17.0089C80.5206 17.0089 80.7521 17.1283 80.8605 17.2424L81.6818 16.4622C81.2711 16.0299 80.6737 15.8761 80.0279 15.8761V17.0089ZM80.8577 17.2394C80.9275 17.314 81.0053 17.4643 81.0053 17.7814H82.1381C82.1381 17.2878 82.0156 16.8187 81.6846 16.4652L80.8577 17.2394ZM81.0053 17.7814C81.0053 18.0918 80.9383 18.3794 80.8042 18.651L81.8201 19.1523C82.0321 18.7227 82.1381 18.2633 82.1381 17.7814H81.0053ZM80.8055 18.6484C80.6667 18.926 80.4737 19.1758 80.2206 19.3988L80.9692 20.249C81.3263 19.9346 81.6114 19.5696 81.8188 19.155L80.8055 18.6484ZM80.2242 19.3957C79.9669 19.6183 79.6736 19.7984 79.3409 19.9355L79.7722 20.9829C80.2137 20.8012 80.6126 20.5577 80.9656 20.2521L80.2242 19.3957ZM79.3462 19.9333C79.0141 20.0661 78.6718 20.1439 78.317 20.1673L78.3915 21.2976C78.8656 21.2664 79.3247 21.1619 79.7669 20.9851L79.3462 19.9333ZM77.7904 20.6782C77.767 20.922 77.7537 21.1294 77.7537 21.2926H78.8865C78.8865 21.1826 78.8959 21.0165 78.9181 20.7867L77.7904 20.6782ZM77.7537 21.2926C77.7537 21.782 77.8391 22.2958 78.1792 22.6358L78.9802 21.8348C78.9823 21.8369 78.9566 21.8123 78.9311 21.7195C78.9054 21.6264 78.8865 21.488 78.8865 21.2926H77.7537ZM78.1732 22.6298C78.4806 22.9465 78.9192 23.034 79.3311 23.034V21.9012C79.0417 21.9012 78.9793 21.8338 78.9861 21.8408L78.1732 22.6298ZM79.3311 23.034C79.9453 23.034 80.5152 22.8661 81.0272 22.5321L80.4084 21.5833C80.0825 21.7958 79.728 21.9012 79.3311 21.9012V23.034ZM81.0235 22.5345C81.2328 22.4004 81.4312 22.2439 81.6191 22.0664L80.8413 21.2429C80.7012 21.3751 80.5581 21.4873 80.4122 21.5808L81.0235 22.5345ZM81.625 22.0608C81.8003 21.8903 82.0002 21.6806 82.2238 21.4337L81.3842 20.6733C81.1706 20.9092 80.9879 21.1002 80.8353 21.2485L81.625 22.0608ZM81.804 21.6199H82.2822V20.4871H81.804V21.6199ZM81.7947 20.7652C81.3825 21.462 80.9199 21.9976 80.4133 22.3876L81.1043 23.2853C81.7454 22.7918 82.2984 22.1387 82.7697 21.3419L81.7947 20.7652ZM80.4157 22.3858C79.8029 22.8523 79.1479 23.0761 78.4362 23.0761V24.2089C79.4095 24.2089 80.303 23.8953 81.1019 23.2871L80.4157 22.3858ZM78.5032 20.628C78.8484 20.6038 79.1785 20.5037 79.4898 20.3366L78.9538 19.3386C78.7733 19.4355 78.5979 19.4858 78.4239 19.498L78.5032 20.628ZM79.4898 20.3366C79.7955 20.1724 80.066 19.9576 80.2999 19.6958L79.4553 18.941C79.3067 19.1072 79.14 19.2386 78.9538 19.3386L79.4898 20.3366ZM80.3039 19.6914C80.5365 19.4255 80.7201 19.1279 80.8531 18.8009L79.8038 18.374C79.7182 18.5844 79.6012 18.7741 79.4513 18.9454L80.3039 19.6914ZM80.8544 18.7978C80.9893 18.4605 81.0588 18.1115 81.0588 17.754H79.926C79.926 17.9613 79.8863 18.1679 79.8026 18.3771L80.8544 18.7978ZM81.0588 17.754C81.0588 17.529 81.0288 17.2711 80.9022 17.0495L79.9187 17.6115C79.9074 17.5919 79.9106 17.5885 79.9158 17.6158C79.9209 17.6422 79.926 17.6868 79.926 17.754H81.0588ZM80.917 17.0772C80.8467 16.9365 80.7369 16.8104 80.5845 16.7245C80.4364 16.6409 80.2812 16.6138 80.144 16.6138V17.7466C80.1344 17.7466 80.0873 17.7446 80.028 17.7111C79.9644 17.6753 79.9241 17.6243 79.9038 17.5838L80.917 17.0772ZM80.144 16.6138C79.7798 16.6138 79.4767 16.7928 79.2421 17.015L80.0212 17.8373C80.1328 17.7316 80.1712 17.7466 80.144 17.7466V16.6138ZM79.2367 17.0202C79.0164 17.2345 78.8212 17.5097 78.6447 17.8274L79.635 18.3775C79.7773 18.1213 79.9099 17.9457 80.0267 17.8321L79.2367 17.0202ZM78.6419 17.8324C78.4791 18.1326 78.3352 18.4667 78.2085 18.8323L79.2788 19.2033C79.3889 18.8858 79.5091 18.6097 79.6377 18.3725L78.6419 17.8324ZM78.2085 18.8323C78.0812 19.1995 77.9808 19.5742 77.9073 19.956L79.0198 20.1699C79.0829 19.8414 79.1693 19.5192 79.2788 19.2033L78.2085 18.8323Z" fill="black"/>
<defs>
<clipPath id="clip0_544_13269">
<rect width="55.5831" height="23.3091" fill="white"/>
</clipPath>
</defs>
</svg>
