<svg width="600" height="819" viewBox="0 0 600 819" fill="none" xmlns="http://www.w3.org/2000/svg">
<g clip-path="url(#clip0_36_3)">
<path d="M334.557 254.827C335.917 254.682 336.609 254.4 337.115 254.593C364.331 264.818 390.317 277.119 408.289 301.254C419.407 316.177 424.138 332.887 417.492 351.133C412.617 364.535 403.51 374.197 388.724 375.557C373.036 377.005 361.451 369.274 353.76 355.911C345.957 342.364 345.715 327.126 344.967 312.09C344.476 302.292 344.565 292.461 343.938 282.67C343.31 272.879 339.416 263.813 334.557 254.827ZM349.279 270.651C355.828 282.308 356.472 293.724 356.52 305.244C356.52 309.605 356.624 313.957 356.906 318.301C357.332 325.059 358.322 331.728 361.081 338.003C365.957 349.073 376.954 355.702 387.589 354.093C397.734 352.484 406.463 341.985 407.484 330.24C408.474 318.929 404.685 309.178 397.517 300.739C385.015 286.049 368.394 277.867 349.279 270.651Z" fill="url(#paint0_linear_36_3)"/>
<path d="M237.117 236.709C234.703 238.889 232.499 241.375 229.836 243.186C221.791 248.664 210.761 248.865 203.979 243.95C196.409 238.463 193.022 227.804 195.733 217.49C198.445 207.176 205.275 199.984 214.462 195.133C231.043 186.38 248.935 185.712 269.168 186.871C253.609 199.019 249.916 216.517 241.364 231.118L237.117 236.709ZM254.502 193.629C241.718 192.768 231.171 193.371 221.204 197.941C213.159 201.649 206.948 207.217 205.717 216.661C204.913 222.92 206.457 228.56 211.968 232.075C217.479 235.591 223.231 234.803 228.677 231.633C233.36 228.89 236.039 224.336 238.565 219.734C243.231 211.239 245.877 201.609 254.502 193.629Z" fill="url(#paint1_linear_36_3)"/>
<path d="M343.181 332.42C345.53 340.006 345.707 346.281 346.005 352.452C346.809 368.035 345.635 383.393 338.523 397.673C332.892 408.935 324.38 417.085 311.661 419.474C300.849 421.502 290.913 419.08 284.541 409.499C278.258 400.062 279.393 390.022 285.072 380.537C288.234 375.227 292.78 371.116 297.759 367.536C300.583 365.509 303.528 363.634 306.496 361.816C319.577 353.795 334.139 347.754 343.181 332.42ZM341.097 339.5C333.648 351.519 322.852 356.145 313.013 362.025C305.716 366.402 298.395 370.786 293.584 378.115C288.669 385.589 287.679 393.747 291.975 401.606C296.376 409.603 304.227 411.703 312.787 410.689C326.874 409.016 334.509 399.539 338.941 387.222C344.356 372.355 343.801 357.021 341.097 339.5Z" fill="#F78B32"/>
<path d="M356.423 374.254C379.882 376.997 402.432 381.325 419.689 398.759C428.361 407.528 432.818 418.243 430.421 430.874C428.554 440.721 423.47 448.452 413.526 451.445C403.583 454.438 394.669 451.051 387.203 444.044C384.036 441.025 381.518 437.393 379.802 433.368C377.94 429.197 376.294 424.933 374.87 420.593C369.81 404.816 368.676 387.512 356.423 374.254ZM363.294 378.783C370.43 387.697 372.497 398.236 375.184 408.549C377.485 417.399 379.85 426.304 385.691 433.682C391.531 441.059 401.507 444.422 409.584 441.727C417.412 439.08 422.794 430.818 423.092 421.204C423.414 410.746 418.764 402.644 411.185 396.12C397.573 384.35 380.88 380.649 363.294 378.783Z" fill="url(#paint2_linear_36_3)"/>
<path d="M416.905 471.782C439.044 474.622 458.98 478.814 475.689 491.895C487.29 500.945 494.37 512.699 492.133 528.097C490.637 538.475 485.472 546.794 474.852 549.77C463.935 552.835 454.74 548.805 447.25 540.695C442.6 535.643 439.889 529.433 437.717 522.997C436.398 519.087 435.36 515.072 434.234 511.098C432.343 504.397 430.557 497.663 428.602 490.986C426.647 484.308 422.062 478.806 416.905 471.782ZM423.14 476.191C431.74 485.515 433.904 495.764 436.567 505.861C438.071 511.492 439.889 517.124 441.933 522.651C443.563 527.433 446.44 531.693 450.267 534.992C456.703 540.309 464.008 542.876 472.109 539.537C480.21 536.198 483.766 529.4 484.571 521.034C485.488 511.46 481.964 503.335 475.327 496.802C461.442 483.037 443.574 478.999 423.14 476.191Z" fill="#F78D32"/>
<path d="M347.888 145.077C337.735 149.711 331.702 158.424 324.509 165.858C319.964 170.564 315.258 175.093 308.685 176.992C301.613 179.035 295.073 178.038 290.085 172.543C285.258 167.209 285.041 160.725 287.583 154.152C288.669 151.285 290.333 148.671 292.471 146.473C294.609 144.276 297.176 142.541 300.013 141.377C316.513 134.313 332.152 139.02 347.888 145.077ZM338.91 145.077C327.703 141.457 317.679 138.641 307.438 143.581C299.675 147.306 296.698 156.155 300.72 162.133C304.566 167.837 312.289 168.086 319.224 162.664C320.602 161.593 321.896 160.417 323.094 159.148C327.679 154.297 331.75 148.899 338.91 145.077Z" fill="url(#paint3_linear_36_3)"/>
<path d="M281.356 241.617C284.249 240.634 286.775 238.793 288.596 236.339C296.368 232.968 302.393 227.49 307.904 219.115C310.907 229.448 311.772 240.286 310.446 250.965C309.642 257.522 307.687 263.7 303.689 269.122C301.764 271.772 299.37 274.046 296.625 275.832C288.805 280.844 278.057 280.152 272.394 274.352C266.73 268.551 266.891 258.125 272.555 250.265C274.96 246.814 278.379 244.44 281.356 241.617ZM304.565 230.482C300.607 236.468 295.78 239.38 291.066 242.461C286.875 245.197 282.635 247.98 279.948 252.341C277.1 256.958 276.73 261.995 280.149 266.363C283.568 270.731 288.693 271.19 293.825 269.332C300.084 267.015 303.327 261.954 305.088 255.856C307.252 247.932 306.762 240.008 304.565 230.482Z" fill="url(#paint4_linear_36_3)"/>
<path d="M431.378 515.804C431.289 526.48 436.092 533.648 439.495 541.347C441.434 545.756 443.163 550.197 443.252 555.128C443.365 561.765 439.672 567.767 434.306 569.842C428.674 572.031 421.836 569.842 417.412 564.428C414.558 561.052 412.981 556.781 412.955 552.361C412.939 537.88 420.694 527.212 431.378 515.804ZM427.21 525.249C422.383 530.173 419.165 535.418 417.556 541.597C416.269 546.681 416.752 551.564 420.726 555.53C423.405 558.225 426.671 559.279 430.267 557.944C433.863 556.608 435.577 553.648 435.899 549.899C436.196 546.536 435.094 543.463 433.783 540.47C431.715 535.74 429.672 530.961 427.21 525.249Z" fill="url(#paint5_linear_36_3)"/>
<path d="M339.69 640.34C343.052 650.227 344.517 658.393 342.377 666.888C341.622 670.09 339.976 673.013 337.63 675.319C332.803 680.042 325.466 680.734 321.001 676.928C316.761 673.316 316.432 666.526 320.341 660.839C325.482 653.518 334.404 649.889 339.69 640.34Z" fill="#F78B32"/>
<path d="M291.444 178.158C278.347 182.342 265.371 184.449 252.161 180.749C243.416 178.335 236.328 173.508 232.925 164.659C229.997 156.992 231.791 148.842 237.221 144.305C242.507 139.897 251.364 139.478 258.098 143.38C263.263 146.397 267.124 150.814 270.704 155.512C276.843 163.581 282.04 172.567 291.444 178.158ZM252.965 177.056C263.818 182.889 274.606 179.47 285.708 177.056C278.532 172.277 274.735 165.037 269.771 158.786C266.256 154.353 262.692 149.896 257.229 147.652C251.027 145.11 244.132 146.735 240.673 151.457C236.867 156.654 237.342 163.605 241.831 168.601C243.794 173.709 248.404 175.351 252.965 177.056Z" fill="#F89730"/>
<path d="M205.918 756.227L203.03 759.108C190.102 770.974 172.275 770.588 158.952 757.796C145.203 744.57 142.725 727.893 145.799 710.082C149.588 688.103 160.456 669.221 173.079 651.249C173.377 650.823 174.133 650.71 175.541 650.034C175.798 669.793 187.986 683.735 197.447 698.964C200.207 703.404 202.869 707.926 205.275 712.56C212.789 726.976 214.325 741.553 205.918 756.227ZM170.215 667.629C159.757 681.699 151.245 696.51 151.527 714.611C151.679 724.176 155.099 732.616 163.192 738.376C170.054 743.251 177.673 745.005 185.267 740.427C192.862 735.85 195.726 728.36 194.72 719.615C193.642 710.218 188.533 702.495 183.457 694.828C178.011 686.454 172.234 678.224 170.215 667.629Z" fill="url(#paint6_linear_36_3)"/>
<path d="M298.129 704.515C284.115 699.036 279.763 688.626 285.869 674.789C289.135 667.387 293.873 660.983 301.307 654.789C301.259 664.644 305.732 671.933 308.547 679.776C311.299 687.387 311.934 694.684 304.525 702.141C320.301 697.66 334.766 695.118 351.475 695.472C334.983 709.358 332.586 728.971 324.975 746.027C321.757 753.267 318.065 760.137 312.103 765.544C302.892 773.91 289.762 776.066 279.972 770.845C270.519 765.817 264.686 752.961 266.497 741.079C268.62 727.402 276.553 717.676 287.808 710.339C291.066 708.223 294.589 706.478 298.129 704.515ZM334.01 704.925C320.333 705.038 307.292 706.848 295.394 713.404C288.306 717.298 282.82 722.752 279.924 730.427C276.215 740.234 279.65 751.344 287.574 755.753C295.499 760.161 306.496 756.863 312.827 748.247C316.85 742.744 319.191 736.397 321.476 730.041C324.549 721.272 327.155 712.246 333.969 704.925H334.01ZM297.325 662.496C291.967 668.127 287.719 673.574 287.349 681.176C287.132 685.625 288.741 689.31 292.82 691.498C295.507 692.938 298.282 692.954 300.776 690.991C304.605 687.966 304.726 683.751 303.495 679.728C301.83 674.161 299.618 668.803 297.325 662.496Z" fill="url(#paint7_linear_36_3)"/>
<path d="M321.412 604.54C309.626 585.49 311.967 566.343 321.162 547.236C328.193 532.618 337.783 519.803 349.319 507.655C351.178 510.728 350.261 513.616 350.518 516.247C351.532 526.424 355.474 535.555 359.955 544.581C365.007 554.718 370.22 564.79 372.899 575.908C374.661 583.237 374.983 590.59 372.553 597.823C366.302 616.414 347.381 623.06 330.905 612.464C328.354 610.855 326.078 608.764 323.664 606.897L321.412 604.54ZM344.34 521.927C333.648 533.745 325.402 544.871 322.119 558.772C319.786 568.636 320.414 578.33 327.63 586.439C333.439 592.963 341.95 595.353 348.829 592.577C355.707 589.802 360.317 582.232 360.277 573.664C360.228 565.804 357.059 558.861 353.776 551.942C349.456 542.972 344.476 534.195 344.34 521.927Z" fill="url(#paint8_linear_36_3)"/>
<path d="M162.476 282.421C154.889 298.229 157.786 314.721 157.568 330.875C157.464 338.518 157.11 346.161 155.058 353.522C150.73 369.121 137.858 378.855 124.166 377.102C110.666 375.372 99.9184 361.575 99.9586 345.726C99.9586 335.815 103.37 326.909 109.138 318.985C122.468 300.699 141.623 290.691 162.476 282.421ZM152.685 291.753C137.545 298.704 124.914 305.63 116.483 318.349C113.559 322.729 111.95 327.855 111.849 333.12C111.592 343.964 118.341 353.087 127.456 354.198C136.756 355.324 145.421 348.333 147.657 337.577C148.988 331.611 149.417 325.48 148.928 319.387C148.116 310.618 148.494 301.994 152.685 291.753Z" fill="url(#paint9_linear_36_3)"/>
<path d="M256.417 502.208C249.273 517.116 250.785 532.498 251.276 547.727C251.558 556.938 251.179 566.053 248.396 574.903C243.754 589.625 231.662 598.45 218.308 596.994C205.685 595.618 195.138 583.221 193.972 568.418C193.37 561.417 194.677 554.383 197.753 548.065C209.828 523.367 232.652 512.289 256.417 502.208ZM245.347 513.021C232.475 518.041 220.729 524.388 212.266 535.506C207.906 541.234 205.492 547.622 205.83 554.927C206.297 564.581 212.612 572.714 220.697 574.018C229.257 575.393 237.68 569.553 240.874 559.955C243.062 553.406 242.684 546.617 242.595 539.843C242.491 530.945 241.887 521.983 245.347 513.021Z" fill="url(#paint10_linear_36_3)"/>
<path d="M320.301 424.301C306.005 435.307 300.993 451.718 293.656 466.642C289.594 474.864 285.153 482.852 278.315 489.168C268.363 498.395 253.641 500.664 243.287 494.646C233.537 488.967 228.484 475.451 231.461 462.466C234.599 448.718 243.488 439.514 255.596 433.279C275.933 422.821 297.775 422.33 320.301 424.301ZM303.681 432.234C286.899 428.469 258.379 434.333 249.578 447.068C247.896 449.32 246.464 451.748 245.306 454.309C241.461 463.818 244.333 474.743 251.742 479.506C259.152 484.268 269.868 482.346 277.213 474.679C280.567 471.187 282.981 467.052 285.193 462.796C290.632 452.346 294.155 440.689 303.681 432.234Z" fill="url(#paint11_linear_36_3)"/>
<path d="M207.382 524.203C195.194 532.168 189.402 544.485 182.894 556.287C180.376 560.856 177.64 565.313 174.776 569.673C172.988 572.405 170.972 574.98 168.751 577.372C157.769 589.206 141.189 591.853 130.626 583.591C119.805 575.12 118.18 557.912 126.917 544.469C131.358 537.679 137.69 532.337 145.131 529.103C165.114 520.068 185.951 520.607 207.382 524.203ZM191.027 530.068C174.294 528.145 157.938 527.188 143.514 537.888C139.609 540.751 136.673 544.74 135.099 549.32C132.178 557.654 134.56 566.866 140.778 571.186C146.997 575.506 156.45 574.557 163.208 568.772C168.115 564.597 171.405 559.183 174.519 553.656C179.201 545.378 183.087 536.504 191.027 530.068Z" fill="#F78B32"/>
<path d="M169.619 644.033C157.254 652.528 151.663 665.497 144.897 677.596C140.738 685.03 136.289 692.238 129.917 698.046C120.264 706.823 106.096 708.505 96.8125 702.069C87.5287 695.633 84.2865 682.407 88.9607 670.251C92.7498 660.38 99.8857 653.558 109.25 649.109C128.558 639.946 148.847 640.952 169.619 644.033ZM155.734 649.399C141.695 648.12 129.435 647.621 117.52 652.07C110.585 654.652 104.841 658.771 101.43 665.585C96.9895 674.435 98.695 684.249 105.557 689.205C112.09 693.935 121.873 692.487 128.751 685.754C132.21 682.375 134.817 678.36 137.238 674.209C142.218 665.649 146.023 656.277 155.734 649.399Z" fill="url(#paint12_linear_36_3)"/>
<path d="M327.606 241.713C333.455 259.332 338.419 277.111 338.95 295.848C339.384 311.407 337.059 326.274 327.823 339.29C321.693 347.955 313.584 353.771 303.125 356.321C279.578 362.049 260.552 343.876 265.234 320.071C267.012 310.996 271.855 303.603 277.744 296.741C284.59 288.776 292.651 282.099 300.639 275.365C311.098 266.58 320.639 257.192 325.579 244.03C325.917 243.129 326.987 242.494 327.719 241.729L327.606 241.713ZM325.764 251.367C320.494 264.867 309.618 273.089 299.433 281.986C295 285.856 290.656 289.846 286.561 294.054C281.798 298.881 277.768 304.408 275.756 311.012C272.707 321.028 273.472 330.698 281.01 338.494C288.548 346.289 298.218 347.287 308.282 344.125C319.207 340.65 326.584 332.983 330.679 322.629C340.285 298.253 334.09 274.826 325.764 251.351V251.367Z" fill="#F78B32"/>
<path d="M321.412 604.54L323.713 606.897C326.247 611.185 329.159 615.296 331.235 619.769C336.006 630.099 333.697 642.295 326.199 648.602C318.701 654.909 306.561 655.038 296.907 648.723C290.013 644.218 285.644 637.742 283.456 630.035C277.326 608.635 283.971 589.078 292.515 569.601C298.347 584.725 310.302 594.283 321.412 604.54ZM293.987 583.704C289.28 594.049 286.827 603.277 286.529 612.907C286.248 621.877 288.428 630.228 295.652 636.398C301.935 641.756 311.227 642.319 316.754 637.822C322.281 633.325 323.6 624.878 319.972 617.492C317.558 612.529 313.834 608.563 309.996 604.685C304.075 598.691 297.502 593.181 293.987 583.704Z" fill="url(#paint13_linear_36_3)"/>
<path d="M259.296 316.081C258.854 341.76 255.845 366.482 240.254 387.616C231.099 400.022 218.806 407.487 202.901 406.723C191.067 406.16 181.124 401.196 176.257 389.829C171.47 378.622 174.286 368.035 181.478 358.566C185.653 353.087 191.276 349.266 197.35 346.249C202.618 343.644 208.021 341.324 213.537 339.298C229.562 333.369 246.642 329.516 259.296 316.081ZM255.901 321.809C244.719 334.037 230.962 337.158 217.978 341.921C213.899 343.417 209.86 345.083 205.95 346.973C199.836 349.942 194.1 353.546 190.174 359.29C184.937 366.949 183.006 375.38 186.956 383.996C190.906 392.612 198.654 396.57 207.938 397.319C219.466 398.244 228.854 393.586 236.272 385.195C251.75 367.641 254.486 346.04 255.901 321.809Z" fill="#F78B32"/>
<path d="M422.915 572.674C449.705 575.739 475.674 580.816 495.73 600.831C504.579 609.681 509.358 620.373 508.883 633.196C508.409 646.02 500.999 657.588 490.308 661.667C479.93 665.633 466.116 661.836 457.476 652.625C450.718 645.384 447.251 636.47 444.258 627.315C442.77 622.762 441.7 618.072 440.397 613.462C438.385 606.326 436.551 599.134 434.234 592.103C431.917 585.071 427.187 579.191 422.915 572.674ZM429.979 577.501C439.206 588.209 441.354 601.435 444.805 614.178C446.221 619.423 447.903 624.636 449.785 629.705C451.518 634.656 454.257 639.195 457.83 643.035C465.071 650.565 473.96 653.711 483.976 650.734C493.493 647.902 498.055 640.147 499.648 630.775C501.595 619.383 497.588 609.584 489.873 601.523C473.727 584.621 452.376 580.14 429.979 577.517V577.501Z" fill="#F78B32"/>
<path d="M449.664 647.162C444.748 660.637 446.96 674.056 447.95 687.435C448.454 693.516 448.137 699.637 447.009 705.633C444.402 718.843 433.606 728.408 422.415 727.475C410.469 726.477 400.984 715.029 400.694 701.305C400.575 694.078 402.574 686.974 406.446 680.871C416.575 664.403 432.367 655.07 449.664 647.162ZM441.86 658.256C429.841 664.282 420.444 670.324 413.703 679.801C411.616 682.603 410.126 685.804 409.323 689.205C408.521 692.606 408.423 696.135 409.037 699.575C410.235 706.598 415.923 712.358 422.254 713.091C429.229 713.895 435.657 709.696 438.417 702.487C440.83 696.188 440.243 689.615 439.881 683.131C439.43 675.368 438.111 667.596 441.86 658.256Z" fill="url(#paint14_linear_36_3)"/>
<path d="M178.839 459.852C168.381 468.5 164.085 480.543 158.727 491.927C155.292 499.24 151.526 506.36 145.597 512.039C137.359 519.972 125.308 522.031 116.764 516.963C108.221 511.895 104.27 500.431 107.344 489.288C109.757 480.439 115.34 473.826 123.023 469.176C140.191 458.75 159.121 458.026 178.839 459.852ZM165.927 465.95C153.224 464.856 142.114 465.684 131.543 470.777C125.67 473.593 121.084 477.8 118.486 483.882C115.268 491.452 117.456 500.551 123.369 504.453C129.282 508.355 138.566 506.577 144.141 500.656C148.075 496.464 150.529 491.364 152.942 486.239C156.176 479.345 159.081 472.273 165.927 465.95Z" fill="url(#paint15_linear_36_3)"/>
<path d="M104.97 612.746C101.591 637.082 96.4263 660.308 76.8128 676.961C68.3334 684.201 58.2129 687.419 46.9741 685.006C36.9742 682.866 29.0339 677.596 26.4273 667.202C23.8851 657.066 27.5697 648.353 34.8584 641.137C39.1222 636.913 44.456 634.411 49.9909 632.343C53.048 631.209 56.1695 630.228 59.315 629.359C74.8981 625.119 91.5994 624.001 104.97 612.746ZM101.422 617.621C89.6203 627.605 76.2738 628.554 63.788 631.973C55.9603 634.121 48.2774 636.607 42.3965 642.577C36.226 648.828 33.8769 656.47 36.8375 664.765C39.8543 673.204 46.8936 676.961 55.5822 677.749C65.1074 678.618 73.2167 675.287 79.8859 668.715C93.6187 655.167 98.0032 637.621 101.422 617.621Z" fill="#F78B32"/>
<path d="M256.127 561.805C270.286 585.586 283.729 607.581 276.907 635.296C274.614 644.58 269.208 651.917 260.704 656.527C252.201 661.136 243.174 662.44 234.59 656.969C226.007 651.498 222.644 642.834 222.885 632.834C223.089 627.574 224.486 622.43 226.972 617.79C229.143 613.516 231.533 609.357 234.132 605.329C238.541 598.579 243.158 591.958 247.808 585.345C252.458 578.732 253.826 571.129 256.127 561.805ZM257.326 571.604C254.968 581.483 249.651 589.4 244.067 597.179C240.157 602.412 236.64 607.927 233.545 613.679C230.6 619.423 228.991 625.433 229.707 631.933C231.204 645.61 243.335 653.228 256.304 648.667C267.189 644.837 274.654 633.792 275.008 620.509C275.507 602.03 267.277 586.6 257.326 571.612V571.604Z" fill="#F78B32"/>
<path d="M237.117 236.709L241.38 231.15C245.153 228.906 246.521 224.151 251.67 221.601C250.865 241.609 263.737 256.275 269.691 273.507C271.412 278.463 272.772 283.499 272.828 288.792C272.957 300.176 266.143 310.876 256.738 314.166C247.495 317.384 235.652 313.611 228.686 304.914C220.094 294.198 218.991 281.962 222.032 269.042C224.309 259.388 228.822 250.716 234.1 242.389C235.186 240.563 236.103 238.6 237.117 236.709ZM249.779 227.522C240.512 237.498 233.834 246.83 229.208 257.514C226.328 264.175 224.381 271.093 224.711 278.43C225.097 286.33 227.632 293.418 233.561 298.889C239.86 304.665 247.398 306.861 255.322 303.555C263.247 300.248 266.802 293.096 267.132 284.673C267.526 274.673 262.909 266.097 258.669 257.497C254.285 248.543 249.256 239.815 249.779 227.522Z" fill="#F78B32"/>
<path d="M426.535 596.503C426.921 604.355 430.453 610.662 433.59 617.114C436.358 622.802 439.125 628.522 439.302 635.03C439.495 642.166 435.473 648.498 429.536 650.549C423.767 652.552 416.479 649.849 412.336 644.17C409.098 639.701 407.691 634.163 408.402 628.691C409.769 615.433 417.283 605.57 426.535 596.503ZM423.478 603.567C416.728 611.66 411.354 618.916 412.858 628.965C413.776 635.127 419.294 639.697 424.516 638.795C429.857 637.862 433.099 631.837 431.466 625.449C430.772 622.951 429.838 620.526 428.675 618.208C426.639 613.896 424.636 609.608 423.478 603.567Z" fill="url(#paint16_linear_36_3)"/>
<path d="M346.6 660.332C350.454 666.848 355.514 670.718 359.472 675.617C362.505 679.406 364.066 683.662 361.531 688.312C359.794 691.53 356.769 692.745 353.229 692.335C348.137 691.691 345.015 688.481 343.438 683.831C340.767 676.044 343.133 668.803 346.6 660.332ZM347.316 667.508C344.983 672.954 344.098 677.508 345.973 682.15C347.581 686.068 350.799 688.216 354.782 686.269C359.15 684.113 358.241 680.138 355.876 676.92C353.639 673.831 350.711 671.217 347.316 667.508Z" fill="url(#paint17_linear_36_3)"/>
<path d="M323.873 261.802C331.363 282.252 336.938 302.445 327.727 323.345C323.777 332.323 316.898 338.526 306.963 340.755C290.261 344.495 277.212 331.72 280.752 314.922C281.888 309.785 284.279 305.008 287.711 301.021C289.658 298.68 291.782 296.475 293.922 294.303C304.187 283.885 317.695 276.492 323.873 261.802Z" fill="url(#paint18_linear_36_3)"/>
<path d="M437.396 583.342C455.666 584.766 472.931 588.627 486.808 601.226C493.88 607.662 497.781 615.819 497.098 625.682C496.478 634.652 492.657 641.772 483.976 645.046C475.545 648.2 468.12 645.215 461.788 639.415C457.693 635.634 455.304 630.662 453.486 625.505C451.821 620.783 450.389 615.964 449.174 611.113C446.736 601.354 444.403 591.612 437.396 583.342Z" fill="url(#paint19_linear_36_3)"/>
<path d="M136.193 703.935C135.879 711.787 133.337 718.521 131.366 725.327C124.713 748.553 115.775 770.773 100.168 789.59C85.6385 807.12 67.8511 818.753 43.9979 818.198C34.5526 818.023 25.3631 815.099 17.5541 809.783C-6.02558 793.878 -5.84055 761.143 17.9162 743.074C32.3166 732.117 49.4362 728.674 66.7007 725.753C76.5879 724.08 86.5073 722.575 96.4026 720.926C109.524 718.778 121.599 714.08 132.299 706.059C133.551 705.269 134.851 704.56 136.193 703.935Z" fill="url(#paint20_linear_36_3)"/>
<path d="M351.347 383.336C355.49 388.397 357.638 393.111 359.883 397.729C368.435 415.347 375.032 433.489 373.978 453.504C373.278 466.875 368.845 478.669 358.37 487.551C347.317 496.915 331.726 498.629 321.267 491.839C310.809 485.049 306.078 470.021 310.069 456.199C313.6 443.963 321.332 434.172 329.143 424.502C338.878 412.459 349.103 400.746 351.347 383.336Z" fill="url(#paint21_linear_36_3)"/>
<path d="M405.296 669.463C394.95 688.835 398.514 709.688 397.251 729.896C396.961 736.659 395.749 743.35 393.647 749.784C388.064 766.018 373.261 776.396 359.158 774.023C344.227 771.505 332.884 756.67 332.859 739.486C332.755 732.908 334.184 726.397 337.035 720.468C351.129 692.077 377.509 680.066 405.296 669.463ZM392.255 686.55C388.563 694.032 389.528 701.94 389.303 709.704C389.037 719.068 389.021 728.481 384.701 737.137C380.839 744.868 372.264 750.137 364.766 749.542C356.882 748.923 349.915 742.841 347.067 734.192C345.289 728.81 345.659 723.348 346.391 717.829C344.163 721.554 343.696 725.584 343.776 729.727C344.01 741.883 352.159 752.696 362.328 754.353C372.786 756.051 383.454 748.641 387.493 736.839C389.285 731.237 390.234 725.4 390.308 719.518C390.695 708.489 389.745 697.371 392.255 686.55Z" fill="url(#paint22_linear_36_3)"/>
<path d="M384.604 449.981C393.923 459.411 401.667 470.275 407.541 482.16C413.566 494.164 417.798 506.665 416.929 520.366C416.197 531.926 412.255 542.136 403.06 549.553C393.864 556.97 383.414 559.931 372.046 554.613C362.529 550.164 355.892 537.284 356.761 525.651C357.365 518.47 359.331 511.47 362.553 505.024C365.578 498.757 368.716 492.53 372.151 486.521C378.579 475.161 384.267 463.738 384.604 449.981Z" fill="url(#paint23_linear_36_3)"/>
<path d="M205.918 756.228C214.623 748.577 224.317 742.326 234.156 736.284C243.657 730.452 252.185 723.557 257.913 712.367C261.058 718.939 261.195 724.603 261.782 730.065C263.496 746.22 263.632 762.301 257.655 777.78C252.619 790.829 244.252 800.805 230.302 804.586C218.943 807.659 208.581 805.551 200.697 796.146C193.971 788.102 193.867 775.093 199.892 764.771C200.978 762.905 202.024 761.014 203.11 759.14L205.918 756.228Z" fill="url(#paint24_linear_36_3)"/>
<path d="M388.112 578.056C399.833 599.995 410.026 622.102 404.017 647.677C401.169 659.793 394.154 668.948 382.215 673.566C362.819 681.072 344.701 666.575 347.565 645.931C348.676 637.959 352.264 631.016 356.946 624.628C359.906 620.606 363.02 616.664 366.294 612.875C375.264 602.505 384.822 592.537 388.112 578.056Z" fill="url(#paint25_linear_36_3)"/>
<path d="M188.863 266.749C199.868 260.209 210.898 253.74 225.186 249.284C214.172 268.519 219.361 288.39 216.674 307.336C215.339 316.757 213.15 325.775 206.007 332.742C193.014 345.421 174.494 342.975 165.734 327.11C157.608 312.372 161.18 298.519 169.957 285.277C174.1 279.026 180.094 274.545 185.122 269.138L188.863 266.749ZM172.926 294.375C170.821 298.447 170.313 303.158 171.502 307.585C173.666 316.435 180.472 322.991 188.324 323.723C195.564 324.399 203.859 319.09 207.439 311.254C208.466 308.854 209.243 306.355 209.755 303.796C212.346 292.034 209.932 280.007 211.783 268.197C209.538 274.553 210.335 281.125 210.126 287.618C209.9 294.858 209.57 302.034 206.256 308.655C202.563 316.032 194.76 320.417 187.616 319.242C180.472 318.068 174.124 311.439 172.998 303.515C172.572 300.514 172.926 297.416 172.926 294.375Z" fill="url(#paint26_linear_36_3)"/>
<path d="M292.836 476.272C303.39 495.982 312.441 515.692 308.161 538.499C305.748 551.234 299.03 561.098 286.231 565.546C268.532 571.685 252.627 558.668 254.799 540.044C255.396 534.829 257.149 529.813 259.932 525.362C262.468 521.303 265.227 517.388 268.194 513.632C277.413 501.959 289.022 491.911 292.836 476.272Z" fill="url(#paint27_linear_36_3)"/>
<path d="M114.777 555.369C109.805 578.153 103.514 599.979 82.4927 613.414C73.8686 618.933 64.2146 620.308 54.3354 616.471C38.0042 610.115 33.9978 592.111 45.9526 579.223C50.0337 574.941 55.1995 571.847 60.9001 570.269C65.8885 568.777 70.9602 567.579 76.089 566.681C89.3309 564.372 102.999 563.752 114.777 555.369Z" fill="url(#paint28_linear_36_3)"/>
<path d="M285.177 654.017C280.913 674.483 275.016 693.863 258.162 707.556C250.624 713.686 241.815 716.582 231.928 714.796C222.41 713.091 215.033 708.255 212.62 698.602C210.254 689.157 213.73 681.039 221.204 674.764C227.43 669.543 235.073 667.685 242.756 666.02C246.36 665.215 249.997 664.692 253.689 664.153C264.63 662.56 275.604 660.959 285.177 654.017Z" fill="url(#paint29_linear_36_3)"/>
<path d="M151.462 376.281C147.777 395.693 141.921 413.778 127.327 427.527C119.693 434.711 110.433 438.243 99.7974 437.133C89.9343 436.111 81.101 429.088 78.9932 420.673C76.813 412.009 80.9079 401.767 88.8402 395.991C94.4234 391.912 100.843 389.869 107.48 388.413C110.698 387.713 113.916 387.206 117.134 386.699C128.92 384.865 140.979 383.867 151.462 376.281Z" fill="url(#paint30_linear_36_3)"/>
<path d="M281.356 241.617C271.074 243.636 261.718 242.968 255.781 232.647C250.334 223.202 251.839 210.644 259.538 200.917C264.952 194.087 272.064 189.598 279.948 186.187C285.326 183.82 290.941 182.032 296.697 180.853C302.417 179.727 308.17 178.77 313.552 177.796C315.048 179.478 314.123 180.282 313.431 181.014C306.504 188.56 304.356 198.174 301.846 207.635C299.103 217.973 296.134 228.214 288.556 236.315C286.749 238.771 284.238 240.62 281.356 241.617Z" fill="url(#paint31_linear_36_3)"/>
<path d="M431.611 405.452C448.988 409.137 465.006 414.953 477.001 428.332C483.525 435.572 486.872 444.277 485.158 454.228C483.646 463.078 479.06 469.892 470.058 472.096C461.056 474.301 453.831 470.544 448.272 463.496C444.105 458.219 442.4 451.871 441.241 445.403C440.437 440.906 439.873 436.361 439.367 431.815C438.361 422.676 436.688 413.778 431.611 405.452Z" fill="url(#paint32_linear_36_3)"/>
<path d="M138.164 525.016C126.249 539.038 113.506 551.065 94.858 553.978C86.7326 555.233 79.098 553.511 72.7586 548.161C66.564 542.932 62.9437 536.206 65.1963 527.896C67.4811 519.457 73.732 515.024 82.1309 513.544C89.9345 512.184 97.2796 514.445 104.528 516.931C115.381 520.623 125.751 526.223 138.164 525.016Z" fill="url(#paint33_linear_36_3)"/>
<path d="M254.912 425.79C243.528 431.139 237.108 441.26 229.433 450.053C226.069 454.075 222.127 457.575 217.736 460.439C208.887 465.95 197.897 465.194 191.775 458.726C185.653 452.257 185.339 441.188 191.131 432.676C196.546 424.752 204.583 421.027 213.657 419.683C227.808 417.6 241.356 420.48 254.912 425.79Z" fill="url(#paint34_linear_36_3)"/>
<path d="M226.135 462.587C221.871 478.17 215.765 492.394 202.338 502.007C195.709 506.754 188.243 508.709 180.062 506.577C172.29 504.55 166.257 498.58 165.669 491.444C165.018 483.584 168.525 477.511 175.195 473.424C182.113 469.192 189.981 468.508 197.817 467.993C207.358 467.366 217.004 467.398 226.135 462.587Z" fill="url(#paint35_linear_36_3)"/>
<path d="M196.088 410.456C191.325 426.876 184.994 441.96 170.094 451.397C163.377 455.644 155.879 456.932 148.148 454.14C141.31 451.726 136.386 447.101 135.453 439.707C134.52 432.314 137.866 426.602 143.755 422.306C148.469 418.847 154.021 417.688 159.668 416.828C171.768 414.993 184.535 417.149 196.088 410.456Z" fill="url(#paint36_linear_36_3)"/>
<path d="M188.863 266.749L185.122 269.163C178.88 271.624 172.926 274.858 166.008 275.341C159.089 275.824 152.597 274.537 147.022 270.128C140.529 264.947 137.746 257.385 139.781 250.555C141.865 243.547 148.743 238.342 156.933 237.586C164.543 236.886 171.534 239.38 178.501 241.874C187.48 245.092 196.2 249.275 207.27 247.642C202.636 256.653 194.607 260.627 188.863 266.749Z" fill="url(#paint37_linear_36_3)"/>
<path d="M203.199 602.786C213.923 616.905 223.384 631.169 220.793 649.793C220.022 655.924 216.876 661.507 212.033 665.344C205.637 670.485 197.391 671.418 191.301 667.806C185.388 664.298 181.864 656.181 182.894 648.562C183.763 642.126 186.683 636.567 189.893 631.121C195.154 622.207 201.695 613.913 203.199 602.786Z" fill="url(#paint38_linear_36_3)"/>
<path d="M280.921 361.977C277.285 371.06 277.036 380.151 277.148 389.33C277.229 396.088 276.947 402.821 274.509 409.257C271.098 418.268 262.531 423.907 254.397 422.515C246.264 421.123 239.804 412.974 239.401 403.553C239.074 398.311 240.308 393.09 242.949 388.55C251.509 373.988 265.628 367.279 280.921 361.977Z" fill="url(#paint39_linear_36_3)"/>
<path d="M185.734 567.34C190.561 582.103 193.425 595.401 190.521 609.246C188.501 618.9 183.634 626.72 173.908 630.348C166.876 632.963 159.934 632.48 154.511 626.865C148.944 621.089 148.598 613.993 151.486 606.752C153.723 601.121 157.786 596.873 162.259 592.988C170.73 585.659 180.537 579.617 185.734 567.34Z" fill="url(#paint40_linear_36_3)"/>
<path d="M455.963 565.216C467.556 557.702 479.446 552.063 493.324 552.876C501.304 553.342 508.255 556.19 512.76 563.205C516.565 569.134 517.491 575.409 513.565 581.709C510.226 587.002 502.64 589.552 495.536 588.072C488.682 586.64 483.308 582.489 477.934 578.418C471.176 573.237 464.909 567.437 455.963 565.216Z" fill="url(#paint41_linear_36_3)"/>
<path d="M120.908 578.032C123.402 591.073 132.026 598.683 137.802 608.048C139.982 611.587 141.825 615.288 142.339 619.512C143.249 626.752 140.409 633.47 135.043 636.511C129.411 639.729 121.833 638.723 116.129 633.977C110.755 629.504 108.301 623.438 107.915 616.736C107.095 602.835 112.694 591.009 120.908 578.032Z" fill="url(#paint42_linear_36_3)"/>
<path d="M137.367 450.053C127.931 454.969 122.621 463.657 115.952 470.898C112.114 475.097 108.027 479.007 102.436 480.777C96.4105 482.691 90.6101 482.072 85.9762 477.679C81.3423 473.287 80.5297 467.527 82.2755 461.405C83.0599 458.562 84.4534 455.923 86.3594 453.673C88.2654 451.422 90.6382 449.613 93.3132 448.372C108.148 441.131 122.677 444.727 137.367 450.053Z" fill="url(#paint43_linear_36_3)"/>
<path d="M390.333 560.301C400.317 561.91 408.41 564.444 414.991 570.663C417.048 572.634 418.561 575.103 419.383 577.831C421.306 584.001 418.708 590.703 413.623 592.907C408.539 595.111 401.998 592.392 399.142 586.262C397.59 582.956 396.777 579.287 395.755 575.739C395.023 573.237 394.653 570.631 393.833 568.161C393.06 565.941 391.926 563.849 390.333 560.301Z" fill="url(#paint44_linear_36_3)"/>
<path d="M252.966 177.056C248.404 175.351 243.794 173.709 241.823 168.593C238.984 162.551 238.485 156.525 244.132 151.98C248.887 148.126 254.341 148.762 259.369 151.932C261.195 153.119 262.853 154.545 264.301 156.171C270.166 162.471 273.794 170.652 282.595 175.785C271.751 179.003 262.443 180.105 252.966 177.056Z" fill="url(#paint45_linear_36_3)"/>
<path d="M250.029 331.535C250.182 348.993 247.873 365.493 237.961 379.861C232.459 387.85 224.985 393.304 214.897 394.342C205.17 395.323 196.055 390.786 192.419 383.079C188.783 375.372 191.228 364.64 198.388 358.003C203.77 353.007 210.383 350.175 217.141 347.617C228.46 343.289 240.665 340.819 250.029 331.535Z" fill="url(#paint46_linear_36_3)"/>
<path d="M96.6113 623.478C93.8841 640.662 90.2719 655.264 79.379 666.864C73.6189 672.995 66.4186 676.269 57.7703 675.625C49.9989 675.054 43.1688 670.428 41.2782 663.831C39.1061 656.221 41.4391 649.68 47.143 644.338C51.0448 640.686 55.8959 638.707 60.8998 637.162C72.5891 633.558 85.3082 633.027 96.6113 623.478Z" fill="url(#paint47_linear_36_3)"/>
<path d="M338.483 347.375C340.703 365.074 341.902 381.213 332.739 396.096C329.484 401.604 324.236 405.651 318.081 407.399C310.133 409.667 301.693 407.302 297.373 401.558C293.053 395.814 293.238 386.876 297.679 380.038C302.12 373.2 309.03 369.411 315.74 365.364C319.642 362.999 323.544 360.617 327.453 358.276C331.363 355.935 333.946 351.961 338.483 347.375Z" fill="url(#paint48_linear_36_3)"/>
<path d="M369.448 383.521C385.409 385.034 400.63 388.131 412.513 399.652C418.563 405.508 421.829 412.805 420.711 421.429C419.785 428.565 416.415 434.398 409.343 436.876C402.272 439.353 396.053 437.205 390.679 432.346C386.158 428.267 384.066 422.805 382.087 417.214C378.145 406.055 377.775 393.537 369.448 383.521Z" fill="url(#paint49_linear_36_3)"/>
<path d="M430.936 481.766C445.593 482.917 459.278 485.934 470.822 494.944C478.417 500.873 483.083 508.564 482.351 518.548C481.796 526.239 478.433 532.514 470.726 535.136C463.019 537.759 456.575 535.088 451.201 529.505C446.374 524.501 444.25 518.057 442.432 511.516C439.592 501.356 438.112 490.632 430.936 481.766Z" fill="url(#paint50_linear_36_3)"/>
<path d="M257.39 577.638C266.65 592.119 273.826 605.353 273.126 621.37C272.684 631.595 268.613 639.93 258.855 644.459C246.876 650.026 235.074 642.737 234.221 629.439C233.666 620.831 237.817 613.953 242.266 607.187C245.243 602.65 248.388 598.217 251.437 593.728C254.382 589.367 255.492 584.227 257.39 577.638Z" fill="url(#paint51_linear_36_3)"/>
<path d="M291.475 492.916C298.159 508.751 303.001 523.006 299.609 538.676C297.449 548.68 292.031 556.209 281.648 559.027C268.902 562.494 258.498 553.319 259.9 540.068C260.805 531.489 266.057 525.41 271.583 519.491C275.282 515.521 279.131 511.682 282.893 507.771C286.531 503.97 288.492 499.09 291.475 492.916Z" fill="url(#paint52_linear_36_3)"/>
<path d="M247.447 236.315C248.058 247.24 253.617 255.977 257.969 265.156C260.793 271.101 263.215 277.135 262.853 283.917C262.459 291.262 259.426 297.111 252.523 300.007C245.62 302.903 239.249 300.811 233.867 295.864C231.602 293.798 229.784 291.291 228.525 288.496C227.266 285.701 226.592 282.678 226.546 279.613C225.806 261.56 236.119 248.857 247.447 236.315Z" fill="url(#paint53_linear_36_3)"/>
<g filter="url(#filter0_i_36_3)">
<ellipse cx="469" cy="67.5" rx="4" ry="3.5" fill="#5BFF93"/>
</g>
</g>
<path d="M350.222 249.185C325.762 222.575 325.142 191.905 339.552 167.645C361.162 131.285 408.952 117.125 446.982 135.825C467.662 145.985 488.912 153.305 512.492 152.015C534.032 150.835 550.652 138.875 558.192 118.755C564.832 101.025 565.332 83.2654 559.192 65.4054C550.192 39.1354 527.542 28.8354 503.472 28.9555C498.112 28.9555 495.322 30.9555 497.232 37.0555C503.052 55.5955 497.302 70.9555 484.332 84.6055C476.472 92.8855 474.572 104.395 469.872 114.395C468.102 118.165 466.612 122.065 464.152 125.675C460.672 113.615 460.152 101.515 459.552 89.5255C459.082 80.2355 452.312 74.6455 448.292 67.5255C446.522 64.3755 441.712 66.0454 438.292 66.1954C423.002 66.8755 408.502 64.9054 396.182 54.7254C392.752 52.0611 389.721 48.9192 387.182 45.3955C382.662 38.6755 378.062 32.4155 370.812 27.8255C361.522 21.8255 361.172 11.2754 368.482 3.17545C371.552 -0.234552 374.372 -2.25455 376.092 4.34545C376.612 6.34545 377.552 8.97545 379.092 9.89545C385.852 13.8255 386.092 20.0554 386.442 26.7554C387.442 45.7554 401.112 58.8954 421.182 59.7554C405.722 52.2754 402.682 34.6554 391.022 23.9555C386.892 20.1655 387.022 14.6154 390.152 9.68545C391.762 7.14545 393.652 4.29545 396.752 4.08545C401.052 3.78545 398.632 8.54545 400.402 10.0854C407.042 15.9654 405.672 23.6854 405.872 31.1954C406.232 45.1954 414.872 52.4554 427.532 56.5454C418.822 49.0454 418.152 36.9855 410.942 28.5954C409.867 27.3432 409.142 25.8292 408.84 24.2067C408.538 22.5842 408.67 20.9106 409.222 19.3555C410.392 15.8355 412.582 12.5454 416.322 12.3054C420.492 12.0354 418.222 16.5654 419.642 18.5454C422.642 22.6754 421.872 27.0554 421.232 31.7554C420.012 40.7554 423.092 48.0854 432.312 54.3455C430.812 48.4155 429.522 44.1755 426.812 40.4955C425.374 38.8441 424.527 36.7615 424.402 34.5755C424.309 33.199 424.672 31.8303 425.435 30.6808C426.198 29.5312 427.318 28.6649 428.622 28.2155C432.392 26.9455 431.792 30.8555 432.972 32.6355C434.972 35.6355 433.972 38.9054 433.872 42.1255C433.482 51.4454 437.202 56.2454 447.132 58.9754C446.692 47.6054 448.872 37.0654 454.632 27.1154C464.952 9.28545 481.122 1.29545 500.562 1.21545C527.502 1.10545 552.722 8.09545 573.252 26.7654C594.692 46.2654 600.652 72.1655 599.052 99.3954C596.052 150.395 576.272 194.755 542.772 233.285C519.142 260.415 488.812 273.475 454.002 277.695C416.812 282.205 382.152 275.845 352.332 251.415C351.622 250.645 350.922 249.915 350.222 249.185ZM502.902 223.185C486.272 219.595 473.802 209.565 461.462 199.315C458.752 197.055 456.032 194.815 453.192 192.735C441.812 184.415 430.732 175.545 416.412 172.725C401.712 169.835 388.352 172.945 379.192 185.105C370.362 196.835 371.432 210.165 378.062 222.765C386.382 238.555 400.722 245.765 417.652 247.665C449.082 251.105 476.492 239.315 502.902 223.225V223.185ZM501.282 212.115C487.282 201.115 473.282 190.065 459.162 179.115C454.892 175.795 450.472 172.625 445.922 169.705C435.852 163.245 425.392 157.565 413.572 154.895C393.692 150.405 370.572 158.365 360.442 173.205C350.142 188.325 351.052 212.115 363.232 229.205C376.502 247.775 395.132 257.205 417.662 259.115C449.472 261.765 478.822 252.865 507.122 239.515C516.282 235.195 525.222 230.395 534.872 225.515C529.202 221.195 525.692 223.945 521.872 226.105C494.242 241.665 465.522 254.165 433.212 255.405C411.732 256.235 392.342 250.455 377.042 234.635C352.302 209.055 360.232 171.375 392.412 161.305C402.202 158.245 412.242 158.815 422.062 161.765C438.542 166.765 451.772 177.125 465.062 187.435C476.572 196.415 487.322 206.415 501.282 212.155V212.115Z" fill="url(#paint54_linear_36_3)"/>
<defs>
<filter id="filter0_i_36_3" x="465" y="64" width="8" height="11" filterUnits="userSpaceOnUse" color-interpolation-filters="sRGB">
<feFlood flood-opacity="0" result="BackgroundImageFix"/>
<feBlend mode="normal" in="SourceGraphic" in2="BackgroundImageFix" result="shape"/>
<feColorMatrix in="SourceAlpha" type="matrix" values="0 0 0 0 0 0 0 0 0 0 0 0 0 0 0 0 0 0 127 0" result="hardAlpha"/>
<feMorphology radius="52" operator="erode" in="SourceAlpha" result="effect1_innerShadow_36_3"/>
<feOffset dy="4"/>
<feGaussianBlur stdDeviation="2"/>
<feComposite in2="hardAlpha" operator="arithmetic" k2="-1" k3="1"/>
<feColorMatrix type="matrix" values="0 0 0 0 0 0 0 0 0 0 0 0 0 0 0 0 0 0 1 0"/>
<feBlend mode="normal" in2="shape" result="effect1_innerShadow_36_3"/>
</filter>
<linearGradient id="paint0_linear_36_3" x1="377.549" y1="254.528" x2="377.549" y2="375.73" gradientUnits="userSpaceOnUse">
<stop stop-color="#F26738"/>
<stop offset="1" stop-color="#F9A834"/>
</linearGradient>
<linearGradient id="paint1_linear_36_3" x1="231.987" y1="186.438" x2="231.987" y2="247.474" gradientUnits="userSpaceOnUse">
<stop stop-color="#F36839"/>
<stop offset="1" stop-color="#FDAA36"/>
</linearGradient>
<linearGradient id="paint2_linear_36_3" x1="393.744" y1="374.254" x2="393.744" y2="452.536" gradientUnits="userSpaceOnUse">
<stop stop-color="#F26839"/>
<stop offset="1" stop-color="#F89D33"/>
</linearGradient>
<linearGradient id="paint3_linear_36_3" x1="316.932" y1="137.838" x2="316.932" y2="177.972" gradientUnits="userSpaceOnUse">
<stop stop-color="#F36839"/>
<stop offset="1" stop-color="#FDAA36"/>
</linearGradient>
<linearGradient id="paint4_linear_36_3" x1="289.638" y1="219.115" x2="289.638" y2="279.187" gradientUnits="userSpaceOnUse">
<stop stop-color="#F36839"/>
<stop offset="1" stop-color="#FDAA36"/>
</linearGradient>
<linearGradient id="paint5_linear_36_3" x1="428.104" y1="515.804" x2="428.104" y2="570.682" gradientUnits="userSpaceOnUse">
<stop stop-color="#F36839"/>
<stop offset="1" stop-color="#FDAA36"/>
</linearGradient>
<linearGradient id="paint6_linear_36_3" x1="178.109" y1="650.034" x2="178.109" y2="767.71" gradientUnits="userSpaceOnUse">
<stop stop-color="#F36839"/>
<stop offset="1" stop-color="#FDAA36"/>
</linearGradient>
<linearGradient id="paint7_linear_36_3" x1="308.822" y1="654.789" x2="308.822" y2="773.671" gradientUnits="userSpaceOnUse">
<stop stop-color="#F36839"/>
<stop offset="1" stop-color="#FDAA36"/>
</linearGradient>
<linearGradient id="paint8_linear_36_3" x1="343.849" y1="507.655" x2="343.849" y2="617.514" gradientUnits="userSpaceOnUse">
<stop stop-color="#F36839"/>
<stop offset="1" stop-color="#FDAA36"/>
</linearGradient>
<linearGradient id="paint9_linear_36_3" x1="131.217" y1="282.421" x2="131.217" y2="377.305" gradientUnits="userSpaceOnUse">
<stop stop-color="#F36839"/>
<stop offset="1" stop-color="#FDAA36"/>
</linearGradient>
<linearGradient id="paint10_linear_36_3" x1="225.123" y1="502.208" x2="225.123" y2="597.15" gradientUnits="userSpaceOnUse">
<stop stop-color="#F36839"/>
<stop offset="1" stop-color="#FDAA36"/>
</linearGradient>
<linearGradient id="paint11_linear_36_3" x1="275.456" y1="423.389" x2="275.456" y2="497.99" gradientUnits="userSpaceOnUse">
<stop stop-color="#F36839"/>
<stop offset="1" stop-color="#FDAA36"/>
</linearGradient>
<linearGradient id="paint12_linear_36_3" x1="128.23" y1="641.847" x2="128.23" y2="705.962" gradientUnits="userSpaceOnUse">
<stop stop-color="#F36839"/>
<stop offset="1" stop-color="#FDAA36"/>
</linearGradient>
<linearGradient id="paint13_linear_36_3" x1="307.397" y1="569.601" x2="307.397" y2="653.396" gradientUnits="userSpaceOnUse">
<stop stop-color="#F36839"/>
<stop offset="1" stop-color="#FDAA36"/>
</linearGradient>
<linearGradient id="paint14_linear_36_3" x1="425.176" y1="647.162" x2="425.176" y2="727.538" gradientUnits="userSpaceOnUse">
<stop stop-color="#F36839"/>
<stop offset="1" stop-color="#FDAA36"/>
</linearGradient>
<linearGradient id="paint15_linear_36_3" x1="142.574" y1="459.07" x2="142.574" y2="519.725" gradientUnits="userSpaceOnUse">
<stop stop-color="#F36839"/>
<stop offset="1" stop-color="#FDAA36"/>
</linearGradient>
<linearGradient id="paint16_linear_36_3" x1="423.765" y1="596.503" x2="423.765" y2="651.206" gradientUnits="userSpaceOnUse">
<stop stop-color="#F36839"/>
<stop offset="1" stop-color="#FDAA36"/>
</linearGradient>
<linearGradient id="paint17_linear_36_3" x1="352.544" y1="660.332" x2="352.544" y2="692.412" gradientUnits="userSpaceOnUse">
<stop stop-color="#F36839"/>
<stop offset="1" stop-color="#FDAA36"/>
</linearGradient>
<linearGradient id="paint18_linear_36_3" x1="306.35" y1="261.802" x2="306.35" y2="341.409" gradientUnits="userSpaceOnUse">
<stop stop-color="#F36837"/>
<stop offset="1" stop-color="#F8A82F"/>
</linearGradient>
<linearGradient id="paint19_linear_36_3" x1="467.285" y1="583.342" x2="467.285" y2="646.325" gradientUnits="userSpaceOnUse">
<stop stop-color="#F36839"/>
<stop offset="1" stop-color="#F9A737"/>
</linearGradient>
<linearGradient id="paint20_linear_36_3" x1="68.0881" y1="703.935" x2="68.0881" y2="818.217" gradientUnits="userSpaceOnUse">
<stop stop-color="#BF932F"/>
<stop offset="1" stop-color="#C94A5B"/>
</linearGradient>
<linearGradient id="paint21_linear_36_3" x1="341.375" y1="383.336" x2="341.375" y2="495.961" gradientUnits="userSpaceOnUse">
<stop stop-color="#BF932F"/>
<stop offset="1" stop-color="#C94A5B"/>
</linearGradient>
<linearGradient id="paint22_linear_36_3" x1="369.075" y1="669.463" x2="369.075" y2="774.36" gradientUnits="userSpaceOnUse">
<stop stop-color="#BF932F"/>
<stop offset="1" stop-color="#C94A5B"/>
</linearGradient>
<linearGradient id="paint23_linear_36_3" x1="386.863" y1="449.981" x2="386.863" y2="557.318" gradientUnits="userSpaceOnUse">
<stop stop-color="#F36839"/>
<stop offset="1" stop-color="#FCA731"/>
</linearGradient>
<linearGradient id="paint24_linear_36_3" x1="229.157" y1="712.367" x2="229.157" y2="805.902" gradientUnits="userSpaceOnUse">
<stop stop-color="#BF932F"/>
<stop offset="1" stop-color="#C94A5B"/>
</linearGradient>
<linearGradient id="paint25_linear_36_3" x1="376.531" y1="578.056" x2="376.531" y2="675.573" gradientUnits="userSpaceOnUse">
<stop stop-color="#BF932F"/>
<stop offset="1" stop-color="#C94A5B"/>
</linearGradient>
<linearGradient id="paint26_linear_36_3" x1="193.182" y1="249.284" x2="193.182" y2="340.844" gradientUnits="userSpaceOnUse">
<stop stop-color="#BF932F"/>
<stop offset="1" stop-color="#C94A5B"/>
</linearGradient>
<linearGradient id="paint27_linear_36_3" x1="281.923" y1="476.272" x2="281.923" y2="567.083" gradientUnits="userSpaceOnUse">
<stop stop-color="#BF932F"/>
<stop offset="1" stop-color="#C94A5B"/>
</linearGradient>
<linearGradient id="paint28_linear_36_3" x1="76.9049" y1="555.369" x2="76.9049" y2="618.646" gradientUnits="userSpaceOnUse">
<stop stop-color="#BF932F"/>
<stop offset="1" stop-color="#C94A5B"/>
</linearGradient>
<linearGradient id="paint29_linear_36_3" x1="248.531" y1="654.017" x2="248.531" y2="715.317" gradientUnits="userSpaceOnUse">
<stop stop-color="#BF932F"/>
<stop offset="1" stop-color="#C94A5B"/>
</linearGradient>
<linearGradient id="paint30_linear_36_3" x1="114.937" y1="376.281" x2="114.937" y2="437.334" gradientUnits="userSpaceOnUse">
<stop stop-color="#BF932F"/>
<stop offset="1" stop-color="#C94A5B"/>
</linearGradient>
<linearGradient id="paint31_linear_36_3" x1="283.444" y1="177.796" x2="283.444" y2="242.528" gradientUnits="userSpaceOnUse">
<stop stop-color="#BF932F"/>
<stop offset="1" stop-color="#C94A5B"/>
</linearGradient>
<linearGradient id="paint32_linear_36_3" x1="458.607" y1="405.452" x2="458.607" y2="472.726" gradientUnits="userSpaceOnUse">
<stop stop-color="#BF932F"/>
<stop offset="1" stop-color="#C94A5B"/>
</linearGradient>
<linearGradient id="paint33_linear_36_3" x1="101.343" y1="513.135" x2="101.343" y2="554.369" gradientUnits="userSpaceOnUse">
<stop stop-color="#BF932F"/>
<stop offset="1" stop-color="#C94A5B"/>
</linearGradient>
<linearGradient id="paint34_linear_36_3" x1="220.945" y1="419.002" x2="220.945" y2="464.122" gradientUnits="userSpaceOnUse">
<stop stop-color="#BF932F"/>
<stop offset="1" stop-color="#C94A5B"/>
</linearGradient>
<linearGradient id="paint35_linear_36_3" x1="195.864" y1="462.587" x2="195.864" y2="507.436" gradientUnits="userSpaceOnUse">
<stop stop-color="#BF932F"/>
<stop offset="1" stop-color="#C94A5B"/>
</linearGradient>
<linearGradient id="paint36_linear_36_3" x1="165.693" y1="410.456" x2="165.693" y2="455.621" gradientUnits="userSpaceOnUse">
<stop stop-color="#BF932F"/>
<stop offset="1" stop-color="#C94A5B"/>
</linearGradient>
<linearGradient id="paint37_linear_36_3" x1="173.198" y1="237.467" x2="173.198" y2="275.437" gradientUnits="userSpaceOnUse">
<stop stop-color="#BF932F"/>
<stop offset="1" stop-color="#C94A5B"/>
</linearGradient>
<linearGradient id="paint38_linear_36_3" x1="201.971" y1="602.786" x2="201.971" y2="669.98" gradientUnits="userSpaceOnUse">
<stop stop-color="#BF932F"/>
<stop offset="1" stop-color="#C94A5B"/>
</linearGradient>
<linearGradient id="paint39_linear_36_3" x1="260.135" y1="361.977" x2="260.135" y2="422.726" gradientUnits="userSpaceOnUse">
<stop stop-color="#BF932F"/>
<stop offset="1" stop-color="#C94A5B"/>
</linearGradient>
<linearGradient id="paint40_linear_36_3" x1="170.694" y1="567.34" x2="170.694" y2="631.876" gradientUnits="userSpaceOnUse">
<stop stop-color="#BF932F"/>
<stop offset="1" stop-color="#C94A5B"/>
</linearGradient>
<linearGradient id="paint41_linear_36_3" x1="486.03" y1="552.798" x2="486.03" y2="588.488" gradientUnits="userSpaceOnUse">
<stop stop-color="#BF932F"/>
<stop offset="1" stop-color="#C94A5B"/>
</linearGradient>
<linearGradient id="paint42_linear_36_3" x1="125.171" y1="578.032" x2="125.171" y2="638.377" gradientUnits="userSpaceOnUse">
<stop stop-color="#BF932F"/>
<stop offset="1" stop-color="#C94A5B"/>
</linearGradient>
<linearGradient id="paint43_linear_36_3" x1="109.397" y1="444.302" x2="109.397" y2="481.803" gradientUnits="userSpaceOnUse">
<stop stop-color="#BF932F"/>
<stop offset="1" stop-color="#C94A5B"/>
</linearGradient>
<linearGradient id="paint44_linear_36_3" x1="405.175" y1="560.301" x2="405.175" y2="593.665" gradientUnits="userSpaceOnUse">
<stop stop-color="#BF932F"/>
<stop offset="1" stop-color="#C94A5B"/>
</linearGradient>
<linearGradient id="paint45_linear_36_3" x1="261.177" y1="149.318" x2="261.177" y2="178.853" gradientUnits="userSpaceOnUse">
<stop stop-color="#F36839"/>
<stop offset="1" stop-color="#F9A737"/>
</linearGradient>
<linearGradient id="paint46_linear_36_3" x1="220.393" y1="331.535" x2="220.393" y2="394.475" gradientUnits="userSpaceOnUse">
<stop stop-color="#F36839"/>
<stop offset="1" stop-color="#F9A737"/>
</linearGradient>
<linearGradient id="paint47_linear_36_3" x1="68.5437" y1="623.478" x2="68.5437" y2="675.705" gradientUnits="userSpaceOnUse">
<stop stop-color="#F36839"/>
<stop offset="1" stop-color="#F9A737"/>
</linearGradient>
<linearGradient id="paint48_linear_36_3" x1="317.149" y1="347.375" x2="317.149" y2="408.251" gradientUnits="userSpaceOnUse">
<stop stop-color="#F36839"/>
<stop offset="1" stop-color="#F9A737"/>
</linearGradient>
<linearGradient id="paint49_linear_36_3" x1="395.188" y1="383.521" x2="395.188" y2="437.911" gradientUnits="userSpaceOnUse">
<stop stop-color="#F36839"/>
<stop offset="1" stop-color="#F9A737"/>
</linearGradient>
<linearGradient id="paint50_linear_36_3" x1="456.681" y1="481.766" x2="456.681" y2="536.151" gradientUnits="userSpaceOnUse">
<stop stop-color="#F36839"/>
<stop offset="1" stop-color="#F9A737"/>
</linearGradient>
<linearGradient id="paint51_linear_36_3" x1="253.672" y1="577.638" x2="253.672" y2="646.343" gradientUnits="userSpaceOnUse">
<stop stop-color="#F36839"/>
<stop offset="1" stop-color="#F9A737"/>
</linearGradient>
<linearGradient id="paint52_linear_36_3" x1="287.81" y1="492.289" x2="276.222" y2="560.011" gradientUnits="userSpaceOnUse">
<stop stop-color="#F36839"/>
<stop offset="1" stop-color="#F9A737"/>
</linearGradient>
<linearGradient id="paint53_linear_36_3" x1="244.698" y1="236.315" x2="244.698" y2="301.326" gradientUnits="userSpaceOnUse">
<stop stop-color="#F36839"/>
<stop offset="1" stop-color="#F9A737"/>
</linearGradient>
<linearGradient id="paint54_linear_36_3" x1="464.649" y1="0" x2="464.649" y2="279.04" gradientUnits="userSpaceOnUse">
<stop stop-color="#5600F2"/>
<stop offset="0.0864582" stop-color="#6907D7"/>
<stop offset="0.388542" stop-color="#AB1F77"/>
<stop offset="0.885417" stop-color="#F78B31"/>
</linearGradient>
<clipPath id="clip0_36_3">
<rect width="527" height="777.214" fill="white" transform="translate(0 41)"/>
</clipPath>
</defs>
</svg>
