<svg width="78" height="78" viewBox="0 0 78 78" fill="none" xmlns="http://www.w3.org/2000/svg">
<path d="M39.1365 41.5187C38.8791 41.4864 38.6188 41.4864 38.3615 41.5187C35.623 41.4266 33.0275 40.2735 31.1234 38.3031C29.2194 36.3328 28.1557 33.6994 28.1573 30.9594C28.1573 25.1146 32.8719 20.3677 38.749 20.3677C41.5242 20.3629 44.1902 21.4488 46.1722 23.3915C48.1542 25.3341 49.2935 27.9778 49.3443 30.7526C49.3951 33.5275 48.3535 36.2111 46.444 38.2251C44.5345 40.239 41.91 41.4219 39.1365 41.5187ZM60.5135 62.8312C54.5792 68.2855 46.8091 71.306 38.749 71.2917C30.3531 71.2917 22.7323 68.0948 16.9844 62.8312C17.3073 59.7958 19.2448 56.825 22.7 54.5C31.5479 48.6229 46.0146 48.6229 54.7979 54.5C58.2531 56.825 60.1906 59.7958 60.5135 62.8312Z" stroke="white" stroke-width="4.84375" stroke-linecap="round" stroke-linejoin="round"/>
<path d="M38.7506 71.2916C56.5853 71.2916 71.0423 56.8346 71.0423 38.9999C71.0423 21.1652 56.5853 6.70825 38.7506 6.70825C20.916 6.70825 6.45898 21.1652 6.45898 38.9999C6.45898 56.8346 20.916 71.2916 38.7506 71.2916Z" stroke="white" stroke-width="4.84375" stroke-linecap="round" stroke-linejoin="round"/>
</svg>
