<svg width="34" height="34" viewBox="0 0 34 34" fill="none" xmlns="http://www.w3.org/2000/svg">
<path d="M26.386 26.3859L29.5235 24.8172V20.8883M20.097 13.8219L16.9595 15.3907M16.9595 15.3907L13.822 13.8219M16.9595 15.3907V19.3196M29.5235 9.10159L26.386 10.6703M29.5235 9.10159L26.386 7.53286M29.5235 9.10159V13.0305M4.39551 9.10159L7.53297 7.53286M4.39551 9.10159L7.53297 10.6703M4.39551 9.10159V13.0305M16.9595 31.0921L13.822 29.5234M16.9595 31.0921L20.097 29.5234M16.9595 31.0921V27.1632M20.097 4.39539L16.9595 2.82666L13.822 4.39539H20.097ZM7.53297 26.3859L4.39551 24.8172V20.8883L7.53297 26.3859Z" stroke="white" stroke-width="2.11991" stroke-linecap="round" stroke-linejoin="round"/>
</svg>
