<svg width="54" height="54" viewBox="0 0 54 54" fill="none" xmlns="http://www.w3.org/2000/svg">
<g filter="url(#filter0_d_199_3548)">
<path d="M27 26.4718C31.4608 26.4718 35.0769 22.8556 35.0769 18.3949C35.0769 13.9341 31.4608 10.318 27 10.318C22.5393 10.318 18.9231 13.9341 18.9231 18.3949C18.9231 22.8556 22.5393 26.4718 27 26.4718Z" stroke="black" stroke-width="3.23077" stroke-linecap="round" stroke-linejoin="round"/>
<path d="M37.6938 35.3564C34.7418 32.749 30.9387 31.3099 27 31.3099C23.0613 31.3099 19.2582 32.749 16.3062 35.3564" stroke="black" stroke-width="3.23077" stroke-linecap="round" stroke-linejoin="round"/>
<path d="M47.9999 34.5487V41.0103C47.9999 41.8671 47.6595 42.6889 47.0537 43.2948C46.4478 43.9006 45.626 44.241 44.7692 44.241H38.3076" stroke="black" stroke-width="3.23077" stroke-linecap="round" stroke-linejoin="round"/>
<path d="M38.3076 2.24103H44.7692C45.626 2.24103 46.4478 2.58141 47.0537 3.1873C47.6595 3.79318 47.9999 4.61494 47.9999 5.4718V11.9333" stroke="black" stroke-width="3.23077" stroke-linecap="round" stroke-linejoin="round"/>
<path d="M6 11.9333V5.4718C6 4.61494 6.34038 3.79318 6.94627 3.1873C7.55216 2.58141 8.37392 2.24103 9.23077 2.24103H15.6923" stroke="black" stroke-width="3.23077" stroke-linecap="round" stroke-linejoin="round"/>
<path d="M15.6923 44.241H9.23077C8.37392 44.241 7.55216 43.9006 6.94627 43.2948C6.34038 42.6889 6 41.8671 6 41.0103V34.5487" stroke="black" stroke-width="3.23077" stroke-linecap="round" stroke-linejoin="round"/>
</g>
<defs>
<filter id="filter0_d_199_3548" x="0.384521" y="0.625641" width="53.2307" height="53.2308" filterUnits="userSpaceOnUse" color-interpolation-filters="sRGB">
<feFlood flood-opacity="0" result="BackgroundImageFix"/>
<feColorMatrix in="SourceAlpha" type="matrix" values="0 0 0 0 0 0 0 0 0 0 0 0 0 0 0 0 0 0 127 0" result="hardAlpha"/>
<feOffset dy="4"/>
<feGaussianBlur stdDeviation="2"/>
<feComposite in2="hardAlpha" operator="out"/>
<feColorMatrix type="matrix" values="0 0 0 0 0 0 0 0 0 0 0 0 0 0 0 0 0 0 0.25 0"/>
<feBlend mode="normal" in2="BackgroundImageFix" result="effect1_dropShadow_199_3548"/>
<feBlend mode="normal" in="SourceGraphic" in2="effect1_dropShadow_199_3548" result="shape"/>
</filter>
</defs>
</svg>
