<svg width="46" height="47" viewBox="0 0 46 47" fill="none" xmlns="http://www.w3.org/2000/svg">
<path d="M22.9998 26.796C27.4605 26.796 31.0767 23.0955 31.0767 18.5307C31.0767 13.9659 27.4605 10.2654 22.9998 10.2654C18.539 10.2654 14.9229 13.9659 14.9229 18.5307C14.9229 23.0955 18.539 26.796 22.9998 26.796Z" stroke="white" stroke-width="3.23077" stroke-linecap="round" stroke-linejoin="round"/>
<path d="M33.6943 35.8879C30.7422 33.2197 26.9392 31.7471 23.0005 31.7471C19.0618 31.7471 15.2587 33.2197 12.3066 35.8879" stroke="white" stroke-width="3.23077" stroke-linecap="round" stroke-linejoin="round"/>
<path d="M43.9999 35.0613V41.6735C43.9999 42.5504 43.6595 43.3913 43.0537 44.0113C42.4478 44.6314 41.626 44.9797 40.7692 44.9797H34.3076" stroke="white" stroke-width="3.23077" stroke-linecap="round" stroke-linejoin="round"/>
<path d="M34.3076 2H40.7692C41.626 2 42.4478 2.34832 43.0537 2.96834C43.6595 3.58836 43.9999 4.42929 43.9999 5.30613V11.9184" stroke="white" stroke-width="3.23077" stroke-linecap="round" stroke-linejoin="round"/>
<path d="M2 11.9184V5.30613C2 4.42929 2.34038 3.58836 2.94627 2.96834C3.55216 2.34832 4.37392 2 5.23077 2H11.6923" stroke="white" stroke-width="3.23077" stroke-linecap="round" stroke-linejoin="round"/>
<path d="M11.6923 44.9797H5.23077C4.37392 44.9797 3.55216 44.6314 2.94627 44.0113C2.34038 43.3913 2 42.5504 2 41.6735V35.0613" stroke="white" stroke-width="3.23077" stroke-linecap="round" stroke-linejoin="round"/>
</svg>
