<svg xmlns="http://www.w3.org/2000/svg" viewBox="0 0 2237.59 912.14"><defs><style>.cls-1{fill:#0e142c;}.cls-2,.cls-3{fill:#d60b52;}.cls-13,.cls-2{stroke:#fff800;}.cls-13,.cls-15,.cls-17,.cls-2,.cls-5{stroke-miterlimit:10;}.cls-2,.cls-5{stroke-width:3.39px;}.cls-4{fill:#0c1429;}.cls-5{fill:#0993c9;stroke:#fff200;}.cls-6{fill:#1b1c20;}.cls-7{fill:#043697;}.cls-8{fill:#fbfbfc;}.cls-9{fill:#18191c;}.cls-10{fill:#fff;}.cls-11{fill:#fff800;}.cls-12{fill:#f6f6f6;}.cls-13{font-size:733.45px;fill:#d30d25;stroke-width:8.17px;font-family:Komikahuna;letter-spacing:0em;}.cls-14{fill:#02012b;}.cls-15{fill:#f7c427;stroke:#ffda00;}.cls-15,.cls-17{stroke-width:4.68px;}.cls-16{fill:#d3942d;}.cls-17{fill:#f60929;stroke:#ffe000;}.cls-18{fill:#ba0028;}.cls-19{fill:#ba2539;}.cls-20{fill:none;}</style></defs><g id="Layer_2" data-name="Layer 2"><g id="Layer_1-2" data-name="Layer 1"><path class="cls-1" d="M196.82,463.86v38.95H102.06q-13.66,0-13.66,13.48t15.43,13.49h48.84q20.13,0,35.34,14.55T203.22,579q0,62.5-95.6,67.21c-1.15,0-1.72.28-1.72.85q0,2.58,27.75,10.28a104.72,104.72,0,0,0,27.74,3.85,80.91,80.91,0,0,0,18.78-2.14l-49.08,39.81q-15-5.13-48.23-31.25-32-24.82-50.37-29.54L31.21,591q32.13,26.13,64.69,26.12,21.85,0,40.7-14.13a19.14,19.14,0,0,0,8.15-16.27q0-9.84-7.72-19.26T119.9,558H86.48q-21.44,0-36-8.56-17.56-10.28-17.56-30.39-.44-42,56.34-42h55.49V463.86H24.38V438.17H232.67v25.69Z"/><path class="cls-1" d="M337.67,510.52q38.83,15.4,38.41,53.93-.85,72.78-68.29,74.49-33.72.87-54.63-20.12T232.24,564q0-42.39,29.88-63.79,26-18.83,70-18.83,30.74,0,63.6,11.13V463.86H224.13V438.17H480.66v25.69H450.35V651.35H395.72V524.64Q375.65,513.09,337.67,510.52ZM312.06,533.2l25.72-20.42c-25.9.58-42.09,18.43-43.22,51.25a54.73,54.73,0,0,0,4.27,23.54q6,14.56,16.64,14.55,18.78,0,17.5-36.81-.86-33.39-14.51-33.39A18.34,18.34,0,0,0,312.06,533.2Z"/><path class="cls-1" d="M488.76,651.35V463.86H473.39V438.17H573.7v25.69H543.4V651.35Z"/><path class="cls-1" d="M393.15,365q14.94-6,35-6,34.58,0,52.5,18.4l58.9,60.36h-64l-32.44-36.38q-17.5-15.84-34.58-15.84a28.34,28.34,0,0,0-15.36,4.28Z"/><path class="cls-2" d="M196.86,463.79v38.95H102.1q-13.66,0-13.65,13.49t15.42,13.48h48.84q20.13,0,35.34,14.55t15.21,34.68q0,62.5-95.6,67.21c-1.15,0-1.72.29-1.72.85q0,2.58,27.75,10.28a104.72,104.72,0,0,0,27.74,3.85A80.37,80.37,0,0,0,180.21,659L131.13,698.8q-15-5.13-48.23-31.25-32-24.82-50.37-29.54l-1.28-47.08Q63.38,617,95.94,617q21.86,0,40.7-14.13a19.14,19.14,0,0,0,8.15-16.27q0-9.84-7.72-19.26T119.94,558H86.52q-21.43,0-36-8.56Q33,539.13,33,519q-.43-42,56.34-41.95h55.49V463.79H24.42V438.1H232.71v25.69Z"/><path class="cls-2" d="M349.09,514.41c25.89,10.27,27.31,24.29,27,50q-.86,72.78-68.29,74.49-33.72.87-54.63-20.12T232.28,564q0-42.39,29.88-63.79,26-18.82,70-18.83,30.73,0,63.6,11.13V463.79H224.17V438.1H480.7v25.69H450.39V651.28H395.76V524.57C382.38,516.87,374.42,516.12,349.09,514.41Zm-37,18.72,23.38-19.25c-25.89.58-39.75,17.26-40.88,50.08a54.73,54.73,0,0,0,4.27,23.54q6,14.57,16.64,14.56,18.78,0,17.5-36.82-.86-33.39-14.51-33.39A18.34,18.34,0,0,0,312.1,533.13Z"/><path class="cls-2" d="M488.8,651.28V463.79H473.44V438.1h100.3v25.69h-30.3V651.28Z"/><path class="cls-2" d="M393.19,364.93q15.09-6,35.36-6,34.92,0,53,18.5l59.5,60.69H476.41l-32.77-36.58Q426,385.59,408.71,385.59a28.71,28.71,0,0,0-15.52,4.31Z"/><rect class="cls-3" x="471.43" y="439.62" width="3.61" height="22.63"/><rect class="cls-3" x="222.37" y="439.6" width="3.61" height="22.63"/><path class="cls-4" d="M804.59,441.73,733.76,653h-85.4l-70.83-211.3,81.32,37.11,32.36,108.24,32.2-108.48Z"/><path class="cls-4" d="M885.51,477.91V653H819.46V441.73Z"/><path class="cls-4" d="M935.37,637.37c-21.19-11-29.53-43.9-30.91-66.78L979,585.28q1.49,18.21,16.07,18.21a15.68,15.68,0,0,0,9.08-2.54c2.48-1.68,3.72-4.32,3.72-7.9q0-7.47-8-12.09t-25-10.6a268.63,268.63,0,0,1-33.48-14,65,65,0,0,1-22.77-20q-9.52-13.12-9.22-33.73,0-20.6,10.56-35.06t28.87-21.94q18.3-7.46,41.21-7.46c25.79,0,45.22,7.46,61.45,17.91,22.18,14.26,26.64,39.74,23.8,62l-71-11.53q-.3-9-4.47-12.83a14.33,14.33,0,0,0-10.11-3.88,9,9,0,0,0-6.85,2.84c-1.78,1.89-2.68,4.52-2.68,7.9q0,7.17,7.89,11.79t25.15,11.2a285.55,285.55,0,0,1,32.88,14.32,69.82,69.82,0,0,1,22.46,19.1q9.53,12.24,9.53,30.74a64.62,64.62,0,0,1-9.53,34.77q-9.52,15.38-27.67,24t-43.15,8.65C972.51,655.12,953.31,646.64,935.37,637.37Z"/><path class="cls-4" d="M1167.33,441.73V653h-66.06l0-175.12Z"/><path class="cls-4" d="M1570.59,653h-66.06L1434.6,546.79V653h-66.07V441.73L1458,477.91l46.53,71.86,0-71.86,66.08-36.18Z"/><path class="cls-4" d="M1346.7,550.82c2,43.62-16.19,79.16-44.33,110.59-8.3,9.26-17.55,17.47-28.54,23.62-4.36,2.44-8.07,2.49-12.37.14a126.38,126.38,0,0,1-32.4-24.79c-60.23-64.69-58-160.31,7.52-219.42a108,108,0,0,1,19-13.28c3.77-2.15,7-.59,10.11.94q44.57,21.63,67.26,65.8C1343.14,514.15,1346,526.34,1346.7,550.82Zm-146-36.41c-2.84,7.54-4,15.47-4.51,23.41-1.46,23-1.23,45.82,8.95,67.27,12.25,29.18,30,53.77,57.81,70.06,3,1.75,5.38,2.43,8.55.3,24.81-16.57,41.94-39.41,54.17-66.3a61.91,61.91,0,0,0,7.34-17.83c5.34-20.32,5.29-41,2.5-61.64-1.12-8.34-2.82-16.87-8.55-23.73.72-1.07.09-2-.32-2.93a131.41,131.41,0,0,0-50.25-57.56c-17.35-11-15.11-14-34.46,3.83S1207.54,488.34,1200.65,514.41Z"/><path class="cls-4" d="M1326.91,506c5.73,6.86,7.43,15.39,8.55,23.73,2.79,20.63,2.84,41.32-2.5,61.64a61.91,61.91,0,0,1-7.34,17.83c-22.65,11.23-46,19.06-71.84,15-17.66-2.76-33.56-9.88-48.69-19.08-10.18-21.45-10.41-44.28-8.95-67.27.51-7.94,1.67-15.87,4.51-23.41C1241.32,490.27,1283.32,486.24,1326.91,506Zm-62.19,18.27c-6.16.39-14.79,2.77-22.75,7.23-12.17,6.81-20.06,21.95-18.4,34.78,1.86,14.35,11.06,24.34,27,27.55,14.19,2.87,27.89-.25,40.58-6.82,11.88-6.16,18.39-22.15,15-34.94C1301.4,534.2,1287.91,524.44,1264.72,524.22Z"/><path class="cls-4" d="M1327,505.83c-43.58-19.71-85.59-15.67-126.25,8.47,6.89-26.07,21.79-47.23,41.22-65.12s17.11-14.82,34.46-3.83a131.38,131.38,0,0,1,50.25,57.55C1327.13,503.81,1327.76,504.77,1327,505.83Z"/><path class="cls-4" d="M1205.09,605.09c15.13,9.2,31,16.32,48.69,19.08,25.86,4,49.19-3.79,71.84-15-12.23,26.89-29.36,49.73-54.17,66.3-3.17,2.13-5.57,1.45-8.55-.3C1235.1,658.86,1217.34,634.27,1205.09,605.09Z"/><path class="cls-4" d="M1264.72,524.22c23.19.22,36.68,10,41.4,27.8,3.39,12.79-3.12,28.78-15,34.94-12.69,6.57-26.39,9.69-40.58,6.82-15.91-3.21-25.11-13.2-27-27.55-1.66-12.83,6.23-28,18.4-34.78C1249.93,527,1258.56,524.61,1264.72,524.22Z"/><path class="cls-5" d="M804.59,441.64,733.76,653h-85.4L577.53,441.64l81.32,37.12L691.21,587l32.2-108.48Z"/><path class="cls-5" d="M885.51,477.83V653H819.46V441.64Z"/><path class="cls-5" d="M935.37,637.28c-21.19-10.95-29.53-43.89-30.91-66.78L979,585.2q1.49,18.21,16.07,18.2a15.75,15.75,0,0,0,9.08-2.53q3.72-2.54,3.72-7.91,0-7.46-8-12.09t-25-10.59a268.5,268.5,0,0,1-33.48-14,65,65,0,0,1-22.77-20q-9.52-13.12-9.22-33.72,0-20.59,10.56-35.07t28.87-21.94q18.3-7.45,41.21-7.46c25.79,0,45.22,7.46,61.45,17.91,22.18,14.27,26.64,39.74,23.8,62l-71-11.52q-.3-9-4.47-12.84a14.33,14.33,0,0,0-10.11-3.88,9,9,0,0,0-6.85,2.84c-1.78,1.89-2.68,4.53-2.68,7.91q0,7.15,7.89,11.79t25.15,11.19a285.55,285.55,0,0,1,32.88,14.32,69.73,69.73,0,0,1,22.46,19.11q9.53,12.24,9.53,30.74a64.67,64.67,0,0,1-9.53,34.77q-9.52,15.38-27.67,24T997.71,655C972.51,655,953.31,646.55,935.37,637.28Z"/><path class="cls-5" d="M1167.33,441.64V653h-66.06l0-175.12Z"/><path class="cls-5" d="M1570.59,653h-66.06L1434.6,546.7V653h-66.07V441.64L1458,477.83l46.53,71.85,0-71.85,66.08-36.19Z"/><path class="cls-6" d="M1346.7,550.74c2,43.61-16.19,79.15-44.33,110.58-8.3,9.27-17.55,17.47-28.54,23.62-4.36,2.44-8.07,2.49-12.37.15a126.42,126.42,0,0,1-32.4-24.8c-60.23-64.69-58-160.31,7.52-219.42a107.37,107.37,0,0,1,19-13.27c3.77-2.16,7-.6,10.11.93q44.57,21.63,67.26,65.81C1343.14,514.06,1346,526.25,1346.7,550.74Zm-146-36.42c-2.84,7.55-4,15.48-4.51,23.41-1.46,23-1.23,45.82,8.95,67.28,12.25,29.18,30,53.76,57.81,70.06,3,1.74,5.38,2.42,8.55.3,24.81-16.58,41.94-39.41,54.17-66.3a61.85,61.85,0,0,0,7.34-17.84c5.34-20.32,5.29-41,2.5-61.64-1.12-8.33-2.82-16.87-8.55-23.73.72-1.07.09-2-.32-2.93a131.41,131.41,0,0,0-50.25-57.56c-17.35-11-15.11-14-34.46,3.83S1207.54,488.25,1200.65,514.32Z"/><path class="cls-7" d="M1326.91,505.86c5.73,6.86,7.43,15.4,8.55,23.73,2.79,20.63,2.84,41.32-2.5,61.64a61.85,61.85,0,0,1-7.34,17.84c-22.65,11.22-46,19.06-71.84,15-17.66-2.76-33.56-9.88-48.69-19.07-10.18-21.46-10.41-44.29-8.95-67.28.51-7.93,1.67-15.86,4.51-23.41C1241.32,490.18,1283.32,486.15,1326.91,505.86Zm-62.19,18.27c-6.16.39-14.79,2.77-22.75,7.23-12.17,6.81-20.06,21.95-18.4,34.79,1.86,14.34,11.06,24.33,27,27.54,14.19,2.87,27.89-.24,40.58-6.82,11.88-6.16,18.39-22.15,15-34.94C1301.4,534.11,1287.91,524.35,1264.72,524.13Z"/><path class="cls-8" d="M1327,505.75c-43.58-19.71-85.59-15.68-126.25,8.46,6.89-26.07,21.79-47.23,41.22-65.12s17.11-14.82,34.46-3.83a131.41,131.41,0,0,1,50.25,57.56C1327.13,503.73,1327.76,504.68,1327,505.75Z"/><path class="cls-8" d="M1205.09,605c15.13,9.19,31,16.31,48.69,19.07,25.86,4,49.19-3.79,71.84-15-12.23,26.89-29.36,49.72-54.17,66.3-3.17,2.12-5.57,1.44-8.55-.3C1235.1,658.77,1217.34,634.19,1205.09,605Z"/><path class="cls-9" d="M1264.72,524.13c23.19.22,36.68,10,41.4,27.8,3.39,12.79-3.12,28.78-15,34.94-12.69,6.58-26.39,9.69-40.58,6.82-15.91-3.21-25.11-13.2-27-27.54-1.66-12.84,6.23-28,18.4-34.79C1249.93,526.9,1258.56,524.52,1264.72,524.13Z"/><path class="cls-10" d="M39.09,453.5c2.72,0,2.73-4.23,0-4.23s-2.73,4.23,0,4.23Z"/><path class="cls-10" d="M68.21,453.5c2.73,0,2.73-4.23,0-4.23s-2.73,4.23,0,4.23Z"/><path class="cls-10" d="M97.34,453.5c2.73,0,2.73-4.23,0-4.23s-2.73,4.23,0,4.23Z"/><path class="cls-10" d="M126.47,453.5c2.72,0,2.73-4.23,0-4.23s-2.73,4.23,0,4.23Z"/><path class="cls-10" d="M155.59,453.5c2.73,0,2.73-4.23,0-4.23s-2.73,4.23,0,4.23Z"/><path class="cls-10" d="M184.72,453.5c2.72,0,2.73-4.23,0-4.23s-2.73,4.23,0,4.23Z"/><path class="cls-10" d="M213.85,453.5c2.72,0,2.73-4.23,0-4.23s-2.74,4.23,0,4.23Z"/><path class="cls-10" d="M243,453.5c2.73,0,2.73-4.23,0-4.23s-2.73,4.23,0,4.23Z"/><path class="cls-10" d="M272.1,453.5c2.72,0,2.73-4.23,0-4.23s-2.73,4.23,0,4.23Z"/><path class="cls-10" d="M301.22,453.5c2.73,0,2.73-4.23,0-4.23s-2.73,4.23,0,4.23Z"/><path class="cls-10" d="M330.35,453.5c2.73,0,2.73-4.23,0-4.23s-2.73,4.23,0,4.23Z"/><path class="cls-10" d="M359.48,453.5c2.72,0,2.73-4.23,0-4.23s-2.73,4.23,0,4.23Z"/><path class="cls-10" d="M388.6,453.5c2.73,0,2.73-4.23,0-4.23s-2.73,4.23,0,4.23Z"/><path class="cls-10" d="M417.73,453.5c2.72,0,2.73-4.23,0-4.23s-2.73,4.23,0,4.23Z"/><path class="cls-10" d="M446.85,453.5c2.73,0,2.73-4.23,0-4.23s-2.73,4.23,0,4.23Z"/><path class="cls-10" d="M476,453.5c2.73,0,2.73-4.23,0-4.23s-2.73,4.23,0,4.23Z"/><path class="cls-10" d="M505.11,453.5c2.72,0,2.73-4.23,0-4.23s-2.73,4.23,0,4.23Z"/><path class="cls-10" d="M534.23,453.5c2.73,0,2.73-4.23,0-4.23s-2.73,4.23,0,4.23Z"/><path class="cls-10" d="M563.36,453.5c2.72,0,2.73-4.23,0-4.23s-2.73,4.23,0,4.23Z"/><path class="cls-10" d="M418.06,464.7V650.06c0,2.73,4.23,2.73,4.23,0V464.7c0-2.73-4.23-2.73-4.23,0Z"/><path class="cls-10" d="M515.08,465.77V650.09c0,2.72,4.24,2.73,4.24,0V465.77c0-2.73-4.24-2.73-4.24,0Z"/><path class="cls-10" d="M395.2,379.21c15-4.92,31.95-3.6,46.8,1.29a69.52,69.52,0,0,1,21,11.05c7.26,5.65,13.48,12.54,19.36,19.57Q493.28,424.2,503.28,438a2.17,2.17,0,0,0,2.9.76,2.13,2.13,0,0,0,.76-2.89q-9.3-12.79-19.32-25c-6-7.33-12.28-14.56-19.59-20.66a74.66,74.66,0,0,0-22-12.77,89.2,89.2,0,0,0-24.8-5.27,71.56,71.56,0,0,0-27.14,3c-2.58.85-1.48,4.94,1.12,4.09Z"/><path class="cls-10" d="M164.52,462.74v24c0,2.73,4.24,2.73,4.24,0v-24c0-2.73-4.24-2.73-4.24,0Z"/><path class="cls-10" d="M166.48,486.21H86.19c-2.72,0-2.73,4.24,0,4.24h80.29c2.72,0,2.73-4.24,0-4.24Z"/><path class="cls-10" d="M86.58,486.66a31.73,31.73,0,0,0-25.33,16.5c-2.87,5.33-3.63,11-3.75,17-.12,6.15-.06,12.54,4.61,17.17,5.18,5.12,12.6,6,19.5,6.67a2.13,2.13,0,0,0,2.12-2.12,2.17,2.17,0,0,0-2.12-2.12c-5.27-.5-11-1-15.37-4.42a11,11,0,0,1-3.93-5.79,28.46,28.46,0,0,1-.6-8c.08-5.29.33-10.53,2.71-15.36a28.3,28.3,0,0,1,8.25-10,26.34,26.34,0,0,1,13.91-5.36c2.7-.18,2.72-4.42,0-4.23Z"/><path class="cls-10" d="M81.64,543.91h68.59c2.72,0,2.73-4.23,0-4.23H81.64c-2.72,0-2.73,4.23,0,4.23Z"/><path class="cls-10" d="M150.24,544.16c4.81,1.85,9.28,4.81,12,9.25A27.84,27.84,0,0,1,166,566a86.72,86.72,0,0,1-.39,20.43,51.65,51.65,0,0,1-6.49,17.82c-5.7,9.77-14.4,18.21-25.2,22-6.71,2.37-13.82,3-20.88,3.24q-10.94.42-21.9.5c-16.5.13-33.12-.65-49.17-4.81-2.64-.69-3.76,3.39-1.12,4.08,15,3.89,30.54,4.93,46,5,7.8,0,15.61-.19,23.41-.42,7.45-.22,15-.59,22.23-2.66,12.14-3.49,22.15-12,28.91-22.53a55.54,55.54,0,0,0,7.82-18.43,84.09,84.09,0,0,0,1.19-22c-.32-5.67-1.17-11.37-4-16.37-3.33-5.77-8.85-9.48-15-11.83a2.13,2.13,0,0,0-2.6,1.48,2.16,2.16,0,0,0,1.48,2.6Z"/><path class="cls-10" d="M59.62,633c8.84,10.58,19.86,18.8,31.51,26a141.36,141.36,0,0,0,18.1,9.64,204.08,204.08,0,0,0,20,7.26c7.53,2.41,15.13,4.61,22.75,6.75,2.63.74,3.75-3.35,1.12-4.09-13.28-3.72-26.74-7.43-39.53-12.66-12.48-5.1-24.12-12.45-34.86-20.55A97.08,97.08,0,0,1,62.62,630a2.12,2.12,0,0,0-3,3Z"/><path class="cls-10" d="M421,513.44c-13.44-8.24-29-11.66-44.5-13.51A453.23,453.23,0,0,0,325,497.21c-7.32,0-14.78-.35-21.91,1.65-6.87,1.93-13.26,5.87-18.83,10.27a56.09,56.09,0,0,0-20,32.72c-2.7,12.63-3.32,26.29-.64,39a53.29,53.29,0,0,0,8.48,20,59.47,59.47,0,0,0,14.06,13.9c2.64,1.91,5.4,3.65,8.21,5.3s6,3.79,9.35,4.58a47.34,47.34,0,0,0,7.51.87q3.44.25,6.85.46a33.53,33.53,0,0,0,17.59-3.28c5.28-2.71,9.45-7.08,12.83-11.88,4.59-6.52,7.07-13.87,8.36-21.69a82.34,82.34,0,0,0,.42-24.58c-2-14.82-8.65-29-19.43-39.48a61.55,61.55,0,0,0-8.25-6.69c-2.27-1.54-4.39,2.13-2.14,3.65,11.29,7.67,19.41,19.51,23.34,32.51a72.55,72.55,0,0,1,3,23.11,67.15,67.15,0,0,1-4.24,22.71,40.43,40.43,0,0,1-10.62,15,25.66,25.66,0,0,1-13.77,6.2c-5,.63-10.16,0-15.13-.4a22.33,22.33,0,0,1-6.18-.94,53.78,53.78,0,0,1-9.2-5c-10.91-6.65-20.46-15.54-24.86-27.85-4.2-11.78-4.23-25-2.65-37.25a69.79,69.79,0,0,1,4.22-17.27,49.7,49.7,0,0,1,10.18-15.54A60.08,60.08,0,0,1,296.84,506c6.21-3.3,12.75-4.45,19.73-4.56,16.38-.26,32.82.31,49.14,1.68,14.74,1.23,29.82,3.15,43.53,9a74.32,74.32,0,0,1,9.58,5c2.33,1.42,4.46-2.24,2.13-3.66Z"/><rect class="cls-11" x="501.68" y="436.58" width="6.91" height="2.53"/><rect class="cls-11" x="389.92" y="376.27" width="6.93" height="2.52" transform="translate(15.85 770.91) rotate(-90)"/><rect class="cls-11" x="513.75" y="649.74" width="6.91" height="2.53"/><rect class="cls-11" x="416.72" y="649.76" width="6.91" height="2.53"/><polygon class="cls-11" points="331.62 519.01 326.25 523.37 324.39 521.07 329.76 516.71 331.62 519.01"/><polygon class="cls-11" points="155.63 680.72 150.26 685.08 148.42 682.79 153.78 678.43 155.63 680.72"/><path class="cls-12" d="M839.23,617.89a2.14,2.14,0,0,1,1.32,2.28c0,10.62-.07,21.25,0,31.88a8.5,8.5,0,0,1-.06.9h2.58c0-11,0-21.91,0-32.86a2,2,0,0,1,1.24-2.16,5.22,5.22,0,0,0,2.64-6,5.41,5.41,0,0,0-5.09-3.93,5.17,5.17,0,0,0-5.11,3.85A5.12,5.12,0,0,0,839.23,617.89Zm2.51-7.83a3.33,3.33,0,0,1,3.31,3.26,3.23,3.23,0,1,1-3.31-3.26Z"/><path class="cls-12" d="M713.06,583.41a2.16,2.16,0,0,1,1.32,2.28c0,10.63-.07,21.25,0,31.88a8.5,8.5,0,0,1-.06.9h2.58c0-11,0-21.9,0-32.85a2,2,0,0,1,1.24-2.17,5.22,5.22,0,0,0,2.64-6,5.39,5.39,0,0,0-5.09-3.92,5.15,5.15,0,0,0-5.11,3.84A5.09,5.09,0,0,0,713.06,583.41Zm2.51-7.83a3.33,3.33,0,0,1,3.31,3.27,3.24,3.24,0,1,1-3.31-3.27Z"/><path class="cls-12" d="M666.11,583.41a2.14,2.14,0,0,1,1.32,2.28c0,10.63-.07,21.25,0,31.88a6.48,6.48,0,0,1-.06.9H670c0-11,0-21.9,0-32.85a2,2,0,0,1,1.24-2.17,5.22,5.22,0,0,0,2.64-6,5.38,5.38,0,0,0-5.09-3.92,5.26,5.26,0,0,0-2.63,9.84Zm2.51-7.83a3.33,3.33,0,0,1,3.31,3.27,3.23,3.23,0,1,1-3.31-3.27Z"/><path class="cls-12" d="M861.11,611.51c.9.51,1.64.89,1.63,2.21q-.06,19.6,0,39.23h3.06c0-13.89,0-24.68,0-38.53a2.81,2.81,0,0,1,1.69-3c3.61-1.86,4.21-7.2,1.22-10a5.94,5.94,0,0,0-6.47-1.44,6.07,6.07,0,0,0-4.2,5.33A5.9,5.9,0,0,0,861.11,611.51Zm3.19-9.45a4.14,4.14,0,0,1,3.79,4,3.73,3.73,0,0,1-3.94,3.85,3.77,3.77,0,0,1-3.8-4A4.09,4.09,0,0,1,864.3,602.06Z"/><path class="cls-12" d="M839.73,576a2.52,2.52,0,0,1,1.4,2.66c-.06,4.56,0,9.12,0,13.68a3.16,3.16,0,0,0,1,2.46c2.81,2.75,5.54,5.58,8.36,8.33a3.52,3.52,0,0,1,1.18,2.78q0,23.54,0,47.07h2.53q0-24.29,0-48.55a2.67,2.67,0,0,0-.87-2.1c-2.72-2.65-5.37-5.37-8.06-8a4.41,4.41,0,0,1-1.5-3.49c.1-4.12.06-8.23,0-12.35a2.24,2.24,0,0,1,1.24-2.33,5.11,5.11,0,0,0,2.46-6.13,5,5,0,0,0-5-3.65,5,5,0,0,0-5.16,3.89A5,5,0,0,0,839.73,576Zm2.82-7.67a3,3,0,0,1,3.05,3.25,3.25,3.25,0,0,1-3.14,3.25,3.49,3.49,0,0,1-3.28-3.33A3.25,3.25,0,0,1,842.55,568.3Z"/><path class="cls-12" d="M1120,617.91a2.12,2.12,0,0,1,1.32,2.27c0,10.63-.07,21.26,0,31.88a8.32,8.32,0,0,1-.06.9h2.58c0-11,0-21.9,0-32.85a2,2,0,0,1,1.24-2.16,5.23,5.23,0,0,0,2.64-6,5.38,5.38,0,0,0-5.09-3.92,5.27,5.27,0,0,0-2.63,9.85Zm2.51-7.84a3.34,3.34,0,0,1,3.31,3.27,3.23,3.23,0,1,1-3.31-3.27Z"/><path class="cls-12" d="M1141.85,611.53c.9.5,1.64.89,1.63,2.2q-.06,19.62,0,39.23h3.06c0-13.89,0-24.68,0-38.53a2.8,2.8,0,0,1,1.69-3c3.61-1.86,4.21-7.2,1.22-10a5.94,5.94,0,0,0-6.47-1.45,6.09,6.09,0,0,0-4.2,5.34A5.9,5.9,0,0,0,1141.85,611.53Zm3.19-9.46a4.15,4.15,0,0,1,3.79,4,3.87,3.87,0,1,1-7.74-.15A4.09,4.09,0,0,1,1145,602.07Z"/><path class="cls-12" d="M1120.47,576a2.5,2.5,0,0,1,1.4,2.65c-.06,4.56,0,9.12,0,13.68a3.16,3.16,0,0,0,1,2.46c2.81,2.76,5.54,5.59,8.36,8.33a3.53,3.53,0,0,1,1.18,2.78q0,23.54,0,47.07h2.53q0-24.27,0-48.55a2.65,2.65,0,0,0-.87-2.09c-2.72-2.66-5.37-5.38-8.06-8.05a4.41,4.41,0,0,1-1.5-3.5c.1-4.11.06-8.23,0-12.34a2.22,2.22,0,0,1,1.24-2.33,5.11,5.11,0,0,0,2.46-6.13,5,5,0,0,0-5-3.65,5,5,0,0,0-5.16,3.88A5,5,0,0,0,1120.47,576Zm2.82-7.68a3,3,0,0,1,3,3.26,3.26,3.26,0,0,1-3.14,3.25,3.49,3.49,0,0,1-3.28-3.33A3.26,3.26,0,0,1,1123.29,568.31Z"/><path class="cls-12" d="M1034.91,611.43a2.14,2.14,0,0,1,1.31,2.28c0,10.63-.07,21.25,0,31.88a6.48,6.48,0,0,1-.06.9h2.58c0-11,0-21.9,0-32.86a2,2,0,0,1,1.23-2.16,5.22,5.22,0,0,0,2.64-6,5.38,5.38,0,0,0-5.09-3.92,5.26,5.26,0,0,0-2.62,9.84Zm2.5-7.83a3.32,3.32,0,0,1,3.31,3.26,3.23,3.23,0,1,1-3.31-3.26Z"/><path class="cls-12" d="M1057.74,590.86c.91.51,1.64.89,1.64,2.2q-.06,19.62,0,39.24h3.05c0-13.89,0-24.68,0-38.53a2.8,2.8,0,0,1,1.69-3c3.61-1.86,4.2-7.2,1.22-10a6,6,0,0,0-6.47-1.45,6.08,6.08,0,0,0-4.2,5.34A5.9,5.9,0,0,0,1057.74,590.86Zm3.19-9.45a4.14,4.14,0,0,1,3.8,4,3.87,3.87,0,1,1-7.74-.15A4.07,4.07,0,0,1,1060.93,581.41Z"/><path class="cls-12" d="M1037.18,564.15a2.51,2.51,0,0,1,1.4,2.66c0,4.56,0,9.12,0,13.68a3.16,3.16,0,0,0,1,2.46c2.8,2.76,5.54,5.58,8.36,8.33a3.51,3.51,0,0,1,1.17,2.78q0,23.54,0,47.07h2.53q0-24.28,0-48.55a2.67,2.67,0,0,0-.87-2.1c-2.71-2.65-5.36-5.37-8.06-8.05a4.41,4.41,0,0,1-1.5-3.49c.1-4.12.06-8.23,0-12.35a2.22,2.22,0,0,1,1.24-2.33,5.13,5.13,0,0,0,2.46-6.13,5,5,0,0,0-5-3.65,5,5,0,0,0-5.17,3.89A5,5,0,0,0,1037.18,564.15Zm2.82-7.67a3,3,0,0,1,3,3.25,3.26,3.26,0,0,1-3.14,3.26,3.49,3.49,0,0,1-3.27-3.34A3.25,3.25,0,0,1,1040,556.48Z"/><path class="cls-12" d="M1140.89,492.86a2.15,2.15,0,0,1-1.32-2.27c0-10.63.07-21.26,0-31.88a8.32,8.32,0,0,1,.06-.9H1137c0,10.95,0,21.9,0,32.85a2,2,0,0,1-1.24,2.16,5.23,5.23,0,0,0-2.64,6,5.39,5.39,0,0,0,5.09,3.92,5.17,5.17,0,0,0,5.11-3.84A5.11,5.11,0,0,0,1140.89,492.86Zm-2.51,7.84a3.34,3.34,0,0,1-3.31-3.27,3.24,3.24,0,1,1,3.31,3.27Z"/><path class="cls-12" d="M1123.06,508.46c-.91-.51-1.64-.89-1.64-2.21,0-13.53,0-25.68,0-39.23h-3c0,13.89,0,24.68,0,38.53a2.8,2.8,0,0,1-1.69,3c-3.6,1.86-4.2,7.2-1.22,10,1.86,1.71,2.09,1.34,4.69,1.44a6.19,6.19,0,0,0,6-5.33A5.89,5.89,0,0,0,1123.06,508.46Zm-3.19,9.45a4.15,4.15,0,0,1-3.8-4,3.87,3.87,0,1,1,7.74.15A4.08,4.08,0,0,1,1119.87,517.91Z"/><path class="cls-12" d="M1143.23,539.11a2.48,2.48,0,0,1-1.4-2.65c.05-4.56,0-9.12,0-13.68a3.16,3.16,0,0,0-1-2.46c-2.8-2.76-5.54-5.59-8.36-8.33a3.55,3.55,0,0,1-1.18-2.78q.06-23.54,0-47.07h-2.52c0-1.68,0,14.5,0,48.55a2.68,2.68,0,0,0,.87,2.1c2.71,2.65,5.36,5.37,8.06,8a4.49,4.49,0,0,1,1.5,3.5c-.11,4.11-.07,8.23,0,12.35A2.22,2.22,0,0,1,1138,539a5.13,5.13,0,0,0-2.46,6.13,5,5,0,0,0,5,3.65,5,5,0,0,0,5.17-3.89A5.07,5.07,0,0,0,1143.23,539.11Zm-2.83,7.68a3,3,0,0,1-3-3.25,3.26,3.26,0,0,1,3.13-3.26,3.5,3.5,0,0,1,3.28,3.34A3.26,3.26,0,0,1,1140.4,546.79Z"/><path class="cls-10" d="M743.43,542.12a2.15,2.15,0,0,0-1.74,1.94c-.28,1.89-.66,3.76-1,5.64q-5.16,29.35-10.32,58.7c-.16.92-.19,1.89-1.1,2.53-1.94,1.38-3.84,2.8-5.75,4.22-9.06,6.75-18.11,13.53-27.19,20.26a4,4,0,0,0-1.66,2.8c-.92,5.44-1.89,10.87-2.82,16.32l-3.63-.54c.9-5.21,1.92-10.41,2.68-15.64.4-2.73,1.25-4.87,3.79-6.2a26,26,0,0,0,3.17-2.29q13.47-10,26.94-20.05a5.34,5.34,0,0,0,2.28-3.63Q732.51,575.05,738,544a2.77,2.77,0,0,0-1.18-3.18,7.06,7.06,0,0,1,3.87-12.52,6.92,6.92,0,0,1,7.58,5.6A7,7,0,0,1,743.43,542.12Zm-1.32-11.19a4.83,4.83,0,0,0-5.11,3.53,4.42,4.42,0,0,0,3.59,5.1,4.12,4.12,0,0,0,5-3.43A4.38,4.38,0,0,0,742.11,530.93Z"/><path class="cls-12" d="M1548.53,490.26a2.14,2.14,0,0,1-1.32-2.28c0-10.62.07-21.25,0-31.88a8.13,8.13,0,0,1,.06-.89h-2.58c0,11,0,21.9,0,32.85a2,2,0,0,1-1.24,2.16,5.23,5.23,0,0,0-2.64,6,5.39,5.39,0,0,0,5.09,3.92,5.17,5.17,0,0,0,5.11-3.85A5.12,5.12,0,0,0,1548.53,490.26Zm-2.51,7.83a3.32,3.32,0,0,1-3.31-3.26,3.23,3.23,0,1,1,3.31,3.26Z"/><path class="cls-12" d="M1402.63,487.89a2.14,2.14,0,0,1-1.32-2.27c0-10.63.08-21.26,0-31.88a6.37,6.37,0,0,1,.06-.9h-2.59c0,11,0,21.9,0,32.85a2,2,0,0,1-1.23,2.16,5.24,5.24,0,0,0-2.64,6,5.38,5.38,0,0,0,5.09,3.92,5.18,5.18,0,0,0,5.11-3.84A5.13,5.13,0,0,0,1402.63,487.89Zm-2.5,7.84a3.33,3.33,0,0,1-3.31-3.27,3.23,3.23,0,1,1,3.31,3.27Z"/><path class="cls-12" d="M1523.85,617.91a2.14,2.14,0,0,0-1.32,2.27c0,10.63.07,21.26,0,31.88a5.17,5.17,0,0,0,.06.9H1520c0-11,0-21.9,0-32.85a2,2,0,0,0-1.23-2.16,5.22,5.22,0,0,1-2.64-6,5.37,5.37,0,0,1,5.08-3.92,5.17,5.17,0,0,1,5.11,3.84A5.11,5.11,0,0,1,1523.85,617.91Zm-2.51-7.84a3.34,3.34,0,0,0-3.31,3.27,3.24,3.24,0,1,0,3.31-3.27Z"/><path class="cls-12" d="M1530.7,505.86c-.91-.51-1.64-.9-1.64-2.21,0-13.53,0-25.68,0-39.23h-3c0,13.89,0,24.68,0,38.53a2.8,2.8,0,0,1-1.69,3c-3.6,1.86-4.2,7.2-1.22,10,1.85,1.71,2.09,1.34,4.69,1.44a6.19,6.19,0,0,0,6-5.33A5.9,5.9,0,0,0,1530.7,505.86Zm-3.19,9.45a4.14,4.14,0,0,1-3.8-4,3.87,3.87,0,1,1,7.74.15A4.08,4.08,0,0,1,1527.51,515.31Z"/><path class="cls-12" d="M1550.87,536.51a2.48,2.48,0,0,1-1.4-2.65c0-4.56,0-9.12,0-13.68a3.14,3.14,0,0,0-1-2.46c-2.81-2.76-5.54-5.59-8.36-8.33a3.56,3.56,0,0,1-1.18-2.78q0-23.53,0-47.07h-2.53c0-1.69,0,14.5,0,48.55a2.71,2.71,0,0,0,.86,2.1c2.72,2.65,5.37,5.37,8.07,8a4.49,4.49,0,0,1,1.5,3.5c-.11,4.11-.07,8.23,0,12.35a2.2,2.2,0,0,1-1.24,2.32,5.15,5.15,0,0,0-2.46,6.14,5,5,0,0,0,4.95,3.64,5,5,0,0,0,5.17-3.88A5.07,5.07,0,0,0,1550.87,536.51Zm-2.83,7.68a3,3,0,0,1-3-3.25,3.26,3.26,0,0,1,3.13-3.26,3.5,3.5,0,0,1,3.28,3.34A3.26,3.26,0,0,1,1548,544.19Z"/><path class="cls-12" d="M1400.56,526.6a2.5,2.5,0,0,1-1.4-2.65c.06-4.56,0-9.12,0-13.68a3.2,3.2,0,0,0-1-2.47c-2.81-2.75-5.55-5.58-8.36-8.32a3.53,3.53,0,0,1-1.18-2.78q0-23.54,0-47.07h-2.53c0-1.69,0,14.49,0,48.55a2.66,2.66,0,0,0,.87,2.09c2.72,2.65,5.37,5.38,8.06,8.05a4.41,4.41,0,0,1,1.5,3.49c-.1,4.12-.06,8.24,0,12.35a2.21,2.21,0,0,1-1.23,2.33,5.13,5.13,0,0,0-2.47,6.13,5,5,0,0,0,5,3.65,5,5,0,0,0,5.16-3.88A5,5,0,0,0,1400.56,526.6Zm-2.82,7.67a3,3,0,0,1-3-3.25,3.25,3.25,0,0,1,3.14-3.25,3.48,3.48,0,0,1,3.27,3.33A3.23,3.23,0,0,1,1397.74,534.27Z"/><path class="cls-12" d="M1548.65,575.28a2.49,2.49,0,0,0-1.4,2.65c0,4.56,0,9.12,0,13.68a3.14,3.14,0,0,1-1,2.46c-2.8,2.76-5.54,5.59-8.36,8.33a3.52,3.52,0,0,0-1.17,2.78q0,23.54,0,47.07h-2.53c0,1.69,0-14.5,0-48.55a2.65,2.65,0,0,1,.87-2.09c2.71-2.66,5.36-5.38,8.06-8.05a4.49,4.49,0,0,0,1.5-3.5c-.1-4.11-.06-8.23,0-12.35a2.2,2.2,0,0,0-1.24-2.32,5.15,5.15,0,0,1-2.46-6.14,5,5,0,0,1,4.95-3.64,5,5,0,0,1,5.17,3.88A5.05,5.05,0,0,1,1548.65,575.28Zm-2.82-7.68a3,3,0,0,0-3,3.26,3.26,3.26,0,0,0,3.14,3.25,3.48,3.48,0,0,0,3.27-3.34A3.25,3.25,0,0,0,1545.83,567.6Z"/><path class="cls-12" d="M1414.73,616.39a2.12,2.12,0,0,0-1.32,2.27c0,10.63.07,21.26,0,31.88a8.32,8.32,0,0,0,.06.9h-2.58c0-11,0-21.9,0-32.85a2,2,0,0,0-1.24-2.16,5.24,5.24,0,0,1-2.64-6,5.39,5.39,0,0,1,5.09-3.92,5.27,5.27,0,0,1,2.63,9.85Zm-2.51-7.84a3.34,3.34,0,0,0-3.31,3.27,3.23,3.23,0,1,0,3.31-3.27Z"/><path class="cls-12" d="M1393.05,610.63c-.91.51-1.64.89-1.64,2.2,0,13.54,0,25.68,0,39.24h-3.06c0-13.89,0-24.68,0-38.53a2.8,2.8,0,0,0-1.69-3c-3.61-1.86-4.2-7.2-1.22-10,1.85-1.71,2.08-1.34,4.69-1.45a6.21,6.21,0,0,1,6,5.34A5.9,5.9,0,0,1,1393.05,610.63Zm-3.2-9.45a4.14,4.14,0,0,0-3.79,4,3.87,3.87,0,1,0,7.74-.15A4.08,4.08,0,0,0,1389.85,601.18Z"/><path class="cls-12" d="M1415.29,575.39a2.5,2.5,0,0,0-1.41,2.65c.06,4.56,0,9.12,0,13.68a3.16,3.16,0,0,1-1,2.46c-2.81,2.76-5.54,5.58-8.36,8.33a3.55,3.55,0,0,0-1.18,2.78q0,23.54,0,47.07h-2.53c0,1.68,0-14.5,0-48.55a2.67,2.67,0,0,1,.86-2.1c2.72-2.65,5.37-5.37,8.07-8.05a4.43,4.43,0,0,0,1.49-3.49c-.1-4.11-.06-8.23,0-12.35a2.22,2.22,0,0,0-1.24-2.33,5.12,5.12,0,0,1-2.46-6.13,5,5,0,0,1,5-3.65,5,5,0,0,1,5.17,3.89A5.07,5.07,0,0,1,1415.29,575.39Zm-2.83-7.68a3,3,0,0,0-3,3.25,3.25,3.25,0,0,0,3.13,3.26,3.5,3.5,0,0,0,3.28-3.34A3.26,3.26,0,0,0,1412.46,567.71Z"/><path class="cls-12" d="M865.35,500.91a2.14,2.14,0,0,1-1.32-2.27c0-10.63.08-21.26,0-31.88a6.37,6.37,0,0,1,.06-.9h-2.59c0,10.95,0,21.9,0,32.85a2,2,0,0,1-1.23,2.16,5.24,5.24,0,0,0-2.64,6,5.38,5.38,0,0,0,5.09,3.92,5.18,5.18,0,0,0,5.11-3.84A5.13,5.13,0,0,0,865.35,500.91Zm-2.5,7.84a3.33,3.33,0,0,1-3.31-3.27,3.23,3.23,0,1,1,3.31,3.27Z"/><path class="cls-12" d="M842.18,493.28c-.91-.5-1.64-.89-1.64-2.2,0-13.54,0-25.68,0-39.23h-3.05c0,13.89,0,24.67,0,38.52a2.82,2.82,0,0,1-1.7,3c-3.6,1.86-4.2,7.2-1.21,10,1.85,1.71,2.08,1.34,4.68,1.45a6.2,6.2,0,0,0,6-5.34A5.89,5.89,0,0,0,842.18,493.28ZM839,502.73a4.15,4.15,0,0,1-3.8-4,3.87,3.87,0,1,1,7.74.15A4.07,4.07,0,0,1,839,502.73Z"/><path class="cls-12" d="M864.13,536.45a2.52,2.52,0,0,1-1.4-2.66c0-4.56,0-9.12,0-13.68a3.16,3.16,0,0,0-1-2.46c-2.8-2.76-5.54-5.58-8.36-8.33a3.51,3.51,0,0,1-1.17-2.78q0-23.54,0-47.07h-2.53c0-1.68,0,14.5,0,48.55a2.68,2.68,0,0,0,.87,2.1c2.71,2.65,5.36,5.37,8.06,8a4.41,4.41,0,0,1,1.5,3.49c-.1,4.11-.06,8.23,0,12.35a2.22,2.22,0,0,1-1.24,2.33,5.13,5.13,0,0,0-2.46,6.13,5.06,5.06,0,0,0,5,3.65,5,5,0,0,0,5.17-3.89A5,5,0,0,0,864.13,536.45Zm-2.82,7.67a3,3,0,0,1-3-3.25,3.26,3.26,0,0,1,3.14-3.26,3.49,3.49,0,0,1,3.27,3.34A3.25,3.25,0,0,1,861.31,544.12Z"/><path class="cls-10" d="M641.58,542.12a2.15,2.15,0,0,1,1.74,1.94c.29,1.89.66,3.76,1,5.64q5.16,29.35,10.33,58.7c.16.92.18,1.89,1.09,2.53,1.94,1.38,3.85,2.8,5.75,4.22,9.06,6.75,18.11,13.53,27.19,20.26a4,4,0,0,1,1.66,2.8c.93,5.44,1.89,10.87,2.83,16.32l3.63-.54c-.91-5.21-1.93-10.41-2.69-15.64-.39-2.73-1.25-4.87-3.78-6.2a26.1,26.1,0,0,1-3.18-2.29q-13.46-10-26.93-20.05a5.39,5.39,0,0,1-2.29-3.63Q652.52,575.05,647,544a2.76,2.76,0,0,1,1.18-3.18,7.06,7.06,0,0,0-3.88-12.52,6.9,6.9,0,0,0-7.57,5.6A7,7,0,0,0,641.58,542.12Zm1.33-11.19a4.83,4.83,0,0,1,5.11,3.53,4.43,4.43,0,0,1-3.6,5.1,4.11,4.11,0,0,1-5-3.43A4.38,4.38,0,0,1,642.91,530.93Z"/><path class="cls-12" d="M929.36,491.79a2.14,2.14,0,0,0,1.32-2.28c0-10.63-.07-21.25,0-31.88a8.5,8.5,0,0,0-.06-.9h2.58c0,10.95,0,21.91,0,32.86a2,2,0,0,0,1.24,2.16,5.22,5.22,0,0,1,2.64,6,5.4,5.4,0,0,1-5.09,3.93,5.17,5.17,0,0,1-5.11-3.85A5.12,5.12,0,0,1,929.36,491.79Zm2.51,7.83a3.33,3.33,0,0,0,3.31-3.26,3.23,3.23,0,1,0-3.31,3.26Z"/><path class="cls-12" d="M954,483.77c.91-.5,1.64-.89,1.64-2.2q-.06-19.62,0-39.23h3c0,13.88,0,24.67,0,38.52a2.8,2.8,0,0,0,1.69,3c3.61,1.86,4.2,7.2,1.22,10a6,6,0,0,1-6.47,1.45,6.08,6.08,0,0,1-4.2-5.34A5.9,5.9,0,0,1,954,483.77Zm3.19,9.45a4.14,4.14,0,0,0,3.8-4,3.87,3.87,0,1,0-7.74.15A4.07,4.07,0,0,0,957.17,493.22Z"/><path class="cls-12" d="M931.64,523a2.5,2.5,0,0,0,1.4-2.65c0-4.56,0-9.12,0-13.68a3.23,3.23,0,0,1,1-2.46c2.81-2.76,5.55-5.59,8.37-8.33a3.54,3.54,0,0,0,1.17-2.78q0-23.54,0-47.07h2.53q0,24.27,0,48.55a2.68,2.68,0,0,1-.87,2.1c-2.72,2.65-5.37,5.37-8.06,8a4.43,4.43,0,0,0-1.5,3.5c.1,4.11.06,8.23,0,12.35a2.22,2.22,0,0,0,1.24,2.33,5.13,5.13,0,0,1,2.46,6.13,5.06,5.06,0,0,1-5,3.65,5,5,0,0,1-5.16-3.89A5,5,0,0,1,931.64,523Zm2.82,7.68a3,3,0,0,0,3-3.25,3.26,3.26,0,0,0-3.14-3.26,3.49,3.49,0,0,0-3.27,3.34A3.25,3.25,0,0,0,934.46,530.66Z"/><text class="cls-13" transform="translate(1592.77 646.21) scale(0.99 1)">23</text><path class="cls-14" d="M1454.85,359.29c-10.9-3.91-21.14-8.78-27.57-19.06-.93-1.49-2.71-3.14-1.55-4.86s3.31-.6,5.07-.34c22.76,3.46,27.47-1.86,20.6-23.6-3.12-9.85-6.81-19.53-9.87-29.4-1.88-6.11-5.88-8.83-12-9.16-16.64-.89-33.21,1.07-49.83,1.16-4.21,0-6.51,2.61-8,6.24-5.58,13.32-8.75,27-7.18,41.56.92,8.56,3.23,10.78,11.82,10.66,3,0,5.76-.22,7.29,3s.67,6-1.32,8.67a24.7,24.7,0,0,1-26.22,9.14c-11.69-3.32-23.16-1.18-34.7.8-9,1.54-18.08,2.89-26.46-2.46-4.07-2.6-8-5.64-6.42-11.15,1.49-5.16,6.32-4.56,10.44-4.6,13.21-.14,22.68-6.31,26.9-18.54,7.17-20.75,15-41.33,20-62.77,2.66-11.3.93-21-9.17-28.17-4.76-3.41-2.8-7,1.64-7.43,19.42-2,24.91-16,29.29-31.66,3.82-13.68,8.73-27.06,12.51-40.76,5-18.19-1.25-26.1-20-26.11-3.29,0-7.28,1-8.22-3.65-.81-4,2.23-6,5.2-7.78,15.5-9.49,31-12.15,47.66-2.12,10.23,6.17,20.72,5.37,30.6-2,12.12-9.06,26.12-9.53,40.25-7.17,10,1.67,15.42,9.14,18.86,17.91,2.24,5.73-.51,8.76-6.84,8.38-13.78-.84-16.18,2.07-11.74,14.87,6.87,19.78,14.26,39.39,20.83,59.26,3.26,9.86,9.37,16.27,18.63,20.52,9.58,4.4,9.72,6,1.59,12.25-5,3.79-6.78,8.47-4.92,14.29q12.27,38.4,24.81,76.73c2.11,6.41,6.65,9,13.42,6.9,2.79-.85,5.76-1.53,7.84,1.28s1,5.91-.2,8.84c-6,14.26-29,22.37-44.46,14.12-11.81-6.31-21.79-6.53-32.4,1.52-3,2.28-7.06,3.16-10.64,4.68Zm-51-179.86c-5.26,16.86-10.64,33.69-15.69,50.62-1.2,4,.53,7.52,5.18,7.66,8.26.24,16.56.21,24.8-.31,3.85-.25,7.48-2.79,6.09-7.22C1418.91,213.05,1414,195.72,1403.89,179.43ZM1491,224.2c-.15-2.39-8.55-10.34-10.27-9.34-4,2.29-9,5.24-8.8,9.77.21,4.32,4.71,7.74,9.18,9.34C1483.32,234.75,1491.17,226.56,1491,224.2Zm-112.56.54a18.25,18.25,0,0,0-8.77-8.56c-2-.92-10.39,6.2-9.89,8.58,1,4.58,4.71,7.24,8.6,9.24C1370.31,235,1378.21,227.84,1378.47,224.74Z"/><path class="cls-14" d="M862.17,359.29c-15.73-9.11-20.48-22.38-15.5-39.58,2-6.81,1.49-13.77.3-20.74-2.11-12.23.36-23.2,10.15-31.65,6.27-5.41,10.74-4.14,13.24,3.74,1.71,5.41,2.75,11,4.38,16.47,4.65,15.54,14.68,26.05,30.49,30.33,20.58,5.58,40.64,6,58.35-8.43,8.32-6.78,13.5-15.24,11.41-26.33S965,266.21,954.54,263c-13.66-4.19-27.83-3.06-41.75-4-36.83-2.55-63.63-25.24-70.6-61.05-6.59-33.8,12.16-69,44.12-83.34,26.72-12,54.19-12.79,82.29-6.29,6.31,1.46,12.62,3.07,19,4,10,1.39,17.62-2.92,23.12-11.19,1.63-2.44,3.57-4.68,6.94-3.94,3.7.8,4.85,3.87,5,7,.79,20.4,1.6,40.83-5.3,60.58-1.3,3.74-2.86,7.21-6.33,9.49-6.42,4.21-12.23,2.06-14.31-5.3-6.19-22-18.8-32.26-42.26-34.21-8.86-.74-17.67-.38-26.08,3-10.33,4.16-16.31,11.75-17.3,22.8-.91,10.25,5.6,16.09,13.49,20.87,9.4,5.67,20.07,6.8,30.6,8.23,11.59,1.58,23.05,3.74,34.44,6.36,18.92,4.36,30.88,16,36.69,34.27,18,56.69-16.78,108.22-76.57,113.78-20.83,1.94-41.43,1.44-62-2.71-14.29-2.89-17.33.14-19.35,17.91ZM939.89,235c2.31-.21,10.29-8.82,9.31-10.39-2.29-3.66-5.08-8.55-9.41-8.16s-7.92,4.64-9.31,9.26C929.83,227.89,937.73,235.24,939.89,235Z"/><path class="cls-14" d="M226.28,218.06a337,337,0,0,0-25.11,41.82c-13.14,25.53-25.85,51.28-38.79,76.92-2.2,4.37-4.16,9.54-10.23,9.28s-7.82-5.37-9.79-9.88c-15.16-34.85-30.2-69.76-45.45-104.58-3.47-7.92-7.59-15.54-11.6-23.69-2.14,2.72-1.41,5.11-1.41,7.31q0,48.45.25,96.91c.06,14.52,2.6,17.81,16.61,21.7,3.28.91,5.78,2.29,6.43,5.84a8,8,0,0,1-3.21,8.23c-4,3-8.27,5.47-13.49,5.34A297.22,297.22,0,0,0,46.15,355c-6.21.77-11.79-1.36-16.79-4.95a7,7,0,0,1-3.14-7.41c.64-3.27,3.3-3.4,6-3.8,10.67-1.59,15-5.33,15.21-16.12.55-24,.22-48.06.29-72.09,0-3.44-2-5.7-4.17-8-6.62-7.1-8.88-15.66-5.17-24.41,9.6-22.64,10.5-45.9,8.26-70C45.16,132.82,38.38,122,25.19,114.6c-3.09-1.74-7.21-2.94-6.53-7.58.65-4.44,4.66-4.88,8.2-5.9,11.59-3.33,23.63-4.27,34.41.73,16.93,7.85,33.44,4.88,50.14,1,10.83-2.54,20.64-1.06,29.69,5.17,6.18,4.26,6.89,8,1.7,13.33-4.78,4.91-5,9.85-2.47,15.55q15.88,35.82,31.81,71.61c1,2.3,1.94,5.27,5,5.39s4-3,5.23-5.14q19.93-36.85,39.71-73.8c2.95-5.5,2.22-10.49-2.4-14.74-2.29-2.1-4.76-4-7.18-6-3.24-2.61-3-4.47,1.08-5.78,15-4.79,30-6.89,44.5,1.41,7.24,4.15,13.42,3.45,20.26-1.06,12.53-8.26,25.36-7.72,34.45.74,2.9,2.71,5.5,5.7,4.4,10.1-1,4-4.65,4.71-7.91,5.27-7.49,1.28-10.88,6.21-11,13-.25,19.37-.12,38.74.15,58.12.13,8.66,3.88,15.7,10.47,21.65s6.06,9.23-1.67,13.63c-6,3.38-8.21,8.18-8.18,14.65.13,22.75,0,45.49.31,68.23.17,12.22,4.36,15.58,16.35,14.23,7.11-.8,9.13,1.69,6.87,8.49-4.87,14.66-21.44,22.8-38.2,18.67a67.72,67.72,0,0,1-8.9-2.84c-9.23-3.65-18.26-3.13-27.25.84-12.15,5.38-24.3,4.35-36.36-.29-4.29-1.65-7.67-4.39-9-9-1.84-6.44,1.24-10,7.89-9.1,13,1.71,16.1-1.38,16.82-14.21,1.62-28.67.81-57.34,1.07-86A51.12,51.12,0,0,0,226.28,218.06Zm-152,7.27c0-1.79-8.26-10.11-10.08-10.09-2,0-10.55,8.58-9.77,10.17A21,21,0,0,0,64.08,235C65.66,235.8,74.28,227.34,74.32,225.33Zm205.91-.09c0-1.85-8.37-10.05-10.18-10-2,.07-10.48,8.71-9.68,10.24a20.89,20.89,0,0,0,9.68,9.51C271.68,235.76,280.24,227.21,280.23,225.24Z"/><path class="cls-14" d="M1064.87,283.76c0-10.34-.23-20.68.06-31,.35-12.79-6-20.91-17.21-26-1.6-.72-4.06-.57-4.41-2.65-.4-2.34,2.1-2.66,3.61-3.31,12.9-5.57,18-16,17.68-29.21-.42-15.72,1.73-31.54-1.44-47.15-2.16-10.66-5.83-20.45-16.81-25.5-2.44-1.12-4.21-3.16-3.74-6.18s3-4.11,5.57-4.71c16.44-3.85,32.79-6.8,47.7,4.82,5.54,4.31,10.69,2,15.74-1.35,9.86-6.57,20.37-8.85,31.79-4.39,8.24,3.23,9.18,8.12,2,13.35-7.49,5.43-10.29,12.4-10.17,21.34.24,18.34,0,36.69.11,55,.06,10.72,2.62,13.17,13.43,13.26,6,.06,12,0,17.92-.15,4.75-.1,7.16-2.7,7.15-7.36,0-22.48,0-45-.35-67.44-.11-7.16-3.49-12.88-10.51-15.92-2.35-1-5.14-2-5-5.23s2.8-4.94,5.5-5.9c13.53-4.83,27.22-7.58,40.68-.09,7.49,4.17,14,3.42,21.11-1.09,11.6-7.4,24-9.67,37-3.45a18.08,18.08,0,0,1,7.77,6.27c4,6.23,1.86,11.67-5.31,13.37-11.48,2.71-13.64,5.11-13.73,16.77-.15,19.89.06,39.79-.1,59.69-.07,8.32,3.42,14.78,8.84,20.8,7.73,8.57,7.45,10.94-1.69,17.77-4.36,3.26-6.18,7.19-6.12,12.58.21,21.7.32,43.41.19,65.12,0,6.59,2.63,10.46,8.72,13,8.1,3.43,9.25,8.7,2.87,14.87-11.71,11.35-25.87,15.5-41.52,9.91-9.85-3.52-18.91-3.84-28.74-.19-13.26,4.94-25.58,3.21-35.53-7.86-3.39-3.78-7.29-4.08-10.94-.76-15.09,13.67-31.5,14.07-49,5.34-6.36-3.16-12.24.12-18,2.05-12.54,4.19-24.87,5.56-36.85-1.47a26.88,26.88,0,0,1-6-4.81,6.48,6.48,0,0,1-1.17-7.25c1.22-2.87,3.69-3.14,6.45-3.2,18.89-.45,22.48-4.17,22.51-23.09C1064.89,302.88,1064.87,293.32,1064.87,283.76Zm109,5.21h-.08c0-11.86.26-23.73-.08-35.58-.25-8.71-3.38-11.54-11.93-11.85-4.92-.18-9.86-.19-14.78,0-8.63.4-11.81,3.65-11.48,12,.84,21.62,1.9,43.22,2.8,64.84.32,7.92,4.58,12.33,12.14,13.77,3.3.63,6.68.8,10,1.21,9.37,1.13,13.19-1.92,13.33-11.21C1174,311.14,1173.91,300.06,1173.91,289Zm55.87-63.38c-1.89-4.66-5.32-7.75-9.25-10.17-1.56-1-10.25,7-10.47,9.31-.19,2,7.83,10.8,9.74,10.21C1224.48,233.48,1227,229.44,1229.78,225.59Zm-129.4,9.59c3.36-2.35,8.41-4.92,8.34-9.48s-4.73-8.86-9-9.19c-4.54-.35-7.59,4.56-9.7,8.63C1089.22,226.72,1097.73,235.11,1100.38,235.18Z"/><path class="cls-14" d="M683,199.36c7.65-7,15.36-13.79,22.68-20.93,15.95-15.55,31.74-31.27,47.51-47,7.22-7.2,7.38-10.46,1.42-18.73-1.35-1.88-3.46-3.62-1.91-6.14s4.3-2.91,6.93-2.3c15.77,3.66,31.52,1.49,47.28,0,8.72-.82,15,3.14,19.77,10a7.6,7.6,0,0,1,.6,8.11c-1.55,3.09-4.56,3.58-7.39,2.88-10.34-2.57-17.23,2.55-23.89,9.42-16.57,17.12-33.42,34-50.16,50.93-7.46,7.56-7.8,9.94-2,18.76q32.24,49,64.55,97.86c4.9,7.43,10.88,12.72,20.46,13.72,8,.83,9.72,5.66,5.62,12.74-12.29,21.25-43.57,30.62-68.9,20.66A61.06,61.06,0,0,1,734,321.87c-14.86-26.1-31.34-51.18-48.27-76-.84-1.23-1.85-2.34-4.14-5.22,0,5.42,0,8.9,0,12.37.38,20.13-1.17,40.29,1.21,60.39.93,7.89,4.58,12.79,12.55,14.65,7.51,1.75,8.35,4.36,4,10.71-7.9,11.5-26.67,18-42,13.18-10.18-3.19-19.67-3-29.74-.23-15,4.07-28.28.6-39.13-10.79-1.52-1.59-4.16-3.08-2.79-5.76,1.16-2.26,3.67-1.22,5.68-1.13,13.29.6,17.67-3.13,17.81-16.22.23-22,.09-43.92,0-65.88,0-8.34-3.55-14.77-10.42-19.72-6.36-4.59-6.26-6.62.5-10.49,6.58-3.76,9.8-9.36,9.71-16.51-.24-21.42,1.34-42.87-1.06-64.26-1.35-12-5.43-16.64-17.35-19.64-2.93-.74-6.82-.55-7.13-4.66-.29-3.7,3.07-5.07,5.78-6.57,14.53-8,29.31-9.07,43.55.1,8,5.14,14.87,4.48,22.37-.37A41.6,41.6,0,0,1,681,102.94c8.78.56,15.2,5,20,11.87,3.72,5.31,1.48,9.5-5,10.25-12.77,1.48-14.28,3-14.33,15.79-.07,18.86,0,37.72.13,56.58C681.84,197.84,682.32,198.25,683,199.36ZM735.6,224c.17-1.88-7.09-9.38-9.37-9.66s-11.13,7.14-10.43,9.3c1.48,4.57,5.3,7.48,9.32,9.79C726.65,234.33,735.39,226.17,735.6,224Zm-81.94,0c-.18-2.21-7.69-9.43-9.75-9.38-2.29.05-10.11,7.8-9.22,9.54,2.14,4.15,5.26,7.76,9.78,9.38C646.58,234.34,653.84,226.37,653.66,224.05Z"/><path class="cls-14" d="M457.28,353.23c-11.51-.89-24-1.41-36.27-3.6-39.49-7-62.95-30.59-71.87-69.06-1.4-6-2.55-12.14-3.67-18.23-2.31-12.61-7.38-23.68-17.73-31.8-3.54-2.78-5.34-4.62.5-7.21,10.33-4.6,15.37-13.54,17.49-24.19,3.26-16.33,7.87-32,17.42-46.09,26.51-39,64.64-52.21,110-49.29a125.93,125.93,0,0,1,31.22,6.37Q551.9,125.79,564.25,174c2.87,11.26,5.33,22.63,7.61,34,1.13,5.65,3.34,10.3,8.47,13.21,5.51,3.13,4.43,6.6.1,9.42-8.61,5.63-10.33,14.12-11.4,23.41-3.68,31.77-13.34,60.71-41.18,80.2C507,348.87,482.89,352.19,457.28,353.23Zm-39.77-90.56c.71,14.78,4.82,30.74,15.21,44.26,9.26,12,22.63,15.18,37.07,12.75,14.16-2.38,21.91-11.79,25-25.39,1.38-6,3.33-12,4.34-18.07,2.68-16.27,2.92-32.09-11-44.34-3.66-3.21-4.05-6.15.17-9.47,3.58-2.8,5.34-7.06,6.41-11.31,4.64-18.27,1.47-35.9-5.52-52.94-2.29-5.58-7.29-9.28-12.63-12.22-8.48-4.67-17.66-5.55-27.15-5.37-6.6.13-12,2.88-15,8.28-10.34,19.08-18.46,38.88-13.81,61.32,2.62,12.63,3,25.08-1.51,37.38C417.55,251.77,417.74,256.19,417.51,262.67Zm134.24-37.35c0-1.92-8.22-10.15-10.1-10.09s-10.53,8.81-9.79,10.25a21,21,0,0,0,9.67,9.56C543.23,235.86,551.73,227.45,551.75,225.32Zm-157.44-.45c-.15-2.1-7.2-8.78-9.28-8.8-2.41,0-10.22,7.37-9.38,9.36,1.72,4.11,4.73,7.49,9.2,8.7C387.24,234.78,394.48,227.27,394.31,224.87Z"/><path class="cls-15" d="M95.47,220.72c1.49,3.31,3,6.57,4.35,9.81,14.82,34.29,29.48,68.66,44.31,103,1.89,4.38,3.64,9.82,9.47,9.84,5.05,0,6.79-4.8,8.85-8.66,8.22-15.41,15.74-31.15,23.38-46.85,10.79-22.16,21.91-44.25,36.42-67.1Z"/><path class="cls-15" d="M318,327c-14.83,3.84-18.37-4.77-18.62-16.45-.47-22.33-.44-44.67-.51-67,0-6.75,2.29-12.67,8.74-15.61,5.21-2.37,6.94-4.73,6.56-7.2H230.05c0,35.63.12,68.68-.12,101.69-.06,8.22-5.43,11.63-13.53,12-4.13.19-10.63-5.56-12.14,2.27-1.34,6.92,3.68,12.14,10.16,14.19,11.33,3.57,23.82,4.94,34.24-.14,11.93-5.8,21.48-3.95,33,.44,17.91,6.85,35.15-1.07,41.22-16.64C324.86,329.3,325.17,325.12,318,327Z"/><path class="cls-15" d="M101.16,332.32C88,332.06,84.59,322,84.39,312.4c-.59-30-.44-60-.35-91.68h-45c-1,7.29.75,14.4,9.17,21.45,1.13,1,1,3.7,1,5.61.12,23.79.41,47.59.08,71.37-.12,8.74-3.22,16.25-13.52,18-3,.49-7.71-1.87-8.5,3-.7,4.33,3,7.21,6.43,8.81,3.86,1.82,8.46,3.73,12.47,3.27,15.2-1.77,30.25-3.83,45.68-2,3.77.45,8.2-2.52,12-4.61a7.84,7.84,0,0,0,3.92-8.73C107.06,333.54,104.26,332.39,101.16,332.32Z"/><path class="cls-15" d="M1262.18,327.56c-6.5-2-10-5.48-10-12.33,0-23.31.59-46.65-.57-69.9-.59-11.92,17.35-11.89,13.77-20.29a22.58,22.58,0,0,0-2.59-4.32l-206.17,4.54c14.94,5.8,10.18,9.65,10.25,23,.12,21.85.19,43.7.08,65.55-.07,13.52-6.47,20.87-20.68,20.14-3.19-.17-7.49-2.06-9,2.2-1.7,4.93,1.94,8.32,5.66,10.71,13.68,8.8,28.1,6.08,41.85.88,6-2.27,10.56-3,16.32-.14,16.5,8.12,32.09,6.14,46-5.87,4.65-4,8.35-4.3,12.26.48,10.85,13.24,24.72,12.11,38.54,7,8.4-3.09,15.35-2.77,23.56.78,14.25,6.17,33.52,1.28,43-9.35C1269.32,335.27,1270.62,330.13,1262.18,327.56Zm-86.33-7.18c.26,9.85-4.41,12.46-13.58,11.53-22.6-2.3-23.94-3.61-24.44-26.47-.4-18.37-.78-36.77-1.89-55.11-.59-9.71,3.26-12.51,12.52-12.75,27.5-.73,27.49-1.06,27.51,26.14q0,10.9,0,21.79h-.19C1175.78,297.13,1175.55,308.76,1175.85,320.38Z"/><path class="cls-15" d="M828.55,314.64c-7.79-.57-13.35-4.74-17.64-11.32q-27-41.38-54.23-82.57H597.49c-3.55,2.67-1.71,5.11,2.86,7.91,7.29,4.48,10.52,11.24,10.52,19.56q0,34.95-.19,69.89c-.08,11.16-6.21,15.66-17,14.5-2.76-.3-5.59-2.25-8.1.57C597,348.11,612.88,353.82,631.54,348c8.28-2.61,15.06-3.21,23.52,0,14.86,5.7,35.31.24,42.94-10,2.51-3.37,8.21-9.9-.32-10.83-14.69-1.6-15.4-12.22-15.82-21.78-1-22.25-.3-44.58-.3-71.66,20.67,30.3,38.34,57.36,54.32,85.55,14.22,25.07,41.9,36.16,69.68,28.38a48.75,48.75,0,0,0,27.92-19.76C838.2,321,840.22,315.49,828.55,314.64Z"/><path class="cls-15" d="M489.54,220.72c-.27.14-.52.28-.81.41-2.77,1.22-2.64,3.87-.38,5.84,22.86,19.92,13.74,44,8.1,67.09-6.39,26.2-32.93,28.86-50,21.53-9.79-4.2-16.24-12.46-20.2-22-6.79-16.36-12-35.14-6.42-50.9a51.58,51.58,0,0,0,2.93-22H330.21a39.22,39.22,0,0,1-6.12,2.39c15.83,9.89,20.62,22.65,23.27,36.92,3,16.21,6.3,32.3,14.84,46.94,17,29.2,44.42,38.62,75.77,41.56C511.13,355.39,563,329.11,569.91,246c.64-7.77,3.63-13.86,10.28-18.26,2.49-1.65,6.37-4.48,4.3-7Z"/><path class="cls-15" d="M1551.25,327.2c-8.16,3.21-12.2-1.64-14.33-8-8.28-24.83-16.17-49.79-24.09-74.74-2.26-7.12-1.57-13.64,5.75-17.61,4.23-2.3,5.58-4.31,5-6.11h-98.8c.49,1.69,1,3.38,1.45,5.07,1.65,5.86-.59,9.6-6.82,9.88-8.18.37-16.37.38-24.56.35-6.38,0-8.67-3.26-6.72-9.41.63-2,1.25-3.92,1.88-5.89h-53.7a9.5,9.5,0,0,0,2.64,2.6c13.12,9.38,10.69,22.1,7.55,34.05-4.67,17.81-11.67,35-16.78,52.69-4.7,16.27-14.77,24.46-31.61,24.28-3.46,0-7.23-.67-8.26,3.73-.85,3.65,1.29,6.67,4,8.85,7.39,6,16,6.14,24.87,4.71,13.26-2.13,26.1-6.09,40-1,7.9,2.88,16.13-1.86,22.63-7.42,2.66-2.27,4.25-5.6,3.32-9.13-1.27-4.85-5.12-3.24-8.37-2.58-5.9,1.18-9.38-1.46-10.76-7-4.48-18,1.45-34.48,7.94-50.73,1.63-4.09,6.34-4,10.25-4q23.29-.2,46.59-.25c5.08,0,10,.75,12,6.3,4.78,13.71,10,27.32,13.71,41.34,3.35,12.7-3.28,19.31-16.64,18.12-3.71-.34-7.34-1.47-13.09-2.67,11.21,22,39.31,30.8,58,17.54,11.19-7.94,18.32-7.08,29.22-.65,14.49,8.55,39,.72,44.58-12.33,1.29-3,3.22-6.42,1.08-9.67S1553.78,326.2,1551.25,327.2Z"/><path class="cls-15" d="M1024.25,220.72,854,220.06c10.93,19.06,29,31.16,52.22,34.4,16.85,2.34,34.11.2,50.6,5,21.77,6.39,27.81,29.74,11.59,45.6s-36.38,17-57.11,12.83-33.06-17.3-37.77-37.78c-.87-3.79-1.7-7.58-2.69-11.34-2.26-8.6-6.51-8.27-12.39-3-9.36,8.39-11.48,19.47-9.43,30.63,1.65,9,.73,16.82-1.48,25.45-3.47,13.57,1.2,24.88,13.47,32.44,4.16,2.57,8.36,4.87,8.44-3.31.16-14.24,9.13-15.71,19.91-12.88,11.92,3.13,24,3.59,36.12,3.43,5.82,0,11.66.23,17.48,0,64-3,103.78-54.41,82.91-116.58C1025.42,223.49,1024.84,222.1,1024.25,220.72Z"/><path class="cls-16" d="M317.82,325c-14.83,3.84-18.36-4.77-18.61-16.45-.47-22.33-.45-44.67-.52-67,0-6.75,2.3-12.67,8.74-15.61,4.54-2.06,6.43-4.13,6.59-6.25H264.68A13.23,13.23,0,0,1,270.25,231V345.79a66.94,66.94,0,0,1,11.19,3.38c17.91,6.85,35.16-1.07,41.23-16.64C324.7,327.31,325,323.14,317.82,325Z"/><path class="cls-16" d="M199,219.08l-75.82-.15c6.18,15,12.72,29.28,18.67,44.28,4.75,12,9.83,23.58,15.08,35.12C169.41,271.07,182.88,244.68,199,219.08Z"/><path class="cls-16" d="M107.61,334.92c-.71-3.36-3.52-4.52-6.62-4.58-13.18-.26-16.57-10.28-16.76-19.92-.59-29.68-.44-59.42-.35-90.73H67.67V348a126,126,0,0,1,24.08.27c3.77.45,8.2-2.52,11.94-4.61A7.82,7.82,0,0,0,107.61,334.92Z"/><path class="cls-16" d="M1261.11,328.28a15.3,15.3,0,0,1-10.65-14.91c-.06-23.3.28-47.06-.88-70.31-.6-11.93,19.25-11.6,15.66-20a19.48,19.48,0,0,0-1.92-3.37l-41.25-.78c1,.46-.18.14-1.23,0a8.85,8.85,0,0,1,.24,7.06,2.28,2.28,0,0,1,0,.27V345.33h0c14.25,6.16,29.94,5.62,39.38-5C1265.29,334.9,1269.54,330.85,1261.11,328.28Z"/><path class="cls-16" d="M1145.64,329.79a3.73,3.73,0,0,1-2.09-.92A9.5,9.5,0,0,1,1142,328c-4.1-3.3-4.32-7.52-4.59-20-.3-13.6-.59-27.2-1.17-40.79-.44-9.1-.57-11.67-.6-13.48a8.27,8.27,0,0,1-.08-1.14V226.37a8.34,8.34,0,0,1,.28-2.18h-39.77a13.31,13.31,0,0,1,4.77,10.7V343.32c18.52,6.77,23.2,8.53,39.91-1.25,1.36-.8,8.34-5.5,9.43-6l.28-5.46c-.88-.07-2.24.16-2.94-.15A11.71,11.71,0,0,1,1145.64,329.79Z"/><path class="cls-16" d="M696,325.26c-12.49-3.16-15-1.13-15.67-11-1.25-17.41-1.45-12-1.34-34.54l1.76-48.8c0-.34,0,1.06-.42-4.38-.22-1.65.28,3.56-.25-3V220c2.51-.19,2-.72,2-.9l-36.74.07.25,122c3.18.15,8.5,4.13,12.28,4.13,18.39,0,14.6,2.65,31-2.51C692.9,341.51,707.45,328.16,696,325.26Z"/><path class="cls-16" d="M828.87,314.27a27.81,27.81,0,0,1-20.29-11.89c-17.78-27.27-36-56.17-53.92-83.31H716.44c3.75,1.76,3.87,1.11,4.89,4.87,3.17,2.14-.15-.89,9.27,13,.63.62,6.72,9.43,7.27,10.2,13.2,18.24,19.34,29.15,32.17,47.64,11.76,16.93,25.34,31.2,36.87,48.25,10.54-3.43,17.5-7.56,23.93-16.92C835.56,319.29,840.54,315.12,828.87,314.27Z"/><path class="cls-16" d="M488.29,220.77c-1.78,1.36,8.89,9.39,10,11.73,12.42,25.1,5.52,36.88.51,59.94-5.73,26.35-35.3,31.27-52.39,23.94-9.78-4.2-19.73-17.05-23.69-26.57-6.79-16.36-10.13-33-4.51-48.76A51,51,0,0,0,421,220l-40.81-.31c3.53,2.26,5.82,7.18,5.82,12.66l.22,42.74a19,19,0,0,0,.33,4.55,65.44,65.44,0,0,0,.83,6.64c.05,1.59.2,1,.64,3.21.16.46.35.88.48,1.38,8.92,36.36,50,37.74,81,37.23,16.31-.26,34.66-1.36,48.85-10.32,10.22-6.45,16.63-17.06,21.33-28.42A21.42,21.42,0,0,0,541,283l1.89-50.63c0-6.33,1.39-10.62,5.78-12.66Z"/><path class="cls-16" d="M1499.28,296.79C1493.59,276.1,1487.64,250,1481,227c-1.77-6.14-2.14-3.21,1-7.31h-57.12c.39,1.37.79,2.74,1.18,4.12,1.64,5.85-.6,9.6-6.83,9.88-8.17.37-16.37.38-24.55.35-6.39,0-8.68-3.26-6.72-9.41.52-1.64,1-3.29,1.57-4.94h-18.75c1.29,2.12.8,4.84.38,8.19-2.83,22.68-11.47,43.71-17.85,65.55-5,17.16-9.81,36.84-18.33,53.4,7.68-1,15.44-1.15,23.56,1.81,7.89,2.89,16.12-1.85,22.63-7.41,2.66-2.28,4.25-5.6,3.32-9.13-1.28-4.86-5.13-3.24-8.37-2.59-5.9,1.19-9.38-1.45-10.76-7-4.49-18,1.45-34.48,7.93-50.73,1.64-4.09,6.35-4,10.25-4.05q23.29-.21,46.6-.25c5.07,0,12.22-.07,14.15,5.48,4.78,13.71,10,30.44,13.7,44.45,3.35,12.7-5.35,18.24-18.71,17.05-3.71-.34-4.62-1-10.36-2.18,11.21,22,39.5,25.24,58.19,12,11.19-7.93,15.28-3.23,26.18,3.2,1.38.81,2.08-.46,3.62.06A415.7,415.7,0,0,1,1499.28,296.79Z"/><path class="cls-16" d="M987,235.65c-5.56-9-14.19-12-23.89-16l-13.06-.14c-5.67,0,.54-1.27-14.1-1.13H896.21v1.27l-38.17.92c11.05,17.77,25.14,26.86,47.46,30,16.85,2.34,38.14,1.33,54.64,6.18,21.77,6.4,25.59,32.77,9.36,48.63s-38.28,18.71-58.65,13c-22.8-6.35-28.41-10-37.1-30.08-1.55-3.56-2-12.95-3-16.71-2.26-8.6-5.14-10.62-11-5.34-9.36,8.38-11.07,18.24-9,29.41,1,5.39,1.92,5.37,1.34,10.36,17.14,7.81-2.09-1.21,14.1,5.79,28,12.09,30,16.16,64.94,15.84,26.55.32,42.94-6.63,48.14-13.44C987.5,303.41,993,294,995.5,279.09,998.25,262.8,995.57,249.36,987,235.65Z"/><path class="cls-17" d="M26.71,109.93c13.47,7.32,21.12,18.91,21.89,33.89.95,18.39,3.07,37.37-2.68,55-2.54,7.79-6.25,15.29-7.17,22.6h45c0-8.3,0-16.67,0-25.22,4.33,9.55,8.05,17.58,11.49,25.22H221.84c2.55-4,5.17-8,7.94-12.1v12.1H314c-.25-2.44-2.63-5-5.9-7.68a24.72,24.72,0,0,1-9.38-19c-.25-19.9-.17-39.81-.1-59.72,0-7.55,2.83-13.25,11.1-14.71,3.77-.66,8.25-.54,8.16-6.15-.06-4.36-3.08-7-6.29-9.24-11.82-8.4-23.34-5.19-33.78,2.17-6.49,4.57-10.8,4.89-17.91.52-15.06-9.27-31-6.82-49-.57,9.08,7.94,20.25,12.24,12.82,25.55-13.73,24.58-26.69,49.58-39.83,74.48-4.12,7.82-7.26,8.29-11-.31-10.84-24.91-21.94-49.72-33-74.55-2.4-5.39-2.63-10.34,2.53-14.36,8.56-6.67,2.65-10.94-2.9-14.23a33.88,33.88,0,0,0-32.27-1.47c-12.51,5.76-23.83,5.2-36.19-.32a62.77,62.77,0,0,0-42.73-3.62c-3.21.86-7.51.88-8.06,5S23.81,108.35,26.71,109.93Z"/><path class="cls-17" d="M1045.4,221.6a7.45,7.45,0,0,1,1.09.46h216.69c-4.33-6.4-11.69-11.7-11.72-20.93-.08-22.82-.11-45.64,0-68.45,0-6.91,2.76-12.28,10.32-13.83,4-.82,9.8.84,10.36-5.4.6-6.75-4.22-10.62-9.76-13.1-13.29-5.95-26.12-2.86-37.25,4.74-6.7,4.58-11.35,5.16-18.14,1-13.1-8-27.16-5.83-40.85-1.54-4.56,1.43-10.88,6.59-3,9.61,13.9,5.32,12.27,15.74,12.38,26.27.15,14.57.36,29.14.15,43.7-.36,24.94,5.93,24-24,23.86-1,0-2-.13-2.92,0-10.21.9-13.63-4.09-13.41-13.89.4-18.44.26-36.9-.12-55.35-.2-9.37,1.7-16.89,10.4-22.29s5.33-10.25-2.46-12.72c-10.86-3.46-21.26-1.46-30.38,5.25-6.31,4.64-11.48,5.26-18.14,0-13.81-10.87-29.49-6.74-44.76-3.8-2.78.54-6.3,1.7-5.88,5.2.22,1.78,2.82,4,4.82,4.73,9.37,3.61,12.21,11.77,15.09,20.17,4.71,13.75,2.21,27.93,2.8,41.92C1067.45,195.17,1069.86,213.86,1045.4,221.6Z"/><path class="cls-17" d="M590.05,116.63c16.51,1.4,20.31,12.78,20.55,26.56.33,18.92.19,37.85.4,56.78.09,8.33-3.84,15.69-12,19.41-1,.48,3,.88,2.32,1.34l155.41.1c-4.5-6.8-9-13.62-13.49-20.4s-4.81-11.61,1.33-17.63c18.71-18.33,37-37.11,55.34-55.81,5.07-5.17,10.69-8.13,18.18-6.85,3.54.6,8.16,3.21,10.08-2.06,1.72-4.7-1.5-8.33-4.76-11.35-4.08-3.8-9.39-6.22-14.62-5.53-16.16,2.11-32.13,4.33-48.35,0-3.27-.87-9.88,1.69-5.25,6,13,12.18,2.14,18.35-4.92,25.88-5,5.31-9.68,10.88-14.91,15.93-17.28,16.68-34.75,33.18-53.22,50.78,0-23.48-.25-46.52.15-69.55.12-6.72,4.76-10.19,11.72-10.36,3.07-.07,7.37,2.35,8.8-2.35,1.32-4.35-2.32-7.11-4.92-9.88-10-10.63-26.17-10.81-44,.85-6.71,4.39-10.94,4.88-17.82.18-14.92-10.19-30.91-10.2-46.67-.95-2.08,1.22-4.61,2.31-4.62,5.06C584.84,116.05,587.65,116.43,590.05,116.63Z"/><path class="cls-17" d="M420.16,204.42c-3.17-19.66,2.1-40.93,13.34-58.38,12.43-19.28,47.07-13.8,58.06,8.39,5.92,11.95,7.67,24.91,7.6,40.09-1.08,8.24.18,13-5.33,24.53l87.29,1.2c-.42-.39,3-.31,2.29-.68-11.24-5.44-11-15.87-13.12-24.86-5.45-23.75-10.19-47.64-28.53-65.79-37.27-36.88-116.6-38-155.66-2.85-19.52,17.56-32.48,38.11-37.11,64.09-2.22,12.51-5.55,24.76-19.5,31.28h93C422.14,216,421.14,210.54,420.16,204.42Z"/><path class="cls-17" d="M1336.6,222.06h52.83l16.36-51.38a329.31,329.31,0,0,1,18.92,51.38h98.75c0-2-2.28-3.67-6-5.2-7.94-3.24-15.16-7.87-18.18-15.88q-13-34.72-24.65-70c-2.79-8.42,1.34-12.86,10.46-12.62,3.39.09,7.77,4.56,10.11-1.06,1.64-3.94-1.31-7.41-3.21-10.74-4.42-7.74-11-12-20-12.6-12.44-.86-25,.11-34.8,7.83-11.88,9.35-22.51,8-34.32,1-14.65-8.73-28.91-5.59-42.73,2.43-3.31,1.92-7.88,3.78-6.74,8.3,1.21,4.74,5.74,1.8,8.8,1.84,17.61.21,25.2,9.31,20.6,26.06-4.36,15.9-9.93,31.46-14.51,47.31-4,13.79-9.52,25.49-26.1,27.25C1338.34,216.37,1333.05,218.19,1336.6,222.06Z"/><path class="cls-17" d="M894.59,222.06c2.33,0-1.75-.79,0,0h129.72c-5.53-13.67-15.19-22.71-29.36-27-9.24-2.81-18.91-4.26-28.43-6.06-13.74-2.61-28-2.28-40.83-9.58-9.22-5.26-15.49-11.49-14.38-22.92,1.16-12,8.15-19.89,18.84-23.59A54,54,0,0,1,956,130.18c19.17,3,35.84,9.45,42,30.49,1.26,4.35-.1,10.79,6.56,11.46,6.06.6,10.6-4,12.35-8.74,7.62-20.89,6.62-42.83,5.77-64.54-.19-4.79-5.65-8.35-9.11-2.47-11.48,19.48-27.63,13.2-43.73,9.21-32.39-8-63.48-5.54-92.66,11.84-24.76,14.75-39,48.87-32.67,78.31a98.17,98.17,0,0,0,10.11,26.34Z"/><path class="cls-18" d="M762.45,102.84c-3.27-.86-10.26,1.57-5.62,5.91,13,12.18,3,17.62-4.07,25.16-5,5.3-10.81,10.74-16,15.79-17.28,16.68-37.17,36.29-55.65,53.89,0-23.48-.65-50.16-.25-73.19.12-6.72,2.58-11.37,9.53-11.53,3.07-.08,8.85,2.7,10.27-2,1.32-4.35-1.91-5.75-4.51-8.52-10-10.63-23.17-10.17-41,1.49-3.27,2.13-7.13,3.7-9.82,3.84V218.46l32.59.17c.33,0,8.33,0,8.69,0l28-.09c-1.3-2.17-10.12-14.34-10.28-15.43,18.69-18.49,21.48-19.85,27.29-25.66,21.11-21.15,2.31-1.5,14.2-13.74,13.22-13.59,24.53-28.93,38.33-41.94a16.11,16.11,0,0,1,2-1.6c6.31-6.59,11.31-9.51,17.9-15.94C788.83,106.22,777.7,106.87,762.45,102.84Z"/><path class="cls-18" d="M200.66,219.09c.46-1.46-.13.46.27-.84.11-.17,0-.11.11-.4-.19-1,34.24-61.7,34.24-62.81L221,137.3c-5.65,10.69-30.18,60-35.82,70.68-4.12,7.82-10.36,9.1-14.1.5-10.85-24.91-22.53-52.41-33.56-77.25-2.4-5.39-.28-9.5,4.88-13.52,8.56-6.66-2.26-13-8.41-14.95-15.09-4.67-19.18-.35-28.51,2.51a3.31,3.31,0,0,0-1,.46c-1.34,1-12.06,3.87-21.42,2.23V161.8l38.42,57.35,12.52.07c1-.2,26.35-.09,27.49-.09l37.78,0Z"/><path class="cls-18" d="M272.08,111.87c-3.83,1.24-16.35-4.63-21.65-6.71-17.38-6.8-19.05-1.79-39.62,1.74,9.08,7.94,20.25,12.24,12.82,25.55-1.71,3.07-3.38,6.15-5.07,9.23,6,1.23,11.17,5.77,11.17,13.67l2.32,53.9h0c0,4.39.08,5.45.08,9.76l39.95,0Z"/><path class="cls-18" d="M83,192.35V108c-4.78-.9-5.79-.91-9.18-2.57-1.2-.58-5.29-2.1-6.52-2.57V222.56H83.77c0-8.3,0-16.7,0-25.25A15.35,15.35,0,0,1,83,192.35Z"/><path class="cls-18" d="M1100.83,220.24l.69-105.38c-4.17-1.68-5.57-5.16-10.11-7.27-16.54-7.7-16.23-6.21-31.5-3.26-2.78.53-13.79,2.18-13.37,5.68.21,1.78,9.45,6.41,10.86,8,7.27,8.25,6.07,8.73,8.94,17.13,4.71,13.75,3,38.88,2.15,52.38-1.22,19.4,3,23.06-20.57,33.18,1.18.43-2.52.76-1.44,1.22h53.94C1100.4,221.61,1100.83,220.58,1100.83,220.24Z"/><path class="cls-18" d="M1258.1,118.2c4-.82,11.14,1.38,11.7-4.85.6-6.76-2.65-9.55-8.19-12-13.29-5.95-24-2.76-35.09,4.85a49.67,49.67,0,0,1-4.68,2.84c-.06.93-.74.06-1,1V220c0,.67,0-.07,0,.54l39.77.58c-4.34-6.4-10.5-10-10.53-19.22-.08-22.82-.14-46,0-68.85C1250.12,126.16,1250.54,119.75,1258.1,118.2Z"/><path class="cls-18" d="M1478.25,215.48c-9.49-20-9.49-20-14.22-31.38-10.76-25.89-8-22.7-31.13-76.76a29.91,29.91,0,0,1-21.89,1.55c-6.1,28.11-17.9,53.43-27.53,80.4l-2.59,7.23c-2.93,7.56-1.94,4.64-2.31,6,0,.34-6,14.09-6,14.42-2.5,8.2,1-1.86.35,3.1l17.21-.21c5.16-16.2,10.12-34.55,16.09-53.3a353.07,353.07,0,0,1,19.75,53l54.74.31C1480.19,218.33,1478.32,217,1478.25,215.48Z"/><path class="cls-18" d="M994.65,197.32a260.42,260.42,0,0,0-27.82-6.76c-13.74-2.61-29.46-1.81-42.27-9.11-9.22-5.26-17-12.32-15.88-23.75,1.16-12,7.36-22.1,18-25.8,8.14-2.82,20.61-4.64,29.46-3.26,19.17,3,34.25,5.28,40.36,26.32,1.26,4.35,2.74,14.63,9.39,15.29,6.06.61,8.28-3.61,10-8.39,3.74-10.27,3.55-20.05,4.17-30.67-22.27-6.77-16.89-7.45-42-10.21-16.87-1.86-45.58-4.51-63.17,2.6-4.58,1.85-16.09,7.3-20.3,14.7A104.63,104.63,0,0,0,889,157.7c-1.93,14.42-1.11,26.7,4.2,40.48,3.88,10.55,3.58,18,19,20.56,21.39,3.51,11.85,1.54,26.15,2.52l83.07.68C1015.94,208.27,1008.83,201.64,994.65,197.32Z"/><path class="cls-19" d="M496.83,218.38h9.36c1.1,0,15.49.15,16.46.33,0,0,2,.13,3.68.09l16.58.25c-1.12-2-2.18-1.7-2.18-4.52V162.81a16.15,16.15,0,0,1-1.32-5.41c-4.7-11.36-11.11-22-21.33-28.42-14.19-9-32.55-10.06-48.86-10.32-31-.51-72,.87-81,37.23-.13.5-.32.92-.48,1.38a16.47,16.47,0,0,1-.92,6.35,17.25,17.25,0,0,1-.45,4.17,16.84,16.84,0,0,1-.43,3.88v43.8c0,2.27.75.55,0,2.27.37,0,.41,1.06.8,1.06l33.09.16c-.08-4.72.44-5.31-1-11-3.95-15.67-1.28-33.78,5.51-50.14,4-9.52,11.21-19.69,21.06-23.73,8.15-3.34,32.08-4.68,45.62,14.37C497.56,157.58,506.61,197.07,496.83,218.38Z"/><path class="cls-20" d="M0,76.26V269.78H1282.79a6.62,6.62,0,0,1,1-.38l2.11-.28.7-.06a9,9,0,0,1,2.68.34,6.78,6.78,0,0,1,1,.38h373.4V76.26Z"/><rect class="cls-10" x="262.93" y="213.78" width="16.74" height="16.74" transform="translate(-77.62 256.91) rotate(-45)"/><rect class="cls-10" x="636.94" y="212.72" width="16.74" height="16.74" transform="translate(32.68 521.06) rotate(-45)"/><rect class="cls-10" x="718.28" y="212.44" width="16.74" height="16.74" transform="translate(56.69 578.49) rotate(-45)"/><rect class="cls-10" x="1212.53" y="213.57" width="16.74" height="16.74" transform="translate(200.66 928.31) rotate(-45)"/><rect class="cls-10" x="1473.77" y="212.99" width="16.74" height="16.74" transform="translate(277.58 1112.87) rotate(-45)"/><rect class="cls-10" x="1361.82" y="213.44" width="16.74" height="16.74" transform="translate(244.47 1033.84) rotate(-45)"/><rect class="cls-10" x="534.54" y="213.78" width="16.74" height="16.74" transform="translate(1.93 448.96) rotate(-45)"/><rect class="cls-10" x="377.65" y="213.78" width="16.74" height="16.74" transform="translate(-44.02 338.03) rotate(-45)"/><rect class="cls-10" x="1092.38" y="213.88" width="16.74" height="16.74" transform="translate(165.25 843.44) rotate(-45)"/><polygon class="cls-10" points="941.1 233.86 952.71 222.25 941.1 210.64 941.1 210.41 940.99 210.53 940.87 210.41 940.87 210.64 929.26 222.25 940.87 233.86 940.87 234.09 940.99 233.97 941.1 234.09 941.1 233.86"/><rect class="cls-10" x="57" y="213.78" width="16.74" height="16.74" transform="translate(-137.94 111.29) rotate(-45)"/></g></g></svg>