<svg width="508" height="185" viewBox="0 0 508 185" fill="none" xmlns="http://www.w3.org/2000/svg">
<path d="M472.722 170.078H33.8981C27.9977 162.241 23.2421 158.844 12 154.745V29.2995C23.4947 24.568 28.4441 21.0851 33.8981 13H472.722C478.134 21.2387 483.313 24.766 496 29.2995V154.745C484.108 158.103 479.031 161.426 472.722 170.078Z" fill="#EBDEC7"/>
<path d="M506.009 24.4575C495.091 21.278 479.814 12.0023 476.139 1H25.0187C26.5584 5.93843 6.23484 23.2229 1 20.3422V157.384C11.666 160.943 24.6651 173.239 28.098 183.722H478.295C481.372 170.793 495.03 158.575 506.624 157.384V31.8652L506.009 24.4575Z" stroke="white" stroke-width="1.84759"/>
</svg>
