<svg width="326" height="172" viewBox="0 0 326 172" fill="none" xmlns="http://www.w3.org/2000/svg">
<mask id="path-1-inside-1_1_18" fill="white">
<path fill-rule="evenodd" clip-rule="evenodd" d="M303.191 0.11276L22.2849 1.56527C22.247 13.7656 12.6563 23.6732 0.77731 23.7347C0.714569 23.735 0.651889 23.735 0.589271 23.7348L0.797382 63.9823C0.860018 63.9814 0.922718 63.9808 0.985482 63.9805C12.9272 63.9187 22.6594 73.8309 22.723 86.1199C22.7865 98.4089 13.1573 108.421 1.21559 108.483C1.15283 108.483 1.09013 108.483 1.02749 108.483L1.2356 148.73C1.29817 148.729 1.36081 148.729 1.42352 148.728C13.3653 148.667 23.0975 158.579 23.161 170.868C23.1614 170.932 23.1614 170.997 23.1612 171.061L304.067 169.609C304.066 169.545 304.065 169.48 304.065 169.416C304.001 157.127 313.631 147.114 325.572 147.053C325.614 147.052 325.656 147.052 325.698 147.052L325.76 147.053L325.552 106.805C325.49 106.806 325.427 106.807 325.364 106.807C313.422 106.869 303.69 96.9566 303.627 84.6676C303.563 72.3786 313.192 62.3663 325.134 62.3046C325.197 62.3043 325.26 62.3042 325.322 62.3044L325.114 22.0571C325.051 22.058 324.989 22.0586 324.926 22.0589C313.047 22.1203 303.354 12.3123 303.191 0.11276Z"/>
</mask>
<path fill-rule="evenodd" clip-rule="evenodd" d="M303.191 0.11276L22.2849 1.56527C22.247 13.7656 12.6563 23.6732 0.77731 23.7347C0.714569 23.735 0.651889 23.735 0.589271 23.7348L0.797382 63.9823C0.860018 63.9814 0.922718 63.9808 0.985482 63.9805C12.9272 63.9187 22.6594 73.8309 22.723 86.1199C22.7865 98.4089 13.1573 108.421 1.21559 108.483C1.15283 108.483 1.09013 108.483 1.02749 108.483L1.2356 148.73C1.29817 148.729 1.36081 148.729 1.42352 148.728C13.3653 148.667 23.0975 158.579 23.161 170.868C23.1614 170.932 23.1614 170.997 23.1612 171.061L304.067 169.609C304.066 169.545 304.065 169.48 304.065 169.416C304.001 157.127 313.631 147.114 325.572 147.053C325.614 147.052 325.656 147.052 325.698 147.052L325.76 147.053L325.552 106.805C325.49 106.806 325.427 106.807 325.364 106.807C313.422 106.869 303.69 96.9566 303.627 84.6676C303.563 72.3786 313.192 62.3663 325.134 62.3046C325.197 62.3043 325.26 62.3042 325.322 62.3044L325.114 22.0571C325.051 22.058 324.989 22.0586 324.926 22.0589C313.047 22.1203 303.354 12.3123 303.191 0.11276Z" fill="white"/>
<path d="M22.2849 1.56527L22.258 -3.64587L17.0898 -3.61915L17.0737 1.54906L22.2849 1.56527ZM303.191 0.11276L308.401 0.0427358L308.332 -5.1251L303.164 -5.09837L303.191 0.11276ZM0.589271 23.7348L0.60804 18.5236L-4.64905 18.5047L-4.62186 23.7618L0.589271 23.7348ZM0.797382 63.9823L-4.41375 64.0092L-4.38657 69.2662L0.870024 69.193L0.797382 63.9823ZM1.02749 108.483L1.04624 103.272L-4.21083 103.253L-4.18365 108.51L1.02749 108.483ZM1.2356 148.73L-3.97554 148.757L-3.94836 154.014L1.30828 153.941L1.2356 148.73ZM23.1612 171.061L17.95 171.045L17.9337 176.3L23.1882 176.272L23.1612 171.061ZM304.067 169.609L304.094 174.82L309.347 174.793L309.278 169.54L304.067 169.609ZM325.698 147.052L325.709 141.841L325.701 141.841L325.698 147.052ZM325.76 147.053L325.749 152.264L330.999 152.275L330.971 147.026L325.76 147.053ZM325.552 106.805L330.763 106.778L330.736 101.521L325.48 101.594L325.552 106.805ZM325.322 62.3044L325.303 67.5156L330.56 67.5346L330.533 62.2775L325.322 62.3044ZM325.114 22.0571L330.325 22.0302L330.298 16.7732L325.041 16.8464L325.114 22.0571ZM22.3118 6.7764L303.217 5.3239L303.164 -5.09837L22.258 -3.64587L22.3118 6.7764ZM0.804256 28.9458C15.6849 28.8689 27.4497 16.5005 27.4961 1.58148L17.0737 1.54906C17.0442 11.0308 9.62767 18.4776 0.750365 18.5235L0.804256 28.9458ZM0.570501 28.946C0.648388 28.9463 0.726307 28.9462 0.804256 28.9458L0.750365 18.5235C0.702832 18.5238 0.65539 18.5238 0.60804 18.5236L0.570501 28.946ZM6.00852 63.9553L5.80041 23.7079L-4.62186 23.7618L-4.41375 64.0092L6.00852 63.9553ZM0.958536 58.7693C0.880569 58.7697 0.802637 58.7705 0.72474 58.7716L0.870024 69.193C0.917398 69.1923 0.964866 69.1918 1.01243 69.1916L0.958536 58.7693ZM27.9341 86.0929C27.8564 71.0677 15.9181 58.692 0.958536 58.7693L1.01243 69.1916C9.93635 69.1455 17.4625 76.594 17.5119 86.1468L27.9341 86.0929ZM1.24254 113.694C16.2021 113.617 28.0118 101.118 27.9341 86.0929L17.5119 86.1468C17.5612 95.6996 10.1126 103.226 1.18865 103.272L1.24254 113.694ZM1.00873 113.694C1.08664 113.694 1.16457 113.694 1.24254 113.694L1.18865 103.272C1.14109 103.272 1.09362 103.272 1.04624 103.272L1.00873 113.694ZM6.44673 148.703L6.23862 108.456L-4.18365 108.51L-3.97554 148.757L6.44673 148.703ZM1.39657 143.517C1.31865 143.518 1.24076 143.518 1.16291 143.519L1.30828 153.941C1.35558 153.94 1.40298 153.94 1.45046 153.939L1.39657 143.517ZM28.3722 170.841C28.2945 155.816 16.3561 143.44 1.39657 143.517L1.45046 153.939C10.3744 153.893 17.9005 161.342 17.9499 170.895L28.3722 170.841ZM28.3724 171.078C28.3726 170.999 28.3726 170.92 28.3722 170.841L17.9499 170.895C17.9501 170.945 17.9502 170.995 17.95 171.045L28.3724 171.078ZM304.04 164.398L23.1343 165.85L23.1882 176.272L304.094 174.82L304.04 164.398ZM298.854 169.443C298.854 169.522 298.855 169.6 298.856 169.678L309.278 169.54C309.277 169.489 309.276 169.438 309.276 169.389L298.854 169.443ZM325.545 141.842C310.586 141.919 298.776 154.417 298.854 169.443L309.276 169.389C309.227 159.836 316.675 152.31 325.599 152.264L325.545 141.842ZM325.701 141.841C325.649 141.841 325.597 141.841 325.545 141.842L325.599 152.264C325.631 152.264 325.663 152.264 325.694 152.264L325.701 141.841ZM325.771 141.841L325.709 141.841L325.687 152.264L325.749 152.264L325.771 141.841ZM320.341 106.832L320.549 147.08L330.971 147.026L330.763 106.778L320.341 106.832ZM325.48 101.594C325.432 101.595 325.385 101.596 325.337 101.596L325.391 112.018C325.469 112.018 325.547 112.017 325.625 112.016L325.48 101.594ZM325.337 101.596C316.413 101.642 308.887 94.1934 308.838 84.6406L298.416 84.6945C298.493 99.7197 310.432 112.095 325.391 112.018L325.337 101.596ZM308.838 84.6406C308.788 75.0879 316.237 67.5619 325.161 67.5157L325.107 57.0934C310.148 57.1708 298.338 69.6693 298.416 84.6945L308.838 84.6406ZM325.161 67.5157C325.209 67.5155 325.256 67.5154 325.303 67.5156L325.341 57.0933C325.263 57.093 325.185 57.093 325.107 57.0934L325.161 67.5157ZM319.903 22.0841L320.111 62.3314L330.533 62.2775L330.325 22.0302L319.903 22.0841ZM324.953 27.27C325.031 27.2696 325.109 27.2689 325.187 27.2678L325.041 16.8464C324.994 16.8471 324.947 16.8475 324.899 16.8478L324.953 27.27ZM297.98 0.182785C298.18 15.1007 310.072 27.347 324.953 27.27L324.899 16.8478C316.022 16.8937 308.529 9.52376 308.401 0.0427358L297.98 0.182785Z" fill="#362224" mask="url(#path-1-inside-1_1_18)"/>
<path d="M40.3865 26.5099L283.182 25.2544" stroke="black" stroke-width="1.5" stroke-dasharray="3 3"/>
<path d="M113.366 112.563L275.23 111.726" stroke="black" stroke-width="1.5"/>
<path d="M40.9955 144.366L283.791 143.111" stroke="black" stroke-width="1.5" stroke-linecap="round" stroke-dasharray="3 3"/>
<rect x="33.5554" y="34.4025" width="61.0814" height="102.143" rx="10.5" transform="rotate(-0.296262 33.5554 34.4025)" fill="#704A37"/>
<path fill-rule="evenodd" clip-rule="evenodd" d="M102.295 38.7617L123.561 52.198L102.435 65.8538L284.151 64.9142L262.884 51.4772L284.009 37.8221L102.295 38.7617Z" fill="#362224"/>
</svg>
